<svg width="104" height="104" viewBox="0 0 104 104" fill="none" xmlns="http://www.w3.org/2000/svg">
<g filter="url(#filter0_d_0_1)">
<circle cx="52" cy="52" r="33" fill="#495197"/>
</g>
<path d="M39.8837 67H38.4988L42.5044 56.0909H43.8681L47.8738 67H46.4888L43.2289 57.8168H43.1436L39.8837 67ZM40.3951 62.7386H45.9775V63.9105H40.3951V62.7386ZM52.492 67.1705C51.8102 67.1705 51.2083 66.9982 50.6863 66.6538C50.1642 66.3058 49.7559 65.8157 49.4611 65.1836C49.1664 64.5479 49.019 63.7969 49.019 62.9304C49.019 62.071 49.1664 61.3253 49.4611 60.6932C49.7559 60.0611 50.166 59.5728 50.6916 59.2283C51.2172 58.8839 51.8244 58.7116 52.5133 58.7116C53.046 58.7116 53.4668 58.8004 53.7757 58.978C54.0882 59.152 54.3262 59.3509 54.4895 59.5746C54.6564 59.7947 54.786 59.9759 54.8784 60.1179H54.9849V56.0909H56.242V67H55.0275V65.7429H54.8784C54.786 65.892 54.6547 66.0803 54.4842 66.3075C54.3137 66.5312 54.0705 66.7319 53.7544 66.9094C53.4384 67.0835 53.0176 67.1705 52.492 67.1705ZM52.6625 66.0412C53.1667 66.0412 53.5929 65.9098 53.9409 65.647C54.2889 65.3807 54.5534 65.0131 54.7346 64.5444C54.9157 64.0721 55.0062 63.527 55.0062 62.9091C55.0062 62.2983 54.9174 61.7638 54.7399 61.3058C54.5623 60.8441 54.2995 60.4854 53.9515 60.2298C53.6035 59.9705 53.1738 59.8409 52.6625 59.8409C52.1298 59.8409 51.6859 59.9776 51.3308 60.2511C50.9792 60.521 50.7147 60.8885 50.5371 61.3537C50.3631 61.8153 50.2761 62.3338 50.2761 62.9091C50.2761 63.4915 50.3649 64.0206 50.5424 64.4964C50.7235 64.9687 50.9899 65.3452 51.3414 65.6257C51.6966 65.9027 52.1369 66.0412 52.6625 66.0412ZM61.8084 67.1705C61.1266 67.1705 60.5247 66.9982 60.0027 66.6538C59.4806 66.3058 59.0723 65.8157 58.7775 65.1836C58.4828 64.5479 58.3354 63.7969 58.3354 62.9304C58.3354 62.071 58.4828 61.3253 58.7775 60.6932C59.0723 60.0611 59.4824 59.5728 60.008 59.2283C60.5336 58.8839 61.1408 58.7116 61.8297 58.7116C62.3624 58.7116 62.7832 58.8004 63.0922 58.978C63.4047 59.152 63.6426 59.3509 63.8059 59.5746C63.9728 59.7947 64.1025 59.9759 64.1948 60.1179H64.3013V56.0909H65.5584V67H64.3439V65.7429H64.1948C64.1025 65.892 63.9711 66.0803 63.8006 66.3075C63.6301 66.5312 63.3869 66.7319 63.0708 66.9094C62.7548 67.0835 62.334 67.1705 61.8084 67.1705ZM61.9789 66.0412C62.4831 66.0412 62.9093 65.9098 63.2573 65.647C63.6053 65.3807 63.8699 65.0131 64.051 64.5444C64.2321 64.0721 64.3226 63.527 64.3226 62.9091C64.3226 62.2983 64.2338 61.7638 64.0563 61.3058C63.8787 60.8441 63.6159 60.4854 63.2679 60.2298C62.9199 59.9705 62.4902 59.8409 61.9789 59.8409C61.4462 59.8409 61.0023 59.9776 60.6472 60.2511C60.2956 60.521 60.0311 60.8885 59.8535 61.3537C59.6795 61.8153 59.5925 62.3338 59.5925 62.9091C59.5925 63.4915 59.6813 64.0206 59.8588 64.4964C60.04 64.9687 60.3063 65.3452 60.6578 65.6257C61.013 65.9027 61.4533 66.0412 61.9789 66.0412Z" fill="white"/>
<path d="M57.75 42.25H53.5C53.3619 42.25 53.25 42.3619 53.25 42.5V46.75C53.25 47.4403 52.6903 48 52 48C51.3097 48 50.75 47.4403 50.75 46.75V42.5C50.75 42.3619 50.6381 42.25 50.5 42.25H46.25C45.5597 42.25 45 41.6903 45 41C45 40.3097 45.5597 39.75 46.25 39.75H50.5C50.6381 39.75 50.75 39.6381 50.75 39.5V35.25C50.75 34.5597 51.3097 34 52 34C52.6903 34 53.25 34.5597 53.25 35.25V39.5C53.25 39.6381 53.3619 39.75 53.5 39.75H57.75C58.4403 39.75 59 40.3097 59 41C59 41.6903 58.4403 42.25 57.75 42.25Z" fill="white"/>
<defs>
<filter id="filter0_d_0_1" x="0" y="0" width="104" height="104" filterUnits="userSpaceOnUse" color-interpolation-filters="sRGB">
<feFlood flood-opacity="0" result="BackgroundImageFix"/>
<feColorMatrix in="SourceAlpha" type="matrix" values="0 0 0 0 0 0 0 0 0 0 0 0 0 0 0 0 0 0 127 0" result="hardAlpha"/>
<feMorphology radius="3" operator="dilate" in="SourceAlpha" result="effect1_dropShadow_0_1"/>
<feOffset/>
<feGaussianBlur stdDeviation="8"/>
<feComposite in2="hardAlpha" operator="out"/>
<feColorMatrix type="matrix" values="0 0 0 0 0.286275 0 0 0 0 0.317647 0 0 0 0 0.592157 0 0 0 0.5 0"/>
<feBlend mode="normal" in2="BackgroundImageFix" result="effect1_dropShadow_0_1"/>
<feBlend mode="normal" in="SourceGraphic" in2="effect1_dropShadow_0_1" result="shape"/>
</filter>
</defs>
</svg>
