<svg width="24" height="24" viewBox="0 0 24 24" fill="none" xmlns="http://www.w3.org/2000/svg">
<path d="M12 0.000819928C5.37732 0.000819928 0 5.37795 0 12.0004C0 18.6229 5.37732 24 12 24C18.6227 24 24 18.6229 24 12.0004C24 10.1598 23.5835 8.41554 22.8414 6.85601L21.65 8.0474C21.425 8.27364 21.1183 8.4012 20.7992 8.40126H20.468C20.9395 9.50725 21.2008 10.7234 21.2008 12.0004C21.2008 17.0765 17.0763 21.2008 12 21.2008C6.92372 21.2008 2.79922 17.0765 2.79922 12.0004C2.79922 6.9243 6.92372 2.79989 12 2.79989C13.2773 2.79989 14.4938 3.06102 15.6 3.5327V3.20145C15.6001 2.88241 15.7277 2.57568 15.9539 2.35072L17.1445 1.15937C15.585 0.417306 13.8407 0.000819928 12 0.000819928ZM19.5891 0.000819928C19.4867 0.00387252 19.3894 0.0460353 19.3172 0.118695L16.518 2.91781C16.4806 2.95498 16.4509 2.9992 16.4307 3.04787C16.4104 3.09654 16.4 3.1487 16.4 3.20141V5.83651L11.118 11.1184C10.6338 11.6025 10.6338 12.4005 11.118 12.8847C11.6022 13.3689 12.3978 13.3665 12.882 12.8816L18.1633 7.60058H20.7992C20.8519 7.60058 20.9041 7.59019 20.9528 7.56995C21.0015 7.54971 21.0456 7.52008 21.0828 7.48271L23.882 4.68355C23.9377 4.62751 23.9756 4.55627 23.9908 4.47875C24.0061 4.40124 23.998 4.32093 23.9677 4.24798C23.9373 4.17504 23.8861 4.1127 23.8204 4.06884C23.7547 4.02498 23.6774 4.00156 23.5984 4.00153H21.7625L22.0813 3.68283C22.5655 3.19864 22.5678 2.40299 22.0837 1.9188C21.8416 1.67671 21.5206 1.55553 21.2001 1.55553C20.8795 1.55553 20.5594 1.67677 20.3173 1.9188L19.9993 2.23676V0.398552C19.9991 0.345292 19.9883 0.292602 19.9674 0.243584C19.9466 0.194565 19.9162 0.150224 19.878 0.113113C19.8398 0.0760024 19.7946 0.0468849 19.7449 0.0274861C19.6953 0.00808733 19.6424 -0.00121924 19.5891 0.000127899L19.5891 0.000819928ZM12 5.59905C8.47011 5.59905 5.59844 8.47065 5.59844 12.0004C5.59844 15.5302 8.47011 18.3986 12 18.3986C15.5299 18.3986 18.3984 15.5302 18.3984 12.0004C18.3984 10.982 18.1542 10.0217 17.7297 9.16609L15.5383 11.3574C15.5762 11.5664 15.5992 11.7807 15.5992 12.0004C15.5992 13.9838 13.9835 15.5995 12 15.5995C10.0165 15.5995 8.40078 13.9838 8.40078 12.0004C8.40078 10.017 10.0165 8.40126 12 8.40126C12.2197 8.40126 12.434 8.42426 12.643 8.46221L14.8352 6.27009C13.9795 5.84471 13.019 5.59901 12 5.59901L12 5.59905Z" fill="#8D8A8E"/>
</svg>
