<svg width="18" height="16" viewBox="0 0 18 16" fill="none" xmlns="http://www.w3.org/2000/svg">
<path d="M5.342 8.67999C5.59171 8.39354 5.3883 7.94629 5.00827 7.94629H3.87049C3.86308 7.83371 3.85893 7.72026 3.85893 7.60585C3.85893 4.77102 6.1652 2.46475 9 2.46475C10.3623 2.46475 11.6023 2.99754 12.5232 3.86545L14.1276 1.98852C12.7232 0.703738 10.9157 0 9 0C6.96841 0 5.05843 0.791165 3.62187 2.22769C2.18535 3.66425 1.39418 5.57423 1.39418 7.60582C1.39418 7.71973 1.39703 7.83318 1.40198 7.94625H0.443617C0.0635951 7.94625 -0.139851 8.39351 0.10989 8.67995L2.27183 11.1598L2.72593 11.6807L4.35631 9.81054L5.342 8.67999Z" fill="#495197"/>
<path d="M17.8894 7.23315L16.2769 5.38352L15.2734 4.23242L13.8406 5.87591L12.6573 7.23315C12.4076 7.5196 12.611 7.96685 12.9911 7.96685H14.1275C13.9416 10.6339 11.7127 12.7469 8.99929 12.7469C7.81483 12.7469 6.72278 12.3441 5.85254 11.6685L4.24805 13.5455C5.59219 14.625 7.25054 15.2117 8.99933 15.2117C11.0309 15.2117 12.9409 14.4206 14.3775 12.984C15.7286 11.6329 16.5086 9.86289 16.5966 7.96689H17.5557C17.9357 7.96685 18.1391 7.5196 17.8894 7.23315Z" fill="#495197"/>
</svg>
