<svg width="14" height="24" viewBox="0 0 14 24" fill="none" xmlns="http://www.w3.org/2000/svg">
<path fill-rule="evenodd" clip-rule="evenodd" d="M6.99999 23.5773C6.16643 22.2768 4.67822 20.3107 4.60877 18.6346H9.39116C9.32182 20.3107 7.83355 22.2768 6.99999 23.5773ZM12.0111 11.8332C12.0111 13.2566 11.8824 14.6835 11.613 16.0802L11.5092 16.6184L12.7616 17.9534C12.8715 18.0703 13.0632 18.0091 13.089 17.8488L13.9933 12.203C14.0255 12.0017 13.9405 11.811 13.7712 11.7042L11.975 10.572C11.9993 10.9993 12.0111 11.4206 12.0111 11.8332ZM0.00672903 12.203L0.911121 17.8488C0.936713 18.009 1.12861 18.0702 1.23835 17.9534L2.49083 16.6184L2.38697 16.0801C2.11759 14.6835 1.98881 13.2565 1.98881 11.8331C1.98881 11.4205 2.00065 10.9992 2.02495 10.572L0.228765 11.7042C0.0594463 11.811 -0.0254766 12.0017 0.00672903 12.203ZM0.589737 22.1343C0.589737 21.917 0.761404 21.7409 0.973137 21.7409C1.18487 21.7409 1.35654 21.917 1.35654 22.1343V23.6066C1.35654 23.8238 1.18487 24 0.973137 24C0.761404 24 0.589737 23.8238 0.589737 23.6066V22.1343ZM2.01594 20.7404C2.01594 20.5231 2.1876 20.3469 2.39934 20.3469C2.61107 20.3469 2.78274 20.5231 2.78274 20.7404V22.2126C2.78274 22.4299 2.61107 22.6061 2.39934 22.6061C2.1876 22.6061 2.01594 22.4299 2.01594 22.2126V20.7404ZM0.589737 19.5572C0.589737 19.3399 0.761404 19.1637 0.973137 19.1637C1.18487 19.1637 1.35654 19.3399 1.35654 19.5572V21.0294C1.35654 21.2467 1.18487 21.4229 0.973137 21.4229C0.761404 21.4229 0.589737 21.2467 0.589737 21.0294V19.5572ZM2.01594 18.1633C2.01594 17.946 2.1876 17.7698 2.39934 17.7698C2.61107 17.7698 2.78274 17.946 2.78274 18.1633V19.6355C2.78274 19.8528 2.61107 20.029 2.39934 20.029C2.1876 20.029 2.01594 19.8528 2.01594 19.6355V18.1633ZM11.149 20.7404C11.149 20.5231 11.3206 20.3469 11.5324 20.3469C11.7441 20.3469 11.9158 20.5231 11.9158 20.7404V22.2126C11.9158 22.4299 11.7441 22.6061 11.5324 22.6061C11.3206 22.6061 11.149 22.4299 11.149 22.2126V20.7404ZM12.5752 22.1343C12.5752 21.917 12.7468 21.7409 12.9586 21.7409C13.1703 21.7409 13.342 21.917 13.342 22.1343V23.6066C13.342 23.8238 13.1703 24 12.9586 24C12.7468 24 12.5752 23.8238 12.5752 23.6066V22.1343ZM11.149 18.1633C11.149 17.946 11.3206 17.7698 11.5324 17.7698C11.7441 17.7698 11.9158 17.946 11.9158 18.1633V19.6355C11.9158 19.8528 11.7441 20.029 11.5324 20.029C11.3206 20.029 11.149 19.8528 11.149 19.6355V18.1633ZM12.5752 19.5572C12.5752 19.3399 12.7468 19.1637 12.9586 19.1637C13.1703 19.1637 13.342 19.3399 13.342 19.5572V21.0294C13.342 21.2467 13.1703 21.4229 12.9586 21.4229C12.7468 21.4229 12.5752 21.2467 12.5752 21.0294V19.5572ZM9.40722 16.7142V17.6018C9.40722 17.7373 9.29958 17.8477 9.16759 17.8477H4.83235C4.70036 17.8477 4.59272 17.7373 4.59272 17.6018V16.7142H9.40722ZM3.10158 15.7267C3.03276 15.3494 2.97367 14.9651 2.92479 14.5747H11.0752C11.0264 14.9651 10.9673 15.3494 10.8985 15.7267C10.877 15.8441 10.7794 15.9273 10.6629 15.9273H3.33709C3.22068 15.9273 3.123 15.8441 3.10158 15.7267ZM2.84097 13.7878C2.7848 13.1496 2.75566 12.497 2.75566 11.8331C2.75566 6.73523 4.46994 2.2979 6.99994 0C9.52995 2.29785 11.2443 6.73518 11.2443 11.8331C11.2443 12.497 11.2152 13.1496 11.159 13.7878H2.84097ZM7.00004 5.69241C6.08587 5.69241 5.34476 6.45294 5.34476 7.39105C5.34476 8.32916 6.08587 9.08969 7.00004 9.08969C7.91421 9.08969 8.65532 8.32916 8.65532 7.39105C8.65532 6.45294 7.91421 5.69241 7.00004 5.69241Z" fill="#8D8A8E"/>
</svg>
