<svg width="124" height="124" viewBox="0 0 124 124" fill="none" xmlns="http://www.w3.org/2000/svg">
<g filter="url(#filter0_d_1007_576)">
<path d="M70.6336 8H26.5433C20.7157 8 16 12.7148 16 18.5413V77.9556C16 83.7821 20.7157 88.4969 26.5433 88.4969H51.809C49.7387 84.1271 48.5885 79.2589 48.5885 74.1224C48.5885 69.7143 49.4319 65.4978 51.0039 61.6263C50.8505 61.6646 50.6971 61.6646 50.5054 61.6646H31.3358C29.2271 61.6646 27.5018 59.9397 27.5018 57.8314C27.5018 55.7232 29.2271 53.9982 31.3358 53.9982H50.5054C51.9623 53.9982 53.2659 54.8415 53.8793 56.0681C56.3714 52.1966 59.5919 48.9001 63.3875 46.3319H31.3358C29.2271 46.3319 27.5018 44.6069 27.5018 42.4987C27.5018 40.3904 29.2271 38.6655 31.3358 38.6655H65.8412C67.9499 38.6655 69.6751 40.3904 69.6751 42.4987C69.6751 42.6903 69.6751 42.8437 69.6368 42.997C73.2023 41.5404 77.113 40.6971 81.1769 40.6204V18.5413C81.1769 12.7148 76.4612 8 70.6336 8V8ZM46.6715 30.9991H31.3358C29.2271 30.9991 27.5018 29.2742 27.5018 27.1659C27.5018 25.0577 29.2271 23.3327 31.3358 23.3327H46.6715C48.7802 23.3327 50.5054 25.0577 50.5054 27.1659C50.5054 29.2742 48.7802 30.9991 46.6715 30.9991Z" fill="#323232"/>
<path d="M82.1199 48.2519C67.85 48.2519 56.2408 59.8587 56.2408 74.1259C56.2408 88.393 67.85 99.9999 82.1199 99.9999C96.3898 99.9999 107.999 88.393 107.999 74.1259C107.999 59.8587 96.3898 48.2519 82.1199 48.2519ZM92.6632 77.959H85.9538V84.6671C85.9538 86.783 84.2362 88.5003 82.1199 88.5003C80.0036 88.5003 78.286 86.783 78.286 84.6671V77.959H71.5766C69.4602 77.959 67.7426 76.2418 67.7426 74.1259C67.7426 72.0099 69.4602 70.2927 71.5766 70.2927H78.286V63.5846C78.286 61.4687 80.0036 59.7514 82.1199 59.7514C84.2362 59.7514 85.9538 61.4687 85.9538 63.5846V70.2927H92.6632C94.7796 70.2927 96.4972 72.0099 96.4972 74.1259C96.4972 76.2418 94.7796 77.959 92.6632 77.959Z" fill="#323232"/>
</g>
<defs>
<filter id="filter0_d_1007_576" x="0" y="0" width="123.999" height="124" filterUnits="userSpaceOnUse" color-interpolation-filters="sRGB">
<feFlood flood-opacity="0" result="BackgroundImageFix"/>
<feColorMatrix in="SourceAlpha" type="matrix" values="0 0 0 0 0 0 0 0 0 0 0 0 0 0 0 0 0 0 127 0" result="hardAlpha"/>
<feOffset dy="8"/>
<feGaussianBlur stdDeviation="8"/>
<feColorMatrix type="matrix" values="0 0 0 0 0 0 0 0 0 0 0 0 0 0 0 0 0 0 0.07 0"/>
<feBlend mode="normal" in2="BackgroundImageFix" result="effect1_dropShadow_1007_576"/>
<feBlend mode="normal" in="SourceGraphic" in2="effect1_dropShadow_1007_576" result="shape"/>
</filter>
</defs>
</svg>
