<svg width="141" height="146" viewBox="0 0 141 146" fill="none" xmlns="http://www.w3.org/2000/svg">
<path d="M55.563 48.916H65.4974V58.194H55.563V48.916Z" fill="#FED6D2"/>
<path d="M42.3287 99.9321C31.3924 85.7895 24.8632 67.7867 24.8632 51.7748C24.8632 43.5987 26.5195 35.6655 29.7865 28.1954C30.9326 25.5751 32.26 23.054 33.7584 20.6387C14.3541 25.4084 0 42.4147 0 62.6661C0 84.2934 16.3702 110.56 37.7796 115.451L36.4605 130.354H40.5604V146H49.1113V130.354H53.2112L51.8921 115.451C53.4717 115.09 55.024 114.614 56.544 114.031C51.3981 110.221 46.6335 105.499 42.3287 99.9321Z" fill="#FED6D2"/>
<path d="M109.095 48.916H118.329V58.194H109.095V48.916Z" fill="#FED6D2"/>
<path d="M97.6313 58.194H100.544V48.916H88.3535L97.6313 58.194Z" fill="#FED6D2"/>
<path d="M140.478 51.7749C140.478 23.1804 116.511 0 86.9459 0C57.3811 0 33.4141 23.1804 33.4141 51.7749C33.4141 78.0545 53.6581 110.427 79.8857 115.497L78.5706 130.354H82.6705V146H91.2214V130.354H95.3215L94.0064 115.497C120.234 110.427 140.478 78.0545 140.478 51.7749ZM110.667 83.3215L94.0899 66.7447H47.0123V40.3649H67.7101L57.179 29.8339L63.2254 23.7875L79.8028 40.3649H126.88V66.7447H106.183L116.713 77.2752L110.667 83.3215Z" fill="#FED6D2"/>
<path d="M74.0479 48.916V58.194H85.5386L76.2605 48.916H74.0479Z" fill="#FED6D2"/>
</svg>
