<svg width="80" height="80" viewBox="0 0 80 80" fill="none" xmlns="http://www.w3.org/2000/svg">
<g id="fi_10837758">
<path id="Vector" d="M72.5875 22.5621V17.5371C72.5875 15.8746 71.9375 14.2996 70.75 13.0996C69.5625 11.9246 67.9875 11.2746 66.3375 11.2746C62.8875 11.2746 60.0875 14.0871 60.0875 17.5371V18.4621H56.475C55.7875 18.4621 55.225 19.0246 55.225 19.7121C55.225 20.3996 55.7875 20.9621 56.475 20.9621H60.0875V21.2996C60.0875 24.0746 57.85 26.3246 55.0875 26.3246H53.3625L53.175 21.7621C53 18.3621 51.5625 15.2246 49.1125 12.9121C48.525 12.3496 47.9 11.8871 47.25 11.4621C47.1125 9.86212 46.4625 8.29962 45.2375 7.07462C42.4625 4.28712 38.0875 4.26212 35.1875 7.07462C34.0125 8.24962 33.375 9.74962 33.1875 11.2871C29.5125 13.5621 27.2 17.4121 26.9875 21.7746L26.3375 37.6121H24.9C22.1375 37.6121 19.9 35.3621 19.9 32.5871V32.0371H23.4625C24.15 32.0371 24.7125 31.4746 24.7125 30.7871C24.7125 30.0996 24.15 29.5371 23.4625 29.5371H19.9V28.8121C19.9 25.3496 17.1 22.5371 13.65 22.5371C12 22.5371 10.425 23.1871 9.22502 24.3746C8.05002 25.5746 7.40002 27.1371 7.40002 28.7996V33.8121C7.40002 38.9496 9.78752 43.5246 13.4875 46.5121L11.2125 48.7996C10.725 49.2871 10.725 50.0746 11.2125 50.5746C11.45 50.8121 11.775 50.9371 12.1 50.9371C12.425 50.9371 12.7375 50.8121 12.9875 50.5746L15.6 47.9496C17.975 49.3246 20.725 50.1121 23.6625 50.1121H25.8375L25.6375 55.0746C17.475 57.5371 11.8375 65.0496 11.8375 73.6996C11.8375 74.3871 12.4 74.9496 13.0875 74.9496H67.075C67.4625 74.9496 67.8375 74.7621 68.075 74.4496C68.3125 74.1371 68.3875 73.7371 68.275 73.3496C66.4125 66.7996 61.2875 61.7496 54.8 59.9371L53.9 38.7996H56.3375C59.5625 38.7996 62.575 37.8371 65.1 36.1996L68.1125 39.2246C68.3625 39.4746 68.675 39.5871 69 39.5871C69.325 39.5871 69.6375 39.4621 69.8875 39.2246C70.375 38.7371 70.375 37.9496 69.8875 37.4621L67.1125 34.6746C70.4625 31.6871 72.5875 27.3371 72.5875 22.4996V22.5621ZM42.7375 15.9746C42.6625 16.0246 42.5875 16.0496 42.5125 16.0996C42.325 16.2121 42.125 16.3246 41.925 16.3996C41.9125 16.3996 41.8875 16.3996 41.875 16.4121C40.9125 16.7871 39.85 16.7996 38.8625 16.4996C38.725 16.4621 38.5875 16.4246 38.45 16.3746C38.4125 16.3621 38.375 16.3371 38.3375 16.3121C38.2125 16.2621 38.1125 16.1871 37.9875 16.1246L44.2125 9.87462C44.625 10.6246 44.825 11.4621 44.7875 12.2996C44.7875 12.5496 44.75 12.7996 44.7 13.0496C44.6875 13.1371 44.65 13.2246 44.625 13.3121C44.575 13.5121 44.5125 13.7246 44.4375 13.9121C44.4 13.9871 44.35 14.0621 44.3125 14.1371C44.2125 14.3246 44.125 14.5246 44 14.6996C43.95 14.7746 43.875 14.8496 43.825 14.9121C43.6125 15.1871 43.375 15.4246 43.1125 15.6496C42.9875 15.7621 42.8625 15.8746 42.725 15.9621L42.7375 15.9746ZM40.225 7.48712C41 7.48712 41.7625 7.69962 42.4625 8.09962L36.2375 14.3496C35.875 13.6871 35.65 12.9246 35.6375 12.0996C35.6375 10.9121 36.1125 9.72462 37.025 8.79962C37.925 7.92462 39.075 7.48712 40.225 7.48712ZM33.425 14.1621C33.4625 14.2871 33.5125 14.3871 33.5625 14.5121C33.625 14.6746 33.6875 14.8496 33.75 15.0121C33.85 15.2496 33.975 15.4621 34.1 15.6746C34.1875 15.8371 34.275 15.9871 34.375 16.1371C34.6 16.4621 34.85 16.7746 35.125 17.0621C35.15 17.0871 35.1625 17.1246 35.1875 17.1496C35.2875 17.2496 35.4125 17.3246 35.5125 17.4246C35.7 17.5996 35.9 17.7621 36.1 17.9121C36.25 18.0246 36.4125 18.1246 36.575 18.2121C36.8 18.3496 37.025 18.4621 37.2625 18.5746C37.4 18.6371 37.5375 18.6996 37.675 18.7496C38 18.8746 38.3375 18.9746 38.6875 19.0496C38.75 19.0621 38.8 19.0871 38.8625 19.0996C39.3 19.1871 39.7375 19.2371 40.2 19.2371C41.0875 19.2371 41.925 19.0496 42.7125 18.7496C42.8125 18.7121 42.9 18.6746 43 18.6246C43.2875 18.4996 43.5625 18.3621 43.825 18.1996C43.95 18.1246 44.075 18.0496 44.2 17.9621C44.45 17.7871 44.675 17.5996 44.9 17.3996C44.9875 17.3246 45.075 17.2746 45.1625 17.1871L45.2125 17.1371C45.2875 17.0621 45.3375 16.9746 45.4125 16.8871C45.625 16.6621 45.8125 16.4246 46 16.1746C46.1125 16.0121 46.2 15.8496 46.3 15.6871C46.425 15.4746 46.5375 15.2746 46.6375 15.0496C46.7125 14.8871 46.7875 14.7246 46.85 14.5496C46.875 14.4746 46.925 14.3996 46.95 14.3246C47.1 14.4496 47.2375 14.5871 47.3875 14.7121C49.3625 16.5871 50.5375 19.1246 50.675 21.8621L52.275 59.4496C52.1875 59.4496 52.1125 59.4496 52.025 59.4246C51.5875 59.3746 51.1375 59.3246 50.7 59.3121C50.575 59.3121 50.45 59.2996 50.3375 59.2871C49.825 59.2746 49.3 59.2871 48.7875 59.2871C48.625 59.2871 48.45 59.3121 48.2875 59.3246C47.85 59.3496 47.425 59.3996 46.9875 59.4621C46.8625 59.4746 46.75 59.4871 46.625 59.5121C46.1 59.5996 45.575 59.6996 45.05 59.8246C44.9875 59.8371 44.9375 59.8496 44.875 59.8621C44.7125 59.6996 44.5375 59.5621 44.375 59.4121C44.1625 59.2121 43.95 59.0121 43.725 58.8246C43.45 58.5996 43.175 58.3746 42.8875 58.1621C42.6625 57.9871 42.425 57.8121 42.1875 57.6496C41.8875 57.4496 41.5875 57.2621 41.275 57.0746C41.0375 56.9246 40.7875 56.7746 40.5375 56.6371C40.2125 56.4621 39.8875 56.3121 39.5625 56.1496C39.3125 56.0246 39.0625 55.8996 38.8125 55.7996C38.4625 55.6496 38.1125 55.5371 37.7625 55.3996C37.5125 55.3121 37.2625 55.2121 37 55.1246C36.625 55.0121 36.25 54.9246 35.8625 54.8246C35.6125 54.7621 35.375 54.6871 35.125 54.6371C34.7 54.5496 34.275 54.4996 33.85 54.4371C33.6375 54.4121 33.425 54.3621 33.2125 54.3371C32.5625 54.2746 31.9125 54.2371 31.2625 54.2371C30.7875 54.2371 30.3125 54.2621 29.85 54.2996C29.7125 54.2996 29.575 54.3246 29.4375 54.3371C29.0875 54.3746 28.75 54.4121 28.4 54.4621C28.325 54.4621 28.2375 54.4746 28.1625 54.4871L29.5 21.8621C29.65 18.7871 31.0875 16.0121 33.425 14.1371V14.1621ZM23.6625 47.6496C16.075 47.6496 9.91252 41.4496 9.91252 33.8496V28.8371C9.91252 27.8371 10.3 26.8871 11 26.1746C11.725 25.4621 12.6625 25.0621 13.6625 25.0621C15.725 25.0621 17.4125 26.7496 17.4125 28.8371V32.5996C17.4125 36.7496 20.775 40.1246 24.9125 40.1246H26.25L25.9375 47.6621H23.6625V47.6496ZM27.1625 57.2746C28.4875 56.9371 29.8625 56.7621 31.2625 56.7621C31.8125 56.7621 32.3625 56.7996 32.9 56.8496C33.075 56.8621 33.25 56.8996 33.425 56.9246C33.7875 56.9746 34.15 57.0246 34.5125 57.0871C34.7125 57.1246 34.9125 57.1746 35.1125 57.2246C35.4375 57.2996 35.7625 57.3871 36.075 57.4746C36.275 57.5371 36.4875 57.5996 36.6875 57.6621C37 57.7621 37.3125 57.8871 37.6125 58.0121C37.8 58.0871 38 58.1621 38.1875 58.2496C38.5 58.3871 38.8125 58.5496 39.125 58.7121C39.2875 58.7996 39.45 58.8746 39.6125 58.9746C40.0125 59.1996 40.3875 59.4496 40.7625 59.7121C40.825 59.7621 40.9 59.7996 40.9625 59.8371C41.375 60.1246 41.7625 60.4496 42.15 60.7746C42.1 60.7996 42.05 60.8246 42 60.8496C41.8375 60.9246 41.6875 60.9996 41.525 61.0746C41.025 61.3121 40.525 61.5496 40.05 61.8246C39.85 61.9371 39.65 62.0621 39.45 62.1871C39.0125 62.4621 38.575 62.7496 38.1625 63.0621C37.9875 63.1871 37.8125 63.3121 37.65 63.4496C37.0875 63.8996 36.5375 64.3621 36.025 64.8746C35.5125 65.3746 35.05 65.8996 34.6 66.4371C34.55 66.4996 34.5 66.5621 34.45 66.6246C34.025 67.1496 33.65 67.6996 33.2875 68.2621C33.225 68.3496 33.1625 68.4496 33.1125 68.5371C32.7625 69.0996 32.45 69.6746 32.1625 70.2621C32.1125 70.3621 32.0625 70.4621 32.0125 70.5621C31.7375 71.1621 31.475 71.7871 31.2625 72.4121C31.2625 72.4496 31.2375 72.4746 31.225 72.4996H14.3875C14.9125 65.2246 20.0125 59.0621 27.1625 57.2871V57.2746ZM65.3375 72.4871H33.9125C33.95 72.3996 33.975 72.3121 34.0125 72.2246C34.1 72.0246 34.2 71.8246 34.2875 71.6246C34.475 71.2121 34.6875 70.7996 34.9125 70.4121C35.025 70.1996 35.15 69.9996 35.275 69.7996C35.525 69.3996 35.7875 69.0246 36.0625 68.6496C36.1875 68.4871 36.3125 68.3121 36.4375 68.1496C36.8625 67.6246 37.3 67.1246 37.7875 66.6496C38.7625 65.6746 39.8625 64.8371 41.05 64.1371C42.2375 63.4371 43.5125 62.8746 44.85 62.4871C46.2375 62.0746 47.675 61.8496 49.1 61.8121C49.975 61.7871 50.85 61.8496 51.7 61.9496C52.2375 62.0121 52.7875 62.0871 53.3125 62.2121C58.8125 63.4496 63.2875 67.3246 65.3375 72.5121V72.4871ZM53.8 36.3496L53.475 28.8121H55.0875C59.225 28.8121 62.5875 25.4371 62.5875 21.2871V17.5246C62.5875 15.4496 64.275 13.7621 66.3375 13.7621C67.325 13.7621 68.275 14.1496 68.9875 14.8621C69.7 15.5871 70.0875 16.5371 70.0875 17.5371V22.5621C70.0875 30.1746 63.925 36.3621 56.3375 36.3621H53.7875L53.8 36.3496Z" fill="#F3F2F2"/>
<path id="Vector_2" d="M36.4625 25.9504C36.7125 26.2004 37.025 26.3129 37.3499 26.3129C37.675 26.3129 37.9875 26.1879 38.2375 25.9504C38.725 25.4629 38.725 24.6754 38.2375 24.1879L35 20.9379C34.5125 20.4504 33.725 20.4504 33.2375 20.9379C32.75 21.4254 32.75 22.2129 33.2375 22.7004L36.475 25.9504H36.4625Z" fill="#F3F2F2"/>
<path id="Vector_3" d="M43.625 31.8498C43.95 31.8498 44.2625 31.7248 44.5125 31.4873L47.75 28.2373C48.2375 27.7498 48.2375 26.9623 47.75 26.4623C47.2625 25.9748 46.475 25.9748 45.9875 26.4623L42.75 29.7123C42.2625 30.1998 42.2625 30.9873 42.75 31.4873C42.9875 31.7248 43.3125 31.8498 43.6375 31.8498H43.625Z" fill="#F3F2F2"/>
<path id="Vector_4" d="M43.2375 41.6752C42.75 42.1627 42.75 42.9502 43.2375 43.4377L46.475 46.6877C46.725 46.9377 47.0375 47.0502 47.3625 47.0502C47.6875 47.0502 47.9999 46.9252 48.2499 46.6877C48.7374 46.2002 48.7374 45.4127 48.2499 44.9252L45.0124 41.6752C44.5249 41.1877 43.7374 41.1877 43.2499 41.6752H43.2375Z" fill="#F3F2F2"/>
<path id="Vector_5" d="M34.1125 39.6C34.4375 39.6 34.75 39.475 35 39.2375L38.2375 35.9875C38.725 35.5 38.725 34.7125 38.2375 34.225C37.75 33.7375 36.9625 33.7375 36.475 34.225L33.2375 37.475C32.75 37.9625 32.75 38.75 33.2375 39.2375C33.475 39.4875 33.8 39.6 34.125 39.6H34.1125Z" fill="#F3F2F2"/>
<path id="Vector_6" d="M34.1125 53.0375C34.4375 53.0375 34.75 52.9125 35 52.675L38.2375 49.425C38.725 48.9375 38.725 48.15 38.2375 47.6625C37.75 47.175 36.9625 47.175 36.475 47.6625L33.2375 50.9125C32.75 51.4 32.75 52.1875 33.2375 52.675C33.475 52.925 33.8 53.0375 34.125 53.0375H34.1125Z" fill="#F3F2F2"/>
<path id="Vector_7" d="M20.6 13.7754H21.85C22.5375 13.7754 23.1 13.2129 23.1 12.5254C23.1 11.8379 22.5375 11.2754 21.85 11.2754H20.6C19.9125 11.2754 19.35 11.8379 19.35 12.5254C19.35 13.2129 19.9125 13.7754 20.6 13.7754Z" fill="#F3F2F2"/>
<path id="Vector_8" d="M14.35 13.7754H15.6C16.2875 13.7754 16.85 13.2129 16.85 12.5254C16.85 11.8379 16.2875 11.2754 15.6 11.2754H14.35C13.6625 11.2754 13.1 11.8379 13.1 12.5254C13.1 13.2129 13.6625 13.7754 14.35 13.7754Z" fill="#F3F2F2"/>
<path id="Vector_9" d="M18.1 13.7754C17.4125 13.7754 16.85 14.3379 16.85 15.0254V16.2754C16.85 16.9629 17.4125 17.5254 18.1 17.5254C18.7875 17.5254 19.35 16.9629 19.35 16.2754V15.0254C19.35 14.3379 18.7875 13.7754 18.1 13.7754Z" fill="#F3F2F2"/>
<path id="Vector_10" d="M18.1 11.2754C18.7875 11.2754 19.35 10.7129 19.35 10.0254V8.77539C19.35 8.08789 18.7875 7.52539 18.1 7.52539C17.4125 7.52539 16.85 8.08789 16.85 8.77539V10.0254C16.85 10.7129 17.4125 11.2754 18.1 11.2754Z" fill="#F3F2F2"/>
<path id="Vector_11" d="M67.5 51.25H66.25C65.5625 51.25 65 51.8125 65 52.5C65 53.1875 65.5625 53.75 66.25 53.75H67.5C68.1875 53.75 68.75 53.1875 68.75 52.5C68.75 51.8125 68.1875 51.25 67.5 51.25Z" fill="#F3F2F2"/>
<path id="Vector_12" d="M61.25 51.25H60C59.3125 51.25 58.75 51.8125 58.75 52.5C58.75 53.1875 59.3125 53.75 60 53.75H61.25C61.9375 53.75 62.5 53.1875 62.5 52.5C62.5 51.8125 61.9375 51.25 61.25 51.25Z" fill="#F3F2F2"/>
<path id="Vector_13" d="M63.75 57.5C64.4375 57.5 65 56.9375 65 56.25V55C65 54.3125 64.4375 53.75 63.75 53.75C63.0625 53.75 62.5 54.3125 62.5 55V56.25C62.5 56.9375 63.0625 57.5 63.75 57.5Z" fill="#F3F2F2"/>
<path id="Vector_14" d="M65 48.75C65 48.0625 64.4375 47.5 63.75 47.5C63.0625 47.5 62.5 48.0625 62.5 48.75V50C62.5 50.6875 63.0625 51.25 63.75 51.25C64.4375 51.25 65 50.6875 65 50V48.75Z" fill="#F3F2F2"/>
</g>
</svg>
