<svg width="80" height="80" viewBox="0 0 80 80" fill="none" xmlns="http://www.w3.org/2000/svg">
<g id="Inbox">
<g id="Group">
<path id="Vector" d="M78.5686 56.6902L73.2014 40.3877C72.999 39.773 72.3364 39.4387 71.7218 39.641C71.107 39.8434 70.7728 40.5059 70.9751 41.1205L76.03 56.4748C75.8787 56.4524 75.7251 56.4371 75.5678 56.4371H71.0333L65.047 38.2535V26.2929H65.5037C65.8565 26.2929 66.1678 26.518 66.2781 26.8532L69.1665 35.6271C69.3289 36.1202 69.7872 36.4329 70.2795 36.4329C70.4009 36.4329 70.5245 36.4138 70.6462 36.3738C71.2611 36.1715 71.5953 35.509 71.3929 34.8943L68.5045 26.1204C68.0768 24.8218 66.8711 23.9493 65.5039 23.9493H47.9904C45.6856 22.4607 42.942 21.5957 40 21.5957C37.0579 21.5957 34.3144 22.4607 32.0095 23.9493H14.4961C13.1289 23.9493 11.9231 24.8218 11.4954 26.1205L1.43139 56.6904C1.32623 57.0096 1.27295 57.3419 1.27295 57.678V66.0255C1.27295 66.6727 1.79764 67.1974 2.44482 67.1974C3.09201 67.1974 3.6167 66.6727 3.6167 66.0255V59.5962C3.6167 59.1466 3.98248 58.7809 4.43201 58.7809H19.104C19.4133 58.7809 19.7009 58.9604 19.8365 59.2384L22.7197 65.1416C23.2456 66.2185 24.3598 66.9143 25.5583 66.9143H54.4415C55.64 66.9143 56.7542 66.2184 57.2801 65.1416L60.1633 59.2384C60.299 58.9605 60.5865 58.7809 60.8958 58.7809H75.5678C76.0173 58.7809 76.3831 59.1466 76.3831 59.5962V76.8405C76.3831 77.2901 76.0173 77.6559 75.5678 77.6559H4.43201C3.98248 77.6559 3.6167 77.2901 3.6167 76.8405V71.811C3.6167 71.1638 3.09201 70.6391 2.44482 70.6391C1.79764 70.6391 1.27295 71.1638 1.27295 71.811V76.8405C1.27295 78.5824 2.69014 79.9996 4.43201 79.9996H75.5679C77.3098 79.9996 78.727 78.5824 78.727 76.8405V57.678C78.727 57.3421 78.6737 57.0098 78.5686 56.6902ZM62.7034 35.9866C62.4723 35.9332 62.2328 35.904 61.9878 35.904H54.7614C54.6472 32.1962 53.1597 28.8285 50.7914 26.2929H62.7034V35.9866ZM25.2386 35.9041H18.0122C17.7672 35.9041 17.5276 35.9332 17.2965 35.9868V26.293H29.2086C26.8404 28.8287 25.3528 32.1963 25.2386 35.9041ZM3.96982 56.4749L13.7217 26.8534C13.832 26.5182 14.1433 26.293 14.4961 26.293H14.9528V38.2538L8.96654 56.4371H4.43201C4.27467 56.4371 4.12123 56.4526 3.96982 56.4749ZM58.0572 58.2098L55.1739 64.1132C55.0383 64.391 54.7508 64.5705 54.4414 64.5705H25.5584C25.2492 64.5705 24.9617 64.391 24.8259 64.113L21.9428 58.2098C21.4169 57.1329 20.3026 56.4371 19.1042 56.4371H11.4342L17.2379 38.8082C17.3483 38.473 17.6595 38.2479 18.0123 38.2479H25.3522C25.7019 40.9552 26.7989 43.5371 28.5276 45.6665C30.6225 48.247 33.5534 50.0634 36.7804 50.7812C37.4122 50.9212 38.0384 50.5235 38.1789 49.8916C38.3194 49.2599 37.9212 48.6338 37.2893 48.4932C34.5759 47.8896 32.1104 46.361 30.3473 44.1891C28.5594 41.9866 27.5745 39.2079 27.5745 36.3649C27.5745 29.5134 33.1486 23.9393 40 23.9393C46.8514 23.9393 52.4254 29.5134 52.4254 36.3649C52.4254 42.2055 48.284 47.3185 42.5783 48.5221C41.945 48.6557 41.5398 49.2773 41.6734 49.9105C41.7898 50.4623 42.2765 50.8409 42.8189 50.8409C42.899 50.8409 42.9804 50.8326 43.0619 50.8154C46.3262 50.1268 49.2956 48.3196 51.4231 45.7268C53.1808 43.5848 54.2947 40.9813 54.6475 38.2479H61.9875C62.3403 38.2479 62.6515 38.473 62.7618 38.8082L68.5659 56.4371H60.8958C59.6975 56.4371 58.5833 57.1329 58.0572 58.2098Z" fill="#E7E6E5"/>
<path id="Vector_2" d="M8.42371 74.5928H12.7121C13.3593 74.5928 13.884 74.0681 13.884 73.4209C13.884 72.7737 13.3593 72.249 12.7121 72.249H8.42371C7.77652 72.249 7.25183 72.7737 7.25183 73.4209C7.25183 74.0681 7.77652 74.5928 8.42371 74.5928Z" fill="#E7E6E5"/>
<path id="Vector_3" d="M8.42371 70.9316H12.7121C13.3593 70.9316 13.884 70.407 13.884 69.7598C13.884 69.1126 13.3593 68.5879 12.7121 68.5879H8.42371C7.77652 68.5879 7.25183 69.1126 7.25183 69.7598C7.25183 70.407 7.77652 70.9316 8.42371 70.9316Z" fill="#E7E6E5"/>
<path id="Vector_4" d="M42.7022 41.5849C43.0333 41.5849 43.3624 41.4454 43.5941 41.1738C44.0143 40.6817 43.9558 39.9418 43.4636 39.5217C42.4974 38.697 41.2143 38.2406 39.8504 38.2363C38.4888 38.2334 37.2007 38.681 36.2296 39.5001C35.7347 39.9173 35.6719 40.6567 36.0893 41.1513C36.5064 41.6462 37.2458 41.7092 37.7405 41.2917C38.2772 40.8392 39.0391 40.5799 39.8324 40.5799H39.8433C40.6408 40.5824 41.4057 40.8463 41.9421 41.3042C42.1627 41.4927 42.4332 41.5849 42.7022 41.5849Z" fill="#E7E6E5"/>
<path id="Vector_5" d="M33.5452 33.8379H33.5313C32.8839 33.842 32.3634 34.3562 32.36 35.0034C32.3564 35.6505 32.8852 36.178 33.5323 36.1816H33.5389C34.1831 36.1816 34.7072 35.6612 34.7106 35.0162C34.7141 34.369 34.1923 33.8415 33.5452 33.8379Z" fill="#E7E6E5"/>
<path id="Vector_6" d="M46.3539 36.1751C46.3627 36.176 46.3717 36.1759 46.3805 36.1766C46.4092 36.179 46.4378 36.1813 46.4672 36.1815H46.4738H46.4753C46.4763 36.1815 46.477 36.1813 46.478 36.1813C46.5169 36.1812 46.5553 36.1793 46.5933 36.1755C47.1852 36.1163 47.6472 35.617 47.6472 35.0096C47.6472 34.3738 47.1405 33.8574 46.5091 33.8395C46.4994 33.8391 46.4899 33.8379 46.48 33.8379H46.4764C46.4761 33.8379 46.4756 33.8379 46.4753 33.8379H46.4661H46.4611C46.4606 33.8379 46.46 33.8379 46.4595 33.8379C45.8155 33.8379 45.2983 34.3584 45.2947 35.0034C45.2914 35.6121 45.7594 36.1148 46.3539 36.1751Z" fill="#E7E6E5"/>
<path id="Vector_7" d="M29.4209 5.5523C29.6496 5.78121 29.9496 5.89559 30.2495 5.89559C30.5493 5.89559 30.8493 5.78121 31.0781 5.5523L32.0254 4.60496L32.9728 5.5523C33.2015 5.78105 33.5015 5.89559 33.8013 5.89559C34.1012 5.89559 34.4012 5.78121 34.6299 5.5523C35.0876 5.09465 35.0876 4.35262 34.6299 3.89512L33.6826 2.94777L34.6299 2.00043C35.0876 1.54277 35.0876 0.800742 34.6299 0.343242C34.1724 -0.114414 33.4304 -0.114414 32.9728 0.343242L32.0254 1.29059L31.0781 0.343242C30.6204 -0.114414 29.8784 -0.114414 29.4209 0.343242C28.9632 0.800898 28.9632 1.54293 29.4209 2.00043L30.3682 2.94777L29.4209 3.89512C28.9632 4.35277 28.9632 5.0948 29.4209 5.5523Z" fill="#E7E6E5"/>
<path id="Vector_8" d="M21.0715 17.775C24.022 17.775 26.4223 15.3746 26.4223 12.424C26.4223 9.47355 24.022 7.07324 21.0715 7.07324C18.121 7.07324 15.7207 9.47355 15.7207 12.424C15.7207 15.3746 18.1212 17.775 21.0715 17.775ZM21.0715 9.41715C22.7296 9.41715 24.0785 10.7661 24.0785 12.4242C24.0785 14.0823 22.7296 15.4314 21.0715 15.4314C19.4134 15.4314 18.0645 14.0825 18.0645 12.4242C18.0645 10.7661 19.4135 9.41715 21.0715 9.41715Z" fill="#E7E6E5"/>
<path id="Vector_9" d="M55.9258 17.0523C56.1545 17.2811 56.4545 17.3956 56.7544 17.3956C57.0542 17.3956 57.3542 17.2812 57.583 17.0523L58.5303 16.105L59.4776 17.0523C59.7064 17.2811 60.0064 17.3956 60.3062 17.3956C60.6061 17.3956 60.9061 17.2812 61.1348 17.0523C61.5925 16.5946 61.5925 15.8526 61.1348 15.3951L60.1875 14.4478L61.1348 13.5004C61.5925 13.0428 61.5925 12.3007 61.1348 11.8432C60.6772 11.3856 59.9351 11.3856 59.4776 11.8432L58.5303 12.7906L57.583 11.8432C57.1253 11.3856 56.3833 11.3856 55.9258 11.8432C55.4681 12.3009 55.4681 13.0429 55.9258 13.5004L56.8731 14.4478L55.9258 15.3951C55.4681 15.8528 55.4681 16.5948 55.9258 17.0523Z" fill="#E7E6E5"/>
<path id="Vector_10" d="M39.9357 16.8753H39.9392C40.5847 16.8753 41.1091 16.3529 41.1111 15.7068L41.1214 12.2173C41.1233 11.5701 40.6003 11.0439 39.953 11.042C39.9517 11.042 39.9507 11.042 39.9494 11.042C39.3039 11.042 38.7796 11.5643 38.7775 12.2104L38.7672 15.7C38.7653 16.347 39.2885 16.8732 39.9357 16.8753Z" fill="#E7E6E5"/>
<path id="Vector_11" d="M32.3197 13.158C31.7645 13.4905 31.5841 14.2102 31.9166 14.7655L33.7297 17.7927C33.9494 18.1594 34.3377 18.3625 34.7361 18.3625C34.9409 18.3625 35.1486 18.3087 35.3372 18.1958C35.8923 17.8633 36.0728 17.1436 35.7403 16.5883L33.9272 13.5611C33.5945 13.0059 32.8748 12.8253 32.3197 13.158Z" fill="#E7E6E5"/>
<path id="Vector_12" d="M44.5261 18.2398C44.7161 18.3551 44.926 18.4099 45.133 18.4099C45.5291 18.4099 45.9155 18.2092 46.136 17.846L47.9672 14.8288C48.303 14.2756 48.1267 13.5548 47.5735 13.219C47.02 12.8834 46.2994 13.0595 45.9636 13.6128L44.1324 16.6299C43.7966 17.1832 43.973 17.904 44.5261 18.2398Z" fill="#E7E6E5"/>
<path id="Vector_13" d="M50.6968 10.4669C53.1734 10.4669 55.1881 8.45203 55.1881 5.97562C55.1881 3.49922 53.1734 1.48438 50.6968 1.48438C48.2203 1.48438 46.2056 3.49922 46.2056 5.97562C46.2056 8.45203 48.2203 10.4669 50.6968 10.4669ZM50.6968 3.82812C51.881 3.82812 52.8443 4.79156 52.8443 5.97562C52.8443 7.15969 51.8809 8.12312 50.6968 8.12312C49.5128 8.12312 48.5493 7.15969 48.5493 5.97562C48.5493 4.79156 49.5126 3.82812 50.6968 3.82812Z" fill="#E7E6E5"/>
</g>
</g>
</svg>
