<svg width="80" height="80" viewBox="0 0 80 80" fill="none" xmlns="http://www.w3.org/2000/svg">
<rect width="80" height="80" rx="40" fill="white"/>
<path d="M80 40C80 62.0914 62.0914 80 40 80C17.9086 80 0 62.0914 0 40C0 17.9086 17.9086 0 40 0C62.0914 0 80 17.9086 80 40ZM8 40C8 57.6731 22.3269 72 40 72C57.6731 72 72 57.6731 72 40C72 22.3269 57.6731 8 40 8C22.3269 8 8 22.3269 8 40Z" fill="#FAFAFA"/>
<rect x="12" y="12" width="56" height="56" rx="28" fill="#F3F2F2"/>
<path d="M40 45C41.1 45 42 44.1 42 43C42 41.9 41.1 41 40 41C38.9 41 38 41.9 38 43C38 44.1 38.9 45 40 45ZM46 36H45V34C45 31.24 42.76 29 40 29C37.24 29 35 31.24 35 34V36H34C32.9 36 32 36.9 32 38V48C32 49.1 32.9 50 34 50H46C47.1 50 48 49.1 48 48V38C48 36.9 47.1 36 46 36ZM36.9 34C36.9 32.29 38.29 30.9 40 30.9C41.71 30.9 43.1 32.29 43.1 34V36H36.9V34ZM46 48H34V38H46V48Z" fill="#9C9A96"/>
</svg>
