<svg xmlns="http://www.w3.org/2000/svg" width="160" height="160" viewBox="0 0 160 160" fill="none">
  <path d="M80 146.666C105.727 146.666 126.667 125.726 126.667 99.9997C126.667 74.273 105.727 53.333 80 53.333C54.2667 53.333 33.3334 74.273 33.3334 99.9997C33.3334 125.726 54.2667 146.666 80 146.666ZM80 66.6663C98.38 66.6663 113.333 81.6197 113.333 99.9997C113.333 118.38 98.38 133.333 80 133.333C61.62 133.333 46.6667 118.38 46.6667 99.9997C46.6667 81.6197 61.62 66.6663 80 66.6663ZM73.3334 13.333H46.6667V50.1197C54.6446 44.7812 63.7919 41.4447 73.3334 40.393V13.333ZM113.333 13.333H86.6667V40.393C96.2082 41.4447 105.356 44.7812 113.333 50.1197V13.333Z" fill="url(#paint0_linear_743_9943)"/>
  <path d="M66.7933 105.406L63.6733 123.58L80 115L96.3266 123.58L93.2066 105.406L106.42 92.5263L88.1666 89.873L80 73.333L71.8333 89.873L53.58 92.5263L66.7933 105.406Z" fill="#EF8FCF"/>
  <defs>
    <linearGradient id="paint0_linear_743_9943" x1="80" y1="13.333" x2="80" y2="146.666" gradientUnits="userSpaceOnUse">
      <stop stop-color="#FBC920"/>
      <stop offset="0.375" stop-color="#F7DE3B"/>
      <stop offset="1" stop-color="#FBA804"/>
    </linearGradient>
  </defs>
</svg>