<svg xmlns="http://www.w3.org/2000/svg" width="19" height="18" viewBox="0 0 19 18" fill="none">
  <path d="M3.9875 0.7875C4.0399 0.71764 4.10784 0.660938 4.18594 0.621885C4.26405 0.582832 4.35017 0.5625 4.4375 0.5625H14.5625C14.6498 0.5625 14.736 0.582832 14.8141 0.621885C14.8922 0.660938 14.9601 0.71764 15.0125 0.7875L18.3605 5.25825C18.5281 5.46637 18.536 5.7645 18.3717 5.98275L9.95 17.2125C9.8976 17.2824 9.82966 17.3391 9.75156 17.3781C9.67345 17.4172 9.58733 17.4375 9.5 17.4375C9.41267 17.4375 9.32655 17.4172 9.24844 17.3781C9.17034 17.3391 9.1024 17.2824 9.05 17.2125L0.6125 5.9625C0.539475 5.86513 0.5 5.74671 0.5 5.625C0.5 5.50329 0.539475 5.38487 0.6125 5.2875L3.9875 0.7875ZM16.7967 5.04563L14.765 2.33438L13.892 5.049L16.7967 5.04563ZM12.7096 5.05012L13.7908 1.6875H5.20925L6.29263 5.05687L12.7096 5.05012ZM6.65375 6.18187L9.5 15.0367L12.3485 6.17625L6.65375 6.18187ZM5.11137 5.058L4.23388 2.33325L2.18863 5.06138L5.11137 5.058ZM2.18637 6.1875L7.9385 13.8566L5.4725 6.18413L2.1875 6.1875H2.18637ZM11.0615 13.8566L16.8249 6.17287L13.5309 6.17512L11.0615 13.8566Z" fill="black"/>
  <path d="M3.9875 0.7875C4.0399 0.71764 4.10784 0.660938 4.18594 0.621885C4.26405 0.582832 4.35017 0.5625 4.4375 0.5625H14.5625C14.6498 0.5625 14.736 0.582832 14.8141 0.621885C14.8922 0.660938 14.9601 0.71764 15.0125 0.7875L18.3605 5.25825C18.5281 5.46637 18.536 5.7645 18.3717 5.98275L9.95 17.2125C9.8976 17.2824 9.82966 17.3391 9.75156 17.3781C9.67345 17.4172 9.58733 17.4375 9.5 17.4375C9.41267 17.4375 9.32655 17.4172 9.24844 17.3781C9.17034 17.3391 9.1024 17.2824 9.05 17.2125L0.6125 5.9625C0.539475 5.86513 0.5 5.74671 0.5 5.625C0.5 5.50329 0.539475 5.38487 0.6125 5.2875L3.9875 0.7875ZM16.7967 5.04563L14.765 2.33438L13.892 5.049L16.7967 5.04563ZM12.7096 5.05012L13.7908 1.6875H5.20925L6.29263 5.05687L12.7096 5.05012ZM6.65375 6.18187L9.5 15.0367L12.3485 6.17625L6.65375 6.18187ZM5.11137 5.058L4.23388 2.33325L2.18863 5.06138L5.11137 5.058ZM2.18637 6.1875L7.9385 13.8566L5.4725 6.18413L2.1875 6.1875H2.18637ZM11.0615 13.8566L16.8249 6.17287L13.5309 6.17512L11.0615 13.8566Z" fill="url(#paint0_linear_743_10517)"/>
  <path d="M3.9875 0.7875C4.0399 0.71764 4.10784 0.660938 4.18594 0.621885C4.26405 0.582832 4.35017 0.5625 4.4375 0.5625H14.5625C14.6498 0.5625 14.736 0.582832 14.8141 0.621885C14.8922 0.660938 14.9601 0.71764 15.0125 0.7875L18.3605 5.25825C18.5281 5.46637 18.536 5.7645 18.3717 5.98275L9.95 17.2125C9.8976 17.2824 9.82966 17.3391 9.75156 17.3781C9.67345 17.4172 9.58733 17.4375 9.5 17.4375C9.41267 17.4375 9.32655 17.4172 9.24844 17.3781C9.17034 17.3391 9.1024 17.2824 9.05 17.2125L0.6125 5.9625C0.539475 5.86513 0.5 5.74671 0.5 5.625C0.5 5.50329 0.539475 5.38487 0.6125 5.2875L3.9875 0.7875ZM16.7967 5.04563L14.765 2.33438L13.892 5.049L16.7967 5.04563ZM12.7096 5.05012L13.7908 1.6875H5.20925L6.29263 5.05687L12.7096 5.05012ZM6.65375 6.18187L9.5 15.0367L12.3485 6.17625L6.65375 6.18187ZM5.11137 5.058L4.23388 2.33325L2.18863 5.06138L5.11137 5.058ZM2.18637 6.1875L7.9385 13.8566L5.4725 6.18413L2.1875 6.1875H2.18637ZM11.0615 13.8566L16.8249 6.17287L13.5309 6.17512L11.0615 13.8566Z" stroke="black"/>
  <defs>
    <linearGradient id="paint0_linear_743_10517" x1="0.5" y1="0.5625" x2="19.4205" y2="16.3212" gradientUnits="userSpaceOnUse">
      <stop stop-color="#A193F2"/>
      <stop offset="1" stop-color="#C44EB9"/>
    </linearGradient>
  </defs>
</svg>