<svg width="32" height="32" viewBox="0 0 32 32" fill="none" xmlns="http://www.w3.org/2000/svg">
<rect width="32" height="32" rx="16" fill="#FAFAFA"/>
<path d="M25 12C23.55 12 22.74 13.44 23.07 14.51L19.52 18.07C19.22 17.98 18.78 17.98 18.48 18.07L15.93 15.52C16.27 14.45 15.46 13 14 13C12.55 13 11.73 14.44 12.07 15.52L7.51 20.07C6.44 19.74 5 20.55 5 22C5 23.1 5.9 24 7 24C8.45 24 9.26 22.56 8.93 21.49L13.48 16.93C13.78 17.02 14.22 17.02 14.52 16.93L17.07 19.48C16.73 20.55 17.54 22 19 22C20.45 22 21.27 20.56 20.93 19.48L24.49 15.93C25.56 16.26 27 15.45 27 14C27 12.9 26.1 12 25 12Z" fill="#E7E6E5"/>
<path d="M19 13L19.94 10.93L22 10L19.94 9.07L19 7L18.08 9.07L16 10L18.08 10.93L19 13ZM7.5 15L8 13L10 12.5L8 12L7.5 10L7 12L5 12.5L7 13L7.5 15Z" fill="#E7E6E5"/>
</svg>
