<svg width="72" height="72" viewBox="0 0 72 72" fill="none" xmlns="http://www.w3.org/2000/svg">
<g clip-path="url(#clip0_743_9847)">
<path d="M65.7106 32.5226H62.4612C62.0365 32.5226 61.692 32.1782 61.692 31.7534C61.692 31.3286 62.0365 30.9842 62.4612 30.9842H65.7106C66.1354 30.9842 66.4798 31.3286 66.4798 31.7534C66.4798 32.1782 66.1354 32.5226 65.7106 32.5226Z" fill="black"/>
<path d="M65.7106 32.5226H62.4612C62.0365 32.5226 61.692 32.1782 61.692 31.7534C61.692 31.3286 62.0365 30.9842 62.4612 30.9842H65.7106C66.1354 30.9842 66.4798 31.3286 66.4798 31.7534C66.4798 32.1782 66.1354 32.5226 65.7106 32.5226Z" fill="url(#paint0_linear_743_9847)"/>
<path d="M58.9228 19.3022C58.1681 19.3022 57.8808 18.2462 58.5371 17.8668L61.3512 16.2406C61.7192 16.028 62.1897 16.154 62.4021 16.5217C62.6148 16.8896 62.4888 17.36 62.1211 17.5726L59.3069 19.1988C59.1857 19.2688 59.0534 19.3022 58.9228 19.3022Z" fill="black"/>
<path d="M58.9228 19.3022C58.1681 19.3022 57.8808 18.2462 58.5371 17.8668L61.3512 16.2406C61.7192 16.028 62.1897 16.154 62.4021 16.5217C62.6148 16.8896 62.4888 17.36 62.1211 17.5726L59.3069 19.1988C59.1857 19.2688 59.0534 19.3022 58.9228 19.3022Z" fill="url(#paint1_linear_743_9847)"/>
<path d="M49.2523 9.62403C48.6705 9.62403 48.2963 8.97372 48.5868 8.47034L50.2115 5.65357C50.4237 5.28557 50.894 5.1591 51.2621 5.37156C51.6301 5.58387 51.7565 6.05434 51.5441 6.42218L49.9194 9.23895C49.7769 9.48587 49.5183 9.62403 49.2523 9.62403Z" fill="black"/>
<path d="M49.2523 9.62403C48.6705 9.62403 48.2963 8.97372 48.5868 8.47034L50.2115 5.65357C50.4237 5.28557 50.894 5.1591 51.2621 5.37156C51.6301 5.58387 51.7565 6.05434 51.5441 6.42218L49.9194 9.23895C49.7769 9.48587 49.5183 9.62403 49.2523 9.62403Z" fill="url(#paint2_linear_743_9847)"/>
<path d="M22.8374 9.62403C22.5714 9.62403 22.3128 9.48603 22.1703 9.23895L20.5455 6.42218C20.3332 6.05418 20.4595 5.58387 20.8275 5.37156C21.1954 5.15895 21.6658 5.28541 21.8781 5.65357L23.5029 8.47034C23.7934 8.97387 23.4192 9.62403 22.8374 9.62403Z" fill="black"/>
<path d="M22.8374 9.62403C22.5714 9.62403 22.3128 9.48603 22.1703 9.23895L20.5455 6.42218C20.3332 6.05418 20.4595 5.58387 20.8275 5.37156C21.1954 5.15895 21.6658 5.28541 21.8781 5.65357L23.5029 8.47034C23.7934 8.97387 23.4192 9.62403 22.8374 9.62403Z" fill="url(#paint3_linear_743_9847)"/>
<path d="M13.1668 19.3022C13.0361 19.3022 12.9038 19.269 12.7826 19.1988L9.96845 17.5726C9.6006 17.36 9.47476 16.8896 9.68737 16.5217C9.89984 16.1539 10.3703 16.0277 10.7383 16.2406L13.5525 17.8668C14.2066 18.245 13.9228 19.3022 13.1668 19.3022Z" fill="black"/>
<path d="M13.1668 19.3022C13.0361 19.3022 12.9038 19.269 12.7826 19.1988L9.96845 17.5726C9.6006 17.36 9.47476 16.8896 9.68737 16.5217C9.89984 16.1539 10.3703 16.0277 10.7383 16.2406L13.5525 17.8668C14.2066 18.245 13.9228 19.3022 13.1668 19.3022Z" fill="url(#paint4_linear_743_9847)"/>
<path d="M9.62845 32.5226H6.37907C5.9543 32.5226 5.60983 32.1782 5.60983 31.7534C5.60983 31.3286 5.9543 30.9842 6.37907 30.9842H9.62845C10.0532 30.9842 10.3977 31.3286 10.3977 31.7534C10.3977 32.1782 10.0532 32.5226 9.62845 32.5226Z" fill="black"/>
<path d="M9.62845 32.5226H6.37907C5.9543 32.5226 5.60983 32.1782 5.60983 31.7534C5.60983 31.3286 5.9543 30.9842 6.37907 30.9842H9.62845C10.0532 30.9842 10.3977 31.3286 10.3977 31.7534C10.3977 32.1782 10.0532 32.5226 9.62845 32.5226Z" fill="url(#paint5_linear_743_9847)"/>
<path d="M67.5361 70.2337H66.6797C65.4929 67.0073 62.0989 64.9794 58.6981 65.4116C56.7963 61.7737 52.9872 59.4543 48.8328 59.4543C47.8235 59.4543 46.8303 59.5923 45.8663 59.8591V53.2825C45.8663 51.1302 46.8537 49.0753 48.5077 47.7856C53.4852 43.9042 56.3401 38.0608 56.3401 31.7536C56.3401 25.8893 53.8072 20.3114 49.3909 16.4502C49.0711 16.1706 48.5851 16.2031 48.3055 16.5229C48.026 16.8428 48.0584 17.3288 48.3783 17.6083C52.4604 21.1774 54.8017 26.3331 54.8017 31.7536C54.8017 37.5834 52.1628 42.9846 47.5615 46.5725C45.8515 47.9059 44.7268 49.903 44.4174 52.0713L27.54 52.0679C27.2726 49.8702 26.1631 47.8713 24.4017 46.4737C19.8738 42.8806 17.2808 37.507 17.2877 31.7308C17.2938 26.6096 19.3157 21.8296 22.9811 18.2713C23.2858 17.9754 23.2931 17.4883 22.9971 17.1836C22.7012 16.8788 22.2143 16.8716 21.9094 17.1676C17.9435 21.0177 15.7557 26.1891 15.7491 31.7291C15.7417 37.9783 18.5469 43.7919 23.4452 47.679C25.1108 49.0005 26.0658 50.9788 26.0658 53.1066V59.8386C25.1218 59.584 24.1495 59.4545 23.1623 59.4545C19.0078 59.4545 15.1988 61.7739 13.2969 65.4117C9.89537 64.9794 6.50199 67.008 5.31537 70.2339H0.766912C0.342142 70.2339 -0.00231934 70.5783 -0.00231934 71.0031C-0.00231934 71.4279 0.342142 71.7723 0.766912 71.7723H67.5361C67.9609 71.7723 68.3054 71.4279 68.3054 71.0031C68.3054 70.5783 67.9609 70.2337 67.5361 70.2337ZM27.6045 59.4134L36.4814 59.4168C36.9061 59.4168 37.2508 59.0726 37.2508 58.6479C37.2509 58.2231 36.9066 57.8785 36.4818 57.8783L27.6043 57.875V53.6063L44.3277 53.6097V61.607C44.3277 62.881 43.2924 63.9176 42.02 63.9176H29.912C28.6395 63.9176 27.6043 62.8811 27.6043 61.607L27.6045 59.4134ZM6.98691 70.2337C8.16537 67.8045 10.9426 66.466 13.5786 67.0174C13.9305 67.091 14.2869 66.9109 14.4361 66.5836C15.984 63.1873 19.4094 60.9928 23.1626 60.9928C24.154 60.9928 25.1281 61.1445 26.0661 61.441C25.9918 63.2623 27.2705 64.9466 29.0485 65.3566C29.2049 67.3268 30.1898 69.0671 31.6541 70.2336L6.98691 70.2337ZM35.9975 70.2147C33.2225 70.2147 30.9281 68.1328 30.6037 65.4559H41.3915C41.0669 68.1328 38.7726 70.2147 35.9975 70.2147ZM40.3411 70.2337C41.8091 69.0643 42.7952 67.3182 42.9478 65.342C44.7174 64.9017 45.8901 63.2566 45.8663 61.4617C46.824 61.1514 47.8194 60.993 48.8328 60.993C52.586 60.993 56.0114 63.1874 57.5592 66.5837C57.7085 66.9111 58.0649 67.0916 58.4168 67.0176C61.0528 66.466 63.8312 67.8048 65.0095 70.2339L40.3411 70.2337Z" fill="black"/>
<path d="M67.5361 70.2337H66.6797C65.4929 67.0073 62.0989 64.9794 58.6981 65.4116C56.7963 61.7737 52.9872 59.4543 48.8328 59.4543C47.8235 59.4543 46.8303 59.5923 45.8663 59.8591V53.2825C45.8663 51.1302 46.8537 49.0753 48.5077 47.7856C53.4852 43.9042 56.3401 38.0608 56.3401 31.7536C56.3401 25.8893 53.8072 20.3114 49.3909 16.4502C49.0711 16.1706 48.5851 16.2031 48.3055 16.5229C48.026 16.8428 48.0584 17.3288 48.3783 17.6083C52.4604 21.1774 54.8017 26.3331 54.8017 31.7536C54.8017 37.5834 52.1628 42.9846 47.5615 46.5725C45.8515 47.9059 44.7268 49.903 44.4174 52.0713L27.54 52.0679C27.2726 49.8702 26.1631 47.8713 24.4017 46.4737C19.8738 42.8806 17.2808 37.507 17.2877 31.7308C17.2938 26.6096 19.3157 21.8296 22.9811 18.2713C23.2858 17.9754 23.2931 17.4883 22.9971 17.1836C22.7012 16.8788 22.2143 16.8716 21.9094 17.1676C17.9435 21.0177 15.7557 26.1891 15.7491 31.7291C15.7417 37.9783 18.5469 43.7919 23.4452 47.679C25.1108 49.0005 26.0658 50.9788 26.0658 53.1066V59.8386C25.1218 59.584 24.1495 59.4545 23.1623 59.4545C19.0078 59.4545 15.1988 61.7739 13.2969 65.4117C9.89537 64.9794 6.50199 67.008 5.31537 70.2339H0.766912C0.342142 70.2339 -0.00231934 70.5783 -0.00231934 71.0031C-0.00231934 71.4279 0.342142 71.7723 0.766912 71.7723H67.5361C67.9609 71.7723 68.3054 71.4279 68.3054 71.0031C68.3054 70.5783 67.9609 70.2337 67.5361 70.2337ZM27.6045 59.4134L36.4814 59.4168C36.9061 59.4168 37.2508 59.0726 37.2508 58.6479C37.2509 58.2231 36.9066 57.8785 36.4818 57.8783L27.6043 57.875V53.6063L44.3277 53.6097V61.607C44.3277 62.881 43.2924 63.9176 42.02 63.9176H29.912C28.6395 63.9176 27.6043 62.8811 27.6043 61.607L27.6045 59.4134ZM6.98691 70.2337C8.16537 67.8045 10.9426 66.466 13.5786 67.0174C13.9305 67.091 14.2869 66.9109 14.4361 66.5836C15.984 63.1873 19.4094 60.9928 23.1626 60.9928C24.154 60.9928 25.1281 61.1445 26.0661 61.441C25.9918 63.2623 27.2705 64.9466 29.0485 65.3566C29.2049 67.3268 30.1898 69.0671 31.6541 70.2336L6.98691 70.2337ZM35.9975 70.2147C33.2225 70.2147 30.9281 68.1328 30.6037 65.4559H41.3915C41.0669 68.1328 38.7726 70.2147 35.9975 70.2147ZM40.3411 70.2337C41.8091 69.0643 42.7952 67.3182 42.9478 65.342C44.7174 64.9017 45.8901 63.2566 45.8663 61.4617C46.824 61.1514 47.8194 60.993 48.8328 60.993C52.586 60.993 56.0114 63.1874 57.5592 66.5837C57.7085 66.9111 58.0649 67.0916 58.4168 67.0176C61.0528 66.466 63.8312 67.8048 65.0095 70.2339L40.3411 70.2337Z" fill="url(#paint6_linear_743_9847)"/>
<path d="M45.1634 21.5153C45.3946 19.641 45.4065 17.7771 45.1968 15.929C44.4869 9.66987 41.5761 4.01018 36.5103 0.159719C36.2348 -0.049666 35.8532 -0.0493584 35.5778 0.160796C30.5297 4.01618 27.5875 9.67618 26.8574 15.9265C26.6428 17.7636 26.6481 19.6151 26.8717 21.4759C22.7458 25.5153 20.9589 31.2062 22.0891 36.7825C22.2048 37.353 22.9188 37.6042 23.3631 37.1965L29.9612 31.1422C30.3563 31.9059 30.7888 32.6696 31.2552 33.4331C30.3101 34.8717 28.7966 37.8279 29.4215 41.3054C29.4991 41.7368 29.9689 42.0451 30.4145 41.9016L33.184 41.01C33.8511 42.4623 35.0911 45.137 35.3548 45.5326C35.6548 45.9828 36.3412 45.9819 36.6406 45.5326C36.9045 45.137 38.1443 42.4623 38.8114 41.01L41.5809 41.9016C42.0263 42.0451 42.4961 41.7366 42.5738 41.3054C43.1937 37.8556 41.7043 34.9148 40.7695 33.4777C41.2371 32.7093 41.6706 31.9406 42.0669 31.1723L48.6321 37.1965C49.0765 37.6042 49.7905 37.353 49.9061 36.7825C51.0318 31.2282 49.2597 25.5519 45.1634 21.5153ZM36.0457 1.74926C38.2501 3.52249 40.096 5.74141 41.4014 8.25357C39.8715 9.41941 37.9792 10.0605 36.0437 10.0605C34.1089 10.0605 32.2171 9.41987 30.6875 8.25464C32.0011 5.74618 33.8445 3.52741 36.0457 1.74926ZM23.3821 35.091C22.9241 30.8473 24.2926 26.6305 27.1778 23.3825C27.5965 25.481 28.2906 27.5888 29.2581 29.6991L23.3821 35.091ZM41.1663 40.1516L38.6325 39.3359C38.2612 39.2163 37.8592 39.3936 37.6971 39.7483C37.1049 41.0442 36.4628 42.4257 35.9977 43.4005C35.5325 42.4254 34.8905 41.044 34.2983 39.7483C34.1361 39.3934 33.734 39.2162 33.3629 39.3359L30.8291 40.1516C30.6645 37.5628 31.8143 35.3773 32.5518 34.2608H39.444C40.1717 35.363 41.3306 37.5557 41.1663 40.1516ZM39.4303 32.7225H32.6221C29.1772 27.1199 27.7518 21.5308 28.3855 16.105C28.5261 14.9014 28.8085 12.4851 30.0152 9.66957C31.764 10.9163 33.8811 11.599 36.0438 11.599C38.2052 11.599 40.3211 10.9173 42.0692 9.67187C43.2566 12.4748 43.5312 14.8956 43.6681 16.1023C44.2828 21.5199 42.8571 27.1094 39.4303 32.7225ZM48.6131 35.091L42.7691 29.7285C43.734 27.6203 44.4288 25.5159 44.8517 23.422C47.7125 26.6645 49.0683 30.8666 48.6131 35.091Z" fill="black"/>
<path d="M45.1634 21.5153C45.3946 19.641 45.4065 17.7771 45.1968 15.929C44.4869 9.66987 41.5761 4.01018 36.5103 0.159719C36.2348 -0.049666 35.8532 -0.0493584 35.5778 0.160796C30.5297 4.01618 27.5875 9.67618 26.8574 15.9265C26.6428 17.7636 26.6481 19.6151 26.8717 21.4759C22.7458 25.5153 20.9589 31.2062 22.0891 36.7825C22.2048 37.353 22.9188 37.6042 23.3631 37.1965L29.9612 31.1422C30.3563 31.9059 30.7888 32.6696 31.2552 33.4331C30.3101 34.8717 28.7966 37.8279 29.4215 41.3054C29.4991 41.7368 29.9689 42.0451 30.4145 41.9016L33.184 41.01C33.8511 42.4623 35.0911 45.137 35.3548 45.5326C35.6548 45.9828 36.3412 45.9819 36.6406 45.5326C36.9045 45.137 38.1443 42.4623 38.8114 41.01L41.5809 41.9016C42.0263 42.0451 42.4961 41.7366 42.5738 41.3054C43.1937 37.8556 41.7043 34.9148 40.7695 33.4777C41.2371 32.7093 41.6706 31.9406 42.0669 31.1723L48.6321 37.1965C49.0765 37.6042 49.7905 37.353 49.9061 36.7825C51.0318 31.2282 49.2597 25.5519 45.1634 21.5153ZM36.0457 1.74926C38.2501 3.52249 40.096 5.74141 41.4014 8.25357C39.8715 9.41941 37.9792 10.0605 36.0437 10.0605C34.1089 10.0605 32.2171 9.41987 30.6875 8.25464C32.0011 5.74618 33.8445 3.52741 36.0457 1.74926ZM23.3821 35.091C22.9241 30.8473 24.2926 26.6305 27.1778 23.3825C27.5965 25.481 28.2906 27.5888 29.2581 29.6991L23.3821 35.091ZM41.1663 40.1516L38.6325 39.3359C38.2612 39.2163 37.8592 39.3936 37.6971 39.7483C37.1049 41.0442 36.4628 42.4257 35.9977 43.4005C35.5325 42.4254 34.8905 41.044 34.2983 39.7483C34.1361 39.3934 33.734 39.2162 33.3629 39.3359L30.8291 40.1516C30.6645 37.5628 31.8143 35.3773 32.5518 34.2608H39.444C40.1717 35.363 41.3306 37.5557 41.1663 40.1516ZM39.4303 32.7225H32.6221C29.1772 27.1199 27.7518 21.5308 28.3855 16.105C28.5261 14.9014 28.8085 12.4851 30.0152 9.66957C31.764 10.9163 33.8811 11.599 36.0438 11.599C38.2052 11.599 40.3211 10.9173 42.0692 9.67187C43.2566 12.4748 43.5312 14.8956 43.6681 16.1023C44.2828 21.5199 42.8571 27.1094 39.4303 32.7225ZM48.6131 35.091L42.7691 29.7285C43.734 27.6203 44.4288 25.5159 44.8517 23.422C47.7125 26.6645 49.0683 30.8666 48.6131 35.091Z" fill="url(#paint7_linear_743_9847)"/>
<path d="M36.0448 20.0242C34.3971 20.0242 33.0566 18.681 33.0566 17.0297C33.0566 15.3786 34.3971 14.0354 36.0448 14.0354C37.6925 14.0354 39.0329 15.3786 39.0329 17.0297C39.0329 18.6808 37.6925 20.0242 36.0448 20.0242ZM36.0448 15.5737C35.2454 15.5737 34.5951 16.2268 34.5951 17.0296C34.5951 17.8323 35.2454 18.4856 36.0448 18.4856C36.8441 18.4856 37.4944 17.8323 37.4944 17.0296C37.4944 16.2268 36.8441 15.5737 36.0448 15.5737Z" fill="black"/>
<path d="M36.0448 20.0242C34.3971 20.0242 33.0566 18.681 33.0566 17.0297C33.0566 15.3786 34.3971 14.0354 36.0448 14.0354C37.6925 14.0354 39.0329 15.3786 39.0329 17.0297C39.0329 18.6808 37.6925 20.0242 36.0448 20.0242ZM36.0448 15.5737C35.2454 15.5737 34.5951 16.2268 34.5951 17.0296C34.5951 17.8323 35.2454 18.4856 36.0448 18.4856C36.8441 18.4856 37.4944 17.8323 37.4944 17.0296C37.4944 16.2268 36.8441 15.5737 36.0448 15.5737Z" fill="url(#paint8_linear_743_9847)"/>
<path d="M36.0448 28.9248C34.3971 28.9248 33.0566 27.5816 33.0566 25.9305C33.0566 24.2794 34.3971 22.936 36.0448 22.936C37.6925 22.936 39.0329 24.2793 39.0329 25.9305C39.0329 27.5816 37.6925 28.9248 36.0448 28.9248ZM36.0448 24.4745C35.2454 24.4745 34.5951 25.1277 34.5951 25.9305C34.5951 26.7333 35.2454 27.3863 36.0448 27.3863C36.8441 27.3863 37.4944 26.7333 37.4944 25.9305C37.4944 25.1277 36.8441 24.4745 36.0448 24.4745Z" fill="black"/>
<path d="M36.0448 28.9248C34.3971 28.9248 33.0566 27.5816 33.0566 25.9305C33.0566 24.2794 34.3971 22.936 36.0448 22.936C37.6925 22.936 39.0329 24.2793 39.0329 25.9305C39.0329 27.5816 37.6925 28.9248 36.0448 28.9248ZM36.0448 24.4745C35.2454 24.4745 34.5951 25.1277 34.5951 25.9305C34.5951 26.7333 35.2454 27.3863 36.0448 27.3863C36.8441 27.3863 37.4944 26.7333 37.4944 25.9305C37.4944 25.1277 36.8441 24.4745 36.0448 24.4745Z" fill="url(#paint9_linear_743_9847)"/>
<path d="M9.99768 57.1843C9.7163 57.1843 9.45753 57.0308 9.3226 56.7839L7.25491 52.9997L3.47445 50.9302C2.9506 50.6434 2.9506 49.8676 3.47445 49.5808L7.25491 47.5111L9.3226 43.7269C9.60907 43.2025 10.3861 43.2025 10.6726 43.7269L12.7403 47.5111L16.5208 49.5808C17.0446 49.8676 17.0446 50.6434 16.5208 50.9302L12.7405 52.9997L10.6728 56.7839C10.5378 57.0306 10.2791 57.1843 9.99768 57.1843ZM5.44583 50.2554L8.19137 51.7585C8.32045 51.8291 8.42645 51.9353 8.49707 52.0643L9.99768 54.8108L11.4983 52.0643C11.5688 51.9353 11.6749 51.8291 11.804 51.7585L14.5495 50.2554L11.804 48.7523C11.6749 48.6817 11.5689 48.5756 11.4983 48.4465L9.99768 45.7002L8.49707 48.4466C8.4266 48.5757 8.32045 48.6819 8.19137 48.7525L5.44583 50.2554Z" fill="black"/>
<path d="M9.99768 57.1843C9.7163 57.1843 9.45753 57.0308 9.3226 56.7839L7.25491 52.9997L3.47445 50.9302C2.9506 50.6434 2.9506 49.8676 3.47445 49.5808L7.25491 47.5111L9.3226 43.7269C9.60907 43.2025 10.3861 43.2025 10.6726 43.7269L12.7403 47.5111L16.5208 49.5808C17.0446 49.8676 17.0446 50.6434 16.5208 50.9302L12.7405 52.9997L10.6728 56.7839C10.5378 57.0306 10.2791 57.1843 9.99768 57.1843ZM5.44583 50.2554L8.19137 51.7585C8.32045 51.8291 8.42645 51.9353 8.49707 52.0643L9.99768 54.8108L11.4983 52.0643C11.5688 51.9353 11.6749 51.8291 11.804 51.7585L14.5495 50.2554L11.804 48.7523C11.6749 48.6817 11.5689 48.5756 11.4983 48.4465L9.99768 45.7002L8.49707 48.4466C8.4266 48.5757 8.32045 48.6819 8.19137 48.7525L5.44583 50.2554Z" fill="url(#paint10_linear_743_9847)"/>
<path d="M61.9977 57.1843C61.7163 57.1843 61.4575 57.0308 61.3226 56.7839L59.2549 52.9997L55.4745 50.9302C54.9506 50.6434 54.9506 49.8676 55.4745 49.5808L59.2549 47.5111L61.3226 43.7269C61.6091 43.2025 62.3861 43.2025 62.6726 43.7269L64.7403 47.5111L68.5208 49.5808C69.0446 49.8676 69.0446 50.6434 68.5208 50.9302L64.7403 52.9997L62.6726 56.7839C62.5378 57.0306 62.2791 57.1843 61.9977 57.1843ZM57.4458 50.2554L60.1914 51.7585C60.3205 51.8291 60.4265 51.9353 60.4971 52.0643L61.9977 54.8108L63.4983 52.0643C63.5688 51.9353 63.6749 51.8291 63.804 51.7585L66.5495 50.2554L63.804 48.7523C63.6749 48.6817 63.5689 48.5756 63.4983 48.4465L61.9977 45.7002L60.4971 48.4466C60.4266 48.5757 60.3205 48.6819 60.1914 48.7525L57.4458 50.2554Z" fill="black"/>
<path d="M61.9977 57.1843C61.7163 57.1843 61.4575 57.0308 61.3226 56.7839L59.2549 52.9997L55.4745 50.9302C54.9506 50.6434 54.9506 49.8676 55.4745 49.5808L59.2549 47.5111L61.3226 43.7269C61.6091 43.2025 62.3861 43.2025 62.6726 43.7269L64.7403 47.5111L68.5208 49.5808C69.0446 49.8676 69.0446 50.6434 68.5208 50.9302L64.7403 52.9997L62.6726 56.7839C62.5378 57.0306 62.2791 57.1843 61.9977 57.1843ZM57.4458 50.2554L60.1914 51.7585C60.3205 51.8291 60.4265 51.9353 60.4971 52.0643L61.9977 54.8108L63.4983 52.0643C63.5688 51.9353 63.6749 51.8291 63.804 51.7585L66.5495 50.2554L63.804 48.7523C63.6749 48.6817 63.5689 48.5756 63.4983 48.4465L61.9977 45.7002L60.4971 48.4466C60.4266 48.5757 60.3205 48.6819 60.1914 48.7525L57.4458 50.2554Z" fill="url(#paint11_linear_743_9847)"/>
<path d="M70.9977 72.003C71.55 72.003 71.9977 71.5552 71.9977 71.003C71.9977 70.4507 71.55 70.003 70.9977 70.003C70.4454 70.003 69.9977 70.4507 69.9977 71.003C69.9977 71.5552 70.4454 72.003 70.9977 72.003Z" fill="black"/>
<path d="M70.9977 72.003C71.55 72.003 71.9977 71.5552 71.9977 71.003C71.9977 70.4507 71.55 70.003 70.9977 70.003C70.4454 70.003 69.9977 70.4507 69.9977 71.003C69.9977 71.5552 70.4454 72.003 70.9977 72.003Z" fill="url(#paint12_linear_743_9847)"/>
<path d="M40.4817 59.6439C41.034 59.6439 41.4817 59.1962 41.4817 58.6439C41.4817 58.0916 41.034 57.6439 40.4817 57.6439C39.9294 57.6439 39.4817 58.0916 39.4817 58.6439C39.4817 59.1962 39.9294 59.6439 40.4817 59.6439Z" fill="black"/>
<path d="M40.4817 59.6439C41.034 59.6439 41.4817 59.1962 41.4817 58.6439C41.4817 58.0916 41.034 57.6439 40.4817 57.6439C39.9294 57.6439 39.4817 58.0916 39.4817 58.6439C39.4817 59.1962 39.9294 59.6439 40.4817 59.6439Z" fill="url(#paint13_linear_743_9847)"/>
</g>
<defs>
<linearGradient id="paint0_linear_743_9847" x1="11.5691" y1="1.9315" x2="45.6406" y2="72.0029" gradientUnits="userSpaceOnUse">
<stop stop-color="#A193F2"/>
<stop offset="1" stop-color="#C44EB9"/>
</linearGradient>
<linearGradient id="paint1_linear_743_9847" x1="11.5691" y1="1.9315" x2="45.6406" y2="72.0029" gradientUnits="userSpaceOnUse">
<stop stop-color="#A193F2"/>
<stop offset="1" stop-color="#C44EB9"/>
</linearGradient>
<linearGradient id="paint2_linear_743_9847" x1="11.5691" y1="1.9315" x2="45.6406" y2="72.0029" gradientUnits="userSpaceOnUse">
<stop stop-color="#A193F2"/>
<stop offset="1" stop-color="#C44EB9"/>
</linearGradient>
<linearGradient id="paint3_linear_743_9847" x1="11.5691" y1="1.9315" x2="45.6406" y2="72.0029" gradientUnits="userSpaceOnUse">
<stop stop-color="#A193F2"/>
<stop offset="1" stop-color="#C44EB9"/>
</linearGradient>
<linearGradient id="paint4_linear_743_9847" x1="11.5691" y1="1.9315" x2="45.6406" y2="72.0029" gradientUnits="userSpaceOnUse">
<stop stop-color="#A193F2"/>
<stop offset="1" stop-color="#C44EB9"/>
</linearGradient>
<linearGradient id="paint5_linear_743_9847" x1="11.5691" y1="1.9315" x2="45.6406" y2="72.0029" gradientUnits="userSpaceOnUse">
<stop stop-color="#A193F2"/>
<stop offset="1" stop-color="#C44EB9"/>
</linearGradient>
<linearGradient id="paint6_linear_743_9847" x1="11.5691" y1="1.9315" x2="45.6406" y2="72.0029" gradientUnits="userSpaceOnUse">
<stop stop-color="#A193F2"/>
<stop offset="1" stop-color="#C44EB9"/>
</linearGradient>
<linearGradient id="paint7_linear_743_9847" x1="11.5691" y1="1.9315" x2="45.6406" y2="72.0029" gradientUnits="userSpaceOnUse">
<stop stop-color="#A193F2"/>
<stop offset="1" stop-color="#C44EB9"/>
</linearGradient>
<linearGradient id="paint8_linear_743_9847" x1="11.5691" y1="1.9315" x2="45.6406" y2="72.0029" gradientUnits="userSpaceOnUse">
<stop stop-color="#A193F2"/>
<stop offset="1" stop-color="#C44EB9"/>
</linearGradient>
<linearGradient id="paint9_linear_743_9847" x1="11.5691" y1="1.9315" x2="45.6406" y2="72.0029" gradientUnits="userSpaceOnUse">
<stop stop-color="#A193F2"/>
<stop offset="1" stop-color="#C44EB9"/>
</linearGradient>
<linearGradient id="paint10_linear_743_9847" x1="11.5691" y1="1.9315" x2="45.6406" y2="72.0029" gradientUnits="userSpaceOnUse">
<stop stop-color="#A193F2"/>
<stop offset="1" stop-color="#C44EB9"/>
</linearGradient>
<linearGradient id="paint11_linear_743_9847" x1="11.5691" y1="1.9315" x2="45.6406" y2="72.0029" gradientUnits="userSpaceOnUse">
<stop stop-color="#A193F2"/>
<stop offset="1" stop-color="#C44EB9"/>
</linearGradient>
<linearGradient id="paint12_linear_743_9847" x1="11.5691" y1="1.9315" x2="45.6406" y2="72.0029" gradientUnits="userSpaceOnUse">
<stop stop-color="#A193F2"/>
<stop offset="1" stop-color="#C44EB9"/>
</linearGradient>
<linearGradient id="paint13_linear_743_9847" x1="11.5691" y1="1.9315" x2="45.6406" y2="72.0029" gradientUnits="userSpaceOnUse">
<stop stop-color="#A193F2"/>
<stop offset="1" stop-color="#C44EB9"/>
</linearGradient>
<clipPath id="clip0_743_9847">
<rect width="72" height="72" fill="white"/>
</clipPath>
</defs>
</svg>
