<svg width="56" height="57" viewBox="0 0 56 57" fill="none" xmlns="http://www.w3.org/2000/svg">
<g clip-path="url(#clip0_743_10484)">
<path d="M8.21045 33.2027C7.92249 33.2027 7.6405 33.3193 7.43713 33.5231C7.23376 33.7265 7.1167 34.0085 7.1167 34.2964C7.1167 34.584 7.23376 34.8664 7.43713 35.0693C7.6405 35.2731 7.92249 35.3902 8.21045 35.3902C8.49799 35.3902 8.77997 35.2731 8.98376 35.0693C9.18713 34.8664 9.3042 34.584 9.3042 34.2964C9.3042 34.0085 9.18713 33.7265 8.98376 33.5231C8.77997 33.3198 8.49799 33.2027 8.21045 33.2027Z" fill="#9C9A96"/>
<path d="M8.21045 33.2027C7.92249 33.2027 7.6405 33.3193 7.43713 33.5231C7.23376 33.7265 7.1167 34.0085 7.1167 34.2964C7.1167 34.584 7.23376 34.8664 7.43713 35.0693C7.6405 35.2731 7.92249 35.3902 8.21045 35.3902C8.49799 35.3902 8.77997 35.2731 8.98376 35.0693C9.18713 34.8664 9.3042 34.584 9.3042 34.2964C9.3042 34.0085 9.18713 33.7265 8.98376 33.5231C8.77997 33.3198 8.49799 33.2027 8.21045 33.2027Z" fill="url(#paint0_linear_743_10484)"/>
<path d="M55.7954 10.445L46.1704 0.820435C45.9653 0.615357 45.6872 0.5 45.3971 0.5H19.585C17.7761 0.5 16.3038 1.97186 16.3038 3.78125V6.66858L11.3332 8.00073C10.4864 8.2276 9.77887 8.7702 9.34094 9.52942C9.15936 9.84344 9.03418 10.1793 8.96454 10.5245L5.70679 3.33008C5.52948 2.93872 5.13983 2.6875 4.71045 2.6875C4.28107 2.6875 3.89099 2.93872 3.71411 3.33008L0.214111 11.059C0.150024 11.2008 0.116699 11.3546 0.116699 11.5101V49.7179C0.116699 52.251 2.17731 54.3116 4.71045 54.3116C7.24316 54.3116 9.3042 52.251 9.3042 49.7179V38.6714C9.3042 38.0673 8.81458 37.5777 8.21045 37.5777C7.60632 37.5777 7.1167 38.0673 7.1167 38.6714V46.2179H2.3042V12.6039H7.1167V30.0325C7.1167 30.6367 7.60632 31.1263 8.21045 31.1263C8.81458 31.1263 9.3042 30.6367 9.3042 30.0325V13.1055L16.3038 39.2294V47.3116C16.3038 49.0407 17.6483 50.4604 19.3462 50.5835L20.2797 54.0668C20.5066 54.9132 21.0492 55.6207 21.8084 56.0591C22.3138 56.3509 22.8748 56.5 23.4435 56.5C23.7285 56.5 24.0156 56.4624 24.2984 56.3868L45.9209 50.5929H52.8346C54.644 50.5929 56.1158 49.121 56.1158 47.3116V11.2188C56.1158 10.9286 56.0005 10.6505 55.7954 10.445ZM4.71045 6.43274L6.51428 10.4164H2.90619L4.71045 6.43274ZM7.1167 48.4054V49.7179C7.1167 51.0449 6.03705 52.1241 4.71045 52.1241C3.38342 52.1241 2.3042 51.0449 2.3042 49.7179V48.4054H7.1167ZM46.4908 4.23413L52.3813 10.125H48.4049C47.3496 10.125 46.4908 9.26624 46.4908 8.21094V4.23413ZM11.126 11.4533C11.0504 11.1713 11.0892 10.8765 11.2354 10.6232C11.381 10.3702 11.6169 10.1891 11.8993 10.1139L16.3038 8.93341V30.7781L11.126 11.4533ZM23.7319 54.2736C23.4499 54.3497 23.1551 54.3108 22.9022 54.1647C22.6492 54.0186 22.4681 53.7827 22.3925 53.5007L21.6132 50.5929H37.4691L23.7319 54.2736ZM52.8346 48.4054H19.585C18.9822 48.4054 18.4913 47.9149 18.4913 47.3116V7.9375H24.4522C25.0563 7.9375 25.546 7.44745 25.546 6.84375C25.546 6.23962 25.0563 5.75 24.4522 5.75H18.4913V3.78125C18.4913 3.17798 18.9822 2.6875 19.585 2.6875H44.3033V8.21094C44.3033 10.4724 46.1435 12.3125 48.4049 12.3125H53.9283V47.3116C53.9283 47.9149 53.4379 48.4054 52.8346 48.4054Z" fill="#9C9A96"/>
<path d="M55.7954 10.445L46.1704 0.820435C45.9653 0.615357 45.6872 0.5 45.3971 0.5H19.585C17.7761 0.5 16.3038 1.97186 16.3038 3.78125V6.66858L11.3332 8.00073C10.4864 8.2276 9.77887 8.7702 9.34094 9.52942C9.15936 9.84344 9.03418 10.1793 8.96454 10.5245L5.70679 3.33008C5.52948 2.93872 5.13983 2.6875 4.71045 2.6875C4.28107 2.6875 3.89099 2.93872 3.71411 3.33008L0.214111 11.059C0.150024 11.2008 0.116699 11.3546 0.116699 11.5101V49.7179C0.116699 52.251 2.17731 54.3116 4.71045 54.3116C7.24316 54.3116 9.3042 52.251 9.3042 49.7179V38.6714C9.3042 38.0673 8.81458 37.5777 8.21045 37.5777C7.60632 37.5777 7.1167 38.0673 7.1167 38.6714V46.2179H2.3042V12.6039H7.1167V30.0325C7.1167 30.6367 7.60632 31.1263 8.21045 31.1263C8.81458 31.1263 9.3042 30.6367 9.3042 30.0325V13.1055L16.3038 39.2294V47.3116C16.3038 49.0407 17.6483 50.4604 19.3462 50.5835L20.2797 54.0668C20.5066 54.9132 21.0492 55.6207 21.8084 56.0591C22.3138 56.3509 22.8748 56.5 23.4435 56.5C23.7285 56.5 24.0156 56.4624 24.2984 56.3868L45.9209 50.5929H52.8346C54.644 50.5929 56.1158 49.121 56.1158 47.3116V11.2188C56.1158 10.9286 56.0005 10.6505 55.7954 10.445ZM4.71045 6.43274L6.51428 10.4164H2.90619L4.71045 6.43274ZM7.1167 48.4054V49.7179C7.1167 51.0449 6.03705 52.1241 4.71045 52.1241C3.38342 52.1241 2.3042 51.0449 2.3042 49.7179V48.4054H7.1167ZM46.4908 4.23413L52.3813 10.125H48.4049C47.3496 10.125 46.4908 9.26624 46.4908 8.21094V4.23413ZM11.126 11.4533C11.0504 11.1713 11.0892 10.8765 11.2354 10.6232C11.381 10.3702 11.6169 10.1891 11.8993 10.1139L16.3038 8.93341V30.7781L11.126 11.4533ZM23.7319 54.2736C23.4499 54.3497 23.1551 54.3108 22.9022 54.1647C22.6492 54.0186 22.4681 53.7827 22.3925 53.5007L21.6132 50.5929H37.4691L23.7319 54.2736ZM52.8346 48.4054H19.585C18.9822 48.4054 18.4913 47.9149 18.4913 47.3116V7.9375H24.4522C25.0563 7.9375 25.546 7.44745 25.546 6.84375C25.546 6.23962 25.0563 5.75 24.4522 5.75H18.4913V3.78125C18.4913 3.17798 18.9822 2.6875 19.585 2.6875H44.3033V8.21094C44.3033 10.4724 46.1435 12.3125 48.4049 12.3125H53.9283V47.3116C53.9283 47.9149 53.4379 48.4054 52.8346 48.4054Z" fill="url(#paint1_linear_743_10484)"/>
<path d="M39.6686 36.0165C42.8708 35.6747 47.0305 34.6032 49.1017 32.6216C50.5937 31.1951 50.8052 29.4626 49.6819 27.8694C48.2631 25.8571 45.6129 25.8365 42.5918 27.8151C40.465 29.2079 38.2031 31.5651 36.8821 33.979C35.8375 33.976 34.8676 33.8957 34.0101 33.7423C35.8533 32.5657 36.5911 30.7794 36.6219 29.2327C36.6629 27.1302 35.4952 25.2794 33.8448 24.8325C33.0266 24.6112 30.9186 24.463 29.0165 27.8685C28.1287 29.4579 27.9475 30.7388 28.1201 31.7496C27.8723 31.5608 27.6348 31.3459 27.4139 31.1075C25.8796 29.4532 25.4336 27.105 26.1898 24.6646C27.5416 20.302 34.7134 17.8731 38.8624 18.179C39.4639 18.2226 39.9894 17.7714 40.0339 17.169C40.0787 16.567 39.6263 16.0424 39.0239 15.9975C36.4147 15.8044 33.189 16.4675 30.3948 17.7706C27.1093 19.3027 24.8739 21.5214 24.1006 24.0169C23.1064 27.2251 23.7293 30.3517 25.81 32.5952C27.1306 34.0196 28.8819 34.8438 30.5007 34.8553C32.0811 35.7452 34.1345 36.0678 35.975 36.1447C35.6021 37.482 35.6328 38.7505 36.2617 39.7857C37.4191 41.6934 39.7271 42.791 42.3944 42.791C42.9477 42.791 43.5164 42.7435 44.0931 42.647C47.1176 42.1385 49.3799 40.3826 49.8567 38.1733C49.9844 37.5828 49.6089 37.0009 49.0184 36.8732C48.428 36.7463 47.8461 37.1214 47.7188 37.7114C47.4363 39.0197 45.8337 40.136 43.7304 40.4898C41.7061 40.8299 39.1892 40.3937 38.1313 38.6505C37.7857 38.0814 37.8831 37.1735 38.2988 36.1263C38.8325 36.0973 39.2994 36.0558 39.6686 36.0165ZM43.7902 29.645C44.4114 29.2379 45.6355 28.5329 46.6562 28.5329C47.145 28.5329 47.5876 28.6948 47.8939 29.1298C48.3032 29.7108 48.4083 30.2581 47.5897 31.0413C46.2277 32.3439 43.0908 33.4317 39.5724 33.8269C40.6538 32.27 42.1646 30.7097 43.7902 29.645ZM31.063 32.6088C30.614 32.2589 29.5698 31.3634 30.9263 28.9349C31.6364 27.6635 32.4387 26.9179 33.0749 26.9179C33.1428 26.9179 33.209 26.9265 33.2727 26.9435C33.8499 27.0999 34.4579 28.0031 34.4348 29.1896C34.419 29.9877 34.0588 31.915 31.063 32.6088Z" fill="#9C9A96"/>
<path d="M39.6686 36.0165C42.8708 35.6747 47.0305 34.6032 49.1017 32.6216C50.5937 31.1951 50.8052 29.4626 49.6819 27.8694C48.2631 25.8571 45.6129 25.8365 42.5918 27.8151C40.465 29.2079 38.2031 31.5651 36.8821 33.979C35.8375 33.976 34.8676 33.8957 34.0101 33.7423C35.8533 32.5657 36.5911 30.7794 36.6219 29.2327C36.6629 27.1302 35.4952 25.2794 33.8448 24.8325C33.0266 24.6112 30.9186 24.463 29.0165 27.8685C28.1287 29.4579 27.9475 30.7388 28.1201 31.7496C27.8723 31.5608 27.6348 31.3459 27.4139 31.1075C25.8796 29.4532 25.4336 27.105 26.1898 24.6646C27.5416 20.302 34.7134 17.8731 38.8624 18.179C39.4639 18.2226 39.9894 17.7714 40.0339 17.169C40.0787 16.567 39.6263 16.0424 39.0239 15.9975C36.4147 15.8044 33.189 16.4675 30.3948 17.7706C27.1093 19.3027 24.8739 21.5214 24.1006 24.0169C23.1064 27.2251 23.7293 30.3517 25.81 32.5952C27.1306 34.0196 28.8819 34.8438 30.5007 34.8553C32.0811 35.7452 34.1345 36.0678 35.975 36.1447C35.6021 37.482 35.6328 38.7505 36.2617 39.7857C37.4191 41.6934 39.7271 42.791 42.3944 42.791C42.9477 42.791 43.5164 42.7435 44.0931 42.647C47.1176 42.1385 49.3799 40.3826 49.8567 38.1733C49.9844 37.5828 49.6089 37.0009 49.0184 36.8732C48.428 36.7463 47.8461 37.1214 47.7188 37.7114C47.4363 39.0197 45.8337 40.136 43.7304 40.4898C41.7061 40.8299 39.1892 40.3937 38.1313 38.6505C37.7857 38.0814 37.8831 37.1735 38.2988 36.1263C38.8325 36.0973 39.2994 36.0558 39.6686 36.0165ZM43.7902 29.645C44.4114 29.2379 45.6355 28.5329 46.6562 28.5329C47.145 28.5329 47.5876 28.6948 47.8939 29.1298C48.3032 29.7108 48.4083 30.2581 47.5897 31.0413C46.2277 32.3439 43.0908 33.4317 39.5724 33.8269C40.6538 32.27 42.1646 30.7097 43.7902 29.645ZM31.063 32.6088C30.614 32.2589 29.5698 31.3634 30.9263 28.9349C31.6364 27.6635 32.4387 26.9179 33.0749 26.9179C33.1428 26.9179 33.209 26.9265 33.2727 26.9435C33.8499 27.0999 34.4579 28.0031 34.4348 29.1896C34.419 29.9877 34.0588 31.915 31.063 32.6088Z" fill="url(#paint2_linear_743_10484)"/>
<path d="M28.5538 7.9375C28.8413 7.9375 29.1237 7.82043 29.3271 7.61664C29.5305 7.4137 29.6475 7.13129 29.6475 6.84375C29.6475 6.55579 29.5305 6.2738 29.3271 6.07043C29.1237 5.86706 28.8413 5.75 28.5538 5.75C28.2662 5.75 27.9838 5.86664 27.7805 6.07043C27.5771 6.2738 27.46 6.55493 27.46 6.84375C27.46 7.13129 27.5771 7.4137 27.7805 7.61664C27.9838 7.82043 28.2662 7.9375 28.5538 7.9375Z" fill="#9C9A96"/>
<path d="M28.5538 7.9375C28.8413 7.9375 29.1237 7.82043 29.3271 7.61664C29.5305 7.4137 29.6475 7.13129 29.6475 6.84375C29.6475 6.55579 29.5305 6.2738 29.3271 6.07043C29.1237 5.86706 28.8413 5.75 28.5538 5.75C28.2662 5.75 27.9838 5.86664 27.7805 6.07043C27.5771 6.2738 27.46 6.55493 27.46 6.84375C27.46 7.13129 27.5771 7.4137 27.7805 7.61664C27.9838 7.82043 28.2662 7.9375 28.5538 7.9375Z" fill="url(#paint3_linear_743_10484)"/>
</g>
<defs>
<linearGradient id="paint0_linear_743_10484" x1="0.116699" y1="0.5" x2="62.0597" y2="48.8916" gradientUnits="userSpaceOnUse">
<stop stop-color="#A193F2"/>
<stop offset="1" stop-color="#C44EB9"/>
</linearGradient>
<linearGradient id="paint1_linear_743_10484" x1="0.116699" y1="0.5" x2="62.0597" y2="48.8916" gradientUnits="userSpaceOnUse">
<stop stop-color="#A193F2"/>
<stop offset="1" stop-color="#C44EB9"/>
</linearGradient>
<linearGradient id="paint2_linear_743_10484" x1="0.116699" y1="0.5" x2="62.0597" y2="48.8916" gradientUnits="userSpaceOnUse">
<stop stop-color="#A193F2"/>
<stop offset="1" stop-color="#C44EB9"/>
</linearGradient>
<linearGradient id="paint3_linear_743_10484" x1="0.116699" y1="0.5" x2="62.0597" y2="48.8916" gradientUnits="userSpaceOnUse">
<stop stop-color="#A193F2"/>
<stop offset="1" stop-color="#C44EB9"/>
</linearGradient>
<clipPath id="clip0_743_10484">
<rect width="56" height="56" fill="white" transform="translate(0 0.5)"/>
</clipPath>
</defs>
</svg>
