<svg width="47" height="24" viewBox="0 0 47 24" fill="none" xmlns="http://www.w3.org/2000/svg">
<path d="M21 8C19.55 8 18.74 9.44 19.07 10.51L15.52 14.07C15.22 13.98 14.78 13.98 14.48 14.07L11.93 11.52C12.27 10.45 11.46 9 10 9C8.55 9 7.73 10.44 8.07 11.52L3.51 16.07C2.44 15.74 1 16.55 1 18C1 19.1 1.9 20 3 20C4.45 20 5.26 18.56 4.93 17.49L9.48 12.93C9.78 13.02 10.22 13.02 10.52 12.93L13.07 15.48C12.73 16.55 13.54 18 15 18C16.45 18 17.27 16.56 16.93 15.48L20.49 11.93C21.56 12.26 23 11.45 23 10C23 8.9 22.1 8 21 8Z" fill="url(#paint0_linear_744_10092)"/>
<path d="M15 9L15.94 6.93L18 6L15.94 5.07L15 3L14.08 5.07L12 6L14.08 6.93L15 9ZM3.5 11L4 9L6 8.5L4 8L3.5 6L3 8L1 8.5L3 9L3.5 11Z" fill="url(#paint1_linear_744_10092)"/>
<path d="M36.512 13.28H33.336V16.632H31.936V13.28H28.776V11.984H31.936V8.64H33.336V11.984H36.512V13.28ZM45.8173 16.696V18H39.5372V16.696H41.9373V9.48C41.9373 9.224 41.9453 8.96267 41.9612 8.696L40.1132 10.256C40.0332 10.32 39.9506 10.3627 39.8652 10.384C39.7852 10.4 39.7079 10.4 39.6332 10.384C39.5639 10.368 39.4999 10.344 39.4412 10.312C39.3879 10.2747 39.3452 10.2347 39.3132 10.192L38.7772 9.44L42.2492 6.456H43.6493V16.696H45.8173Z" fill="url(#paint2_linear_744_10092)"/>
<defs>
<linearGradient id="paint0_linear_744_10092" x1="12" y1="8" x2="12" y2="20" gradientUnits="userSpaceOnUse">
<stop stop-color="#F282F5"/>
<stop offset="1" stop-color="#6775F5"/>
</linearGradient>
<linearGradient id="paint1_linear_744_10092" x1="9.5" y1="3" x2="9.5" y2="11" gradientUnits="userSpaceOnUse">
<stop stop-color="#F282F5"/>
<stop offset="1" stop-color="#6775F5"/>
</linearGradient>
<linearGradient id="paint2_linear_744_10092" x1="37.5" y1="0" x2="37.5" y2="24" gradientUnits="userSpaceOnUse">
<stop stop-color="#F282F5"/>
<stop offset="1" stop-color="#6775F5"/>
</linearGradient>
</defs>
</svg>
