<svg width="104" height="104" viewBox="0 0 104 104" fill="none" xmlns="http://www.w3.org/2000/svg">
<g filter="url(#filter0_d_0_1)">
<circle cx="52" cy="52" r="33" fill="#495197"/>
</g>
<path d="M56.625 38H43.2083C41.435 38 40 39.435 40 41.2083V59.2917C40 61.065 41.435 62.5 43.2083 62.5H50.8967C50.2667 61.17 49.9167 59.6883 49.9167 58.125C49.9167 56.7833 50.1733 55.5 50.6517 54.3217C50.605 54.3333 50.5583 54.3333 50.5 54.3333H44.6667C44.025 54.3333 43.5 53.8083 43.5 53.1667C43.5 52.525 44.025 52 44.6667 52H50.5C50.9433 52 51.34 52.2567 51.5267 52.63C52.285 51.4517 53.265 50.4483 54.42 49.6667H44.6667C44.025 49.6667 43.5 49.1417 43.5 48.5C43.5 47.8583 44.025 47.3333 44.6667 47.3333H55.1667C55.8083 47.3333 56.3333 47.8583 56.3333 48.5C56.3333 48.5583 56.3333 48.605 56.3217 48.6517C57.4067 48.2083 58.5967 47.9517 59.8333 47.9283V41.2083C59.8333 39.435 58.3983 38 56.625 38V38ZM49.3333 45H44.6667C44.025 45 43.5 44.475 43.5 43.8333C43.5 43.1917 44.025 42.6667 44.6667 42.6667H49.3333C49.975 42.6667 50.5 43.1917 50.5 43.8333C50.5 44.475 49.975 45 49.3333 45Z" fill="white"/>
<path d="M60.125 50.25C55.7827 50.25 52.25 53.7827 52.25 58.125C52.25 62.4673 55.7827 66 60.125 66C64.4673 66 68 62.4673 68 58.125C68 53.7827 64.4673 50.25 60.125 50.25ZM63.3333 59.2917H61.2917V61.3333C61.2917 61.9773 60.769 62.5 60.125 62.5C59.481 62.5 58.9583 61.9773 58.9583 61.3333V59.2917H56.9167C56.2727 59.2917 55.75 58.769 55.75 58.125C55.75 57.481 56.2727 56.9583 56.9167 56.9583H58.9583V54.9167C58.9583 54.2727 59.481 53.75 60.125 53.75C60.769 53.75 61.2917 54.2727 61.2917 54.9167V56.9583H63.3333C63.9773 56.9583 64.5 57.481 64.5 58.125C64.5 58.769 63.9773 59.2917 63.3333 59.2917Z" fill="white"/>
<defs>
<filter id="filter0_d_0_1" x="0" y="0" width="104" height="104" filterUnits="userSpaceOnUse" color-interpolation-filters="sRGB">
<feFlood flood-opacity="0" result="BackgroundImageFix"/>
<feColorMatrix in="SourceAlpha" type="matrix" values="0 0 0 0 0 0 0 0 0 0 0 0 0 0 0 0 0 0 127 0" result="hardAlpha"/>
<feMorphology radius="3" operator="dilate" in="SourceAlpha" result="effect1_dropShadow_0_1"/>
<feOffset/>
<feGaussianBlur stdDeviation="8"/>
<feComposite in2="hardAlpha" operator="out"/>
<feColorMatrix type="matrix" values="0 0 0 0 0.286275 0 0 0 0 0.317647 0 0 0 0 0.592157 0 0 0 0.5 0"/>
<feBlend mode="normal" in2="BackgroundImageFix" result="effect1_dropShadow_0_1"/>
<feBlend mode="normal" in="SourceGraphic" in2="effect1_dropShadow_0_1" result="shape"/>
</filter>
</defs>
</svg>
