<svg width="24" height="24" viewBox="0 0 24 24" fill="none" xmlns="http://www.w3.org/2000/svg">
<path d="M11.9649 0.000109918C5.3251 0.0283179 -2.7424e-05 5.40257 1.05924e-10 11.9883C4.27399e-06 13.9385 0.595537 15.8193 1.49916 17.5409L0.0384822 22.9176C-0.000511923 23.0632 -0.000506513 23.2165 0.0384979 23.3622C0.0775022 23.5077 0.154128 23.6405 0.26066 23.747C0.367192 23.8535 0.499869 23.93 0.645329 23.9689C0.790789 24.0077 0.943897 24.0074 1.08924 23.9682L6.45678 22.5055C8.17589 23.4101 10.0495 24 11.9967 24C18.6129 23.9998 23.9998 18.6138 24 11.9883C23.9998 5.36287 18.6099 -0.0280624 11.9649 0.000109918ZM6.86168 8.55522H17.1383C17.2508 8.55566 17.3621 8.57829 17.4659 8.6218C17.5697 8.66532 17.6639 8.72888 17.7431 8.80885C17.8223 8.88882 17.8851 8.98364 17.9277 9.08789C17.9704 9.19213 17.9921 9.30377 17.9916 9.41643C17.9908 9.64279 17.9006 9.85962 17.7407 10.0197C17.5809 10.1797 17.3644 10.2701 17.1383 10.2709H6.86168C6.63564 10.2701 6.41911 10.1797 6.25927 10.0197C6.09943 9.85962 6.00925 9.64279 6.00837 9.41643C6.00793 9.30377 6.02965 9.19213 6.07229 9.08789C6.11494 8.98364 6.17767 8.88882 6.25691 8.80885C6.33615 8.72888 6.43034 8.66532 6.53411 8.6218C6.63787 8.57829 6.74919 8.55566 6.86168 8.55522ZM7.25488 13.704H14.6018C14.7148 13.7036 14.8269 13.7256 14.9314 13.7687C15.036 13.8118 15.1309 13.8752 15.2109 13.9553C15.2908 14.0354 15.3542 14.1305 15.3972 14.2352C15.4403 14.3398 15.4622 14.452 15.4618 14.5652C15.4614 14.6779 15.4388 14.7894 15.3953 14.8933C15.3519 14.9972 15.2884 15.0915 15.2085 15.1709C15.1287 15.2502 15.034 15.313 14.9299 15.3557C14.8258 15.3984 14.7143 15.4202 14.6018 15.4198H7.25488C7.14238 15.4202 7.0309 15.3984 6.92679 15.3557C6.82269 15.313 6.728 15.2502 6.64814 15.1709C6.56828 15.0915 6.50481 14.9972 6.46136 14.8933C6.4179 14.7894 6.39531 14.6779 6.39487 14.5652C6.39443 14.452 6.41637 14.3398 6.45943 14.2352C6.50249 14.1305 6.56583 14.0354 6.64577 13.9553C6.72572 13.8752 6.8207 13.8118 6.92524 13.7687C7.02979 13.7256 7.14182 13.7036 7.25488 13.704Z" fill="#8D8A8E"/>
</svg>
