<svg width="25" height="24" viewBox="0 0 25 24" fill="none" xmlns="http://www.w3.org/2000/svg">
<g id="fi_780607" clip-path="url(#clip0_2725_10568)">
<g id="Group">
<g id="Group_2">
<g id="Group_3">
<path id="Vector" d="M24.4614 10.2024C24.2676 10.1846 24.0971 10.3271 24.0794 10.5203C23.8884 12.608 22.9679 14.5731 21.4874 16.0535C17.8458 19.6952 11.7736 19.5934 8.27112 15.516C6.88981 13.8938 6.13643 11.8527 6.13643 9.69315C6.13643 7.28767 7.07051 5.02886 8.76663 3.33274C12.2738 -0.174345 17.9803 -0.174345 21.4874 3.33274C22.9871 4.83246 23.9099 6.82441 24.0857 8.9417C24.1018 9.13506 24.2713 9.2792 24.465 9.26275C24.6584 9.24667 24.8021 9.07689 24.786 8.88348C24.5964 6.60072 23.6014 4.45296 21.9843 2.83582C18.2032 -0.945297 12.0508 -0.94525 8.26971 2.83582C6.44089 4.66465 5.43368 7.09998 5.43368 9.6931C5.43368 11.9122 6.17182 14.0153 7.53068 15.722L6.42978 16.8229L6.21889 16.612C5.97275 16.3659 5.57225 16.3659 5.32606 16.612L1.25558 20.6826C0.654412 21.2838 0.654366 22.2568 1.25558 22.858L1.94774 23.5502C2.2476 23.85 2.64153 24 3.03542 24C3.42931 24 3.82325 23.8501 4.12306 23.5502L8.19358 19.4796C8.43972 19.2335 8.43972 18.833 8.19358 18.5868L7.98279 18.376L9.08247 17.2763C15.0894 22.0717 24.0772 18.2554 24.7793 10.5844C24.797 10.3911 24.6546 10.2202 24.4614 10.2024ZM3.62614 23.0533C3.30041 23.3791 2.77035 23.3791 2.44461 23.0533L1.75246 22.3612C1.42672 22.0354 1.42672 21.5054 1.75246 21.1796L5.77254 17.1596C7.14593 18.533 7.28192 18.6689 7.64623 19.0333L3.62614 23.0533ZM7.48587 17.8792L6.9267 17.32L7.98902 16.2576C8.17563 16.4607 8.36552 16.6493 8.54754 16.8174L7.48587 17.8792Z" fill="#696763"/>
<path id="Vector_2" d="M19.1712 10.9948C19.1695 10.9941 19.1678 10.9934 19.1661 10.9927L16.5505 9.96561V9.61316C17.0109 9.26394 17.3368 8.74686 17.437 8.1538C17.947 8.06591 18.3362 7.62079 18.3362 7.08623C18.3362 6.80141 18.2255 6.5421 18.0453 6.34856V5.62626C18.0453 4.01662 16.7358 2.70703 15.1261 2.70703C13.5165 2.70703 12.2069 4.01662 12.2069 5.62626V6.34865C11.6206 6.97846 11.9704 8.00821 12.8152 8.1539C12.9154 8.74691 13.2414 9.26399 13.7018 9.61321V9.96688L11.0892 10.9928C11.0874 10.9935 11.0857 10.9942 11.084 10.9949C11.0322 11.0162 9.81641 11.5323 9.81641 12.9483V14.1414C9.81641 14.4823 10.0937 14.7596 10.4346 14.7596H14.3078C14.5018 14.7596 14.6591 14.6023 14.6591 14.4082C14.6591 14.2142 14.5018 14.0569 14.3078 14.0569H12.5884V13.2535C12.5884 13.0594 12.431 12.9021 12.237 12.9021C12.0429 12.9021 11.8856 13.0594 11.8856 13.2535V14.0569H10.5191V12.9483C10.5191 12.0205 11.3028 11.6658 11.3499 11.6454L13.7566 10.7003C13.7743 10.7282 13.7957 10.754 13.8209 10.7763C14.9864 11.8026 14.9498 11.8089 15.1261 11.8089C15.2143 11.8089 15.2959 11.7774 15.3598 11.7212C16.5278 10.6925 16.4603 10.7595 16.4978 10.7L18.9055 11.6454C18.9448 11.6624 19.7361 12.0168 19.7361 12.9483V14.0569H18.3696V13.2535C18.3696 13.0594 18.2123 12.9021 18.0182 12.9021C17.8241 12.9021 17.6668 13.0594 17.6668 13.2535V14.0569H15.9475C15.7534 14.0569 15.5961 14.2142 15.5961 14.4082C15.5961 14.6023 15.7534 14.7596 15.9475 14.7596H19.7565C20.1327 14.7596 20.4388 14.4535 20.4388 14.0772V12.9483C20.4388 11.5322 19.223 11.016 19.1712 10.9948ZM17.47 6.7739C17.6851 6.92155 17.6902 7.24504 17.47 7.39874V6.7739ZM12.7823 7.39874C12.5629 7.24555 12.5665 6.92277 12.7823 6.7739V7.39874ZM12.9097 5.73454C12.9097 4.28072 13.992 3.40973 15.1262 3.40973C16.3484 3.40973 17.3426 4.40404 17.3426 5.62621V5.73398L16.603 4.93884C16.4522 4.77651 16.2051 4.75481 16.0299 4.88746C16.0198 4.89496 15.0033 5.63845 13.6862 5.63845C13.265 5.63845 13.1059 5.54071 12.9097 5.73454ZM15.8477 10.3537L15.1269 10.9886L14.406 10.3537C14.406 10.2153 14.4045 10.2058 14.4045 9.97677C14.8452 10.1155 15.3772 10.1248 15.8477 9.97677V10.3537ZM16.0137 9.13114C16.013 9.13157 16.0122 9.13185 16.0115 9.13232C15.0002 9.77056 13.5138 9.13588 13.486 7.79872C13.4859 7.75349 13.485 6.3817 13.485 6.33641C14.4605 6.38273 15.4539 6.07392 16.2453 5.58632L16.7672 6.14727C16.7672 8.05972 16.7676 7.7023 16.7664 7.80074C16.7548 8.36038 16.4571 8.8506 16.0137 9.13114Z" fill="#696763"/>
<path id="Vector_3" d="M15.1284 1.32227C12.8891 1.32227 10.7861 2.19198 9.20684 3.77125C7.62758 5.35046 6.75781 7.4535 6.75781 9.69277C6.75781 14.3258 10.4944 18.0633 15.1284 18.0633C19.7616 18.0633 23.4989 14.3264 23.4989 9.69277C23.4989 5.05965 19.7622 1.32227 15.1284 1.32227ZM15.1284 17.3606C10.8836 17.3606 7.46051 13.9383 7.46051 9.69281C7.46051 7.64119 8.2572 5.71473 9.70371 4.26817C11.1503 2.82165 13.0767 2.02497 15.1284 2.02497C19.3731 2.02497 22.7962 5.4473 22.7962 9.69277C22.7961 13.9375 19.3738 17.3606 15.1284 17.3606Z" fill="#696763"/>
</g>
</g>
</g>
</g>
<defs>
<clipPath id="clip0_2725_10568">
<rect width="24" height="24" fill="white" transform="translate(0.796875)"/>
</clipPath>
</defs>
</svg>
