<svg width="24" height="24" viewBox="0 0 24 24" fill="none" xmlns="http://www.w3.org/2000/svg">
<path d="M22.4376 13.5723C21.2548 13.0871 19.8957 13.5625 19.2734 14.6793L17.1554 13.8072C17.2394 13.2516 16.9329 12.7104 16.4132 12.4964C15.8934 12.2825 15.2948 12.4509 14.963 12.9046L12.7618 11.9982L14.9594 11.083C15.2935 11.5342 15.8923 11.6996 16.4105 11.4837C16.9289 11.2678 17.2333 10.7263 17.1481 10.1714L19.262 9.29109C19.9144 10.4582 21.364 10.9142 22.5672 10.3307C23.7705 9.74726 24.3098 8.32694 23.7971 7.09221C23.2846 5.85748 21.8977 5.2365 20.6348 5.67646C19.372 6.11643 18.6715 7.46472 19.0375 8.75052L16.9227 9.63122C16.5885 9.17963 15.9895 9.01423 15.4709 9.23012C14.9523 9.44601 14.6479 9.98792 14.7335 10.543L12.5367 11.4578L13.4428 9.25851C13.5028 9.26766 13.5633 9.27223 13.6239 9.27223C14.1524 9.27299 14.6212 8.93363 14.7855 8.43136C14.95 7.92927 14.7726 7.3786 14.346 7.06668L15.2189 4.94782C16.1494 5.20982 17.1479 4.91676 17.7891 4.19364C18.4302 3.47034 18.6014 2.44425 18.2297 1.55212C17.8049 0.532138 16.7654 -0.0924679 15.6651 0.0111884C14.5648 0.115035 13.6603 0.922945 13.4338 2.00429C13.2072 3.08582 13.7115 4.1885 14.6777 4.72488L13.8053 6.84241C13.2495 6.75857 12.7083 7.06477 12.4942 7.58439C12.28 8.104 12.4487 8.70269 12.9023 9.03443L11.9958 11.2348L11.0804 9.03805C11.5317 8.70403 11.6972 8.10534 11.4812 7.58705C11.2653 7.06877 10.7236 6.76466 10.1686 6.84984L9.28769 4.73574C10.4564 4.08122 10.9117 2.62889 10.3259 1.42446C9.73978 0.220216 8.31605 -0.318454 7.07948 0.196588C5.84273 0.711631 5.22235 2.10127 5.6649 3.36535C6.10746 4.62961 7.45933 5.32929 8.74736 4.96078L9.62828 7.07525C9.20402 7.38889 9.02925 7.93918 9.19468 8.44012C9.36012 8.94087 9.82859 9.2789 10.3562 9.27814C10.4177 9.27814 10.4793 9.27337 10.5403 9.26404L11.4553 11.4601L9.25548 10.5542C9.33934 9.99859 9.03306 9.45744 8.51331 9.24327C7.99357 9.02929 7.39472 9.19773 7.0629 9.65141L4.94332 8.77872C5.30316 7.49483 4.5993 6.15301 3.33795 5.71914C2.0768 5.28508 0.695957 5.90969 0.189361 7.14309C-0.317426 8.37648 0.225764 9.79108 1.42783 10.3686C2.63009 10.9462 4.07421 10.4864 4.7209 9.32025L6.83838 10.1922C6.75452 10.7478 7.0608 11.289 7.58055 11.5029C8.1003 11.7169 8.69914 11.5485 9.03096 11.0948L11.2319 12.0012L9.03458 12.9164C8.70047 12.4652 8.10163 12.2998 7.58322 12.5157C7.065 12.7316 6.76062 13.2731 6.84582 13.828L4.73138 14.7085C4.07803 13.5437 2.62952 13.0902 1.42841 13.6746C0.227289 14.2588 -0.309802 15.6782 0.203846 16.911C0.717494 18.1436 2.10348 18.7621 3.36445 18.3212C4.62522 17.8803 5.32336 16.5329 4.95647 15.2489L7.07167 14.368C7.40559 14.8196 8.00462 14.9853 8.52322 14.7693C9.04183 14.5534 9.34601 14.0115 9.26063 13.4564L11.4572 12.5416L10.5509 14.7411C9.99517 14.6572 9.45389 14.9634 9.23985 15.483C9.02582 16.0026 9.1943 16.6013 9.64791 16.9331L8.77519 19.0516C7.48926 18.6899 6.14443 19.3936 5.70874 20.6559C5.27285 21.9181 5.89724 23.3013 7.13228 23.8096C8.36751 24.318 9.78495 23.7753 10.3645 22.5722C10.9439 21.369 10.4844 19.9227 9.31666 19.2745L10.189 17.157C10.249 17.1661 10.3097 17.1707 10.3703 17.1707C10.8986 17.1713 11.3674 16.8319 11.5317 16.3298C11.696 15.8277 11.5186 15.2769 11.092 14.9651L11.9987 12.7645L12.9141 14.9613C12.4613 15.2948 12.2947 15.8942 12.511 16.4133C12.7273 16.9321 13.2701 17.2362 13.8257 17.1495L14.7066 19.2636C13.5417 19.9168 13.0883 21.3648 13.6729 22.5656C14.2572 23.7662 15.6769 24.303 16.9099 23.7894C18.1428 23.2757 18.7613 21.8901 18.3201 20.6298C17.879 19.3694 16.5314 18.6714 15.2471 19.0384L14.366 16.9241C14.8177 16.5901 14.9834 15.9912 14.7674 15.4727C14.5513 14.9543 14.0094 14.65 13.4542 14.7355L12.5392 12.5393L14.739 13.4452C14.655 14.0008 14.9615 14.5421 15.4812 14.7561C16.0009 14.9701 16.5996 14.8016 16.9314 14.348L19.0506 15.2207C18.6839 16.5242 19.4127 17.8847 20.7013 18.3016C21.9901 18.7187 23.378 18.0432 23.845 16.7721C24.3117 15.5008 23.6904 14.0879 22.438 13.5723H22.4376Z" fill="#2B1111"/>
</svg>
