<svg width="32" height="32" viewBox="0 0 32 32" fill="none" xmlns="http://www.w3.org/2000/svg">
<path d="M20 3H26C27.6569 3 29 4.34315 29 6V12C29 13.6569 27.6569 15 26 15H20C18.3431 15 17 13.6569 17 12V6C17 4.34315 18.3431 3 20 3Z" fill="#DCDFFA"/>
<path d="M21.5998 17.036C21.6947 16.8933 21.8234 16.7762 21.9745 16.6952C22.1256 16.6143 22.2943 16.5719 22.4658 16.5719C22.6372 16.5719 22.8059 16.6143 22.957 16.6952C23.1081 16.7762 23.2368 16.8933 23.3318 17.036L28.7938 26.5C28.8815 26.652 28.9277 26.8245 28.9277 27C28.9277 27.1755 28.8815 27.348 28.7938 27.5C28.706 27.652 28.5798 27.7783 28.4278 27.866C28.2757 27.9538 28.1033 28 27.9278 28H16.9998C16.8242 28 16.6518 27.9538 16.4998 27.866C16.3478 27.7783 16.2215 27.652 16.1338 27.5C16.046 27.348 15.9998 27.1755 15.9998 27C15.9998 26.8245 16.046 26.652 16.1338 26.5L21.5998 17.036Z" fill="#DCDFFA"/>
<path d="M9 15C5.68629 15 3 12.3137 3 9C3 5.68629 5.68629 3 9 3C12.3137 3 15 5.68629 15 9C15 12.3137 12.3137 15 9 15Z" fill="#DCDFFA"/>
<path d="M4.71814 18.025C5.45924 17.5411 6.34254 17.3227 7.22379 17.4055C8.10504 17.4883 8.93218 17.8675 9.57014 18.481C10.0911 17.9697 10.7463 17.6163 11.4598 17.462C12.1733 17.3077 12.9159 17.3588 13.6016 17.6092C14.2873 17.8596 14.888 18.2992 15.3341 18.8771C15.7802 19.4549 16.0534 20.1473 16.1221 20.874C16.1763 21.441 16.1044 22.0129 15.9117 22.5489C15.7189 23.0848 15.41 23.5715 15.0071 23.974L10.9841 28C10.7984 28.1858 10.5779 28.3332 10.3352 28.4338C10.0925 28.5344 9.83235 28.5861 9.56964 28.5861C9.30693 28.5861 9.04679 28.5344 8.80408 28.4338C8.56138 28.3332 8.34087 28.1858 8.15514 28L4.13314 23.977C3.72902 23.5724 3.41957 23.0833 3.22702 22.5449C3.03448 22.0064 2.96363 21.432 3.01956 20.8628C3.0755 20.2937 3.25683 19.7441 3.55052 19.2534C3.84422 18.7627 4.24298 18.3432 4.71814 18.025Z" fill="#DCDFFA"/>
</svg>
