<svg width="24" height="24" viewBox="0 0 24 24" fill="none" xmlns="http://www.w3.org/2000/svg">
<path d="M15.6923 0H21.2308C22.7602 0 24 1.25988 24 2.81403V8.44208C24 9.99622 22.7602 11.2561 21.2308 11.2561H15.6923C14.1629 11.2561 12.9231 9.99622 12.9231 8.44208V2.81403C12.9231 1.25988 14.1629 0 15.6923 0Z" fill="#8D8A8E"/>
<path d="M17.1693 13.1658C17.2569 13.0319 17.3758 12.9221 17.5152 12.8462C17.6547 12.7702 17.8105 12.7305 17.9687 12.7305C18.1269 12.7305 18.2827 12.7702 18.4222 12.8462C18.5616 12.9221 18.6805 13.0319 18.7681 13.1658L23.8099 22.0431C23.8909 22.1857 23.9336 22.3475 23.9336 22.5121C23.9336 22.6768 23.8909 22.8385 23.8099 22.9811C23.7289 23.1237 23.6124 23.2421 23.4721 23.3245C23.3317 23.4068 23.1726 23.4501 23.0105 23.4501H12.9232C12.7611 23.4501 12.6019 23.4068 12.4616 23.3245C12.3213 23.2421 12.2048 23.1237 12.1238 22.9811C12.0428 22.8385 12.0001 22.6768 12.0001 22.5121C12.0001 22.3475 12.0428 22.1857 12.1238 22.0431L17.1693 13.1658Z" fill="#8D8A8E"/>
<path d="M5.53771 11.2561C2.4789 11.2561 -0.000751495 8.73634 -0.000751495 5.62805C-0.000751495 2.51976 2.4789 0 5.53771 0C8.59652 0 11.0762 2.51976 11.0762 5.62805C11.0762 8.73634 8.59652 11.2561 5.53771 11.2561Z" fill="#8D8A8E"/>
<path d="M1.58597 14.0936C2.27007 13.6397 3.08542 13.4348 3.89888 13.5125C4.71235 13.5902 5.47586 13.9458 6.06474 14.5214C6.54561 14.0417 7.15039 13.7103 7.809 13.5655C8.46762 13.4208 9.15311 13.4686 9.78606 13.7036C10.419 13.9385 10.9735 14.3508 11.3853 14.8928C11.7971 15.4348 12.0493 16.0843 12.1127 16.766C12.1627 17.2978 12.0964 17.8343 11.9185 18.337C11.7405 18.8397 11.4554 19.2962 11.0835 19.6738L7.36997 23.4503C7.19853 23.6245 6.99498 23.7628 6.77095 23.8571C6.54691 23.9514 6.30678 24 6.06428 24C5.82178 24 5.58165 23.9514 5.35762 23.8571C5.13358 23.7628 4.93003 23.6245 4.75859 23.4503L1.04597 19.6766C0.672941 19.2971 0.387292 18.8383 0.209559 18.3332C0.031826 17.8282 -0.0335741 17.2893 0.0180588 16.7555C0.0696917 16.2217 0.237076 15.7061 0.508178 15.2458C0.77928 14.7856 1.14737 14.3921 1.58597 14.0936Z" fill="#8D8A8E"/>
</svg>
