<svg width="24" height="24" viewBox="0 0 24 24" fill="none" xmlns="http://www.w3.org/2000/svg">
<path d="M21.7068 19.8165C22.0426 19.3659 22.2415 18.8083 22.2415 18.2052C22.2415 16.7114 21.022 15.4961 19.5229 15.4961C18.0238 15.4961 16.8042 16.7114 16.8042 18.2052C16.8042 18.8097 17.0041 19.3685 17.3412 19.8198C16.706 20.0963 16.1612 20.5409 15.7626 21.0968C15.3626 20.5387 14.8152 20.0929 14.1769 19.8165C14.5127 19.3659 14.7116 18.8083 14.7116 18.2052C14.7116 16.7114 13.4921 15.4961 11.993 15.4961C10.4939 15.4961 9.27433 16.7114 9.27433 18.2052C9.27433 18.8097 9.4742 19.3685 9.81135 19.8198C9.17737 20.0958 8.63339 20.5391 8.2351 21.0935C7.83529 20.537 7.28872 20.0923 6.65169 19.8165C6.98747 19.3658 7.18641 18.8082 7.18641 18.2052C7.18641 16.7114 5.96682 15.4961 4.46777 15.4961C2.96871 15.4961 1.74913 16.7113 1.74913 18.2052C1.74913 18.8097 1.949 19.3685 2.28615 19.8197C0.942043 20.4049 0 21.7417 0 23.2943V23.9994H24V23.2943C24.0001 21.739 23.0547 20.4001 21.7068 19.8165Z" fill="#8D8A8E"/>
<path d="M16.8236 8.11692L13.8224 7.17131L11.9924 4.61914L10.1624 7.17131L7.16113 8.11692L9.03148 10.6398L9.00651 13.7764L11.9924 12.7835L14.9783 13.7764L14.9533 10.6398L16.8236 8.11692Z" fill="#8D8A8E"/>
<path d="M12.71 0H11.2949V2.01924H12.71V0Z" fill="#8D8A8E"/>
<path d="M21.8594 8.4834H19.833V9.8935H21.8594V8.4834Z" fill="#8D8A8E"/>
<path d="M4.17189 8.4834H2.14551V9.8935H4.17189V8.4834Z" fill="#8D8A8E"/>
<path d="M19.0186 2.00092L17.3496 3.66406L18.3502 4.66114L20.0192 2.99801L19.0186 2.00092Z" fill="#8D8A8E"/>
<path d="M4.97619 1.9912L3.97559 2.98828L5.64461 4.65142L6.64522 3.65434L4.97619 1.9912Z" fill="#8D8A8E"/>
</svg>
