<svg width="35" height="35" viewBox="0 0 35 35" fill="none" xmlns="http://www.w3.org/2000/svg">
<path d="M0.00478807 7.28936C-0.0241686 7.02447 0.0609681 6.75977 0.238918 6.56142C0.416869 6.36308 0.670817 6.24983 0.937288 6.24999H4.99979C5.34497 6.24999 5.62479 5.97017 5.62479 5.62499C5.62479 5.27981 5.34497 4.99999 4.99979 4.99999H2.18729C1.92085 5.00062 1.66674 4.88786 1.48843 4.68988C1.31013 4.4919 1.22449 4.2274 1.25291 3.96249C1.33289 3.46438 1.77259 3.10468 2.27666 3.12499H6.24979C6.59497 3.12499 6.87479 2.84516 6.87479 2.49999C6.87479 2.15481 6.59497 1.87499 6.24979 1.87499H3.43729C3.17085 1.87562 2.91674 1.76286 2.73843 1.56488C2.56013 1.3669 2.47449 1.1024 2.50291 0.837486C2.58263 0.339231 3.02249 -0.0206048 3.52666 -1.37415e-05H12.7823C12.8962 0.00085079 13.0077 0.0328366 13.1048 0.0924863L15.6323 1.60624C15.9232 1.78064 16.2556 1.87347 16.5948 1.87499H22.4998V7.43061L21.4173 6.54436C20.605 5.92435 19.4624 5.98716 18.7229 6.69249C18.1739 7.22497 17.983 8.02733 18.2335 8.74999H16.1379C15.646 8.75206 15.1747 8.94734 14.8254 9.29374L8.94354 15.1275L8.93104 15.14L8.67104 15.3975C8.36617 15.6955 7.87804 15.6922 7.57729 15.39C7.30278 15.1144 7.276 14.6777 7.51479 14.3706L9.23354 12.2706C9.38637 12.0837 9.41788 11.8255 9.31447 11.6073C9.21106 11.3891 8.99123 11.25 8.74979 11.25H1.65166C1.1484 11.2696 0.70971 10.9104 0.629788 10.4131C0.601213 10.1484 0.686522 9.88406 0.864429 9.68601C1.04234 9.48795 1.29606 9.37487 1.56229 9.37499H4.99979C5.34497 9.37499 5.62479 9.09517 5.62479 8.74999C5.62479 8.40481 5.34497 8.12499 4.99979 8.12499H1.02666C0.523898 8.14445 0.0855328 7.78598 0.00478807 7.28936ZM10.4073 34.37C10.1441 34.3984 9.88141 34.3129 9.68541 34.135C9.4885 33.9564 9.37577 33.7033 9.37479 33.4375V33.4281V30C9.37479 29.6548 9.09497 29.375 8.74979 29.375C8.40461 29.375 8.12479 29.6548 8.12479 30V33.4375V33.4462V33.9744C8.14195 34.4794 7.77964 34.9179 7.28041 34.9962C7.01781 35.0248 6.75559 34.9392 6.56041 34.7612C6.36305 34.5825 6.25026 34.3288 6.24979 34.0625V32.8125V32.8V30C6.24979 29.6548 5.96997 29.375 5.62479 29.375C5.27961 29.375 4.99979 29.6548 4.99979 30V32.8125V32.82C4.99812 33.085 4.88436 33.3369 4.68666 33.5134C4.48896 33.6899 4.2258 33.7745 3.96229 33.7462C3.46428 33.6665 3.10452 33.2271 3.12479 32.7231V31.5625V31.5531V28.75C3.12479 28.4048 2.84497 28.125 2.49979 28.125C2.15461 28.125 1.87479 28.4048 1.87479 28.75V31.5625V31.5681C1.87363 31.8333 1.76018 32.0857 1.56256 32.2626C1.36494 32.4394 1.10164 32.5244 0.837913 32.4962C0.340049 32.4166 -0.019827 31.9776 -0.000211945 31.4737V22.2181C0.000751186 22.1055 0.0302082 21.995 0.085413 21.8969L1.60604 19.3681C1.78008 19.0773 1.87289 18.7451 1.87479 18.4062V12.5H7.42979L6.54291 13.5831C5.97115 14.2786 5.93048 15.2691 6.44332 16.009C6.95615 16.749 7.89786 17.0587 8.74979 16.7675V18.8625C8.75186 19.3544 8.94714 19.8258 9.29354 20.175L15.1223 26.05C15.1292 26.0575 15.136 26.0644 15.1435 26.0712L15.3979 26.3275C15.6169 26.5504 15.6806 26.883 15.5595 27.1711C15.4383 27.4591 15.156 27.6462 14.8435 27.6456C14.6735 27.6464 14.5082 27.5893 14.3748 27.4837L12.2754 25.7656C12.0885 25.6095 11.828 25.5762 11.6079 25.6802C11.3877 25.7841 11.248 26.0065 11.2498 26.25V33.3481C11.2671 33.8525 10.9058 34.2908 10.4073 34.37ZM34.9948 27.7106C35.0237 27.9755 34.9386 28.2402 34.7607 28.4386C34.5827 28.6369 34.3288 28.7501 34.0623 28.75H29.9998C29.6546 28.75 29.3748 29.0298 29.3748 29.375C29.3748 29.7202 29.6546 30 29.9998 30H32.8123C33.0787 29.9994 33.3328 30.1121 33.5111 30.3101C33.6894 30.5081 33.7751 30.7726 33.7467 31.0375C33.6667 31.5356 33.227 31.8953 32.7229 31.875H28.7498C28.4046 31.875 28.1248 32.1548 28.1248 32.5C28.1248 32.8452 28.4046 33.125 28.7498 33.125H31.5623C31.8287 33.1244 32.0828 33.2371 32.2611 33.4351C32.4394 33.6331 32.5251 33.8976 32.4967 34.1625C32.4169 34.6607 31.9771 35.0206 31.4729 35H22.2173C22.1034 34.9991 21.9918 34.9671 21.8948 34.9075L19.3673 33.3937C19.0764 33.2193 18.7439 33.1265 18.4048 33.125H12.4998V27.5681L13.5823 28.4544C14.3939 29.0768 15.5382 29.0139 16.2767 28.3062C16.8259 27.7744 17.0174 26.9726 16.7679 26.25H18.8617C19.3535 26.2479 19.8249 26.0526 20.1742 25.7062L26.0542 19.875L26.076 19.8537L26.3304 19.6037C26.6353 19.3057 27.1234 19.309 27.4242 19.6112C27.6987 19.8868 27.7254 20.3235 27.4867 20.6306L25.7679 22.7306C25.6161 22.9173 25.5849 23.1746 25.6877 23.3921C25.7906 23.6097 26.0092 23.7488 26.2498 23.75H33.3479C33.8512 23.7303 34.2899 24.0896 34.3698 24.5869C34.3984 24.8516 34.3131 25.1159 34.1351 25.314C33.9572 25.512 33.7035 25.6251 33.4373 25.625H29.9998C29.6546 25.625 29.3748 25.9048 29.3748 26.25C29.3748 26.5952 29.6546 26.875 29.9998 26.875H33.9748C34.4769 26.8565 34.9141 27.2147 34.9948 27.7106ZM34.9998 12.7819C34.9988 12.8957 34.9671 13.0071 34.9079 13.1044L33.3935 15.6319C33.2192 15.9225 33.1264 16.2548 33.1248 16.5937V22.5H27.5679L28.4548 21.4169C29.0985 20.6123 29.0342 19.4522 28.3054 18.7237C27.7594 18.1998 26.97 18.0179 26.2498 18.25V16.1375C26.2477 15.6456 26.0524 15.1742 25.706 14.825L19.8748 8.94124L19.8629 8.92936L19.6048 8.66936C19.4584 8.52471 19.3766 8.32704 19.378 8.12122C19.3794 7.91539 19.4639 7.71886 19.6123 7.57624C19.8917 7.3097 20.3225 7.28331 20.6323 7.51374L22.7317 9.23186C22.9184 9.38293 23.1751 9.41366 23.3922 9.31091C23.6093 9.20818 23.7483 8.99014 23.7498 8.74999V1.65186C23.7305 1.14849 24.0899 0.709886 24.5873 0.629986C24.8519 0.601601 25.1161 0.686997 25.314 0.864882C25.5119 1.04277 25.6249 1.29638 25.6248 1.56249V4.99999C25.6248 5.34517 25.9046 5.62499 26.2498 5.62499C26.595 5.62499 26.8748 5.34517 26.8748 4.99999V1.02686C26.8552 0.523391 27.2148 0.084626 27.7123 0.00498627C27.9769 -0.0233986 28.2411 0.061997 28.439 0.239882C28.6369 0.417767 28.7499 0.671379 28.7498 0.937486V4.99999C28.7498 5.34517 29.0296 5.62499 29.3748 5.62499C29.72 5.62499 29.9998 5.34517 29.9998 4.99999V2.18749C29.9993 1.92116 30.1122 1.66721 30.3101 1.48905C30.5081 1.31089 30.7725 1.22533 31.0373 1.25374C31.5353 1.33343 31.8951 1.77292 31.8748 2.27686V6.24999C31.8748 6.59517 32.1546 6.87499 32.4998 6.87499C32.845 6.87499 33.1248 6.59517 33.1248 6.24999V3.43749C33.1243 3.17116 33.2372 2.91721 33.4351 2.73905C33.6331 2.56089 33.8975 2.47533 34.1623 2.50374C34.6599 2.58366 35.0194 3.02263 34.9998 3.52624V12.7819Z" fill="#DCDFFA"/>
</svg>
