<svg width="25" height="24" viewBox="0 0 25 24" fill="none" xmlns="http://www.w3.org/2000/svg">
<g id="fi_6291992" clip-path="url(#clip0_2725_10552)">
<path id="Vector" d="M8.04857 5.41588L7.90208 6.31456C7.89072 6.38403 7.89915 6.45529 7.9264 6.5202C7.95364 6.5851 7.99861 6.64102 8.05615 6.68156C8.1137 6.7221 8.18149 6.74562 8.25178 6.74943C8.32207 6.75324 8.39201 6.73719 8.4536 6.70311L9.19921 6.29112L9.94481 6.70311C10.0064 6.73719 10.0763 6.75324 10.1466 6.74943C10.2169 6.74562 10.2847 6.7221 10.3423 6.68156C10.3998 6.64102 10.4448 6.5851 10.472 6.5202C10.4993 6.45529 10.5077 6.38403 10.4963 6.31456L10.3498 5.41588L10.9676 4.7827C11.0158 4.73336 11.0494 4.6717 11.0648 4.6045C11.0801 4.53731 11.0767 4.46717 11.0548 4.40181C11.0329 4.33644 10.9934 4.27838 10.9406 4.234C10.8879 4.18962 10.8239 4.16064 10.7558 4.15025L9.91717 4.02208L9.53869 3.21569C9.50843 3.15121 9.46043 3.09668 9.40031 3.05848C9.34019 3.02029 9.27044 3 9.19921 3C9.12798 3 9.05823 3.02029 8.99811 3.05848C8.93799 3.09668 8.88999 3.15121 8.85973 3.21569L8.48125 4.02208L7.64263 4.15025C7.57448 4.16064 7.51052 4.18962 7.45777 4.234C7.40502 4.27838 7.36553 4.33644 7.34363 4.40181C7.32174 4.46717 7.31829 4.53731 7.33366 4.6045C7.34904 4.6717 7.38264 4.73336 7.43078 4.7827L8.04857 5.41588ZM8.79235 4.73326C8.85324 4.72401 8.91091 4.69988 8.96025 4.66303C9.0096 4.62617 9.04909 4.57772 9.07525 4.52196L9.19921 4.25792L9.32317 4.52196C9.34933 4.57772 9.38882 4.62617 9.43817 4.66303C9.48751 4.69988 9.54518 4.72401 9.60607 4.73326L9.92101 4.7816L9.68078 5.0277C9.63979 5.06971 9.60924 5.12075 9.59159 5.17673C9.57393 5.2327 9.56968 5.29204 9.57915 5.34996L9.63189 5.67333L9.38067 5.53453C9.32513 5.50379 9.26269 5.48766 9.19921 5.48766C9.13573 5.48766 9.07329 5.50379 9.01775 5.53453L8.76653 5.67333L8.81927 5.34996C8.82874 5.29204 8.82448 5.2327 8.80683 5.17673C8.78918 5.12075 8.75863 5.06971 8.71764 5.0277L8.47741 4.78161L8.79235 4.73326Z" fill="#696763"/>
<path id="Vector_2" d="M13.6992 12V2.625C13.699 2.42616 13.6199 2.23552 13.4793 2.09492C13.3387 1.95432 13.1481 1.87523 12.9492 1.875H5.44922C5.25038 1.87523 5.05974 1.95432 4.91914 2.09492C4.77854 2.23552 4.69945 2.42616 4.69922 2.625V12C4.69945 12.1988 4.77854 12.3895 4.91914 12.5301C5.05974 12.6707 5.25038 12.7498 5.44922 12.75H12.9492C13.1481 12.7498 13.3387 12.6707 13.4793 12.5301C13.6199 12.3895 13.699 12.1988 13.6992 12ZM5.44922 2.625H12.9492L12.9498 12H11.4492V11.25C11.4483 10.8939 11.3458 10.5455 11.1539 10.2455C10.962 9.94559 10.6886 9.70656 10.3657 9.55646C10.5801 9.29323 10.6978 8.96448 10.6992 8.625C10.6992 8.22718 10.5412 7.84564 10.2599 7.56434C9.97857 7.28304 9.59704 7.125 9.19922 7.125C8.80139 7.125 8.41986 7.28304 8.13856 7.56434C7.85725 7.84564 7.69922 8.22718 7.69922 8.625C7.70067 8.96448 7.81839 9.29323 8.03277 9.55646C7.70987 9.70656 7.43644 9.94559 7.24453 10.2455C7.05262 10.5455 6.95018 10.8939 6.94922 11.25V12H5.44922V2.625ZM9.19922 9.375C9.05088 9.375 8.90588 9.33101 8.78254 9.2486C8.6592 9.16619 8.56307 9.04906 8.50631 8.91201C8.44954 8.77497 8.43469 8.62417 8.46363 8.47868C8.49257 8.3332 8.564 8.19956 8.66889 8.09467C8.77378 7.98978 8.90742 7.91835 9.0529 7.88941C9.19839 7.86047 9.34919 7.87532 9.48623 7.93209C9.62328 7.98886 9.74041 8.08499 9.82282 8.20832C9.90523 8.33166 9.94922 8.47666 9.94922 8.625C9.94899 8.82384 9.8699 9.01448 9.7293 9.15508C9.58869 9.29568 9.39806 9.37477 9.19922 9.375ZM8.82422 10.125H9.57422C9.87249 10.1253 10.1584 10.244 10.3694 10.4549C10.5803 10.6658 10.6989 10.9517 10.6992 11.25V12H7.69922V11.25C7.69954 10.9517 7.81818 10.6658 8.02908 10.4549C8.23999 10.244 8.52595 10.1253 8.82422 10.125Z" fill="#696763"/>
<path id="Vector_3" d="M0.949219 23.625H17.4492C17.4985 23.625 17.5472 23.6153 17.5927 23.5965C17.6382 23.5776 17.6796 23.55 17.7144 23.5152C17.7492 23.4804 17.7769 23.439 17.7957 23.3935C17.8145 23.348 17.8242 23.2992 17.8242 23.25V0.75C17.8242 0.700751 17.8145 0.651981 17.7957 0.606479C17.7769 0.560976 17.7492 0.519631 17.7144 0.484806C17.6796 0.449982 17.6382 0.42236 17.5927 0.403519C17.5472 0.384678 17.4985 0.374987 17.4492 0.375H0.949219C0.899969 0.374987 0.8512 0.384678 0.805697 0.403519C0.760194 0.42236 0.71885 0.449982 0.684025 0.484806C0.649201 0.519631 0.621579 0.560976 0.602738 0.606479C0.583897 0.651981 0.574206 0.700751 0.574219 0.75V23.25C0.574206 23.2992 0.583897 23.348 0.602738 23.3935C0.621579 23.439 0.649201 23.4804 0.684025 23.5152C0.71885 23.55 0.760194 23.5776 0.805697 23.5965C0.8512 23.6153 0.899969 23.625 0.949219 23.625ZM1.32422 1.125H17.0742V22.875H1.32422V1.125Z" fill="#696763"/>
<path id="Vector_4" d="M5.07422 13.875H3.57422C3.52497 13.875 3.4762 13.8847 3.4307 13.9035C3.38519 13.9224 3.34385 13.95 3.30903 13.9848C3.2742 14.0196 3.24658 14.061 3.22774 14.1065C3.2089 14.152 3.19921 14.2008 3.19922 14.25V15.75C3.19921 15.7992 3.2089 15.848 3.22774 15.8935C3.24658 15.939 3.2742 15.9804 3.30903 16.0152C3.34385 16.05 3.38519 16.0776 3.4307 16.0965C3.4762 16.1153 3.52497 16.125 3.57422 16.125H5.07422C5.12347 16.125 5.17224 16.1153 5.21774 16.0965C5.26324 16.0776 5.30459 16.05 5.33941 16.0152C5.37424 15.9804 5.40186 15.939 5.4207 15.8935C5.43954 15.848 5.44923 15.7992 5.44922 15.75V14.25C5.44923 14.2008 5.43954 14.152 5.4207 14.1065C5.40186 14.061 5.37424 14.0196 5.33941 13.9848C5.30459 13.95 5.26324 13.9224 5.21774 13.9035C5.17224 13.8847 5.12347 13.875 5.07422 13.875ZM4.69922 15.375H3.94922V14.625H4.69922V15.375Z" fill="#696763"/>
<path id="Vector_5" d="M5.07422 16.875H3.57422C3.52497 16.875 3.4762 16.8847 3.4307 16.9035C3.38519 16.9224 3.34385 16.95 3.30903 16.9848C3.2742 17.0196 3.24658 17.061 3.22774 17.1065C3.2089 17.152 3.19921 17.2008 3.19922 17.25V18.75C3.19921 18.7992 3.2089 18.848 3.22774 18.8935C3.24658 18.939 3.2742 18.9804 3.30903 19.0152C3.34385 19.05 3.38519 19.0776 3.4307 19.0965C3.4762 19.1153 3.52497 19.125 3.57422 19.125H5.07422C5.12347 19.125 5.17224 19.1153 5.21774 19.0965C5.26324 19.0776 5.30459 19.05 5.33941 19.0152C5.37424 18.9804 5.40186 18.939 5.4207 18.8935C5.43954 18.848 5.44923 18.7992 5.44922 18.75V17.25C5.44923 17.2008 5.43954 17.152 5.4207 17.1065C5.40186 17.061 5.37424 17.0196 5.33941 16.9848C5.30459 16.95 5.26324 16.9224 5.21774 16.9035C5.17224 16.8847 5.12347 16.875 5.07422 16.875ZM4.69922 18.375H3.94922V17.625H4.69922V18.375Z" fill="#696763"/>
<path id="Vector_6" d="M5.07422 19.875H3.57422C3.52497 19.875 3.4762 19.8847 3.4307 19.9035C3.38519 19.9224 3.34385 19.95 3.30903 19.9848C3.2742 20.0196 3.24658 20.061 3.22774 20.1065C3.2089 20.152 3.19921 20.2008 3.19922 20.25V21.75C3.19921 21.7992 3.2089 21.848 3.22774 21.8935C3.24658 21.939 3.2742 21.9804 3.30903 22.0152C3.34385 22.05 3.38519 22.0776 3.4307 22.0965C3.4762 22.1153 3.52497 22.125 3.57422 22.125H5.07422C5.12347 22.125 5.17224 22.1153 5.21774 22.0965C5.26324 22.0776 5.30459 22.05 5.33941 22.0152C5.37424 21.9804 5.40186 21.939 5.4207 21.8935C5.43954 21.848 5.44923 21.7992 5.44922 21.75V20.25C5.44923 20.2008 5.43954 20.152 5.4207 20.1065C5.40186 20.061 5.37424 20.0196 5.33941 19.9848C5.30459 19.95 5.26324 19.9224 5.21774 19.9035C5.17224 19.8847 5.12347 19.875 5.07422 19.875ZM4.69922 21.375H3.94922V20.625H4.69922V21.375Z" fill="#696763"/>
<path id="Vector_7" d="M6.94922 14.625H15.1992V15.375H6.94922V14.625Z" fill="#696763"/>
<path id="Vector_8" d="M6.94922 17.625H15.1992V18.375H6.94922V17.625Z" fill="#696763"/>
<path id="Vector_9" d="M6.94922 20.625H15.1992V21.375H6.94922V20.625Z" fill="#696763"/>
<path id="Vector_10" d="M23.5679 8.26941L22.6992 7.97985V6.75C22.6989 6.45173 22.5803 6.16577 22.3694 5.95486C22.1584 5.74396 21.8725 5.62533 21.5742 5.625H20.8242C20.526 5.62533 20.24 5.74396 20.0291 5.95486C19.8182 6.16577 19.6995 6.45173 19.6992 6.75V19.5C19.7002 19.558 19.7149 19.6149 19.7422 19.666L19.7388 19.6677L20.8638 21.9177C20.8949 21.98 20.9428 22.0324 21.0021 22.069C21.0613 22.1056 21.1296 22.125 21.1992 22.125C21.2689 22.125 21.3371 22.1056 21.3964 22.069C21.4556 22.0324 21.5035 21.98 21.5347 21.9177L22.6597 19.6677L22.6563 19.666C22.6835 19.6149 22.6982 19.558 22.6992 19.5V8.7702L23.0742 8.89526V12H23.8242V8.625C23.8243 8.54632 23.7995 8.46962 23.7535 8.40579C23.7075 8.34196 23.6425 8.29425 23.5679 8.26941ZM20.4492 8.25H21.9492V19.125H20.4492V8.25ZM20.8242 6.375H21.5742C21.6736 6.3751 21.769 6.41464 21.8393 6.48494C21.9096 6.55525 21.9491 6.65057 21.9492 6.75V7.5H20.4492V6.75C20.4493 6.65057 20.4889 6.55525 20.5592 6.48494C20.6295 6.41464 20.7248 6.3751 20.8242 6.375ZM21.1992 20.9114L20.681 19.875H21.7174L21.1992 20.9114Z" fill="#696763"/>
</g>
<defs>
<clipPath id="clip0_2725_10552">
<rect width="24" height="24" fill="white" transform="translate(0.199219)"/>
</clipPath>
</defs>
</svg>
