<svg width="24" height="24" viewBox="0 0 24 24" fill="none" xmlns="http://www.w3.org/2000/svg">
<path d="M6.2304 22.5883C6.84823 21.9526 7.19144 21.0985 7.1857 20.2109C7.17996 19.3234 6.82574 18.4738 6.19974 17.8462C5.57373 17.2185 4.72632 16.8633 3.84099 16.8575C2.95567 16.8517 2.10367 17.1956 1.46948 17.815C0.53266 18.7541 0.164022 20.2099 0.0469193 21.5247C-0.0196132 22.2702 -0.0153785 23.0204 0.0595664 23.7651C0.079708 23.9529 0.258641 23.9938 0.289556 23.9999H0.298455C0.373869 24.0027 1.44981 24.0238 1.78144 22.9734C1.8406 22.7772 1.92802 22.5906 2.04094 22.4197C2.25781 22.099 2.75761 22.292 2.70233 22.6757C2.64854 23.0756 2.73107 23.482 2.93654 23.829C2.95929 23.8674 2.99299 23.8981 3.03331 23.9172C3.07363 23.9363 3.11872 23.9429 3.16278 23.936C4.28743 23.766 5.44112 23.3796 6.2304 22.5883Z" fill="#8D8A8E"/>
<path d="M17.1389 18.7575V15.8484C17.4868 15.5488 17.827 15.233 18.1596 14.9008L19.0814 13.9781C22.5308 10.5181 24.2147 6.08431 23.9782 2.10127C23.9084 0.929654 23.0732 0.0919112 21.904 0.0219428C17.9333 -0.215199 13.5073 1.47297 10.057 4.93241L9.13661 5.85515C8.80497 6.18762 8.48989 6.52885 8.19136 6.87885H5.28956C4.6736 6.90233 4.12884 7.25875 3.82063 7.7814L2.11468 11.2028C2.06976 11.3256 2.03835 11.453 2.021 11.5827C2.02367 11.8024 2.11193 12.0124 2.26692 12.1678C2.42192 12.3232 2.63137 12.4117 2.85055 12.4143H5.00523C4.72419 13.3582 4.91155 14.2861 5.51018 14.8853L9.15113 18.5359C9.74882 19.1355 10.6744 19.3224 11.6159 19.0421V21.2022C11.6186 21.4219 11.7068 21.6319 11.8618 21.7873C12.0168 21.9427 12.2263 22.0311 12.4455 22.0338C12.5748 22.0164 12.7019 21.9849 12.8244 21.9399L16.2363 20.2297C16.7595 19.9216 17.1141 19.3736 17.1389 18.7575ZM15.1374 8.88492C14.6562 8.40249 14.3285 7.78783 14.1957 7.11868C14.063 6.44953 14.1311 5.75594 14.3916 5.12562C14.652 4.49529 15.093 3.95655 15.6589 3.57751C16.2247 3.19847 16.89 2.99616 17.5706 2.99616C18.2511 2.99616 18.9164 3.19847 19.4822 3.57751C20.0481 3.95655 20.4891 4.49529 20.7496 5.12562C21.01 5.75594 21.0781 6.44953 20.9454 7.11868C20.8126 7.78783 20.4849 8.40249 20.0037 8.88492C19.6842 9.20526 19.3049 9.45937 18.8874 9.63273C18.4699 9.8061 18.0224 9.89533 17.5706 9.89533C17.1187 9.89533 16.6712 9.8061 16.2537 9.63273C15.8363 9.45937 15.4569 9.20526 15.1374 8.88492Z" fill="#8D8A8E"/>
</svg>
