<svg width="38" height="30" viewBox="0 0 38 30" fill="none" xmlns="http://www.w3.org/2000/svg">
<path d="M29.7258 29.4664H8.27419C7.59724 29.4664 7.04839 28.9175 7.04839 28.2406V24.6114C7.04839 22.8826 8.06841 21.31 9.6471 20.6051C14.2385 18.555 13.9868 18.6243 14.3446 18.6243H15.8016C16.3657 18.6243 16.8571 19.0094 16.9919 19.5572C17.5057 21.6454 20.4941 21.6464 21.0082 19.5572C21.143 19.0094 21.6343 18.6243 22.1985 18.6243C23.7665 18.6243 23.847 18.5932 24.1552 18.7308L28.353 20.6051C29.9316 21.31 30.9517 22.8826 30.9517 24.6114V28.2406C30.9516 28.9175 30.4028 29.4664 29.7258 29.4664ZM19.03 0.533691C14.9013 0.533691 11.5424 3.89256 11.5424 8.02122C11.5424 12.1499 14.9013 15.5088 19.03 15.5088C23.1586 15.5088 26.5175 12.1499 26.5175 8.02122C26.5175 3.89256 23.1586 0.533691 19.03 0.533691ZM7.21831 8.5425C4.61876 8.5425 2.50386 10.6574 2.50386 13.257C2.50386 15.8566 4.61876 17.9715 7.21831 17.9715C9.81794 17.9715 11.9328 15.8566 11.9328 13.257C11.9328 10.6574 9.81787 8.5425 7.21831 8.5425ZM30.7817 8.5425C28.1821 8.5425 26.0672 10.6574 26.0672 13.257C26.0672 15.8566 28.1821 17.9715 30.7817 17.9715C33.3812 17.9715 35.4961 15.8566 35.4961 13.257C35.4961 10.6574 33.3812 8.5425 30.7817 8.5425ZM36.2302 19.7723C33.6796 18.6332 33.7407 18.6215 33.3917 18.6215C31.5658 18.6215 30.3713 18.6087 29.5634 18.6048C28.7603 18.6008 28.4943 19.6779 29.2059 20.0501C29.7886 20.3548 30.1423 20.6148 30.5624 21.0732C31.7885 22.4048 31.9027 23.8141 31.9025 24.9826C31.9024 25.4057 32.2452 25.7481 32.6684 25.7481H36.7742C37.4515 25.7481 38 25.1988 38 24.5223V22.5005C38 21.3229 37.3051 20.2526 36.2302 19.7723ZM4.60827 18.6215C4.2609 18.6215 4.32924 18.6292 1.76976 19.7723C0.694879 20.2526 0 21.3229 0 22.5005V24.5223C0 25.1988 0.548548 25.7481 1.22581 25.7481H5.33134C5.7547 25.7481 6.09777 25.4052 6.09724 24.9819C6.09586 23.8093 6.20672 22.41 7.43758 21.0732C7.85566 20.6169 8.21237 20.3547 8.78214 20.0553C9.49226 19.6823 9.22986 18.6084 8.42773 18.6097C7.61494 18.6111 6.42062 18.6215 4.60827 18.6215Z" fill="#08422F"/>
</svg>
