<svg width="25" height="24" viewBox="0 0 25 24" fill="none" xmlns="http://www.w3.org/2000/svg">
<g id="fi_2725695" clip-path="url(#clip0_2725_10577)">
<path id="Vector" d="M24.0308 8.40403L13.2765 4.34911C12.8389 4.18406 12.3568 4.18406 11.9191 4.34911L8.63621 5.58689C8.63621 5.58689 9.22946 1.43808 9.23045 1.33669C9.2334 1.04255 9.05757 0.627327 8.20346 0.319967C7.6525 0.121686 6.92546 0.00824857 6.15592 0.000561069H6.14954C6.14715 0.000514194 6.14232 0.000420444 6.14078 0.000420444C4.66989 -0.0145796 3.08622 0.371202 3.05734 1.251C3.02125 2.15011 3.25998 3.12661 3.35926 4.02117C3.40942 4.47295 4.10823 4.39542 4.05807 3.94364L3.86509 2.20462C4.4552 2.46792 5.03931 2.56392 5.67972 2.59917V10.9641H4.83718L4.27107 5.86265C4.22092 5.41092 3.52211 5.4884 3.57226 5.94019L3.73801 7.43372L1.16481 8.40398C0.42423 8.68322 0.42423 9.76462 1.16481 10.0438L3.9332 11.0877C3.18639 11.5255 3.3392 12.8257 4.21792 12.9962L2.84607 22.6248C2.66851 23.8696 5.23257 24 5.98187 24C6.69653 24 9.12742 23.8915 8.98323 22.6867L8.27373 16.7858C11.4236 17.9609 14.8599 17.6919 17.8896 16.2879V18.8921C17.2947 19.0482 16.8546 19.5903 16.8546 20.2334V22.2859C16.8546 22.4801 17.012 22.6375 17.2061 22.6375H19.2761C19.4703 22.6375 19.6277 22.4801 19.6277 22.2859V20.2334C19.6277 19.5903 19.1875 19.0482 18.5927 18.8921V15.94C18.9368 15.759 19.2792 15.5632 19.6195 15.3519C19.7229 15.2878 19.7857 15.1748 19.7857 15.0532V11.6445L24.0308 10.0439C24.7713 9.76467 24.7713 8.68326 24.0308 8.40403ZM18.9246 20.2334V21.9344H17.5577V20.2334C17.5577 19.8566 17.8643 19.55 18.2411 19.55C18.618 19.55 18.9246 19.8566 18.9246 20.2334ZM6.38275 10.9641V2.60789C7.02217 2.58848 7.77132 2.50584 8.36837 2.26472L7.86212 6.07406C7.86198 6.07509 7.86184 6.07612 7.8617 6.07715L7.20911 10.9641H6.38275ZM8.52751 1.32806C8.36842 1.81247 6.65307 1.91353 6.13379 1.90814C5.69823 1.90364 3.60315 1.68797 3.76037 1.28114C3.9415 0.81253 5.83937 0.697592 6.14931 0.703639C6.5709 0.707811 8.4415 0.874967 8.52751 1.32806ZM1.30089 9.22397C1.30089 9.18792 1.31176 9.10003 1.41282 9.06192L3.81803 8.15503L4.06562 10.3862L1.41282 9.38597C1.31176 9.3479 1.30089 9.25997 1.30089 9.22397ZM4.41686 11.6954C5.49742 11.6954 6.57831 11.6847 7.65882 11.6954C8.02084 11.699 7.99286 12.3483 7.65236 12.3445H4.41418C4.06562 12.3444 4.06562 11.6954 4.41686 11.6954ZM3.54765 22.6855L4.92465 13.0204L5.65914 13.0277V23.2849C4.41686 23.2144 3.60062 22.8515 3.54765 22.6855ZM6.36226 23.2919V13.0347L7.11545 13.0423L8.28043 22.7313C8.22189 22.8985 7.6037 23.2462 6.36226 23.2919ZM23.7827 9.38597L17.0273 11.9331C16.608 12.0912 16.8657 12.7455 17.2753 12.591L19.0826 11.9096V14.8563C15.7782 16.8534 11.8122 17.4775 8.17848 15.9938L7.82251 13.0334C8.02614 12.9991 8.20651 12.9018 8.34578 12.7515L11.9191 14.0988C12.3481 14.2605 12.847 14.2617 13.2767 14.0987L15.3484 13.3176C15.7737 13.1572 15.5256 12.4992 15.1003 12.6597L13.0284 13.4409C12.7507 13.5457 12.4448 13.5456 12.167 13.4409L8.62131 12.104C8.6612 11.6286 8.38975 11.1458 7.9135 11.0242L8.53098 6.3779L12.167 5.00695C12.4448 4.90228 12.7506 4.90228 13.0284 5.00695L17.5898 6.72684L12.4199 8.89983C12.0074 9.07322 12.2873 9.71826 12.6924 9.54801L18.5463 7.08754L23.7827 9.06192C23.9312 9.11794 23.9312 9.33 23.7827 9.38597Z" fill="#008B46"/>
</g>
<defs>
<clipPath id="clip0_2725_10577">
<rect width="24" height="24" fill="white" transform="translate(0.597656)"/>
</clipPath>
</defs>
</svg>
