<svg width="25" height="24" viewBox="0 0 25 24" fill="none" xmlns="http://www.w3.org/2000/svg">
<path d="M15.4173 11.7066C15.4949 11.7066 15.5617 11.6521 15.5772 11.5761L16.1295 8.8691C16.1607 8.71651 15.9807 8.6112 15.8629 8.71307L14.2804 10.0819C14.2118 10.1413 14.1079 10.1332 14.0492 10.064L12.5211 8.2608C12.4559 8.1839 12.3373 8.1839 12.2722 8.2608L10.7441 10.064C10.6854 10.1332 10.5815 10.1413 10.5129 10.0819L8.93033 8.71307C8.81254 8.6112 8.63258 8.71651 8.66372 8.8691L9.21608 11.5761C9.23158 11.6521 9.29841 11.7066 9.37595 11.7066H15.4173Z" fill="#008B46"/>
<path d="M15.3494 12.1797H9.44833C9.35821 12.1797 9.28516 12.2527 9.28516 12.3429V13.3042C9.28516 13.3943 9.35821 13.4673 9.44833 13.4673H15.3494C15.4395 13.4673 15.5126 13.3943 15.5126 13.3042V12.3429C15.5126 12.2527 15.4395 12.1797 15.3494 12.1797Z" fill="#008B46"/>
<path d="M20.1251 4.71982H18.1566V4.46352C18.1566 4.27144 18.0003 4.11516 17.8082 4.11516H17.2861C17.0941 4.11516 16.9378 4.27144 16.9378 4.46352V4.71982H13.1962V3.77577C13.7295 3.48988 14.093 2.92717 14.093 2.28099C14.093 1.34633 13.3326 0.585938 12.398 0.585938C11.4633 0.585938 10.7029 1.34633 10.7029 2.28099C10.7029 2.92717 11.0665 3.4899 11.5997 3.77579V4.71982H7.85811V4.46352C7.85811 4.27144 7.70185 4.11516 7.50977 4.11516H6.98772C6.79564 4.11516 6.63936 4.27144 6.63936 4.46352V4.71982H4.67086C4.43449 4.71982 4.24219 4.91212 4.24219 5.14851V5.48694C4.24219 5.72333 4.43449 5.91563 4.67086 5.91563H6.63936V17.9664C6.63936 18.1894 6.75325 18.3917 6.94402 18.5073C7.1348 18.6231 7.36679 18.6305 7.56454 18.5273L12.2998 16.0579C12.3613 16.0259 12.4346 16.0259 12.4961 16.0579L12.8681 16.2519V22.0785H11.9278V17.0772C11.9278 16.9866 11.8544 16.9132 11.7637 16.9132C11.6731 16.9132 11.5997 16.9866 11.5997 17.0772V22.0785H7.31108C7.13118 22.0785 6.97307 22.1935 6.91766 22.3646L6.753 22.8731C6.71175 23.0004 6.73327 23.1355 6.81198 23.2437C6.89069 23.352 7.0126 23.4141 7.14645 23.4141H17.6495C17.7833 23.4141 17.9052 23.352 17.9839 23.2437C18.0626 23.1355 18.0842 23.0004 18.0429 22.8731L17.8783 22.3646C17.8228 22.1935 17.6647 22.0785 17.4848 22.0785H13.1962V16.423L17.2313 18.5273C17.3241 18.5757 17.4242 18.5997 17.5242 18.5997C17.6375 18.5997 17.7505 18.5688 17.8519 18.5073C18.0427 18.3917 18.1566 18.1894 18.1566 17.9664V5.04794H20.1251C20.1805 5.04794 20.2256 5.09308 20.2256 5.14851V5.48694C20.2256 5.54237 20.1805 5.58751 20.1251 5.58751H18.8503C18.7596 5.58751 18.6862 5.66098 18.6862 5.75157C18.6862 5.84216 18.7596 5.91563 18.8503 5.91563H20.1251C20.3614 5.91563 20.5537 5.72333 20.5537 5.48694V5.14851C20.5537 4.91212 20.3614 4.71982 20.1251 4.71982ZM6.63936 5.58751H4.67086C4.61542 5.58751 4.57031 5.54237 4.57031 5.48694V5.14851C4.57031 5.09308 4.61542 5.04794 4.67086 5.04794H6.63936V5.58751ZM8.88225 22.9237C8.86411 22.9797 8.86718 23.036 8.88552 23.0859H7.14645C7.10859 23.0859 7.08689 23.0639 7.07735 23.0507C7.06778 23.0376 7.0535 23.0102 7.06515 22.9742L7.2298 22.4657C7.24127 22.4304 7.27391 22.4066 7.31108 22.4066H9.2759C9.09432 22.5268 8.95269 22.7061 8.88225 22.9237ZM11.2294 2.80925C11.2447 2.91843 11.2756 3.02218 11.3191 3.11888C11.1388 2.88725 11.031 2.59655 11.031 2.28099C11.031 1.52728 11.6442 0.914062 12.398 0.914062C12.6675 0.914062 12.9189 0.992843 13.1309 1.12809C13.0145 1.08813 12.8909 1.06485 12.7629 1.06341C12.7562 1.06334 12.7495 1.06332 12.7428 1.06332C11.9005 1.06469 11.207 1.76575 11.2145 2.60802C11.2151 2.67627 11.2201 2.74342 11.2294 2.80925ZM12.8681 3.90919V4.71982H11.9278V3.90921C12.0772 3.95242 12.2348 3.97604 12.398 3.97604C12.5611 3.97604 12.7187 3.9524 12.8681 3.90919ZM7.85811 5.04794H16.9378V5.58751H7.85811L7.85811 5.04794ZM16.9378 5.91563V6.56255H13.1962V5.91563H16.9378ZM12.8681 5.91563V6.56255H11.9278V5.91563H12.8681ZM7.85811 5.91563H11.5997V6.56255H8.66148C8.57087 6.56255 8.49742 6.63602 8.49742 6.72661C8.49742 6.8172 8.57087 6.89067 8.66148 6.89067H16.9378V17L12.8855 14.8862C12.5844 14.7302 12.212 14.73 11.91 14.8864L7.85811 17V5.91563ZM17.8284 17.9664C17.8284 18.0737 17.7736 18.1711 17.6818 18.2268C17.5899 18.2824 17.4783 18.286 17.3831 18.2364L12.6478 15.767C12.5696 15.7262 12.4838 15.7058 12.398 15.7058C12.3122 15.7058 12.2263 15.7262 12.1481 15.767L7.41284 18.2364C7.3176 18.2861 7.20596 18.2824 7.11415 18.2268C7.0223 18.1711 6.96748 18.0737 6.96748 17.9664V4.46352C6.96748 4.45235 6.97657 4.44328 6.98772 4.44328H7.50977C7.52092 4.44328 7.52998 4.45235 7.52998 4.46352V17.2706C7.52998 17.328 7.55994 17.3811 7.60899 17.4109C7.65802 17.4406 7.71904 17.4425 7.76992 17.4161L12.0614 15.1775C12.2696 15.0698 12.5268 15.0699 12.7341 15.1773L17.026 17.4161C17.0769 17.4425 17.1378 17.4406 17.1869 17.4109C17.236 17.3811 17.2659 17.328 17.2659 17.2706V4.46352C17.2659 4.45235 17.275 4.44328 17.2861 4.44328H17.8082C17.8193 4.44328 17.8284 4.45235 17.8284 4.46352V17.9664Z" fill="#008B46"/>
</svg>
