<svg width="20" height="24" viewBox="0 0 20 24" fill="none" xmlns="http://www.w3.org/2000/svg">
<path d="M8.08786 13.5488C7.86928 13.5488 7.66378 13.634 7.50919 13.7885L7.29398 14.0037C7.01944 14.2782 6.57427 14.2782 6.29967 14.0037L6.08452 13.7885C5.92992 13.634 5.72442 13.5488 5.50584 13.5488C5.28722 13.5488 5.08177 13.634 4.92717 13.7885C4.77262 13.9431 4.6875 14.1486 4.6875 14.3672C4.6875 14.5857 4.77262 14.7912 4.92717 14.9458L6.79683 16.8155L8.66653 14.9458C8.82108 14.7912 8.9062 14.5857 8.9062 14.3671C8.9062 14.1485 8.82108 13.943 8.66653 13.7885C8.51194 13.634 8.30644 13.5488 8.08786 13.5488Z" fill="#8D8A8E"/>
<path d="M11.4844 5.71875H2.10938C0.946266 5.71875 0 6.66502 0 7.82812V21.8906C0 23.0537 0.946266 24 2.10938 24H11.4844C12.6475 24 13.5938 23.0537 13.5938 21.8906V7.82812C13.5938 6.66502 12.6475 5.71875 11.4844 5.71875ZM4.92188 21.1875H3.51562C3.12731 21.1875 2.8125 20.8727 2.8125 20.4844C2.8125 20.0961 3.12731 19.7812 3.51562 19.7812H4.92188C5.31019 19.7812 5.625 20.0961 5.625 20.4844C5.625 20.8727 5.31019 21.1875 4.92188 21.1875ZM9.66094 15.9405L7.29408 18.3074C7.15678 18.4447 6.97683 18.5133 6.79692 18.5133C6.61702 18.5133 6.43702 18.4447 6.29977 18.3074L3.93281 15.9405C3.06544 15.0731 3.06544 13.6619 3.93281 12.7945C4.71145 12.0158 5.92852 11.9362 6.79688 12.5556C7.66519 11.9361 8.88225 12.0158 9.66094 12.7945C10.5283 13.6619 10.5283 15.0732 9.66094 15.9405ZM10.0781 9.9375H8.67188C8.28356 9.9375 7.96875 9.62269 7.96875 9.23438C7.96875 8.84606 8.28356 8.53125 8.67188 8.53125H10.0781C10.4664 8.53125 10.7812 8.84606 10.7812 9.23438C10.7812 9.62269 10.4664 9.9375 10.0781 9.9375Z" fill="#8D8A8E"/>
<path d="M14.3442 2.85938H4.96917C4.03514 2.85938 3.24145 3.46978 2.96484 4.3125H11.4848C13.4233 4.3125 15.0004 5.88961 15.0004 7.82812V21.0356C15.8431 20.759 16.4535 19.9653 16.4535 19.0312V4.96875C16.4535 3.80564 15.5073 2.85938 14.3442 2.85938Z" fill="#8D8A8E"/>
<path d="M17.2035 0H7.82855C6.89452 0 6.10083 0.610406 5.82422 1.45312H14.3442C16.2827 1.45312 17.8598 3.03023 17.8598 4.96875V18.1762C18.7025 17.8996 19.3129 17.1059 19.3129 16.1719V2.10938C19.3129 0.946266 18.3667 0 17.2035 0Z" fill="#8D8A8E"/>
</svg>
