<svg width="36" height="36" viewBox="0 0 36 36" fill="none" xmlns="http://www.w3.org/2000/svg">
<path d="M18 0.186764C8.16946 0.186764 0.1875 8.16872 0.1875 17.9993C0.1875 27.8298 8.16946 35.8118 18 35.8118C27.8305 35.8118 35.8125 27.8298 35.8125 17.9993C35.8125 15.267 35.1942 12.6778 34.0927 10.3628L32.3242 12.1313C31.9903 12.4671 31.5349 12.6565 31.0613 12.6566H30.5696C31.2695 14.2984 31.6574 16.1037 31.6574 17.9993C31.6574 25.5344 25.5351 31.6566 18 31.6566C10.4649 31.6566 4.34259 25.5344 4.34259 17.9993C4.34259 10.4642 10.4649 4.34178 18 4.34178C19.8959 4.34178 21.7017 4.7294 23.3438 5.42958V4.93786C23.3438 4.46427 23.5332 4.00896 23.8691 3.67501L25.6364 1.90654C23.3214 0.805006 20.7323 0.186764 18 0.186764ZM29.265 0.186764C29.113 0.191295 28.9686 0.253883 28.8614 0.361741L24.7064 4.51682C24.6509 4.57199 24.6068 4.63764 24.5768 4.70988C24.5467 4.78212 24.5313 4.85955 24.5313 4.9378V8.84942L16.6907 16.6899C15.972 17.4087 15.972 18.5932 16.6907 19.3119C17.4095 20.0306 18.5905 20.0272 19.3093 19.3074L27.1486 11.4681H31.0613C31.1396 11.468 31.217 11.4526 31.2893 11.4226C31.3615 11.3925 31.4271 11.3485 31.4823 11.2931L35.6374 7.13792C35.7201 7.05475 35.7762 6.94899 35.7989 6.83392C35.8215 6.71885 35.8095 6.59965 35.7645 6.49136C35.7195 6.38308 35.6434 6.29054 35.5459 6.22544C35.4483 6.16034 35.3337 6.12556 35.2164 6.12552H32.4912L32.9644 5.65243C33.6831 4.93369 33.6865 3.7526 32.9679 3.03386C32.6086 2.67449 32.1322 2.49462 31.6564 2.49462C31.1806 2.49462 30.7053 2.67458 30.3459 3.03386L29.8739 3.50586V0.777167C29.8736 0.698108 29.8576 0.619893 29.8266 0.547129C29.7957 0.474365 29.7506 0.408543 29.6939 0.353455C29.6372 0.298367 29.57 0.255144 29.4964 0.226348C29.4228 0.197552 29.3441 0.183737 29.2651 0.185737L29.265 0.186764ZM18 8.49693C12.7603 8.49693 8.49768 12.7596 8.49768 17.9993C8.49768 23.2389 12.7603 27.4969 18 27.4969C23.2397 27.4969 27.4977 23.2389 27.4977 17.9993C27.4977 16.4876 27.1352 15.062 26.505 13.7919L23.2521 17.0448C23.3085 17.355 23.3426 17.6731 23.3426 17.9993C23.3426 20.9435 20.9442 23.3418 18 23.3418C15.0558 23.3418 12.6574 20.9435 12.6574 17.9993C12.6574 15.055 15.0558 12.6566 18 12.6566C18.3262 12.6566 18.6442 12.6907 18.9544 12.7471L22.2084 9.49303C20.9383 8.86159 19.5126 8.49686 18 8.49686L18 8.49693Z" fill="#DCDFFA"/>
</svg>
