<svg width="16" height="16" viewBox="0 0 16 16" fill="none" xmlns="http://www.w3.org/2000/svg">
<g id="fi_3135791" clip-path="url(#clip0_362_7214)">
<g id="Group">
<g id="Group_2">
<path id="Vector" d="M10.2514 1.58984H5.38281C5.25334 1.58984 5.14844 1.69475 5.14844 1.82422C5.14844 1.95369 5.25334 2.05859 5.38281 2.05859H10.2514C10.3808 2.05859 10.4858 1.95369 10.4858 1.82422C10.4858 1.69475 10.3808 1.58984 10.2514 1.58984Z" fill="#363430"/>
<path id="Vector_2" d="M10.2514 2.96094H5.38281C5.25334 2.96094 5.14844 3.06584 5.14844 3.19531C5.14844 3.32478 5.25334 3.42969 5.38281 3.42969H10.2514C10.3808 3.42969 10.4858 3.32478 10.4858 3.19531C10.4858 3.06584 10.3808 2.96094 10.2514 2.96094Z" fill="#363430"/>
<path id="Vector_3" d="M14.7364 8.10497H13.345V7.45066C13.345 6.58828 12.6434 5.88672 11.781 5.88672H9.146C8.28362 5.88672 7.58203 6.58828 7.58203 7.45066V8.10497H6.19063C5.49081 8.10497 4.92578 8.67237 4.92578 9.36981V14.7299C4.92578 15.4273 5.49319 15.9948 6.19063 15.9948H14.7364C15.4338 15.9948 16.0012 15.4273 16.0012 14.7299V13.7143C16.0012 13.5848 15.8963 13.4799 15.7669 13.4799C15.6374 13.4799 15.5325 13.5848 15.5325 13.7143V14.7299C15.5325 15.1689 15.1754 15.526 14.7364 15.526H6.19063C5.75166 15.526 5.39453 15.1689 5.39453 14.7299V11.4081C5.76388 11.8635 6.3195 12.162 6.94431 12.1864V12.5442C6.94431 13.0165 7.32856 13.4008 7.80084 13.4008C8.27312 13.4008 8.65738 13.0165 8.65738 12.5442V12.188H12.2696V12.5442C12.2696 13.0165 12.6539 13.4008 13.1262 13.4008C13.5984 13.4008 13.9827 13.0165 13.9827 12.5442V12.1864C14.6075 12.162 15.1631 11.8635 15.5325 11.4081V12.6186C15.5325 12.748 15.6374 12.8529 15.7668 12.8529C15.8963 12.8529 16.0012 12.748 16.0012 12.6186V9.36975C16.0012 8.67256 15.4364 8.10497 14.7364 8.10497ZM8.05078 7.45066C8.05078 6.84678 8.54209 6.35547 9.146 6.35547H11.781C12.3849 6.35547 12.8762 6.84678 12.8762 7.45066V8.10497H12.3881V7.45066C12.3881 7.11594 12.1158 6.84359 11.781 6.84359H9.146C8.81125 6.84359 8.53891 7.11594 8.53891 7.45066V8.10497H8.05078V7.45066ZM9.00766 8.10497V7.45066C9.00766 7.37441 9.06969 7.31234 9.146 7.31234H11.781C11.8573 7.31234 11.9194 7.37437 11.9194 7.45066V8.10497H9.00766ZM8.18863 12.5442C8.18863 12.7581 8.01469 12.932 7.80084 12.932C7.587 12.932 7.41306 12.7581 7.41306 12.5442V11.7064C7.41306 11.4926 7.587 11.3186 7.80084 11.3186C8.01469 11.3186 8.18863 11.4926 8.18863 11.7064V12.5442ZM13.5139 12.5442C13.5139 12.7581 13.34 12.932 13.1262 12.932C12.9123 12.932 12.7384 12.7581 12.7384 12.5442V11.9561C12.7384 11.9552 12.7384 11.9544 12.7384 11.9537C12.7384 11.9529 12.7384 11.952 12.7384 11.9513V11.7064C12.7384 11.4926 12.9123 11.3187 13.1262 11.3187C13.34 11.3187 13.5139 11.4926 13.5139 11.7064V12.5442ZM13.9827 11.7172V11.7064C13.9827 11.2342 13.5984 10.8499 13.1262 10.8499C12.6539 10.8499 12.2696 11.2342 12.2696 11.7064V11.7193H8.65738V11.7064C8.65738 11.2342 8.27312 10.8499 7.80084 10.8499C7.32856 10.8499 6.94431 11.2342 6.94431 11.7064V11.7172C6.08241 11.6738 5.39453 10.9589 5.39453 10.0864V9.36975C5.39453 8.93016 5.75081 8.57369 6.19063 8.57369H14.7364C15.1751 8.57369 15.5325 8.92903 15.5325 9.36978V10.0864C15.5325 10.9589 14.8446 11.6738 13.9827 11.7172Z" fill="#363430"/>
<path id="Vector_4" d="M4.62241 15.526H1.15903C0.778406 15.526 0.46875 15.2164 0.46875 14.8357V3.57784C0.46875 3.52725 0.474156 3.4775 0.484719 3.42922H2.61769C3.06303 3.42922 3.42534 3.06691 3.42534 2.62159V0.488625C3.47362 0.478094 3.52337 0.472656 3.57397 0.472656H11.5205C11.9011 0.472656 12.2107 0.782312 12.2107 1.16294V5.18425C12.2107 5.31372 12.3157 5.41862 12.4451 5.41862C12.5746 5.41862 12.6795 5.31372 12.6795 5.18425V1.16294C12.6795 0.523844 12.1596 0.00390625 11.5205 0.00390625H3.57394C3.26434 0.00390625 2.97325 0.124438 2.75434 0.343344L0.339438 2.75828C0.120531 2.97719 0 3.26825 0 3.57784V14.8357C0 15.4748 0.519938 15.9948 1.15903 15.9948H4.62241C4.75188 15.9948 4.85678 15.8899 4.85678 15.7604C4.85678 15.6309 4.75188 15.526 4.62241 15.526ZM2.95656 0.804125V2.62159C2.95656 2.80844 2.80453 2.96047 2.61766 2.96047H0.800219L2.95656 0.804125Z" fill="#363430"/>
</g>
</g>
</g>
<defs>
<clipPath id="clip0_362_7214">
<rect width="16" height="16" fill="white"/>
</clipPath>
</defs>
</svg>
