<svg width="16" height="16" viewBox="0 0 16 16" fill="none" xmlns="http://www.w3.org/2000/svg">
<g id="fi_8677126" clip-path="url(#clip0_362_7820)">
<g id="Layer_x0020_1">
<path id="Vector" fill-rule="evenodd" clip-rule="evenodd" d="M3.75774 11.3414C3.63589 11.3414 3.55153 11.2196 3.57965 11.1071L4.50759 7.39532C4.51696 7.37658 5.21058 5.56756 7.0196 6.07371C7.25393 6.13932 7.1602 6.50487 6.9165 6.43926C5.4824 6.03621 4.92001 7.37658 4.86377 7.51717L3.9452 11.2008C3.92645 11.2852 3.8421 11.3414 3.75774 11.3414Z" fill="#363430"/>
<path id="Vector_2" fill-rule="evenodd" clip-rule="evenodd" d="M12.2325 11.34C12.1482 11.34 12.0732 11.2838 12.0544 11.1994L11.1265 7.51576C11.0796 7.38454 10.5172 6.05355 9.11124 6.42847C8.86754 6.48471 8.77381 6.12853 9.01751 6.06292C10.7984 5.59426 11.4733 7.37516 11.4827 7.39391L12.42 11.1057C12.4387 11.2182 12.3637 11.34 12.2325 11.34Z" fill="#363430"/>
<path id="Vector_3" fill-rule="evenodd" clip-rule="evenodd" d="M8.02267 6.09256H8.01329C6.97287 6.01757 6.17615 4.40539 6.13866 3.7024C5.99806 3.4587 5.44505 2.39953 5.80123 1.80902C5.86684 1.64968 6.60732 0.131224 8.01329 0H8.04141C9.43802 0.131224 10.1785 1.64968 10.2535 1.80902C10.6003 2.39953 10.0473 3.4587 9.90667 3.7024C9.86918 4.40539 9.07246 6.01757 8.04141 6.09256C8.03204 6.09256 8.03204 6.09256 8.02267 6.09256ZM8.02267 0.374927C6.80415 0.496778 6.13866 1.97774 6.11991 1.99649C5.83872 2.47452 6.51359 3.52431 6.51359 3.65554C6.51359 4.19918 7.23532 5.65202 8.02267 5.71763C8.81939 5.65202 9.54112 4.19918 9.54112 3.65554C9.54112 3.49619 10.216 2.5495 9.91605 1.96837C9.90667 1.95899 9.23181 0.496778 8.02267 0.374927Z" fill="#363430"/>
<path id="Vector_4" fill-rule="evenodd" clip-rule="evenodd" d="M6.32525 3.84129C6.19403 3.84129 6.08155 3.71006 6.16591 3.55072C6.45647 2.96958 6.61582 2.48218 6.57832 2.2666C6.55021 2.08851 6.77516 1.97603 6.89701 2.09788C6.91576 2.11663 7.30006 2.49155 8.02179 2.50093C8.2655 2.50093 8.2655 2.88523 8.02179 2.87585C7.53439 2.86648 7.16883 2.71651 6.93451 2.58528C6.85952 2.97896 6.67206 3.36326 6.49397 3.73818C6.45647 3.8038 6.39086 3.84129 6.32525 3.84129Z" fill="#363430"/>
<path id="Vector_5" fill-rule="evenodd" clip-rule="evenodd" d="M9.71916 3.84272C9.63481 3.84272 9.58794 3.79586 9.55045 3.72087C9.37236 3.37407 9.18489 2.9429 9.10991 2.58672C8.89433 2.70857 8.49128 2.87729 8.02262 2.87729C7.77892 2.87729 7.77892 2.51173 8.02262 2.50236C9.02555 2.48361 9.10991 1.93997 9.36298 2.07119C9.59731 2.19305 9.24113 2.33364 9.88788 3.5709C9.95349 3.69275 9.85976 3.84272 9.71916 3.84272Z" fill="#363430"/>
<path id="Vector_6" fill-rule="evenodd" clip-rule="evenodd" d="M8.02241 7.90022C7.96618 7.90022 7.90994 7.8721 7.87244 7.82523L6.83202 6.43801C6.75704 6.3349 6.79453 5.39758 6.79453 5.21012C6.79453 4.96642 7.16946 4.96642 7.16946 5.21012V6.25992L8.17239 7.60028C8.26612 7.72213 8.17239 7.90022 8.02241 7.90022Z" fill="#363430"/>
<path id="Vector_7" fill-rule="evenodd" clip-rule="evenodd" d="M8.02344 7.90022C7.87347 7.90022 7.77973 7.72213 7.87347 7.60028L8.8764 6.26929V5.21012C8.8764 4.96642 9.25132 4.96642 9.25132 5.21012C9.25132 5.39758 9.28881 6.3349 9.21383 6.43801L8.17341 7.82523C8.13591 7.8721 8.07968 7.90022 8.02344 7.90022Z" fill="#363430"/>
<path id="Vector_8" fill-rule="evenodd" clip-rule="evenodd" d="M8.02455 10.1992C7.85583 10.1992 7.78085 9.99297 7.89333 9.8805L9.08372 8.6901V7.63094C9.08372 7.56532 9.11184 7.49971 9.17745 7.47159L9.73984 7.14353V6.20621C9.73984 5.96251 10.1148 5.96251 10.1148 6.20621V7.24664C10.1148 7.32162 10.0773 7.37786 10.021 7.41535L9.45865 7.74341V8.77446C9.45865 8.82133 9.43053 8.86819 9.40241 8.90569L8.15578 10.1429C8.11828 10.1804 8.07142 10.1992 8.02455 10.1992Z" fill="#363430"/>
<path id="Vector_9" fill-rule="evenodd" clip-rule="evenodd" d="M8.0234 11.3414C7.9203 11.3414 7.83594 11.2571 7.83594 11.154V7.71403C7.83594 7.47032 8.21086 7.47032 8.21086 7.71403V11.154C8.21086 11.2571 8.12651 11.3414 8.0234 11.3414Z" fill="#363430"/>
<path id="Vector_10" fill-rule="evenodd" clip-rule="evenodd" d="M8.02225 10.1992C7.97538 10.1992 7.92852 10.1804 7.89103 10.1429L6.65377 8.90569C6.61627 8.86819 6.59753 8.82133 6.59753 8.77446V7.74341L6.03514 7.41535C5.96953 7.37786 5.94141 7.32162 5.94141 7.25601V6.20621C5.94141 5.96251 6.31633 5.96251 6.31633 6.20621V7.14353L6.87872 7.47159C6.93496 7.49971 6.97245 7.56532 6.97245 7.63094V8.6901L8.15347 9.8805C8.27533 9.99297 8.19097 10.1992 8.02225 10.1992Z" fill="#363430"/>
<path id="Vector_11" fill-rule="evenodd" clip-rule="evenodd" d="M14.9683 12.9426H1.03036C0.739796 12.9426 0.496094 12.7083 0.496094 12.4177V11.4897C0.496094 11.1992 0.739796 10.9648 1.03036 10.9648H14.9683C15.2588 10.9648 15.4932 11.1992 15.4932 11.4897V12.4177C15.4932 12.7083 15.2588 12.9426 14.9683 12.9426ZM1.03036 11.3398C0.946006 11.3398 0.871021 11.4054 0.871021 11.4897V12.4177C0.871021 12.502 0.946006 12.5677 1.03036 12.5677H14.9683C15.0526 12.5677 15.1182 12.502 15.1182 12.4177V11.4897C15.1182 11.4054 15.0526 11.3398 14.9683 11.3398H1.03036Z" fill="#363430"/>
<path id="Vector_12" fill-rule="evenodd" clip-rule="evenodd" d="M14.4139 15.9907H1.62887C1.52576 15.9907 1.44141 15.9064 1.44141 15.8033V12.757C1.44141 12.5133 1.81633 12.5133 1.81633 12.757V15.6158H14.2264V12.757C14.2264 12.5133 14.6013 12.5133 14.6013 12.757V15.8033C14.6013 15.9064 14.517 15.9907 14.4139 15.9907Z" fill="#363430"/>
<path id="Vector_13" fill-rule="evenodd" clip-rule="evenodd" d="M3.7397 11.34C3.66471 11.34 3.58973 11.2932 3.56161 11.2182C3.16794 10.2059 1.48077 4.96629 5.21129 4.39453H6.59852C6.84222 4.39453 6.84222 4.76946 6.59852 4.76946H5.24878C4.5083 4.87256 3.95528 5.21 3.62722 5.77239C2.56805 7.56266 3.89904 11.0495 3.91779 11.087C3.96466 11.2088 3.87092 11.34 3.7397 11.34ZM12.2599 11.34C12.1287 11.34 12.035 11.2088 12.0818 11.087C12.1006 11.0495 13.4222 7.56266 12.3724 5.77239C12.035 5.21 11.4913 4.87256 10.7508 4.76946H9.44796C9.20426 4.76946 9.20426 4.39453 9.44796 4.39453H10.7883C14.5095 4.91943 12.8223 10.2528 12.4286 11.2182C12.4005 11.2932 12.3349 11.34 12.2599 11.34Z" fill="#363430"/>
<path id="Vector_14" fill-rule="evenodd" clip-rule="evenodd" d="M12.2975 14.332H3.74918C3.50548 14.332 3.50548 13.957 3.74918 13.957H12.2975C12.5412 13.957 12.5506 14.332 12.2975 14.332Z" fill="#363430"/>
</g>
</g>
<defs>
<clipPath id="clip0_362_7820">
<rect width="16" height="16" fill="white"/>
</clipPath>
</defs>
</svg>
