<svg width="24" height="24" viewBox="0 0 24 24" fill="none" xmlns="http://www.w3.org/2000/svg">
<g id="fi_10216679" clip-path="url(#clip0_271_3532)">
<g id="Group">
<path id="Vector (Stroke)" fill-rule="evenodd" clip-rule="evenodd" d="M9.2334 0.951425C9.32482 0.98132 9.40046 1.04655 9.44348 1.13258L10.7804 3.8065C11.142 3.59763 11.5595 3.47757 12.0015 3.47757C12.4369 3.47757 12.8484 3.59403 13.2062 3.79709L14.5606 1.13054C14.604 1.04515 14.6796 0.980557 14.7707 0.951073C14.8619 0.921589 14.961 0.929641 15.0462 0.973446L16.7262 1.83745C16.9025 1.92815 16.9723 2.14442 16.8822 2.3211L14.4735 7.04405V7.55762H20.9295C22.2856 7.55762 23.4015 8.68406 23.4015 10.0776V20.5896C23.4015 21.9831 22.2856 23.1095 20.9295 23.1095H3.07353C1.6642 23.1095 0.601562 21.9777 0.601562 20.5896V10.0776C0.601562 8.68406 1.71748 7.55762 3.07353 7.55762H9.52956V7.0913L7.12019 2.31981C7.03105 2.14328 7.10102 1.92789 7.27689 1.83745L8.95689 0.973446C9.04242 0.92946 9.14199 0.92153 9.2334 0.951425ZM10.2041 4.26363L8.96237 1.78018L7.92389 2.31426L9.56144 5.55725C9.64235 5.06364 9.87296 4.61604 10.2041 4.26363ZM10.2495 5.99276L10.2495 7.91607C10.2495 7.91658 10.2495 7.91708 10.2495 7.91758L10.2495 9.86162H13.7536V7.91758C13.7536 7.91738 13.7536 7.91779 13.7536 7.91758L13.7536 5.94956C13.7536 5.90303 13.7517 5.85686 13.7479 5.81114C13.7157 5.41608 13.5469 5.05409 13.29 4.77351C13.2721 4.75397 13.2537 4.73483 13.235 4.71609M13.2316 4.71266C12.913 4.39579 12.4764 4.1975 12.0015 4.1975C11.6199 4.1975 11.2631 4.32552 10.9723 4.54022C10.9501 4.5803 10.9199 4.61661 10.8824 4.64664C10.4897 4.9608 10.2508 5.4312 10.2495 5.99276M9.52956 9.86163L9.52956 8.27754H3.07353C2.12557 8.27754 1.32149 9.0711 1.32149 10.0776V20.5896C1.32149 21.6015 2.08285 22.3896 3.07353 22.3896H20.9295C21.8775 22.3896 22.6816 21.5961 22.6816 20.5896V10.0776C22.6816 9.0711 21.8775 8.27754 20.9295 8.27754H14.4735V9.86163H14.9775C15.1763 9.86163 15.3375 10.0228 15.3375 10.2216C15.3375 10.4204 15.1763 10.5816 14.9775 10.5816H9.02551C8.82671 10.5816 8.66555 10.4204 8.66555 10.2216C8.66555 10.0228 8.82671 9.86163 9.02551 9.86163H9.52956ZM14.4371 5.53078L16.0779 2.3136L15.0386 1.77913L13.7844 4.24832C14.1174 4.59678 14.3511 5.04049 14.4371 5.53078ZM12.4656 5.8448C12.3559 5.58895 12.0595 5.47046 11.8037 5.58015C11.5478 5.68984 11.4294 5.98617 11.5391 6.24202C11.6487 6.49787 11.9451 6.61635 12.2009 6.50666C12.4568 6.39697 12.5753 6.10065 12.4656 5.8448ZM11.52 4.91847C12.1413 4.65211 12.8609 4.93983 13.1272 5.56112C13.3936 6.1824 13.1059 6.90198 12.4846 7.16834C11.8633 7.43471 11.1437 7.14698 10.8774 6.5257C10.611 5.90441 10.8987 5.18483 11.52 4.91847ZM7.00952 13.4136C5.11406 13.4136 3.57749 14.9501 3.57749 16.8456C3.57749 17.5301 3.77786 18.1677 4.12315 18.7032C4.45375 17.9361 5.08013 17.3174 5.8521 17.0018C5.57314 16.7126 5.40156 16.3191 5.40156 15.8856C5.40156 14.9975 6.12147 14.2776 7.00953 14.2776C7.89758 14.2776 8.61749 14.9975 8.61749 15.8856C8.61749 16.3088 8.45395 16.6939 8.1866 16.981C8.95518 17.2889 9.57486 17.9133 9.90068 18.6957C10.243 18.1618 10.4416 17.5269 10.4416 16.8456C10.4416 14.9501 8.90498 13.4136 7.00952 13.4136ZM9.35287 19.323C9.08179 18.2506 8.14656 17.4821 7.08048 17.492C7.05695 17.493 7.0333 17.4935 7.00953 17.4935C5.90808 17.4935 4.94482 18.2798 4.66755 19.3249C5.26784 19.9035 6.08307 20.2776 7.00952 20.2776C7.8944 20.2776 8.74843 19.9011 9.35287 19.323ZM7.05868 16.7723C7.52626 16.7467 7.89756 16.3595 7.89756 15.8856C7.89756 15.3951 7.49998 14.9975 7.00953 14.9975C6.51908 14.9975 6.12149 15.3951 6.12149 15.8856C6.12149 16.3741 6.516 16.7705 7.00383 16.7736C7.02215 16.773 7.04043 16.7725 7.05868 16.7723ZM7.00952 20.9976C9.30259 20.9976 11.1615 19.1387 11.1615 16.8456C11.1615 14.5525 9.30259 12.6936 7.00952 12.6936C4.71646 12.6936 2.85756 14.5525 2.85756 16.8456C2.85756 19.1387 4.71646 20.9976 7.00952 20.9976ZM12.5535 13.7251C12.5535 13.5263 12.7146 13.3652 12.9134 13.3652H17.7134C17.9122 13.3652 18.0734 13.5263 18.0734 13.7251C18.0734 13.9239 17.9122 14.0851 17.7134 14.0851H12.9134C12.7146 14.0851 12.5535 13.9239 12.5535 13.7251ZM18.8415 13.7251C18.8415 13.5263 19.0026 13.3652 19.2014 13.3652H20.7854C20.9842 13.3652 21.1454 13.5263 21.1454 13.7251C21.1454 13.9239 20.9842 14.0851 20.7854 14.0851H19.2014C19.0026 14.0851 18.8415 13.9239 18.8415 13.7251ZM12.5535 15.2619C12.5535 15.0631 12.7146 14.902 12.9134 14.902H15.6014C15.8002 14.902 15.9614 15.0631 15.9614 15.2619C15.9614 15.4607 15.8002 15.6219 15.6014 15.6219H12.9134C12.7146 15.6219 12.5535 15.4607 12.5535 15.2619ZM16.7295 15.2619C16.7295 15.0631 16.8906 14.902 17.0894 14.902H20.7854C20.9842 14.902 21.1454 15.0631 21.1454 15.2619C21.1454 15.4607 20.9842 15.6219 20.7854 15.6219H17.0894C16.8906 15.6219 16.7295 15.4607 16.7295 15.2619ZM12.5535 16.8459C12.5535 16.6471 12.7146 16.4859 12.9134 16.4859H18.6254C18.8242 16.4859 18.9854 16.6471 18.9854 16.8459C18.9854 17.0447 18.8242 17.2058 18.6254 17.2058H12.9134C12.7146 17.2058 12.5535 17.0447 12.5535 16.8459ZM19.7535 16.8459C19.7535 16.6471 19.9146 16.4859 20.1134 16.4859H20.7854C20.9842 16.4859 21.1454 16.6471 21.1454 16.8459C21.1454 17.0447 20.9842 17.2058 20.7854 17.2058H20.1134C19.9146 17.2058 19.7535 17.0447 19.7535 16.8459ZM12.5535 18.3809C12.5535 18.1821 12.7146 18.0209 12.9134 18.0209H14.5934C14.7922 18.0209 14.9534 18.1821 14.9534 18.3809C14.9534 18.5797 14.7922 18.7409 14.5934 18.7409H12.9134C12.7146 18.7409 12.5535 18.5797 12.5535 18.3809ZM15.7215 18.3809C15.7215 18.1821 15.8826 18.0209 16.0814 18.0209H20.7854C20.9842 18.0209 21.1454 18.1821 21.1454 18.3809C21.1454 18.5797 20.9842 18.7409 20.7854 18.7409H16.0814C15.8826 18.7409 15.7215 18.5797 15.7215 18.3809ZM12.5535 19.9648C12.5535 19.766 12.7146 19.6049 12.9134 19.6049H16.2254C16.4242 19.6049 16.5854 19.766 16.5854 19.9648C16.5854 20.1636 16.4242 20.3248 16.2254 20.3248H12.9134C12.7146 20.3248 12.5535 20.1636 12.5535 19.9648ZM17.3535 19.9648C17.3535 19.766 17.5146 19.6049 17.7134 19.6049H20.7854C20.9842 19.6049 21.1454 19.766 21.1454 19.9648C21.1454 20.1636 20.9842 20.3248 20.7854 20.3248H17.7134C17.5146 20.3248 17.3535 20.1636 17.3535 19.9648Z" fill="#E0447C"/>
</g>
</g>
<defs>
<clipPath id="clip0_271_3532">
<rect width="24" height="24" fill="white"/>
</clipPath>
</defs>
</svg>
