<svg width="24" height="24" viewBox="0 0 24 24" fill="none" xmlns="http://www.w3.org/2000/svg">
<g id="fi_819865">
<g id="Group">
<g id="Group_2">
<path id="Vector" d="M12.0467 1.87501C11.7875 1.87314 11.5761 2.08173 11.5742 2.34048C11.5724 2.59923 11.7805 2.81064 12.0397 2.81251C12.2985 2.81439 12.5099 2.60626 12.5117 2.34751C12.5136 2.08876 12.3055 1.87736 12.0467 1.87501Z" fill="#E72113"/>
</g>
</g>
<g id="Group_3">
<g id="Group_4">
<path id="Vector_2" d="M12.0247 4.68758C10.2148 4.67474 8.73253 6.13485 8.71884 7.94418C8.7052 9.75342 10.1661 11.2364 11.9754 11.25C11.9838 11.2501 11.9922 11.2501 12.0006 11.2501C13.7984 11.2501 15.2677 9.79434 15.2813 7.9934C15.2949 6.18426 13.834 4.70122 12.0247 4.68758ZM12.0005 10.3126C11.9946 10.3126 11.9884 10.3126 11.9825 10.3125C10.6901 10.3028 9.64655 9.24352 9.6563 7.95122C9.666 6.66473 10.7154 5.62495 11.9996 5.62495C12.0055 5.62495 12.0117 5.62499 12.0176 5.62504C13.31 5.63479 14.3536 6.69407 14.3438 7.98637C14.3341 9.27286 13.2847 10.3126 12.0005 10.3126Z" fill="#E72113"/>
</g>
</g>
<g id="Group_5">
<g id="Group_6">
<path id="Vector_3" d="M14.0435 2.2302C13.7996 2.14367 13.5316 2.27141 13.445 2.51544C13.3585 2.75947 13.4863 3.02736 13.7303 3.11389C15.795 3.84566 17.171 5.81212 17.1545 8.00714C17.1526 8.26598 17.3608 8.47743 17.6197 8.4794C17.6209 8.4794 17.6221 8.4794 17.6233 8.4794C17.8805 8.4794 18.09 8.27184 18.092 8.01417C18.1115 5.41977 16.4845 3.09538 14.0435 2.2302Z" fill="#E72113"/>
</g>
</g>
<g id="Group_7">
<g id="Group_8">
<path id="Vector_4" d="M14.8763 17.6458C17.9941 13.6325 19.9426 11.5398 19.9689 8.02867C20.0019 3.61102 16.4168 0 11.9994 0C7.63368 0 4.06471 3.53569 4.03152 7.90914C4.00471 11.5155 5.98935 13.6054 9.12867 17.6451C6.00562 18.1118 4.03152 19.2845 4.03152 20.7188C4.03152 21.6796 4.91961 22.5418 6.53226 23.1465C8.00006 23.6969 9.94195 24 12.0002 24C14.0584 24 16.0003 23.6969 17.4681 23.1465C19.0808 22.5417 19.9689 21.6795 19.9689 20.7187C19.9689 19.2852 17.9966 18.1128 14.8763 17.6458ZM4.96897 7.91622C4.99822 4.05704 8.14706 0.937502 11.9995 0.937502C15.8976 0.937502 19.0605 4.12445 19.0314 8.02169C19.0065 11.3561 16.9401 13.411 13.6412 17.7114C13.0528 18.4781 12.5124 19.203 12.0009 19.9121C11.4909 19.2026 10.9613 18.4907 10.3641 17.7111C6.92877 13.2306 4.94357 11.3311 4.96897 7.91622ZM12.0002 23.0625C7.97592 23.0625 4.96897 21.8252 4.96897 20.7188C4.96897 19.8983 6.76654 18.8618 9.78895 18.5029C10.4571 19.3795 11.0428 20.1759 11.6173 20.9893C11.7051 21.1135 11.8477 21.1874 11.9998 21.1875C11.9999 21.1875 12 21.1875 12.0002 21.1875C12.1522 21.1875 12.2947 21.1139 12.3826 20.9899C12.9517 20.1871 13.5534 19.371 14.2158 18.5034C17.2354 18.8627 19.0314 19.8989 19.0314 20.7188C19.0314 21.8252 16.0245 23.0625 12.0002 23.0625Z" fill="#E72113"/>
</g>
</g>
</g>
</svg>
