<svg width="24" height="24" viewBox="0 0 24 24" fill="none" xmlns="http://www.w3.org/2000/svg">
<path d="M1.5 13.125C1.54925 13.125 1.59803 13.1154 1.64354 13.0965C1.68905 13.0777 1.7304 13.0501 1.76523 13.0152C1.80006 12.9804 1.82768 12.9391 1.84651 12.8936C1.86535 12.848 1.87503 12.7993 1.875 12.75V6.48854L4.188 9.95804C4.22231 10.0093 4.26872 10.0514 4.32313 10.0805C4.37754 10.1096 4.43829 10.1249 4.5 10.125H7.875V11.25C7.87509 11.3117 7.89038 11.3725 7.9195 11.4269C7.94862 11.4813 7.99069 11.5277 8.042 11.562L10.292 13.062C10.3536 13.1031 10.426 13.125 10.5 13.125C10.574 13.125 10.6464 13.1031 10.708 13.062L12.958 11.562C13.0093 11.5277 13.0514 11.4813 13.0805 11.4269C13.1096 11.3725 13.1249 11.3117 13.125 11.25V10.125H16.5C16.5617 10.1249 16.6225 10.1096 16.6769 10.0805C16.7313 10.0514 16.7777 10.0093 16.812 9.95802L19.125 6.48852V10.5C19.125 10.5995 19.1645 10.6949 19.2348 10.7652C19.3052 10.8355 19.4005 10.875 19.5 10.875C19.5995 10.875 19.6948 10.8355 19.7652 10.7652C19.8355 10.6949 19.875 10.5995 19.875 10.5V5.25001C19.875 5.20076 19.8653 5.15198 19.8465 5.10647C19.8277 5.06096 19.8001 5.01961 19.7652 4.98478C19.7304 4.94995 19.6891 4.92233 19.6435 4.9035C19.598 4.88466 19.5493 4.87498 19.5 4.87501H13.8371C13.7492 4.05125 13.3598 3.28911 12.7437 2.73526C12.1276 2.18141 11.3284 1.875 10.5 1.875C9.67157 1.875 8.87241 2.18141 8.25633 2.73526C7.64025 3.28911 7.25079 4.05125 7.1629 4.87501H1.5C1.45075 4.87498 1.40197 4.88466 1.35646 4.9035C1.31095 4.92233 1.2696 4.94995 1.23477 4.98478C1.19994 5.01961 1.17232 5.06096 1.15349 5.10647C1.13465 5.15198 1.12497 5.20076 1.125 5.25001V12.75C1.12497 12.7993 1.13465 12.848 1.15349 12.8936C1.17232 12.9391 1.19994 12.9804 1.23477 13.0152C1.2696 13.0501 1.31095 13.0777 1.35646 13.0965C1.40197 13.1154 1.45075 13.125 1.5 13.125ZM10.5 12.2996L8.625 11.0493V7.87501H12.375V11.0493L10.5 12.2996ZM16.2993 9.37501H13.125V7.87501H13.5C13.5995 7.87501 13.6948 7.8355 13.7652 7.76518C13.8355 7.69485 13.875 7.59947 13.875 7.50001C13.875 7.40056 13.8355 7.30517 13.7652 7.23485C13.6948 7.16452 13.5995 7.12501 13.5 7.12501H7.5C7.40054 7.12501 7.30516 7.16452 7.23483 7.23485C7.16451 7.30517 7.125 7.40056 7.125 7.50001C7.125 7.59947 7.16451 7.69485 7.23483 7.76518C7.30516 7.8355 7.40054 7.87501 7.5 7.87501H7.875V9.37501H4.70069L2.2007 5.62501H18.7993L16.2993 9.37501ZM9.43946 4.87501C9.51698 4.65568 9.66059 4.46577 9.85053 4.33145C10.0405 4.19713 10.2674 4.12501 10.5 4.12501C10.7326 4.12501 10.9595 4.19713 11.1495 4.33145C11.3394 4.46577 11.483 4.65568 11.5605 4.87501H9.43946ZM10.5 2.62501C11.131 2.62589 11.7407 2.85364 12.2178 3.2667C12.6949 3.67976 13.0075 4.25059 13.0986 4.87501H12.3371C12.2506 4.45159 12.0206 4.07103 11.6858 3.79772C11.3511 3.5244 10.9322 3.37512 10.5 3.37512C10.0678 3.37512 9.64895 3.5244 9.31419 3.79772C8.97943 4.07103 8.74936 4.45159 8.6629 4.87501H7.90137C7.99252 4.25059 8.30515 3.67976 8.78221 3.2667C9.25928 2.85364 9.86896 2.62589 10.5 2.62501Z" fill="#816FE9"/>
<path d="M1.5 17.625H10.5C10.5995 17.625 10.6948 17.5855 10.7652 17.5152C10.8355 17.4448 10.875 17.3495 10.875 17.25C10.875 17.1505 10.8355 17.0552 10.7652 16.9848C10.6948 16.9145 10.5995 16.875 10.5 16.875H1.875V15.75C1.875 15.6505 1.83549 15.5552 1.76517 15.4848C1.69484 15.4145 1.59946 15.375 1.5 15.375C1.40054 15.375 1.30516 15.4145 1.23484 15.4848C1.16451 15.5552 1.125 15.6505 1.125 15.75V17.25C1.12497 17.2993 1.13465 17.348 1.15349 17.3935C1.17232 17.4391 1.19994 17.4804 1.23477 17.5152C1.2696 17.5501 1.31095 17.5777 1.35646 17.5965C1.40197 17.6153 1.45075 17.625 1.5 17.625Z" fill="#816FE9"/>
<path d="M22.875 16.5C22.875 15.3875 22.5451 14.2999 21.927 13.3749C21.3089 12.4499 20.4304 11.7289 19.4026 11.3032C18.3748 10.8774 17.2438 10.766 16.1526 10.9831C15.0615 11.2001 14.0592 11.7359 13.2725 12.5225C12.4859 13.3092 11.9501 14.3115 11.7331 15.4026C11.516 16.4938 11.6274 17.6248 12.0532 18.6526C12.4789 19.6804 13.1999 20.5589 14.1249 21.177C15.0499 21.7951 16.1375 22.125 17.25 22.125C18.7413 22.1234 20.1711 21.5302 21.2257 20.4757C22.2802 19.4211 22.8734 17.9913 22.875 16.5ZM17.25 21.375C16.2858 21.375 15.3433 21.0891 14.5416 20.5534C13.7399 20.0177 13.1151 19.2564 12.7461 18.3656C12.3771 17.4748 12.2806 16.4946 12.4687 15.5489C12.6568 14.6033 13.1211 13.7346 13.8029 13.0529C14.4846 12.3711 15.3533 11.9068 16.2989 11.7187C17.2446 11.5306 18.2248 11.6271 19.1156 11.9961C20.0064 12.3651 20.7677 12.9899 21.3034 13.7916C21.8391 14.5933 22.125 15.5358 22.125 16.5C22.1235 17.7925 21.6094 19.0316 20.6955 19.9455C19.7816 20.8594 18.5425 21.3735 17.25 21.375Z" fill="#816FE9"/>
<path d="M21.2647 16.2349L20.5147 15.4849C20.4799 15.4501 20.4386 15.4224 20.3931 15.4036C20.3476 15.3847 20.2988 15.375 20.2496 15.375C20.2004 15.375 20.1516 15.3847 20.1061 15.4036C20.0606 15.4224 20.0193 15.4501 19.9845 15.4849L19.2345 16.2349C19.1662 16.3056 19.1284 16.4003 19.1292 16.4987C19.1301 16.597 19.1695 16.691 19.239 16.7606C19.3086 16.8301 19.4026 16.8695 19.5009 16.8704C19.5993 16.8712 19.694 16.8334 19.7647 16.7651L19.8571 16.6728C19.8223 17.1823 19.6393 17.6705 19.3307 18.0773C19.022 18.4842 18.6012 18.792 18.1199 18.9628C17.6386 19.1336 17.1179 19.16 16.6218 19.0387C16.1258 18.9174 15.6759 18.6537 15.3278 18.2802C14.9796 17.9066 14.7482 17.4393 14.6621 16.936C14.576 16.4326 14.6389 15.915 14.8431 15.4469C15.0473 14.9788 15.3839 14.5807 15.8115 14.3014C16.239 14.0221 16.7389 13.8739 17.2496 13.875C17.349 13.875 17.4444 13.8355 17.5147 13.7652C17.5851 13.6949 17.6246 13.5995 17.6246 13.5C17.6246 13.4006 17.5851 13.3052 17.5147 13.2349C17.4444 13.1645 17.349 13.125 17.2496 13.125C16.5876 13.1228 15.9396 13.3153 15.3862 13.6786C14.8328 14.0419 14.3984 14.5599 14.1372 15.1681C13.876 15.7764 13.7994 16.448 13.917 17.0995C14.0345 17.751 14.3411 18.3535 14.7985 18.832C15.2559 19.3105 15.844 19.644 16.4895 19.7909C17.1349 19.9378 17.8094 19.8916 18.4288 19.658C19.0482 19.4245 19.5853 19.014 19.9732 18.4776C20.3611 17.9411 20.5827 17.3025 20.6103 16.6411L20.7344 16.7652C20.8052 16.8335 20.8999 16.8713 20.9982 16.8704C21.0965 16.8696 21.1906 16.8301 21.2601 16.7606C21.3296 16.6911 21.3691 16.597 21.3699 16.4987C21.3708 16.4004 21.333 16.3056 21.2647 16.2349Z" fill="#816FE9"/>
<path d="M17.2507 14.625C17.2015 14.625 17.1527 14.6347 17.1072 14.6535C17.0617 14.6723 17.0203 14.6999 16.9855 14.7348C16.9507 14.7696 16.923 14.8109 16.9042 14.8565C16.8854 14.902 16.8757 14.9507 16.8757 15V16.3447L16.2356 16.9849C16.1998 17.0195 16.1712 17.0609 16.1515 17.1066C16.1319 17.1524 16.1215 17.2016 16.1211 17.2514C16.1207 17.3011 16.1302 17.3505 16.149 17.3966C16.1679 17.4427 16.1957 17.4846 16.2309 17.5198C16.2661 17.555 16.308 17.5828 16.3541 17.6017C16.4002 17.6205 16.4496 17.63 16.4994 17.6296C16.5491 17.6292 16.5984 17.6188 16.6441 17.5992C16.6899 17.5795 16.7312 17.5509 16.7658 17.5151L17.5158 16.7651C17.5507 16.7303 17.5783 16.689 17.5972 16.6435C17.616 16.598 17.6257 16.5492 17.6257 16.5V15C17.6257 14.9507 17.6161 14.902 17.5972 14.8565C17.5784 14.8109 17.5508 14.7696 17.5159 14.7348C17.4811 14.6999 17.4398 14.6723 17.3943 14.6535C17.3487 14.6347 17.3 14.625 17.2507 14.625Z" fill="#816FE9"/>
<path d="M1.5 14.625C1.70711 14.625 1.875 14.4571 1.875 14.25C1.875 14.0429 1.70711 13.875 1.5 13.875C1.29289 13.875 1.125 14.0429 1.125 14.25C1.125 14.4571 1.29289 14.625 1.5 14.625Z" fill="#816FE9"/>
</svg>
