<svg width="24" height="24" viewBox="0 0 24 24" fill="none" xmlns="http://www.w3.org/2000/svg">
<g id="fi_11244276" clip-path="url(#clip0_271_1743)">
<path id="Vector" d="M14.6336 16.7349L11.5523 18.5296C11.4769 18.5736 11.4008 18.6108 11.3233 18.6414C11.3398 18.5978 11.3544 18.5524 11.367 18.5055C11.5385 17.8653 11.1597 17.1975 10.5047 16.9852C10.4886 16.98 10.4723 16.9758 10.4556 16.9728C9.57841 16.8146 8.70874 16.5002 8.00997 16.2476C7.76519 16.1591 7.53405 16.0755 7.33652 16.0114C6.50936 15.7431 5.7715 16.0699 5.15861 16.4247L2.95488 17.7006L2.78927 17.408C2.56413 17.0103 2.0575 16.8699 1.65991 17.0949L0.795344 17.5842C0.397704 17.8093 0.257266 18.3159 0.48236 18.7136L3.02416 23.2048C3.17645 23.4738 3.45761 23.6251 3.74673 23.6251C3.88488 23.6251 4.02494 23.5905 4.15352 23.5178L5.01813 23.0285C5.41572 22.8034 5.55616 22.2968 5.33106 21.8991L5.11863 21.5237L5.51758 21.2934L9.42353 22.34C9.65027 22.4008 9.87583 22.431 10.0978 22.431C10.5469 22.431 10.981 22.3073 11.3778 22.0629L16.9698 18.6196C17.5243 18.2783 17.7021 17.4212 17.3429 16.8215C17.1694 16.5321 16.4618 15.6702 14.6336 16.7349ZM4.64861 22.3758L3.78405 22.8651C3.74697 22.8862 3.6978 22.8725 3.6768 22.8354L1.135 18.3442C1.114 18.3071 1.12759 18.258 1.16472 18.237L2.02928 17.7477C2.04114 17.7409 2.05422 17.7378 2.0673 17.7378C2.09495 17.7378 2.12223 17.7522 2.13658 17.7774L4.67838 22.2686C4.69933 22.3057 4.68569 22.3548 4.64861 22.3758ZM16.5765 17.9811L10.9845 21.4244C10.5656 21.6821 10.1058 21.7465 9.61759 21.6156L5.56159 20.5288C5.46559 20.503 5.36317 20.5165 5.27706 20.5662L4.74916 20.871L3.3243 18.3533L5.53441 17.0738C6.20936 16.683 6.66433 16.5819 7.10509 16.7248C7.29077 16.785 7.50588 16.8628 7.75497 16.9529C8.47305 17.2125 9.36494 17.535 10.2944 17.7058C10.561 17.8026 10.7101 18.0593 10.6426 18.3113C10.5708 18.5794 10.3691 18.6965 10.0434 18.6598C9.59538 18.5674 9.16759 18.4453 8.7152 18.3161C8.49841 18.2542 8.2742 18.1902 8.04339 18.1283C7.84342 18.0749 7.63778 18.1935 7.58411 18.3935C7.53049 18.5936 7.64927 18.7992 7.84928 18.8528C8.07414 18.913 8.29534 18.9762 8.50919 19.0373C8.98145 19.1722 9.42756 19.2996 9.90977 19.3981C9.9122 19.3987 9.91459 19.3988 9.91703 19.3993C9.91961 19.3997 9.92209 19.4005 9.92472 19.4009L10.3082 19.4633C10.9053 19.5588 11.4358 19.4654 11.9298 19.1777L15.0112 17.383C15.8314 16.9053 16.4784 16.8377 16.6995 17.2069C16.8479 17.4549 16.7847 17.8528 16.5765 17.9811ZM2.23009 18.5267C2.25475 18.6954 2.13803 18.8521 1.96933 18.8768C1.80063 18.9015 1.64392 18.7847 1.61922 18.616C1.59456 18.4473 1.71133 18.2906 1.87998 18.2659C2.04874 18.2413 2.20544 18.358 2.23009 18.5267ZM8.07138 12.4798V13.4416C8.07138 13.5968 8.16691 13.7359 8.31166 13.7916L8.7228 13.9499C8.78838 14.1676 8.87556 14.3779 8.98338 14.5784L8.80441 14.9813C8.74145 15.123 8.77225 15.2889 8.88198 15.3987L9.56219 16.0788C9.67188 16.1885 9.83781 16.2194 9.97952 16.1564L10.3826 15.9773C10.5831 16.0851 10.7934 16.1723 11.0108 16.2378L11.1692 16.6491C11.2248 16.7939 11.364 16.8894 11.5191 16.8894H12.481C12.6362 16.8894 12.7753 16.7939 12.831 16.6491L12.9893 16.238C13.207 16.1723 13.4172 16.0852 13.6178 15.9774L14.0207 16.1563C14.1624 16.2193 14.3283 16.1885 14.438 16.0788L15.1182 15.3986C15.2279 15.2889 15.2587 15.123 15.1957 14.9813L15.0167 14.5782C15.1245 14.3776 15.2116 14.1674 15.2772 13.9499L15.6885 13.7916C15.8333 13.7359 15.9288 13.5968 15.9288 13.4416V12.4797C15.9288 12.3246 15.8333 12.1855 15.6885 12.1298L15.2774 11.9715C15.2118 11.7538 15.1246 11.5435 15.0168 11.343L15.1957 10.9401C15.2587 10.7984 15.2279 10.6324 15.1182 10.5227L14.438 9.84258C14.3283 9.73289 14.1625 9.702 14.0207 9.765L13.6175 9.94402C13.417 9.83625 13.2069 9.74911 12.9893 9.68349L12.831 9.2722C12.7753 9.12745 12.6362 9.03192 12.481 9.03192H11.5191C11.364 9.03192 11.2249 9.12745 11.1692 9.2722L11.0108 9.68349C10.7932 9.74906 10.583 9.83625 10.3826 9.94397L9.97947 9.76495C9.83767 9.70205 9.67178 9.73284 9.56209 9.84253L8.88194 10.5227C8.77225 10.6324 8.74145 10.7983 8.80441 10.9401L8.98342 11.343C8.87566 11.5435 8.78852 11.7538 8.72285 11.9714L8.31166 12.1297C8.16691 12.1855 8.07138 12.3247 8.07138 12.4798ZM8.82138 12.7373L9.16994 12.6031C9.2853 12.5587 9.37141 12.4603 9.4 12.34C9.46549 12.0648 9.57409 11.8029 9.72274 11.5616C9.78761 11.4563 9.79633 11.3258 9.74617 11.2127L9.59439 10.871L9.91042 10.555L10.2522 10.7068C10.3651 10.7569 10.4957 10.7482 10.601 10.6833C10.8424 10.5347 11.1042 10.4261 11.3793 10.3606C11.4995 10.332 11.598 10.2459 11.6424 10.1305L11.7766 9.78192H12.2235L12.3577 10.1305C12.4021 10.2459 12.5005 10.332 12.6208 10.3606C12.8958 10.4261 13.1576 10.5346 13.3991 10.6833C13.5045 10.7482 13.6349 10.7569 13.7479 10.7068L14.0897 10.555L14.4057 10.871L14.254 11.2126C14.2038 11.3257 14.2126 11.4562 14.2774 11.5614C14.4261 11.8028 14.5346 12.0647 14.6001 12.3399C14.6288 12.4602 14.7148 12.5587 14.8302 12.603L15.1788 12.7372V13.1841L14.8301 13.3183C14.7147 13.3627 14.6286 13.4612 14.6 13.5815C14.5346 13.8564 14.426 14.1182 14.2773 14.3598C14.2125 14.4651 14.2038 14.5956 14.2539 14.7086L14.4057 15.0504L14.0897 15.3664L13.7481 15.2147C13.6352 15.1645 13.5047 15.1733 13.3993 15.2381C13.1579 15.3868 12.8959 15.4954 12.6208 15.5609C12.5005 15.5895 12.4021 15.6756 12.3577 15.791L12.2236 16.1394H11.7767L11.6425 15.7908C11.5981 15.6754 11.4996 15.5893 11.3793 15.5607C11.1045 15.4953 10.8426 15.3867 10.601 15.238C10.4957 15.1731 10.3652 15.1644 10.2522 15.2146L9.91047 15.3664L9.59444 15.0503L9.74617 14.7088C9.79638 14.5957 9.78761 14.4652 9.72274 14.3599C9.57409 14.1185 9.46553 13.8566 9.4 13.5814C9.37141 13.4611 9.28534 13.3627 9.16994 13.3183L8.82142 13.1841V12.7373H8.82138ZM12 15.0132C13.1318 15.0132 14.0525 14.0924 14.0525 12.9607C14.0525 11.829 13.1317 10.9082 12 10.9082C10.8683 10.9082 9.94755 11.829 9.94755 12.9607C9.94755 14.0924 10.8683 15.0132 12 15.0132ZM12 11.6582C12.7182 11.6582 13.3025 12.2425 13.3025 12.9607C13.3025 13.6789 12.7182 14.2632 12 14.2632C11.2818 14.2632 10.6975 13.6789 10.6975 12.9607C10.6975 12.2425 11.2818 11.6582 12 11.6582ZM3.00011 6.1095C4.44756 6.1095 5.62516 4.93191 5.62516 3.48445C5.62516 2.03705 4.44756 0.859453 3.00011 0.859453C1.55266 0.859453 0.37511 2.03705 0.37511 3.48445C0.37511 4.93191 1.55266 6.1095 3.00011 6.1095ZM3.00011 1.60945C4.03403 1.60945 4.87516 2.45058 4.87516 3.48445C4.87516 4.51838 4.03403 5.3595 3.00011 5.3595C1.96623 5.3595 1.12511 4.51838 1.12511 3.48445C1.12511 2.45058 1.96623 1.60945 3.00011 1.60945ZM1.67716 3.81263C1.53072 3.66619 1.53072 3.42877 1.67716 3.28233C1.82359 3.13594 2.06097 3.13584 2.2075 3.28233L2.57186 3.64673L3.80589 2.5268C3.95922 2.38762 4.19641 2.39911 4.33558 2.55244C4.4748 2.70581 4.46331 2.94295 4.30989 3.08213L2.8113 4.44216C2.73967 4.50717 2.64944 4.53947 2.55934 4.53947C2.46316 4.53947 2.36716 4.50267 2.29413 4.42964L1.67716 3.81263ZM12.0001 5.62505C13.4476 5.62505 14.6252 4.44745 14.6252 3.00005C14.6252 1.55264 13.4476 0.375 12.0001 0.375C10.5527 0.375 9.37506 1.55259 9.37506 3C9.37506 4.44741 10.5527 5.62505 12.0001 5.62505ZM12.0001 1.125C13.034 1.125 13.8752 1.96613 13.8752 3C13.8752 4.03388 13.034 4.875 12.0001 4.875C10.9662 4.875 10.1251 4.03388 10.1251 3C10.1251 1.96613 10.9662 1.125 12.0001 1.125ZM10.6771 3.32817C10.5307 3.18173 10.5307 2.94431 10.6771 2.79788C10.8236 2.65148 11.061 2.65139 11.2075 2.79788L11.5718 3.16228L12.8059 2.04234C12.9592 1.90322 13.1964 1.91466 13.3356 2.06803C13.4748 2.22136 13.4633 2.45855 13.3099 2.59772L11.8113 3.95775C11.7396 4.02277 11.6494 4.05506 11.5593 4.05506C11.4631 4.05506 11.3671 4.01827 11.2941 3.94523L10.6771 3.32817ZM21.0001 0.375C19.5527 0.375 18.3751 1.55259 18.3751 3C18.3751 4.44741 19.5527 5.625 21.0001 5.625C22.4476 5.625 23.6251 4.44741 23.6251 3C23.6251 1.55259 22.4476 0.375 21.0001 0.375ZM21.0001 4.87505C19.9662 4.87505 19.1251 4.03392 19.1251 3.00005C19.1251 1.96617 19.9662 1.125 21.0001 1.125C22.034 1.125 22.8751 1.96613 22.8751 3C22.8751 4.03388 22.034 4.87505 21.0001 4.87505ZM22.3099 2.59772L20.8113 3.95775C20.7396 4.02277 20.6494 4.05506 20.5593 4.05506C20.4631 4.05506 20.3671 4.01827 20.2941 3.94523L19.6771 3.32822C19.5306 3.18178 19.5306 2.94436 19.6771 2.79792C19.8236 2.65148 20.061 2.65153 20.2074 2.79792L20.5718 3.16233L21.8059 2.04234C21.9592 1.90322 22.1964 1.91466 22.3356 2.06803C22.4748 2.22141 22.4633 2.45855 22.3099 2.59772ZM18.4324 6.38058C18.4975 6.44958 18.5313 6.53691 18.5343 6.62494C18.5347 6.636 18.5345 6.64711 18.5339 6.65817C18.5332 6.67102 18.5319 6.68377 18.5298 6.69647L18.3973 7.59319C18.367 7.79808 18.1758 7.93959 17.9715 7.90931C17.8187 7.88672 17.7011 7.77497 17.6638 7.63467L16.292 8.95411C16.2192 9.02409 16.1256 9.05883 16.0321 9.05883C15.9336 9.05883 15.8354 9.02034 15.7617 8.9438C15.6182 8.7945 15.6228 8.55713 15.772 8.41355L17.1527 7.08558C17.0074 7.04522 16.895 6.91889 16.8798 6.75984C16.8602 6.55369 17.0113 6.37059 17.2175 6.35086L18.1202 6.26461C18.1315 6.26344 18.1427 6.26278 18.154 6.26264C18.1653 6.26255 18.1765 6.26278 18.1876 6.26363C18.2749 6.27019 18.3603 6.30708 18.4264 6.37411C18.4281 6.37584 18.4297 6.37758 18.4314 6.37931C18.4317 6.37983 18.4321 6.38016 18.4324 6.38058ZM5.45228 6.3742C5.51823 6.30736 5.60341 6.27042 5.69045 6.26377C5.70189 6.26288 5.71356 6.26259 5.72477 6.26273C5.73602 6.26288 5.74727 6.26358 5.75852 6.26475L6.66114 6.35095C6.8673 6.37064 7.01847 6.55378 6.99878 6.75994C6.98359 6.91899 6.87114 7.04527 6.72588 7.08567L8.10658 8.41364C8.25588 8.55717 8.26042 8.79459 8.11689 8.94389C8.0433 9.02039 7.945 9.05892 7.84656 9.05892C7.75305 9.05892 7.65939 9.02414 7.58664 8.9542L6.2148 7.63477C6.17744 7.77506 6.05988 7.88681 5.90716 7.90941C5.70213 7.93988 5.51163 7.79813 5.48134 7.59328L5.34878 6.69656C5.34677 6.68386 5.34545 6.67111 5.3447 6.65827C5.34409 6.64716 5.34395 6.63605 5.34438 6.62503C5.34728 6.537 5.38113 6.44967 5.44619 6.38067C5.44652 6.3803 5.44689 6.37992 5.44722 6.37955C5.44895 6.37767 5.45059 6.37594 5.45228 6.3742ZM11.6736 8.25122L11.6874 7.44164C11.5546 7.59563 11.3224 7.61602 11.1648 7.4858C11.0051 7.35394 10.9825 7.11759 11.1144 6.95789L11.7914 6.13781C11.8648 6.04894 11.9737 5.99836 12.0903 6.00169C12.2055 6.00464 12.313 6.06047 12.3817 6.153L13.0156 7.00688C13.1391 7.17319 13.1044 7.40808 12.9381 7.5315C12.7818 7.64752 12.5648 7.62389 12.4368 7.48242L12.4235 8.26402C12.4201 8.46891 12.2528 8.63264 12.0487 8.63264C12.0465 8.63264 12.0444 8.63264 12.0422 8.63259C11.8351 8.62899 11.6701 8.45827 11.6736 8.25122Z" fill="#4CA6E5"/>
</g>
<defs>
<clipPath id="clip0_271_1743">
<rect width="24" height="24" fill="white"/>
</clipPath>
</defs>
</svg>
