<svg width="24" height="24" viewBox="0 0 24 24" fill="none" xmlns="http://www.w3.org/2000/svg">
<g id="fi_1474613" clip-path="url(#clip0_329_2948)">
<path id="Vector" d="M19.2085 13.9336H4.79448L3.24609 17.0304H4.64667V23.9981H19.3564V17.0304H20.7569L19.2085 13.9336ZM18.73 14.7078L19.5042 16.2562H13.4021L12.6279 14.7078H18.73ZM5.27306 14.7078H11.3751L10.6009 16.2562H4.49887L5.27306 14.7078ZM18.5822 23.2239H12.3886V20.5142H11.6144V23.2239H5.42087V17.0304H11.0795L11.6144 15.9604V19.3529H12.3886V15.9604L12.9235 17.0304H18.5822V23.2239Z" fill="#1A6BE5"/>
<path id="Vector_2" d="M6.19531 20.1289H8.51789V20.9031H6.19531V20.1289Z" fill="#1A6BE5"/>
<path id="Vector_3" d="M6.19531 21.6758H8.51789V22.45H6.19531V21.6758Z" fill="#1A6BE5"/>
<path id="Vector_4" d="M9.28906 21.6758H10.0633V22.45H9.28906V21.6758Z" fill="#1A6BE5"/>
<path id="Vector_5" d="M10.2111 6.29681L11.9988 5.8411L13.7865 6.29643L13.9265 4.37683L14.8761 2.75473L13.1966 2.02778L11.9988 0.546875L10.8007 2.02778L9.12109 2.75473L10.0707 4.37683L10.2111 6.29681ZM11.283 2.6623L11.9988 1.77772L12.7146 2.66268L13.7666 3.11838L13.1678 4.14132L13.0818 5.31849L11.9988 5.04253L10.9158 5.31811L10.8298 4.14094L10.231 3.11782L11.283 2.6623Z" fill="#1A6BE5"/>
<path id="Vector_6" d="M4.24849 7.08663L4.81099 6.12626L3.81452 5.69456L3.09495 4.80469L2.37538 5.69418L1.37891 6.12588L1.94141 7.08625L2.02457 8.23167L3.09495 7.95949L4.1657 8.23204L4.24849 7.08663ZM3.48979 6.85037L3.46031 7.25334L3.09495 7.16053L2.72996 7.25334L2.7001 6.85037L2.48841 6.48841L2.85736 6.32869L3.09495 6.03553L3.33216 6.32907L3.70111 6.48897L3.48979 6.85037Z" fill="#1A6BE5"/>
<path id="Vector_7" d="M22.0571 7.08663L22.6196 6.12626L21.6231 5.69456L20.9035 4.80469L20.184 5.69418L19.1875 6.12588L19.75 7.08625L19.8332 8.23167L20.9035 7.95949L21.9743 8.23204L22.0571 7.08663ZM21.2984 6.85037L21.2689 7.25334L20.9035 7.16053L20.5386 7.25334L20.5091 6.85037L20.2974 6.48841L20.6663 6.32869L20.9035 6.03553L21.1408 6.32907L21.5097 6.48897L21.2984 6.85037Z" fill="#1A6BE5"/>
<path id="Vector_8" d="M4.81571 9.22411C5.55286 9.71573 6.20779 10.3157 6.76103 11.0078L8.29429 12.9236L7.97713 10.3873C7.81156 9.06307 7.10427 7.84413 6.03673 7.04366L5.66589 6.76562L4.53125 9.03434L4.81571 9.22411ZM5.93145 7.96604C6.586 8.58543 7.02999 9.4099 7.18214 10.3019C6.69317 9.72763 6.13842 9.21598 5.52697 8.77501L5.93145 7.96604Z" fill="#1A6BE5"/>
<path id="Vector_9" d="M16.0203 10.3877L15.7031 12.924L17.2364 11.0078C17.79 10.3157 18.4446 9.71573 19.1817 9.22411L19.4658 9.03434L18.3311 6.76562L17.9603 7.04442C16.8931 7.84488 16.1855 9.06345 16.0203 10.3877ZM18.4705 8.77539C17.859 9.21636 17.3039 9.72763 16.8153 10.3022C16.9678 9.41028 17.4114 8.58581 18.066 7.96642L18.4705 8.77539Z" fill="#1A6BE5"/>
<path id="Vector_10" d="M13.5469 13.1608H14.3211V11.5389C14.3211 9.67962 14.9764 7.86964 16.1671 6.4409L15.5721 5.94531C14.2661 7.51279 13.5469 9.49931 13.5469 11.5389V13.1608Z" fill="#1A6BE5"/>
<path id="Vector_11" d="M16.2578 4.64453H17.032V5.41872H16.2578V4.64453Z" fill="#1A6BE5"/>
<path id="Vector_12" d="M17.418 3.09766H18.1922V3.87185H17.418V3.09766Z" fill="#1A6BE5"/>
<path id="Vector_13" d="M9.67773 13.1608H10.4519V11.5389C10.4519 9.49893 9.73274 7.51279 8.42704 5.94531L7.83203 6.4409C9.02243 7.86964 9.67773 9.67962 9.67773 11.5389V13.1608Z" fill="#1A6BE5"/>
<path id="Vector_14" d="M6.96875 4.64453H7.74294V5.41872H6.96875V4.64453Z" fill="#1A6BE5"/>
<path id="Vector_15" d="M5.80469 3.09766H6.57888V3.87185H5.80469V3.09766Z" fill="#1A6BE5"/>
<path id="Vector_16" d="M11.6133 6.58203H12.3875V7.35622H11.6133V6.58203Z" fill="#1A6BE5"/>
<path id="Vector_17" d="M11.6133 8.12891H12.3875V13.1612H11.6133V8.12891Z" fill="#1A6BE5"/>
<path id="Vector_18" d="M22.4531 10.4531H23.2273V11.2273H22.4531V10.4531Z" fill="#1A6BE5"/>
<path id="Vector_19" d="M22.4531 12H23.2273V12.7742H22.4531V12Z" fill="#1A6BE5"/>
<path id="Vector_20" d="M23.2266 11.2266H24.0008V12.0008H23.2266V11.2266Z" fill="#1A6BE5"/>
<path id="Vector_21" d="M21.6758 11.2266H22.45V12.0008H21.6758V11.2266Z" fill="#1A6BE5"/>
<path id="Vector_22" d="M21.2891 0H22.0633V0.774194H21.2891V0Z" fill="#1A6BE5"/>
<path id="Vector_23" d="M21.2891 1.54688H22.0633V2.32107H21.2891V1.54688Z" fill="#1A6BE5"/>
<path id="Vector_24" d="M22.0664 0.773438H22.8406V1.54763H22.0664V0.773438Z" fill="#1A6BE5"/>
<path id="Vector_25" d="M20.5156 0.773438H21.2898V1.54763H20.5156V0.773438Z" fill="#1A6BE5"/>
<path id="Vector_26" d="M0.773438 12H1.54763V12.7742H0.773438V12Z" fill="#1A6BE5"/>
<path id="Vector_27" d="M0.773438 13.5469H1.54763V14.3211H0.773438V13.5469Z" fill="#1A6BE5"/>
<path id="Vector_28" d="M1.54688 12.7734H2.32107V13.5476H1.54688V12.7734Z" fill="#1A6BE5"/>
<path id="Vector_29" d="M0 12.7734H0.774194V13.5476H0V12.7734Z" fill="#1A6BE5"/>
<path id="Vector_30" d="M0.773438 0H1.54763V0.774194H0.773438V0Z" fill="#1A6BE5"/>
<path id="Vector_31" d="M0.773438 1.54688H1.54763V2.32107H0.773438V1.54688Z" fill="#1A6BE5"/>
<path id="Vector_32" d="M1.54688 0.773438H2.32107V1.54763H1.54688V0.773438Z" fill="#1A6BE5"/>
<path id="Vector_33" d="M0 0.773438H0.774194V1.54763H0V0.773438Z" fill="#1A6BE5"/>
</g>
<defs>
<clipPath id="clip0_329_2948">
<rect width="24" height="24" fill="white"/>
</clipPath>
</defs>
</svg>
