<svg width="17" height="17" viewBox="0 0 17 17" fill="none" xmlns="http://www.w3.org/2000/svg">
<g id="fi_8677126" clip-path="url(#clip0_208_9457)">
<g id="Layer_x0020_1">
<path id="Vector" fill-rule="evenodd" clip-rule="evenodd" d="M4.66008 11.8414C4.53823 11.8414 4.45387 11.7196 4.48199 11.6071L5.40994 7.89532C5.41931 7.87658 6.11292 6.06756 7.92194 6.57371C8.15627 6.63932 8.06254 7.00487 7.81884 6.93926C6.38474 6.53621 5.82235 7.87658 5.76612 8.01717L4.84754 11.7008C4.8288 11.7852 4.74444 11.8414 4.66008 11.8414Z" fill="#9C9A96"/>
<path id="Vector_2" fill-rule="evenodd" clip-rule="evenodd" d="M13.1349 11.84C13.0505 11.84 12.9755 11.7838 12.9568 11.6994L12.0288 8.01576C11.982 7.88454 11.4196 6.55355 10.0136 6.92847C9.76989 6.98471 9.67615 6.62853 9.91986 6.56292C11.7008 6.09426 12.3756 7.87516 12.385 7.89391L13.3223 11.6057C13.3411 11.7182 13.2661 11.84 13.1349 11.84Z" fill="#9C9A96"/>
<path id="Vector_3" fill-rule="evenodd" clip-rule="evenodd" d="M8.92501 6.59256H8.91564C7.87522 6.51757 7.0785 4.90539 7.041 4.2024C6.90041 3.9587 6.34739 2.89953 6.70357 2.30902C6.76918 2.14968 7.50966 0.631224 8.91564 0.5H8.94376C10.3404 0.631224 11.0808 2.14968 11.1558 2.30902C11.5026 2.89953 10.9496 3.9587 10.809 4.2024C10.7715 4.90539 9.97481 6.51757 8.94376 6.59256C8.93438 6.59256 8.93438 6.59256 8.92501 6.59256ZM8.92501 0.874927C7.7065 0.996778 7.041 2.47774 7.02226 2.49649C6.74106 2.97452 7.41593 4.02431 7.41593 4.15554C7.41593 4.69918 8.13766 6.15202 8.92501 6.21763C9.72173 6.15202 10.4435 4.69918 10.4435 4.15554C10.4435 3.99619 11.1183 3.0495 10.8184 2.46837C10.809 2.45899 10.1341 0.996778 8.92501 0.874927Z" fill="#9C9A96"/>
<path id="Vector_4" fill-rule="evenodd" clip-rule="evenodd" d="M7.22759 4.34129C7.09637 4.34129 6.98389 4.21006 7.06825 4.05072C7.35882 3.46958 7.51816 2.98218 7.48067 2.7666C7.45255 2.58851 7.67751 2.47603 7.79936 2.59788C7.8181 2.61663 8.2024 2.99155 8.92414 3.00093C9.16784 3.00093 9.16784 3.38523 8.92414 3.37585C8.43673 3.36648 8.07118 3.21651 7.83685 3.08528C7.76186 3.47896 7.5744 3.86326 7.39631 4.23818C7.35882 4.3038 7.29321 4.34129 7.22759 4.34129Z" fill="#9C9A96"/>
<path id="Vector_5" fill-rule="evenodd" clip-rule="evenodd" d="M10.6215 4.34272C10.5371 4.34272 10.4903 4.29586 10.4528 4.22087C10.2747 3.87407 10.0872 3.4429 10.0123 3.08672C9.79667 3.20857 9.39362 3.37729 8.92496 3.37729C8.68126 3.37729 8.68126 3.01173 8.92496 3.00236C9.92789 2.98361 10.0123 2.43997 10.2653 2.57119C10.4997 2.69305 10.1435 2.83364 10.7902 4.0709C10.8558 4.19275 10.7621 4.34272 10.6215 4.34272Z" fill="#9C9A96"/>
<path id="Vector_6" fill-rule="evenodd" clip-rule="evenodd" d="M8.92476 8.40022C8.86852 8.40022 8.81228 8.3721 8.77479 8.32523L7.73437 6.93801C7.65938 6.8349 7.69687 5.89758 7.69687 5.71012C7.69687 5.46642 8.0718 5.46642 8.0718 5.71012V6.75992L9.07473 8.10028C9.16846 8.22213 9.07473 8.40022 8.92476 8.40022Z" fill="#9C9A96"/>
<path id="Vector_7" fill-rule="evenodd" clip-rule="evenodd" d="M8.92578 8.40022C8.77581 8.40022 8.68208 8.22213 8.77581 8.10028L9.77874 6.76929V5.71012C9.77874 5.46642 10.1537 5.46642 10.1537 5.71012C10.1537 5.89758 10.1912 6.8349 10.1162 6.93801L9.07575 8.32523C9.03826 8.3721 8.98202 8.40022 8.92578 8.40022Z" fill="#9C9A96"/>
<path id="Vector_8" fill-rule="evenodd" clip-rule="evenodd" d="M8.92689 10.6992C8.75818 10.6992 8.68319 10.493 8.79567 10.3805L9.98606 9.1901V8.13094C9.98606 8.06532 10.0142 7.99971 10.0798 7.97159L10.6422 7.64353V6.70621C10.6422 6.46251 11.0171 6.46251 11.0171 6.70621V7.74664C11.0171 7.82162 10.9796 7.87786 10.9234 7.91535L10.361 8.24341V9.27446C10.361 9.32133 10.3329 9.36819 10.3048 9.40569L9.05812 10.6429C9.02063 10.6804 8.97376 10.6992 8.92689 10.6992Z" fill="#9C9A96"/>
<path id="Vector_9" fill-rule="evenodd" clip-rule="evenodd" d="M8.92574 11.8414C8.82264 11.8414 8.73828 11.7571 8.73828 11.654V8.21403C8.73828 7.97032 9.11321 7.97032 9.11321 8.21403V11.654C9.11321 11.7571 9.02885 11.8414 8.92574 11.8414Z" fill="#9C9A96"/>
<path id="Vector_10" fill-rule="evenodd" clip-rule="evenodd" d="M8.92459 10.6992C8.87773 10.6992 8.83086 10.6804 8.79337 10.6429L7.55611 9.40569C7.51862 9.36819 7.49987 9.32133 7.49987 9.27446V8.24341L6.93748 7.91535C6.87187 7.87786 6.84375 7.82162 6.84375 7.75601V6.70621C6.84375 6.46251 7.21868 6.46251 7.21868 6.70621V7.64353L7.78107 7.97159C7.83731 7.99971 7.8748 8.06532 7.8748 8.13094V9.1901L9.05582 10.3805C9.17767 10.493 9.09331 10.6992 8.92459 10.6992Z" fill="#9C9A96"/>
<path id="Vector_11" fill-rule="evenodd" clip-rule="evenodd" d="M15.8706 13.4426H1.93271C1.64214 13.4426 1.39844 13.2083 1.39844 12.9177V11.9897C1.39844 11.6992 1.64214 11.4648 1.93271 11.4648H15.8706C16.1612 11.4648 16.3955 11.6992 16.3955 11.9897V12.9177C16.3955 13.2083 16.1612 13.4426 15.8706 13.4426ZM1.93271 11.8398C1.84835 11.8398 1.77336 11.9054 1.77336 11.9897V12.9177C1.77336 13.002 1.84835 13.0677 1.93271 13.0677H15.8706C15.955 13.0677 16.0206 13.002 16.0206 12.9177V11.9897C16.0206 11.9054 15.955 11.8398 15.8706 11.8398H1.93271Z" fill="#9C9A96"/>
<path id="Vector_12" fill-rule="evenodd" clip-rule="evenodd" d="M15.3162 16.4907H2.53121C2.42811 16.4907 2.34375 16.4064 2.34375 16.3033V13.257C2.34375 13.0133 2.71868 13.0133 2.71868 13.257V16.1158H15.1288V13.257C15.1288 13.0133 15.5037 13.0133 15.5037 13.257V16.3033C15.5037 16.4064 15.4193 16.4907 15.3162 16.4907Z" fill="#9C9A96"/>
<path id="Vector_13" fill-rule="evenodd" clip-rule="evenodd" d="M4.64204 11.84C4.56706 11.84 4.49207 11.7932 4.46395 11.7182C4.07028 10.7059 2.38311 5.46629 6.11363 4.89453H7.50086C7.74456 4.89453 7.74456 5.26946 7.50086 5.26946H6.15112C5.41064 5.37256 4.85763 5.71 4.52957 6.27239C3.4704 8.06266 4.80139 11.5495 4.82013 11.587C4.867 11.7088 4.77327 11.84 4.64204 11.84ZM13.1623 11.84C13.031 11.84 12.9373 11.7088 12.9842 11.587C13.0029 11.5495 14.3245 8.06266 13.2747 6.27239C12.9373 5.71 12.3937 5.37256 11.6532 5.26946H10.3503C10.1066 5.26946 10.1066 4.89453 10.3503 4.89453H11.6907C15.4118 5.41943 13.7246 10.7528 13.331 11.7182C13.3029 11.7932 13.2372 11.84 13.1623 11.84Z" fill="#9C9A96"/>
<path id="Vector_14" fill-rule="evenodd" clip-rule="evenodd" d="M13.1999 14.832H4.65153C4.40782 14.832 4.40782 14.457 4.65153 14.457H13.1999C13.4436 14.457 13.4529 14.832 13.1999 14.832Z" fill="#9C9A96"/>
</g>
</g>
<defs>
<clipPath id="clip0_208_9457">
<rect width="16" height="16" fill="white" transform="translate(0.902344 0.5)"/>
</clipPath>
</defs>
</svg>
