<svg width="17" height="17" viewBox="0 0 17 17" fill="none" xmlns="http://www.w3.org/2000/svg">
<g id="value-proposition 1" clip-path="url(#clip0_208_9492)">
<g id="Group">
<path id="Vector (Stroke)" fill-rule="evenodd" clip-rule="evenodd" d="M12.1986 0.5C12.2865 0.5 12.367 0.549195 12.4071 0.627418C12.5088 0.825713 12.5927 0.949627 12.6908 1.04773C12.7889 1.14583 12.9128 1.22969 13.1111 1.33139C13.1893 1.37151 13.2385 1.45203 13.2385 1.53994C13.2385 1.62785 13.1893 1.70837 13.1111 1.74848C12.9128 1.85018 12.7889 1.93404 12.6908 2.03215C12.5927 2.13025 12.5088 2.25416 12.4071 2.45246C12.367 2.53068 12.2865 2.57988 12.1986 2.57988C12.1107 2.57988 12.0302 2.53068 11.99 2.45246C11.8883 2.25416 11.8045 2.13025 11.7064 2.03215C11.6083 1.93404 11.4844 1.85018 11.2861 1.74848C11.2079 1.70837 11.1587 1.62785 11.1587 1.53994C11.1587 1.45203 11.2079 1.37151 11.2861 1.33139C11.4844 1.22969 11.6083 1.14583 11.7064 1.04773C11.8045 0.949626 11.8883 0.825713 11.99 0.627418C12.0302 0.549195 12.1107 0.5 12.1986 0.5ZM11.8486 1.53994C11.9166 1.58934 11.9792 1.64209 12.0378 1.70069C12.0964 1.75929 12.1492 1.82188 12.1986 1.88991C12.248 1.82188 12.3007 1.75929 12.3593 1.70069C12.4179 1.64209 12.4805 1.58934 12.5486 1.53994C12.4805 1.49054 12.4179 1.43778 12.3593 1.37919C12.3007 1.32059 12.248 1.25799 12.1986 1.18996C12.1492 1.25799 12.0964 1.32059 12.0378 1.37919C11.9792 1.43778 11.9166 1.49054 11.8486 1.53994ZM5.94161 2.86219L8.20356 5.76254L10.5721 2.86219H5.94161ZM11.0676 2.99648L13.4314 5.82781H11.5995C11.4701 5.82781 11.3652 5.93275 11.3652 6.06219C11.3652 6.19163 11.4701 6.29656 11.5995 6.29656H13.421L12.2166 7.69655C12.1483 7.60451 12.0817 7.49278 12.0074 7.34794C11.9673 7.26972 11.8868 7.22052 11.7988 7.22052C11.7109 7.22052 11.6304 7.26972 11.5903 7.34794C11.4722 7.57827 11.3734 7.72484 11.2566 7.8417C11.1397 7.95857 10.9931 8.05729 10.7628 8.17541C10.6846 8.21553 10.6354 8.29605 10.6354 8.38396C10.6354 8.47187 10.6846 8.55239 10.7628 8.59251C10.9591 8.69314 11.0945 8.77969 11.2026 8.87538L8.43372 12.0935V6.29656H10.5058C10.6352 6.29656 10.7402 6.19163 10.7402 6.06219C10.7402 5.93275 10.6352 5.82781 10.5058 5.82781H8.75545L11.0676 2.99648ZM7.66001 5.82781H2.97952L3.7421 4.95342C3.82718 4.85587 3.81707 4.70782 3.71952 4.62274C3.62197 4.53766 3.47391 4.54777 3.38883 4.64532L2.37832 5.804C2.24978 5.95178 2.24938 6.17132 2.3764 6.31924L5.2578 9.66817C5.34223 9.7663 5.49021 9.7774 5.58833 9.69298C5.68645 9.60855 5.69756 9.46057 5.61313 9.36245L2.97526 6.29656H7.96497V12.0963L6.32626 10.1918C6.24183 10.0937 6.09385 10.0826 5.99573 10.167C5.89761 10.2515 5.88651 10.3994 5.97093 10.4976L7.89937 12.7388L7.89977 12.7393C8.05707 12.9211 8.33937 12.9218 8.49685 12.7388L11.4981 9.25061C11.5279 9.30167 11.5584 9.35777 11.5903 9.41998C11.6304 9.4982 11.7109 9.5474 11.7988 9.54739C11.8868 9.54739 11.9673 9.4982 12.0074 9.41997C12.1255 9.18965 12.2242 9.04307 12.3411 8.92621C12.458 8.80935 12.6045 8.71063 12.8349 8.5925C12.9131 8.55238 12.9623 8.47186 12.9623 8.38395C12.9623 8.29604 12.9131 8.21552 12.8349 8.17541C12.7262 8.11967 12.6361 8.06825 12.5591 8.0172L14.0206 6.31829C14.0207 6.31817 14.0208 6.31805 14.0209 6.31793C14.1481 6.17103 14.1476 5.95551 14.026 5.80864L11.2926 2.53448L11.2918 2.53357C11.2171 2.44499 11.1066 2.39344 10.9905 2.39344H5.53266C5.42068 2.39344 5.31127 2.44141 5.23548 2.52871C5.23538 2.52883 5.23528 2.52894 5.23518 2.52906L4.10792 3.82124C4.02282 3.91878 4.03292 4.06683 4.13046 4.15193C4.228 4.23702 4.37605 4.22693 4.46115 4.12939L5.45075 2.99501L7.66001 5.82781ZM1.91234 2.46021C2.00025 2.4602 2.08077 2.5094 2.12089 2.58762C2.26 2.85886 2.37772 3.03441 2.51856 3.17525C2.6594 3.3161 2.83494 3.43382 3.10617 3.5729C3.18439 3.61302 3.23359 3.69354 3.23359 3.78145C3.23359 3.86936 3.1844 3.94988 3.10617 3.99C2.83494 4.12911 2.65939 4.24683 2.51855 4.38767C2.3777 4.52852 2.25998 4.70405 2.1209 4.97528C2.08078 5.0535 2.00026 5.1027 1.91235 5.10271C1.82444 5.10271 1.74391 5.05351 1.7038 4.97529C1.56469 4.70405 1.44697 4.52851 1.30612 4.38766C1.16528 4.24681 0.989748 4.1291 0.718521 3.99001C0.640294 3.94989 0.591095 3.86937 0.591093 3.78146C0.591091 3.69355 0.640287 3.61303 0.718512 3.57291C0.989748 3.4338 1.16529 3.31608 1.30614 3.17524C1.44699 3.0344 1.5647 2.85886 1.70379 2.58763C1.74391 2.50941 1.82443 2.46021 1.91234 2.46021ZM1.91235 3.16527C1.82861 3.2926 1.73971 3.40458 1.63759 3.5067C1.53547 3.60882 1.42349 3.69771 1.29616 3.78145C1.42348 3.86519 1.53547 3.95408 1.63758 4.05621C1.7397 4.15833 1.8286 4.27031 1.91234 4.39764C1.99607 4.27031 2.08497 4.15833 2.18709 4.05621C2.28922 3.95409 2.4012 3.8652 2.52853 3.78146C2.4012 3.69772 2.28922 3.60883 2.1871 3.5067C2.08498 3.40458 1.99609 3.2926 1.91235 3.16527ZM0.199219 6.51041C0.199219 6.199 0.451684 5.94653 0.763094 5.94653C1.38104 5.94653 1.88197 6.44746 1.88197 7.06541V9.41706C2.20867 9.24723 2.6204 9.29878 2.89541 9.57149L5.44343 12.098C5.88065 12.5316 6.12663 13.1218 6.12663 13.7376V16.2656C6.12663 16.395 6.02169 16.5 5.89225 16.5C5.76281 16.5 5.65788 16.395 5.65788 16.2656V13.7376C5.65788 13.2469 5.46184 12.7764 5.11337 12.4309L2.56535 9.90434C2.4093 9.74959 2.1577 9.7493 2.00128 9.90371C1.84764 10.0554 1.84164 10.3015 1.98773 10.4604L3.77682 12.4073C3.86441 12.5026 3.85815 12.6508 3.76284 12.7384C3.66753 12.826 3.51927 12.8198 3.43168 12.7244L1.64259 10.7776C1.48843 10.6099 1.41236 10.3974 1.41324 10.1856C1.41323 10.1844 1.41322 10.1833 1.41322 10.1821V7.06541C1.41322 6.70635 1.12215 6.41528 0.763094 6.41528C0.710566 6.41528 0.667969 6.45788 0.667969 6.51041V10.7536C0.667969 10.9233 0.726085 11.0878 0.832631 11.2198L0.833598 11.221L3.38953 14.4307C3.54228 14.6225 3.6255 14.8605 3.6255 15.1058V16.2656C3.6255 16.3951 3.52057 16.5 3.39112 16.5C3.26168 16.5 3.15675 16.3951 3.15675 16.2656V15.1058C3.15675 14.9666 3.10953 14.8315 3.02284 14.7227L0.467869 11.5142C0.467703 11.514 0.467536 11.5138 0.467369 11.5136C0.293858 11.2983 0.199219 11.0301 0.199219 10.7536V6.51041ZM15.6355 6.41528C15.2761 6.41528 14.9852 6.70634 14.9852 7.06528V10.1803C14.9873 10.3939 14.9113 10.6085 14.7559 10.7776L12.9668 12.7244C12.8792 12.8198 12.7309 12.826 12.6356 12.7384C12.5403 12.6508 12.534 12.5026 12.6216 12.4073L14.4107 10.4604C14.4821 10.3828 14.5172 10.2842 14.5164 10.1861C14.5164 10.1852 14.5164 10.1843 14.5164 10.1834C14.515 10.0817 14.475 9.98057 14.3972 9.90371C14.2407 9.7493 13.9891 9.74959 13.8331 9.90434L11.2851 12.4309C11.2851 12.4309 11.2851 12.4309 11.2851 12.4309C10.9366 12.7764 10.7406 13.2469 10.7406 13.7376V16.2656C10.7406 16.395 10.6356 16.5 10.5062 16.5C10.3767 16.5 10.2718 16.395 10.2718 16.2656V13.7376C10.2718 13.1218 10.5178 12.5316 10.955 12.098L13.503 9.57149C13.503 9.5715 13.503 9.57149 13.503 9.57149C13.778 9.29881 14.1897 9.24724 14.5164 9.41702V7.06528C14.5164 6.44735 15.0173 5.94653 15.6355 5.94653C15.791 5.94653 15.9319 6.00985 16.0336 6.11131C16.136 6.21315 16.1992 6.35485 16.1992 6.51028V10.7534C16.1992 11.0302 16.1044 11.2981 15.9313 11.5133C15.9311 11.5135 15.931 11.5137 15.9308 11.5139L14.6604 13.1091C14.5797 13.2104 14.4323 13.2271 14.331 13.1464C14.2298 13.0658 14.2131 12.9183 14.2937 12.8171L15.5649 11.2208L15.5658 11.2198C15.6723 11.0876 15.7305 10.9232 15.7305 10.7534V6.51028C15.7305 6.48384 15.72 6.46054 15.703 6.44363L15.7026 6.4432C15.6849 6.42553 15.6616 6.41528 15.6355 6.41528ZM11.333 8.38396C11.4264 8.44837 11.5104 8.5171 11.5881 8.59477C11.6657 8.67242 11.7344 8.75646 11.7988 8.84977C11.8633 8.75645 11.932 8.67241 12.0097 8.59475C12.0873 8.5171 12.1713 8.44837 12.2647 8.38396C12.1713 8.31956 12.0873 8.25083 12.0097 8.17317C11.932 8.09551 11.8633 8.01147 11.7988 7.91815C11.7344 8.01147 11.6657 8.0955 11.588 8.17316C11.5104 8.25082 11.4263 8.31955 11.333 8.38396ZM13.9412 13.6364C14.0424 13.717 14.0591 13.8645 13.9785 13.9657L13.3757 14.7226C13.289 14.8315 13.2417 14.9666 13.2417 15.1056V16.2656C13.2417 16.3951 13.1368 16.5 13.0073 16.5C12.8779 16.5 12.773 16.3951 12.773 16.2656V15.1056C12.773 14.8603 12.8563 14.6223 13.009 14.4306L13.6118 13.6737C13.6925 13.5724 13.8399 13.5557 13.9412 13.6364Z" fill="#9C9A96"/>
</g>
</g>
<defs>
<clipPath id="clip0_208_9492">
<rect width="16" height="16" fill="white" transform="translate(0.199219 0.5)"/>
</clipPath>
</defs>
</svg>
