<svg width="16" height="17" viewBox="0 0 16 17" fill="none" xmlns="http://www.w3.org/2000/svg">
<g id="fi_4300058" clip-path="url(#clip0_208_9475)">
<g id="Group">
<path id="Vector" d="M14.4607 12.4304C14.3358 12.4319 14.3495 12.4259 14.1834 12.4375V8.55244C14.1834 8.13666 13.8452 7.79838 13.4294 7.79838H11.5256C11.5246 7.79838 11.5236 7.79823 11.5226 7.79823H9.33034V1.94557L11.1283 3.68354C11.2299 3.78179 11.2882 3.91916 11.2882 4.06051V6.92782C11.2882 7.05726 11.3932 7.16219 11.5226 7.16219C11.652 7.16219 11.757 7.05726 11.757 6.92782V4.06051C11.757 3.79282 11.6466 3.53257 11.4541 3.34651L9.25884 1.22454C9.2095 1.17822 9.11494 1.13666 9.02128 1.17088L5.08313 2.49463V1.58213C5.08609 1.18341 4.72834 0.836381 4.31219 0.860568C3.91416 0.860568 3.59031 1.18426 3.59031 1.58213V2.99641L2.55997 3.34276C2.15525 3.47882 1.88331 3.85707 1.88331 4.28407V12.4317C0.840344 12.4584 0 13.3146 0 14.3639V15.5557C0 15.8792 0.263219 16.1424 0.58675 16.1424H15.4132C15.7368 16.1424 16 15.8792 16 15.5557V13.9697C16 13.121 15.3095 12.4304 14.4607 12.4304ZM14.4607 12.8992C15.051 12.8992 15.5312 13.3794 15.5312 13.9698V14.2156H13.2578V13.9698C13.2583 13.3291 13.8212 12.8437 14.4607 12.8992ZM13.7147 8.55244V12.5584C13.1705 12.796 12.7891 13.339 12.7891 13.9697V14.2156H9.33034V8.26713H13.4294C13.5867 8.26713 13.7147 8.39513 13.7147 8.55244ZM4.05906 1.58213C4.05906 1.44272 4.17263 1.32932 4.31219 1.32932C4.43753 1.31091 4.60631 1.40919 4.61438 1.58213V2.65219L4.05906 2.83885V1.58213ZM1.88334 12.9V14.2156H0.476187C0.549094 13.4937 1.14844 12.9249 1.88334 12.9ZM0.46875 15.5557V14.6844H1.88334V15.6737H0.586781C0.521688 15.6737 0.46875 15.6208 0.46875 15.5557ZM2.35209 4.28407C2.35209 4.05863 2.49566 3.85894 2.70934 3.7871L8.86162 1.7191V2.99613L3.75 4.71435C3.62731 4.75557 3.56128 4.88847 3.60253 5.01119C3.63544 5.10913 3.72675 5.17094 3.82466 5.17094C3.84941 5.17094 3.87459 5.16701 3.89937 5.15866L8.86162 3.49069V4.68304L3.75 6.40123C3.62731 6.44248 3.56128 6.57538 3.60253 6.69807C3.63544 6.79601 3.72675 6.85782 3.82466 6.85782C3.84941 6.85782 3.87459 6.85388 3.89937 6.84554L8.86162 5.17754V6.36988L3.75 8.0881C3.62731 8.12932 3.56128 8.26223 3.60253 8.38494C3.63544 8.48288 3.72675 8.54469 3.82466 8.54469C3.84941 8.54469 3.87459 8.54076 3.89937 8.53241L8.86162 6.86444V8.03188C8.86162 8.03219 8.86159 8.03248 8.86159 8.03279V8.05682L3.75 9.77497C3.62731 9.81623 3.56128 9.94913 3.60253 10.0718C3.63544 10.1698 3.72675 10.2316 3.82466 10.2316C3.84941 10.2316 3.87459 10.2276 3.89937 10.2193L8.86156 8.55129V9.74366L5.66978 10.8165C5.54709 10.8578 5.48106 10.9907 5.52231 11.1134C5.55522 11.2113 5.64653 11.2731 5.74444 11.2731C5.76919 11.2731 5.79437 11.2692 5.81916 11.2608L8.86156 10.2382V15.6737H6.83681V13.2383C6.83681 13.0786 6.76388 12.9317 6.63672 12.8352C6.50956 12.7387 6.34844 12.7079 6.19469 12.7509L4.01322 13.3599C3.76425 13.4294 3.59037 13.6584 3.59037 13.9169V15.6737H2.35209V4.28407ZM4.05912 13.917C4.05912 13.868 4.09209 13.8246 4.13925 13.8114L4.97919 13.5769V15.6737H4.05909L4.05912 13.917ZM5.44794 15.6737V13.446L6.32072 13.2024C6.3325 13.199 6.3435 13.2011 6.35328 13.2086C6.36306 13.216 6.36803 13.226 6.36803 13.2383V15.6737H5.44794ZM9.33034 15.6737V14.6844H12.7891V15.6737H9.33034ZM15.5312 15.5557C15.5312 15.6208 15.4783 15.6737 15.4132 15.6737H13.2578V14.6844H15.5312V15.5557Z" fill="#363430"/>
<path id="Vector_2" d="M3.82425 11.9177C3.849 11.9177 3.87419 11.9137 3.89897 11.9054L4.76916 11.6129C4.89184 11.5717 4.95788 11.4387 4.91663 11.316C4.87538 11.1933 4.74247 11.1272 4.61978 11.1686L3.74959 11.4611C3.62691 11.5023 3.56088 11.6352 3.60213 11.7579C3.63503 11.8558 3.72634 11.9177 3.82425 11.9177Z" fill="#363430"/>
<path id="Vector_3" d="M10.3562 10.1984H12.6547C12.8726 10.1984 13.0499 10.0211 13.0499 9.80319V9.23903C13.0499 9.02106 12.8726 8.84375 12.6547 8.84375H10.3562C10.1382 8.84375 9.96094 9.02106 9.96094 9.23903V9.80319C9.96094 10.0211 10.1382 10.1984 10.3562 10.1984ZM10.4297 9.3125H12.5812V9.72969H10.4297V9.3125Z" fill="#363430"/>
<path id="Vector_4" d="M10.3562 11.9836H12.6547C12.8726 11.9836 13.0499 11.8063 13.0499 11.5883V11.0242C13.0499 10.8062 12.8726 10.6289 12.6547 10.6289H10.3562C10.1382 10.6289 9.96094 10.8062 9.96094 11.0242V11.5883C9.96094 11.8063 10.1382 11.9836 10.3562 11.9836ZM10.4297 11.0977H12.5812V11.5148H10.4297V11.0977Z" fill="#363430"/>
<path id="Vector_5" d="M10.3562 13.7844H11.1164C11.3344 13.7844 11.5117 13.6071 11.5117 13.3891V12.825C11.5117 12.607 11.3344 12.4297 11.1164 12.4297H10.3562C10.1382 12.4297 9.96094 12.607 9.96094 12.825V13.3891C9.96094 13.6071 10.1382 13.7844 10.3562 13.7844ZM10.4297 12.8984H11.043V13.3156H10.4297V12.8984Z" fill="#363430"/>
</g>
</g>
<defs>
<clipPath id="clip0_208_9475">
<rect width="16" height="16" fill="white" transform="translate(0 0.5)"/>
</clipPath>
</defs>
</svg>
