<svg width="16" height="17" viewBox="0 0 16 17" fill="none" xmlns="http://www.w3.org/2000/svg">
<g id="Brownie" clip-path="url(#clip0_243_3314)">
<g id="Group">
<g id="Group_2">
<path id="Vector" d="M0 7.79688V11.6171L8 15.6171L8.31373 13.5642L8 11.7969L4.49107 9.72867L0 7.79688Z" fill="#A05F4B"/>
<path id="Vector_2" d="M11.6854 8.96252L8 11.7965V15.6168L16 11.6168V7.79688L11.6854 8.96252Z" fill="#724435"/>
<path id="Vector_3" d="M8 9.44141L4.50196 6.96395L0 5.44141V7.79435L8 11.7943L8.31373 10.3826L8 9.44141Z" fill="#724435"/>
<path id="Vector_4" d="M4.8 5.4432L1.79878 4.48828L0 5.38767V5.4432L8 9.4432L8.31373 8.72571L8 7.8245L7.75426 7.03796L8 5.91595L8.31373 5.20006L8 4.66227L4.8 5.4432Z" fill="#C47E4E"/>
<path id="Vector_5" d="M13.1769 6.85317L12.8789 8.34337L13.1769 9.20633L16.0005 7.79472V5.44141L13.9142 5.88423L13.1769 6.85317Z" fill="#5B3328"/>
<path id="Vector_6" d="M11.5089 10.0424L11.2941 7.79688L9.21013 8.20996L8 9.44393V11.7969L11.509 10.0426L11.5089 10.0424Z" fill="#5B3328"/>
<path id="Vector_7" d="M8.00014 1.38672L2.80469 3.98446L5.01975 5.58346L8.00014 3.70763L8.31386 2.69721L8.00014 1.38672Z" fill="#C47E4E"/>
<g id="Group_3">
<path id="Vector_8" d="M5.38778 5.03563C5.14251 5.17411 4.83895 5.17185 4.59568 5.02985L2.80262 3.98386L2.29975 4.23531L1.79688 4.48676L4.12139 5.84281C4.65247 6.15268 5.31502 6.15748 5.85043 5.85527L7.88014 4.7096C7.91741 4.68858 7.9571 4.67236 7.9981 4.66076L8.09611 4.17109L7.99807 3.70703C7.79458 3.72739 7.59625 3.7891 7.41758 3.88993L5.38778 5.03563Z" fill="#A05F4B"/>
<path id="Vector_9" d="M7.96209 5.93778C7.63848 6.13354 7.44262 6.47525 7.4376 6.85398C7.43252 7.23635 7.62282 7.58619 7.94684 7.78992L7.99882 7.82258L8.31255 6.86832L7.99882 5.91406L7.96209 5.93778Z" fill="#A05F4B"/>
<path id="Vector_10" d="M8 4.6621V5.91578L8.71749 5.66264V4.35547L8 4.6621Z" fill="#A05F4B"/>
<path id="Vector_11" d="M8 9.44292L9.43498 8.72543L8.71749 7.94748L8 7.82422V9.44292Z" fill="#A05F4B"/>
<path id="Vector_12" d="M8 1.38672V3.70763L8.97255 5.27789L8.20417 7.20259L10.4203 8.23215L11.2941 7.79522V9.44228C11.2941 9.96206 11.7155 10.3835 12.2353 10.3835C12.7551 10.3835 13.1765 9.96206 13.1765 9.44228V6.85404L16 5.44228V5.38675L8 1.38672Z" fill="#A05F4B"/>
</g>
<path id="Vector_13" d="M10.4203 8.23183L8.44875 6.99371C8.38786 6.95541 8.37945 6.898 8.37986 6.86719C8.38027 6.83644 8.39015 6.77947 8.45189 6.74289L8.9099 6.44717C9.36 6.17643 9.62777 5.70201 9.6267 5.17608C9.62566 4.64695 9.35256 4.17103 8.896 3.90286C8.66886 3.76965 8.40982 3.69922 8.14685 3.69922C8.09773 3.69922 8.04878 3.70242 8.00003 3.70731V4.18094V4.66104C8.04766 4.64755 8.09707 4.6404 8.14685 4.6404C8.24257 4.6404 8.33697 4.66609 8.41958 4.71456C8.65904 4.8552 8.68533 5.08551 8.68552 5.17796C8.68571 5.27048 8.66036 5.50098 8.42143 5.64262L8 5.91472V6.54596V7.1928V7.8233L9.43498 8.72451L10.4203 8.23183Z" fill="#724435"/>
</g>
</g>
</g>
<defs>
<clipPath id="clip0_243_3314">
<rect width="16" height="16" fill="white" transform="translate(0 0.5)"/>
</clipPath>
</defs>
</svg>
