<svg width="24" height="24" viewBox="0 0 24 24" fill="none" xmlns="http://www.w3.org/2000/svg">
<g id="Cake" clip-path="url(#clip0_243_3246)">
<g id="Group">
<g id="Group_2">
<path id="Vector" d="M8.76844 14.4707C8.76234 14.4407 8.75344 14.4112 8.74172 14.3831C8.73 14.3545 8.71547 14.3273 8.69859 14.302C8.68125 14.2762 8.66156 14.2523 8.64 14.2307C8.53125 14.122 8.36953 14.0718 8.21719 14.1028C8.18719 14.1089 8.15766 14.1178 8.12953 14.1295C8.10094 14.1412 8.07375 14.1557 8.04844 14.1726C8.02266 14.1895 7.99875 14.2092 7.97719 14.2307C7.95563 14.2523 7.93594 14.2762 7.91906 14.302C7.90219 14.3273 7.88766 14.3545 7.87594 14.3831C7.86422 14.4112 7.85531 14.4407 7.84922 14.4707C7.84313 14.5007 7.83984 14.5317 7.83984 14.5621C7.83984 14.5926 7.84313 14.6235 7.84922 14.654C7.85531 14.6835 7.86422 14.7131 7.87594 14.7417C7.88766 14.7698 7.90219 14.797 7.91906 14.8223C7.93594 14.8481 7.95563 14.872 7.97719 14.8935C7.99875 14.9151 8.02266 14.9348 8.04844 14.9521C8.07375 14.969 8.10094 14.9835 8.12953 14.9953C8.15766 15.007 8.18719 15.0159 8.21719 15.022C8.24719 15.0281 8.27812 15.0309 8.30859 15.0309C8.43187 15.0309 8.55281 14.9807 8.64 14.8935C8.66156 14.872 8.68125 14.8481 8.69859 14.8223C8.71547 14.797 8.73 14.7698 8.74172 14.7417C8.75344 14.7131 8.76234 14.6835 8.76844 14.654C8.77453 14.6235 8.77734 14.5926 8.77734 14.5621C8.77734 14.5317 8.77453 14.5007 8.76844 14.4707Z" fill="#FBA804"/>
</g>
</g>
<g id="Group_3">
<g id="Group_4">
<path id="Vector_2" d="M23.5312 22.5635H22.5603V17.5504V15.4948C22.5603 14.7211 21.9308 14.0916 21.1571 14.0916H20.3566V11.2556V9.46787C20.3566 8.6942 19.7272 8.06472 18.9535 8.06472H17.5145V6.70375C17.8361 6.62256 18.1405 6.45677 18.3915 6.2057C18.9686 5.62867 19.1137 4.74934 18.7524 4.01748L17.4661 1.41147C17.3871 1.25148 17.2242 1.15019 17.0458 1.15019C16.8674 1.15019 16.7044 1.25148 16.6254 1.41147L15.3391 4.01753C14.9779 4.7493 15.1229 5.62867 15.7 6.20575C15.951 6.45681 16.2555 6.62261 16.577 6.7038V8.06477H12.4688V6.0497C12.7903 5.96852 13.0947 5.80272 13.3458 5.55166C13.9229 4.97463 14.0678 4.0953 13.7067 3.36344L12.4203 0.757375C12.3413 0.597391 12.1784 0.496094 12 0.496094C11.8216 0.496094 11.6587 0.597391 11.5797 0.757375L10.2933 3.36348C9.93216 4.0953 10.0772 4.97463 10.6542 5.55166C10.9053 5.80272 11.2097 5.96852 11.5312 6.0497V8.06477H7.42298V6.70525C7.75205 6.62228 8.05383 6.45194 8.30002 6.20575C8.87709 5.62872 9.02213 4.74934 8.66091 4.01753L7.37456 1.41147C7.29558 1.25148 7.13264 1.15019 6.95423 1.15019C6.77583 1.15019 6.61289 1.25148 6.53391 1.41147L5.24756 4.01758C4.88639 4.74934 5.03142 5.62872 5.60845 6.2058C5.85464 6.45198 6.15642 6.62233 6.48548 6.7053V8.06481H5.04652C4.2728 8.06481 3.64336 8.69425 3.64336 9.46797V11.2558V14.0917H2.84288C2.06916 14.0917 1.43972 14.7212 1.43972 15.4949V17.5505V22.5636H0.46875C0.209859 22.5636 0 22.7734 0 23.0323C0 23.2912 0.209859 23.5011 0.46875 23.5011H1.90847H22.0915H23.5312C23.7901 23.5011 24 23.2912 24 23.0323C24 22.7734 23.7901 22.5635 23.5312 22.5635ZM16.3629 5.54275C16.0701 5.24997 15.9965 4.80377 16.1798 4.43242L17.0458 2.67794L17.9118 4.43242C18.0951 4.80377 18.0215 5.24997 17.7287 5.54275C17.6637 5.60777 17.5913 5.66078 17.5146 5.70334C17.2239 5.86469 16.8678 5.86469 16.5771 5.70334C16.5003 5.66083 16.4279 5.60781 16.3629 5.54275ZM11.3171 4.8887C11.0243 4.59592 10.9508 4.14972 11.134 3.77838L12 2.02394L12.866 3.77842C13.0493 4.14977 12.9757 4.59597 12.6829 4.88875C12.6179 4.95377 12.5455 5.00678 12.4688 5.04934C12.1782 5.21069 11.822 5.21069 11.5313 5.04934C11.4546 5.00673 11.3821 4.95377 11.3171 4.8887ZM6.27136 5.54275C5.97853 5.24997 5.90498 4.80377 6.08827 4.43242L6.95428 2.67794L7.8203 4.43242C8.00358 4.80372 7.92998 5.24992 7.6372 5.54275C7.57219 5.60777 7.49977 5.66078 7.42308 5.70334C7.13245 5.86469 6.77625 5.86469 6.48558 5.70334C6.4088 5.66083 6.33638 5.60781 6.27136 5.54275ZM5.04652 9.00222H18.9535C19.2103 9.00222 19.4192 9.21109 19.4192 9.46787V10.9396C19.2127 11.0044 18.9901 11.0343 18.7275 11.0343C18.0285 11.0343 17.7094 10.8216 17.3055 10.5524C16.856 10.2527 16.3464 9.913 15.3635 9.913C14.3806 9.913 13.8711 10.2527 13.4216 10.5524C13.0177 10.8216 12.6987 11.0343 11.9997 11.0343C11.3006 11.0343 10.9816 10.8216 10.5778 10.5524C10.1283 10.2527 9.6188 9.913 8.63592 9.913C7.65309 9.913 7.14361 10.2527 6.69408 10.5524C6.29025 10.8216 5.97127 11.0343 5.27231 11.0343C5.00981 11.0343 4.78739 11.0044 4.58091 10.9396V9.46787C4.58091 9.21109 4.78978 9.00222 5.04652 9.00222ZM21.6228 22.5635H2.37722V18.0584C2.77575 18.1317 3.02962 18.3006 3.33033 18.5011C3.77986 18.8008 4.28934 19.1405 5.27227 19.1405C6.25509 19.1405 6.76458 18.8008 7.21411 18.5011C7.61794 18.2319 7.93692 18.0192 8.63587 18.0192C9.33488 18.0192 9.65391 18.2319 10.0577 18.5011C10.5073 18.8008 11.0168 19.1405 11.9996 19.1405C12.9825 19.1405 13.492 18.8008 13.9416 18.5011C14.3454 18.2319 14.6644 18.0192 15.3635 18.0192C16.0626 18.0192 16.3816 18.2319 16.7855 18.5011C17.235 18.8008 17.7445 19.1405 18.7275 19.1405C19.7104 19.1405 20.22 18.8008 20.6695 18.5011C20.9703 18.3006 21.2242 18.1316 21.6228 18.0583V22.5635ZM21.6228 17.11C20.9345 17.1977 20.5215 17.473 20.1495 17.721C19.7456 17.9903 19.4266 18.2029 18.7275 18.2029C18.0284 18.2029 17.7094 17.9903 17.3055 17.721C16.8559 17.4213 16.3464 17.0816 15.3635 17.0816C14.3806 17.0816 13.8711 17.4213 13.4215 17.721C13.0177 17.9903 12.6987 18.2029 11.9996 18.2029C11.3006 18.2029 10.9816 17.9903 10.5778 17.721C10.1282 17.4213 9.61875 17.0816 8.63583 17.0816C7.653 17.0816 7.14352 17.4213 6.69398 17.721C6.29016 17.9903 5.97117 18.2029 5.27222 18.2029C4.57317 18.2029 4.25419 17.9903 3.85036 17.721C3.47841 17.473 3.06544 17.1977 2.37722 17.11V15.4947C2.37722 15.238 2.58614 15.0291 2.84288 15.0291H6.4403C6.69919 15.0291 6.90905 14.8192 6.90905 14.5603C6.90905 14.3014 6.69919 14.0916 6.4403 14.0916H4.58086V11.9058C4.79658 11.9499 5.02448 11.9718 5.27227 11.9718C6.25509 11.9718 6.76458 11.6321 7.21411 11.3325C7.61794 11.0632 7.93692 10.8505 8.63587 10.8505C9.33492 10.8505 9.65391 11.0632 10.0577 11.3325C10.5073 11.6321 11.0168 11.9718 11.9996 11.9718C12.9825 11.9718 13.492 11.6321 13.9416 11.3325C14.3454 11.0632 14.6644 10.8505 15.3635 10.8505C16.0626 10.8505 16.3816 11.0632 16.7855 11.3325C17.235 11.6322 17.7446 11.9718 18.7275 11.9718C18.9754 11.9718 19.2034 11.9498 19.4191 11.9057V14.0916H10.1779C9.91903 14.0916 9.70917 14.3015 9.70917 14.5604C9.70917 14.8193 9.91903 15.0291 10.1779 15.0291H21.1571C21.4139 15.0291 21.6228 15.238 21.6228 15.4948V17.11Z" fill="#FBA804"/>
</g>
</g>
<g id="Group_5">
<g id="Group_6">
<path id="Vector_3" d="M4.57266 21.4002C4.56656 21.3702 4.55766 21.3407 4.54594 21.3126C4.53422 21.2845 4.51969 21.2573 4.50281 21.2315C4.48547 21.2062 4.46625 21.1823 4.44422 21.1602C4.42266 21.1387 4.39875 21.1195 4.37297 21.1021C4.34766 21.0852 4.32047 21.0707 4.29234 21.059C4.26422 21.0473 4.23469 21.0384 4.20469 21.0323C4.05234 21.0018 3.89062 21.0515 3.78141 21.1602C3.75984 21.1823 3.74016 21.2062 3.72328 21.2315C3.70641 21.2573 3.69187 21.2845 3.68016 21.3126C3.66844 21.3407 3.65953 21.3702 3.65344 21.4002C3.64734 21.4307 3.64453 21.4612 3.64453 21.4921C3.64453 21.5226 3.64734 21.5531 3.65344 21.5835C3.65953 21.6135 3.66844 21.6431 3.68016 21.6712C3.69187 21.6993 3.70641 21.7265 3.72328 21.7523C3.74016 21.7776 3.75984 21.8015 3.78141 21.8235C3.86859 21.9107 3.98953 21.9609 4.11328 21.9609C4.14375 21.9609 4.17422 21.9576 4.20469 21.9515C4.23469 21.9454 4.26422 21.9365 4.29234 21.9248C4.32047 21.9131 4.34766 21.8985 4.37297 21.8816C4.39875 21.8643 4.42266 21.8451 4.44422 21.8235C4.46625 21.8015 4.48547 21.7776 4.50281 21.7523C4.51969 21.7265 4.53422 21.6993 4.54594 21.6712C4.55766 21.6431 4.56656 21.6135 4.57266 21.5835C4.57875 21.5531 4.58203 21.5226 4.58203 21.4921C4.58203 21.4612 4.57875 21.4308 4.57266 21.4002Z" fill="#FBA804"/>
</g>
</g>
<g id="Group_7">
<g id="Group_8">
<path id="Vector_4" d="M9.60828 19.9982C9.60219 19.9682 9.59328 19.9387 9.58156 19.9105C9.56984 19.8824 9.55531 19.8552 9.53844 19.8295C9.52109 19.8041 9.50141 19.7798 9.47984 19.7582C9.45828 19.7366 9.43438 19.717 9.40859 19.7001C9.38328 19.6832 9.35609 19.6687 9.32797 19.657C9.29938 19.6452 9.26984 19.6363 9.24031 19.6302C9.17984 19.618 9.1175 19.618 9.05703 19.6302C9.02703 19.6363 8.9975 19.6452 8.96938 19.657C8.94078 19.6687 8.91359 19.6832 8.88828 19.7001C8.8625 19.717 8.83859 19.7366 8.81703 19.7582C8.79547 19.7798 8.77578 19.8041 8.75891 19.8295C8.74203 19.8552 8.7275 19.8824 8.71578 19.9105C8.70406 19.9387 8.69516 19.9682 8.68906 19.9982C8.68297 20.0287 8.67969 20.0591 8.67969 20.0896C8.67969 20.1205 8.68297 20.151 8.68906 20.1815C8.69516 20.2115 8.70406 20.241 8.71578 20.2691C8.7275 20.2973 8.74203 20.3245 8.75891 20.3502C8.77578 20.3755 8.79547 20.3999 8.81703 20.4215C8.83859 20.443 8.8625 20.4623 8.88828 20.4796C8.91359 20.4965 8.94078 20.511 8.96938 20.5227C8.9975 20.5345 9.02703 20.5434 9.05703 20.5495C9.08703 20.5555 9.11797 20.5588 9.14844 20.5588C9.17891 20.5588 9.20984 20.5555 9.24031 20.5495C9.26984 20.5434 9.29938 20.5345 9.32797 20.5227C9.35609 20.511 9.38328 20.4965 9.40859 20.4796C9.43438 20.4623 9.45828 20.443 9.47984 20.4215C9.50141 20.3999 9.52109 20.3755 9.53844 20.3502C9.55531 20.3245 9.56984 20.2973 9.58156 20.2691C9.59328 20.241 9.60219 20.2115 9.60828 20.1815C9.61437 20.151 9.61719 20.1205 9.61719 20.0896C9.61719 20.0591 9.61437 20.0287 9.60828 19.9982Z" fill="#FBA804"/>
</g>
</g>
<g id="Group_9">
<g id="Group_10">
<path id="Vector_5" d="M15.0297 21.4005C15.0236 21.3705 15.0147 21.341 15.003 21.3129C14.9912 21.2848 14.9767 21.2576 14.9598 21.2318C14.943 21.2065 14.9233 21.1826 14.9017 21.1605C14.8802 21.139 14.8562 21.1198 14.8305 21.1024C14.8052 21.0855 14.778 21.071 14.7494 21.0593C14.7213 21.0476 14.6917 21.0387 14.6617 21.0326C14.6012 21.0204 14.5389 21.0204 14.4784 21.0326C14.4489 21.0387 14.4194 21.0476 14.3908 21.0593C14.3627 21.071 14.3355 21.0855 14.3102 21.1024C14.2844 21.1198 14.2605 21.139 14.2389 21.1605C14.2173 21.1826 14.1977 21.2065 14.1803 21.2318C14.1634 21.2576 14.1489 21.2848 14.1372 21.3129C14.1255 21.341 14.1166 21.3705 14.1105 21.4005C14.1044 21.431 14.1016 21.4615 14.1016 21.4924C14.1016 21.5229 14.1044 21.5534 14.1105 21.5838C14.1166 21.6138 14.1255 21.6434 14.1372 21.6715C14.1489 21.6996 14.1634 21.7268 14.1803 21.7526C14.1977 21.7779 14.2173 21.8023 14.2389 21.8238C14.2605 21.8454 14.2844 21.8651 14.3102 21.882C14.3355 21.8988 14.3627 21.9134 14.3908 21.9251C14.4194 21.9368 14.4489 21.9457 14.4784 21.9518C14.5089 21.9579 14.5398 21.9612 14.5703 21.9612C14.6936 21.9612 14.8145 21.911 14.9017 21.8238C14.9233 21.8023 14.943 21.7779 14.9598 21.7526C14.9767 21.7268 14.9912 21.6996 15.003 21.6715C15.0147 21.6434 15.0236 21.6138 15.0297 21.5838C15.0358 21.5534 15.0391 21.5229 15.0391 21.4924C15.0391 21.4615 15.0358 21.431 15.0297 21.4005Z" fill="#FBA804"/>
</g>
</g>
<g id="Group_11">
<g id="Group_12">
<path id="Vector_6" d="M20.3461 20.2797C20.34 20.2497 20.3311 20.2202 20.3194 20.192C20.3077 20.1639 20.2931 20.1362 20.2762 20.1109C20.2594 20.0856 20.2397 20.0612 20.2181 20.0397C20.1305 19.9525 20.01 19.9023 19.8867 19.9023C19.763 19.9023 19.6425 19.9525 19.5548 20.0397C19.5333 20.0612 19.5141 20.0856 19.4967 20.1109C19.4798 20.1362 19.4653 20.1639 19.4536 20.192C19.4419 20.2202 19.433 20.2497 19.4269 20.2797C19.4208 20.3097 19.418 20.3406 19.418 20.3711C19.418 20.402 19.4208 20.4325 19.4269 20.463C19.433 20.493 19.4419 20.5225 19.4536 20.5506C19.4653 20.5787 19.4798 20.6059 19.4967 20.6312C19.5141 20.657 19.5333 20.6809 19.5548 20.703C19.5769 20.7245 19.6008 20.7438 19.6261 20.7611C19.6519 20.778 19.6791 20.7925 19.7072 20.8042C19.7353 20.8159 19.7648 20.8248 19.7948 20.8309C19.8253 20.837 19.8558 20.8398 19.8867 20.8398C20.01 20.8398 20.1309 20.7902 20.2181 20.703C20.2397 20.6809 20.2594 20.657 20.2762 20.6312C20.2931 20.6059 20.3077 20.5787 20.3194 20.5506C20.3311 20.522 20.34 20.493 20.3461 20.463C20.3522 20.4325 20.3555 20.402 20.3555 20.3711C20.3555 20.3406 20.3522 20.3097 20.3461 20.2797Z" fill="#FBA804"/>
</g>
</g>
<g id="Group_13">
<g id="Group_14">
<path id="Vector_7" d="M15.6825 12.6154C15.6764 12.5859 15.6675 12.5563 15.6558 12.5277C15.6441 12.4996 15.6295 12.4724 15.6127 12.4471C15.5953 12.4213 15.5756 12.3974 15.5541 12.3759C15.5325 12.3538 15.5086 12.3346 15.4828 12.3173C15.4575 12.3004 15.4303 12.2859 15.4022 12.2741C15.3736 12.2624 15.3441 12.2535 15.3145 12.2474C15.2541 12.2352 15.1917 12.2352 15.1313 12.2474C15.1013 12.2535 15.0717 12.2624 15.0436 12.2741C15.015 12.2859 14.9878 12.3004 14.9625 12.3173C14.9367 12.3346 14.9128 12.3538 14.8913 12.3759C14.8697 12.3974 14.85 12.4213 14.8331 12.4471C14.8163 12.4724 14.8017 12.4996 14.79 12.5277C14.7783 12.5563 14.7694 12.5859 14.7633 12.6154C14.7572 12.6459 14.7539 12.6768 14.7539 12.7073C14.7539 12.7377 14.7572 12.7687 14.7633 12.7987C14.7694 12.8287 14.7783 12.8582 14.79 12.8863C14.8017 12.9145 14.8163 12.9421 14.8331 12.9674C14.85 12.9932 14.8697 13.0171 14.8913 13.0387C14.9128 13.0602 14.9367 13.0799 14.9625 13.0968C14.9878 13.1137 15.015 13.1282 15.0436 13.1399C15.0717 13.1516 15.1013 13.1605 15.1313 13.1666C15.1613 13.1727 15.1922 13.176 15.2227 13.176C15.2531 13.176 15.2841 13.1727 15.3145 13.1666C15.3441 13.1605 15.3736 13.1516 15.4022 13.1399C15.4303 13.1282 15.4575 13.1137 15.4828 13.0968C15.5086 13.0799 15.5325 13.0602 15.5541 13.0387C15.5756 13.0171 15.5953 12.9932 15.6127 12.9674C15.6295 12.9421 15.6441 12.9145 15.6558 12.8863C15.6675 12.8582 15.6764 12.8287 15.6825 12.7987C15.6886 12.7687 15.6914 12.7377 15.6914 12.7073C15.6914 12.6768 15.6886 12.6459 15.6825 12.6154Z" fill="#FBA804"/>
</g>
</g>
<g id="Group_15">
<g id="Group_16">
<path id="Vector_8" d="M9.56484 11.9787C9.55875 11.9487 9.54984 11.9191 9.53812 11.891C9.52641 11.8629 9.51187 11.8357 9.495 11.8099C9.47812 11.7846 9.45844 11.7602 9.43687 11.7387C9.41531 11.7171 9.39094 11.6974 9.36562 11.6805C9.33984 11.6637 9.31266 11.6491 9.28453 11.6374C9.25641 11.6257 9.22687 11.6168 9.19687 11.6107C9.13641 11.5985 9.07406 11.5985 9.01359 11.6107C8.98359 11.6168 8.95406 11.6257 8.92594 11.6374C8.89781 11.6491 8.87062 11.6637 8.84484 11.6805C8.81953 11.6974 8.79562 11.7171 8.77359 11.7387C8.75203 11.7602 8.73281 11.7846 8.71547 11.8099C8.69859 11.8357 8.68406 11.8629 8.67234 11.891C8.66062 11.9191 8.65172 11.9487 8.64562 11.9787C8.63953 12.0091 8.63672 12.0396 8.63672 12.0705C8.63672 12.101 8.63953 12.1315 8.64562 12.162C8.65172 12.192 8.66062 12.2215 8.67234 12.2496C8.68406 12.2777 8.69859 12.3049 8.71547 12.3307C8.73281 12.356 8.75203 12.3799 8.77359 12.402C8.79562 12.4235 8.81953 12.4427 8.84484 12.4601C8.87062 12.477 8.89781 12.4915 8.92594 12.5032C8.95406 12.5149 8.98359 12.5238 9.01359 12.5299C9.04406 12.536 9.07453 12.5393 9.10547 12.5393C9.13594 12.5393 9.16687 12.536 9.19687 12.5299C9.22687 12.5238 9.25641 12.5149 9.28453 12.5032C9.31266 12.4915 9.33984 12.477 9.36562 12.4601C9.39094 12.4427 9.41531 12.4235 9.43687 12.402C9.45844 12.3799 9.47766 12.356 9.495 12.3307C9.51187 12.3049 9.52641 12.2777 9.53812 12.2496C9.54984 12.2215 9.55875 12.192 9.56484 12.162C9.57094 12.1315 9.57375 12.101 9.57375 12.0705C9.57375 12.0396 9.57094 12.0091 9.56484 11.9787Z" fill="#FBA804"/>
</g>
</g>
</g>
<defs>
<clipPath id="clip0_243_3246">
<rect width="24" height="24" fill="white"/>
</clipPath>
</defs>
</svg>
