<svg width="24" height="24" viewBox="0 0 24 24" fill="none" xmlns="http://www.w3.org/2000/svg">
<g id="fi_10273288">
<path id="Vector" d="M22.2883 2.56102C22.202 2.06602 21.7895 1.67977 21.2908 1.62352C20.312 1.50727 19.307 1.52602 18.3095 1.66102C14.8258 2.11852 11.6045 4.12477 9.55326 7.01602L7.89576 6.47602C7.26201 6.26977 6.55327 6.48727 6.12952 7.01227L4.37077 9.19852C3.70702 9.97852 3.99952 11.2835 4.95202 11.6735L7.38577 12.7385C6.73327 13.331 6.24576 14.0848 5.93451 14.6548C5.78826 14.9248 5.81076 15.2473 5.99076 15.4948C6.21576 15.8135 6.61327 15.8548 6.96576 15.7535C6.71827 16.3348 6.49327 16.9273 6.29452 17.5423C6.20077 17.8348 6.27952 18.146 6.50077 18.3523C6.72202 18.5585 7.03702 18.6185 7.32202 18.506C7.92577 18.2698 8.50327 18.0073 9.06577 17.726C8.91577 18.236 9.24576 18.821 9.80826 18.8135C9.95077 18.8135 10.097 18.7723 10.2245 18.6898C10.7758 18.3448 11.4958 17.8085 12.0433 17.1223L13.2583 19.4885C13.7045 20.4148 15.0245 20.6285 15.7633 19.916L17.837 18.026C18.3358 17.5723 18.5045 16.8485 18.2608 16.2298L17.6195 14.606C21.1708 11.7748 23.102 7.00102 22.277 2.55727L22.2883 2.56102ZM21.5495 2.69227C21.7933 4.07227 21.7708 5.49727 21.5045 6.87352C19.967 5.57602 18.4258 4.12477 17.0345 2.66977C18.212 2.36602 19.4345 2.24227 20.6495 2.31727C20.9683 2.36227 21.4708 2.27227 21.5533 2.69227H21.5495ZM4.77952 10.4248C4.71577 10.1585 4.77952 9.88477 4.95202 9.66727L6.71076 7.48102C6.93951 7.19602 7.31827 7.07977 7.65952 7.18852L9.10702 7.65727C8.28952 8.96602 7.70077 10.4098 7.38202 11.9173L5.24827 10.9835C5.01202 10.8785 4.83952 10.676 4.77952 10.4248ZM14.477 15.6898C13.817 15.9935 13.127 16.2335 12.422 16.406L8.07577 12.3185C8.22202 11.5085 8.46201 10.7173 8.76952 9.95602L14.7395 15.5698C14.6533 15.611 14.567 15.6485 14.477 15.6898ZM9.83076 18.056L9.78577 18.026C9.83826 17.5985 10.0258 16.5298 9.28327 16.7773C8.55577 17.156 7.82826 17.5048 7.04826 17.8085L7.01077 17.771C7.26577 16.9798 7.56951 16.226 7.90326 15.4798C8.10576 14.7223 7.05202 14.9735 6.62452 15.056L6.59076 15.0148C6.88327 14.4785 7.34452 13.7623 7.94827 13.2373L11.5183 16.5935C11.0308 17.231 10.3483 17.7373 9.83076 18.0635V18.056ZM17.3383 17.471L15.2645 19.361C14.8708 19.7398 14.1695 19.6385 13.9295 19.1435L12.8645 17.0698C13.787 16.811 14.687 16.4623 15.5308 16.0085C16.0408 15.731 16.5358 15.4235 17.012 15.086L17.5708 16.4998C17.702 16.8298 17.6083 17.2198 17.3383 17.4673V17.471ZM18.3845 12.8885C17.537 13.796 16.532 14.591 15.4408 15.2023L9.09202 9.23602C10.502 6.29977 13.1758 3.93727 16.232 2.91727C17.792 4.57852 19.5545 6.23227 21.3058 7.68727C20.7883 9.60727 19.7833 11.4035 18.3808 12.8923L18.3845 12.8885Z" fill="#3996E3"/>
<path id="Vector_2" d="M15.5229 5.8711C11.8291 6.0961 11.9979 11.4661 15.6954 11.4623C19.3891 11.2373 19.2204 5.86735 15.5229 5.8711ZM17.1016 10.0673C15.2041 11.9873 12.3166 9.2761 14.1204 7.26235C16.0141 5.34235 18.9016 8.04985 17.1016 10.0673Z" fill="#3996E3"/>
<path id="Vector_3" d="M8.50815 19.7571L6.57315 21.8158C6.2394 22.1721 6.78315 22.6858 7.12065 22.3296L9.05565 20.2708C9.3894 19.9146 8.84565 19.4008 8.50815 19.7571Z" fill="#3996E3"/>
<path id="Vector_4" d="M4.36704 16.4617C4.21704 16.3192 3.98079 16.3267 3.83829 16.4767L1.62579 18.828C1.48329 18.978 1.49079 19.218 1.64079 19.3567C1.79079 19.4992 2.02704 19.4917 2.16954 19.3417L4.38204 16.9905C4.52454 16.8405 4.51704 16.6005 4.36704 16.4617Z" fill="#3996E3"/>
<path id="Vector_5" d="M4.79025 19.5898L2.85525 21.6485C2.6265 21.8735 2.814 22.2898 3.129 22.2823C3.23025 22.2823 3.32775 22.241 3.40275 22.166L5.33775 20.1073C5.6715 19.7473 5.1315 19.2373 4.79025 19.5935V19.5898Z" fill="#3996E3"/>
<path id="Vector_6" d="M9.11647 12.2734L10.2077 13.3009C10.564 13.6347 11.0777 13.0947 10.7215 12.7534L9.63022 11.7259C9.27397 11.3922 8.76022 11.9322 9.11647 12.2734Z" fill="#3996E3"/>
<path id="Vector_7" d="M11.5741 14.588C11.9304 14.9217 12.4441 14.3817 12.0879 14.0405L11.5404 13.5267C11.1841 13.193 10.6704 13.733 11.0266 14.0742L11.5741 14.588Z" fill="#3996E3"/>
<path id="Vector_8" d="M12.3055 15.2342C12.313 15.2567 12.3242 15.2755 12.3392 15.298L12.3842 15.3542C12.5267 15.5005 12.7742 15.5005 12.9167 15.3542C12.9505 15.3167 12.9805 15.2792 12.9955 15.2342C13.2092 14.5555 12.088 14.5592 12.3055 15.2342Z" fill="#3996E3"/>
</g>
</svg>
