<svg width="24" height="24" viewBox="0 0 24 24" fill="none" xmlns="http://www.w3.org/2000/svg">
<g id="fi_10218756">
<g id="Group">
<path id="Vector (Stroke)" fill-rule="evenodd" clip-rule="evenodd" d="M2.54375 0.90625C1.9753 0.90625 1.53125 1.3503 1.53125 1.91875V19.8227C1.53125 20.3912 1.9753 20.8352 2.54375 20.8352H7.91975C8.0233 20.8352 8.10725 20.9192 8.10725 21.0227C8.10725 21.1263 8.0233 21.2102 7.91975 21.2102H2.54375C1.7682 21.2102 1.15625 20.5983 1.15625 19.8227V1.91875C1.15625 1.1432 1.7682 0.53125 2.54375 0.53125H21.4557C22.2313 0.53125 22.8433 1.1432 22.8433 1.91875V19.8708C22.8433 20.4316 22.5058 20.8753 22.0676 21.0945C21.975 21.1408 21.8624 21.1032 21.816 21.0106C21.7697 20.918 21.8073 20.8054 21.8999 20.759C22.2297 20.5942 22.4683 20.2699 22.4683 19.8708V1.91875C22.4683 1.3503 22.0242 0.90625 21.4557 0.90625H2.54375Z" fill="#1A6BE5"/>
<path id="Vector (Stroke)_2" fill-rule="evenodd" clip-rule="evenodd" d="M15.7969 21.0234C15.7969 20.9199 15.8808 20.8359 15.9844 20.8359H19.6804C19.7839 20.8359 19.8679 20.9199 19.8679 21.0234C19.8679 21.127 19.7839 21.2109 19.6804 21.2109H15.9844C15.8808 21.2109 15.7969 21.127 15.7969 21.0234Z" fill="#1A6BE5"/>
<path id="Vector (Stroke)_3" fill-rule="evenodd" clip-rule="evenodd" d="M3.12009 2.05859C2.87902 2.05859 2.68359 2.25402 2.68359 2.49509C2.68359 2.73617 2.87902 2.93159 3.12009 2.93159C3.36117 2.93159 3.55659 2.73617 3.55659 2.49509C3.55659 2.25402 3.36117 2.05859 3.12009 2.05859ZM2.30859 2.49509C2.30859 2.04691 2.67191 1.68359 3.12009 1.68359C3.56827 1.68359 3.93159 2.04691 3.93159 2.49509C3.93159 2.94327 3.56827 3.30659 3.12009 3.30659C2.67191 3.30659 2.30859 2.94327 2.30859 2.49509Z" fill="#1A6BE5"/>
<path id="Vector (Stroke)_4" fill-rule="evenodd" clip-rule="evenodd" d="M5.32713 2.05859C5.08605 2.05859 4.89062 2.25402 4.89062 2.49509C4.89062 2.73617 5.08605 2.93159 5.32713 2.93159C5.5682 2.93159 5.76362 2.73617 5.76362 2.49509C5.76362 2.25402 5.5682 2.05859 5.32713 2.05859ZM4.51562 2.49509C4.51562 2.04691 4.87895 1.68359 5.32713 1.68359C5.7753 1.68359 6.13862 2.04691 6.13862 2.49509C6.13862 2.94327 5.7753 3.30659 5.32713 3.30659C4.87895 3.30659 4.51562 2.94327 4.51562 2.49509Z" fill="#1A6BE5"/>
<path id="Vector (Stroke)_5" fill-rule="evenodd" clip-rule="evenodd" d="M7.48728 2.05859C7.24621 2.05859 7.05078 2.25402 7.05078 2.49509C7.05078 2.73617 7.24621 2.93159 7.48728 2.93159C7.72835 2.93159 7.92378 2.73617 7.92378 2.49509C7.92378 2.25402 7.72835 2.05859 7.48728 2.05859ZM6.67578 2.49509C6.67578 2.04691 7.0391 1.68359 7.48728 1.68359C7.93546 1.68359 8.29878 2.04691 8.29878 2.49509C8.29878 2.94327 7.93546 3.30659 7.48728 3.30659C7.0391 3.30659 6.67578 2.94327 6.67578 2.49509Z" fill="#1A6BE5"/>
<g id="Group_2">
<path id="Vector (Stroke)_6" fill-rule="evenodd" clip-rule="evenodd" d="M9.26953 2.44709C9.26953 1.99759 9.65172 1.68359 10.033 1.68359H20.497C20.9366 1.68359 21.2605 2.00754 21.2605 2.44709V2.59109C21.2605 3.0406 20.8783 3.35459 20.497 3.35459H10.033C9.58352 3.35459 9.26953 2.97241 9.26953 2.59109V2.44709ZM10.033 2.05859C9.83834 2.05859 9.64453 2.2246 9.64453 2.44709V2.59109C9.64453 2.78578 9.81054 2.97959 10.033 2.97959H20.497C20.6917 2.97959 20.8855 2.81359 20.8855 2.59109V2.44709C20.8855 2.21465 20.7295 2.05859 20.497 2.05859H10.033Z" fill="#1A6BE5"/>
<path id="Vector (Stroke)_7" fill-rule="evenodd" clip-rule="evenodd" d="M3.17188 5.42188C3.17188 5.31832 3.25582 5.23438 3.35938 5.23438H6.71938C6.82293 5.23438 6.90688 5.31832 6.90688 5.42188V8.73388C6.90688 8.83743 6.82293 8.92138 6.71938 8.92138H3.35938C3.25582 8.92138 3.17188 8.83743 3.17188 8.73388V5.42188ZM3.54688 5.60938V8.54638H6.53188V5.60938H3.54688Z" fill="#1A6BE5"/>
<path id="Vector (Stroke)_8" fill-rule="evenodd" clip-rule="evenodd" d="M7.82812 5.42188C7.82812 5.31832 7.91207 5.23438 8.01562 5.23438H11.3756C11.4792 5.23438 11.5631 5.31832 11.5631 5.42188V8.73388C11.5631 8.83743 11.4792 8.92138 11.3756 8.92138H8.01562C7.91207 8.92138 7.82812 8.83743 7.82812 8.73388V5.42188ZM8.20312 5.60938V8.54638H11.1881V5.60938H8.20312Z" fill="#1A6BE5"/>
<path id="Vector (Stroke)_9" fill-rule="evenodd" clip-rule="evenodd" d="M12.4844 5.42188C12.4844 5.31832 12.5683 5.23438 12.6719 5.23438H15.9839C16.0874 5.23438 16.1714 5.31832 16.1714 5.42188V8.73388C16.1714 8.83743 16.0874 8.92138 15.9839 8.92138H12.6719C12.5683 8.92138 12.4844 8.83743 12.4844 8.73388V5.42188ZM12.8594 5.60938V8.54638H15.7964V5.60938H12.8594Z" fill="#1A6BE5"/>
<path id="Vector (Stroke)_10" fill-rule="evenodd" clip-rule="evenodd" d="M17.1406 5.42188C17.1406 5.31832 17.2246 5.23438 17.3281 5.23438H20.6881C20.7917 5.23438 20.8756 5.31832 20.8756 5.42188V8.73388C20.8756 8.83743 20.7917 8.92138 20.6881 8.92138H17.3281C17.2246 8.92138 17.1406 8.83743 17.1406 8.73388V5.42188ZM17.5156 5.60938V8.54638H20.5006V5.60938H17.5156Z" fill="#1A6BE5"/>
<path id="Vector (Stroke)_11" fill-rule="evenodd" clip-rule="evenodd" d="M3.22679 5.28929C3.30002 5.21607 3.41873 5.21607 3.49196 5.28929L6.80396 8.60129C6.87718 8.67452 6.87718 8.79323 6.80396 8.86646C6.73073 8.93968 6.61202 8.93968 6.53879 8.86646L3.22679 5.55446C3.15357 5.48123 3.15357 5.36252 3.22679 5.28929Z" fill="#1A6BE5"/>
<path id="Vector (Stroke)_12" fill-rule="evenodd" clip-rule="evenodd" d="M6.80396 5.28929C6.87718 5.36252 6.87718 5.48123 6.80396 5.55446L3.49196 8.86646C3.41873 8.93968 3.30002 8.93968 3.22679 8.86646C3.15357 8.79323 3.15357 8.67452 3.22679 8.60129L6.53879 5.28929C6.61202 5.21607 6.73073 5.21607 6.80396 5.28929Z" fill="#1A6BE5"/>
<path id="Vector (Stroke)_13" fill-rule="evenodd" clip-rule="evenodd" d="M7.88304 5.28929C7.95627 5.21607 8.07498 5.21607 8.14821 5.28929L11.4602 8.60129C11.5334 8.67452 11.5334 8.79323 11.4602 8.86646C11.387 8.93968 11.2683 8.93968 11.195 8.86646L7.88304 5.55446C7.80982 5.48123 7.80982 5.36252 7.88304 5.28929Z" fill="#1A6BE5"/>
<path id="Vector (Stroke)_14" fill-rule="evenodd" clip-rule="evenodd" d="M11.4602 5.28929C11.5334 5.36252 11.5334 5.48123 11.4602 5.55446L8.14821 8.86646C8.07498 8.93968 7.95627 8.93968 7.88304 8.86646C7.80982 8.79323 7.80982 8.67452 7.88304 8.60129L11.195 5.28929C11.2683 5.21607 11.387 5.21607 11.4602 5.28929Z" fill="#1A6BE5"/>
<path id="Vector (Stroke)_15" fill-rule="evenodd" clip-rule="evenodd" d="M12.5393 5.28929C12.6125 5.21607 12.7312 5.21607 12.8045 5.28929L16.1165 8.60129C16.1897 8.67452 16.1897 8.79323 16.1165 8.86646C16.0432 8.93968 15.9245 8.93968 15.8513 8.86646L12.5393 5.55446C12.4661 5.48123 12.4661 5.36252 12.5393 5.28929Z" fill="#1A6BE5"/>
<path id="Vector (Stroke)_16" fill-rule="evenodd" clip-rule="evenodd" d="M16.1165 5.28929C16.1897 5.36252 16.1897 5.48123 16.1165 5.55446L12.8045 8.86646C12.7312 8.93968 12.6125 8.93968 12.5393 8.86646C12.4661 8.79323 12.4661 8.67452 12.5393 8.60129L15.8513 5.28929C15.9245 5.21607 16.0432 5.21607 16.1165 5.28929Z" fill="#1A6BE5"/>
<path id="Vector (Stroke)_17" fill-rule="evenodd" clip-rule="evenodd" d="M17.1955 5.28929C17.2688 5.21607 17.3875 5.21607 17.4607 5.28929L20.7727 8.60129C20.8459 8.67452 20.8459 8.79323 20.7727 8.86646C20.6995 8.93968 20.5808 8.93968 20.5075 8.86646L17.1955 5.55446C17.1223 5.48123 17.1223 5.36252 17.1955 5.28929Z" fill="#1A6BE5"/>
<path id="Vector (Stroke)_18" fill-rule="evenodd" clip-rule="evenodd" d="M20.7727 5.28929C20.8459 5.36252 20.8459 5.48123 20.7727 5.55446L17.4607 8.86646C17.3875 8.93968 17.2688 8.93968 17.1955 8.86646C17.1223 8.79323 17.1223 8.67452 17.1955 8.60129L20.5075 5.28929C20.5808 5.21607 20.6995 5.21607 20.7727 5.28929Z" fill="#1A6BE5"/>
<path id="Vector (Stroke)_19" fill-rule="evenodd" clip-rule="evenodd" d="M6.13533 18.0126C6.23414 17.9816 6.33936 18.0365 6.37036 18.1353C7.11415 20.5062 9.34645 22.228 11.9995 22.228C14.6525 22.228 16.8848 20.5062 17.6286 18.1353C17.6596 18.0365 17.7648 17.9816 17.8636 18.0126C17.9624 18.0436 18.0174 18.1488 17.9864 18.2476C17.1942 20.7727 14.8185 22.603 11.9995 22.603C9.18046 22.603 6.80476 20.7727 6.01255 18.2476C5.98156 18.1488 6.03653 18.0436 6.13533 18.0126Z" fill="#1A6BE5"/>
<path id="Vector (Stroke)_20" fill-rule="evenodd" clip-rule="evenodd" d="M11.9995 10.5078C9.34645 10.5078 7.11415 12.2296 6.37036 14.6004C6.33936 14.6992 6.23414 14.7542 6.13533 14.7232C6.03653 14.6922 5.98156 14.587 6.01255 14.4882C6.80476 11.963 9.18046 10.1328 11.9995 10.1328C14.8185 10.1328 17.1942 11.963 17.9864 14.4882C18.0174 14.587 17.9624 14.6922 17.8636 14.7232C17.7648 14.7542 17.6596 14.6992 17.6286 14.6004C16.8848 12.2296 14.6525 10.5078 11.9995 10.5078Z" fill="#1A6BE5"/>
<path id="Vector (Stroke)_21" fill-rule="evenodd" clip-rule="evenodd" d="M12.2196 10.149C12.3142 10.1911 12.3569 10.3019 12.3148 10.3965C12.1324 10.8068 12.043 11.213 12.043 11.6164C12.043 12.1816 12.3479 12.7264 12.8396 12.9313L12.8413 12.932L12.8413 12.932C12.912 12.9623 12.9939 12.9865 13.0882 13.0117C13.1078 13.017 13.1281 13.0223 13.149 13.0278C13.224 13.0475 13.3056 13.0689 13.383 13.0939C13.5809 13.1577 13.8063 13.2605 13.9383 13.4913L13.9434 13.5004L13.9432 13.5005C14.1391 13.8924 13.9326 14.3121 13.7299 14.5655C13.6652 14.6464 13.5472 14.6595 13.4663 14.5948C13.3855 14.5301 13.3724 14.4121 13.4371 14.3312C13.6168 14.1066 13.6985 13.8566 13.6101 13.6729C13.5494 13.5704 13.4395 13.5062 13.2679 13.4508C13.2013 13.4293 13.1333 13.4114 13.06 13.3922C13.0376 13.3863 13.0147 13.3803 12.9912 13.374C12.8954 13.3483 12.7915 13.3186 12.6945 13.2771C12.0347 13.0017 11.668 12.2988 11.668 11.6164C11.668 11.1557 11.7705 10.6979 11.9721 10.2442C12.0142 10.1496 12.125 10.107 12.2196 10.149Z" fill="#1A6BE5"/>
<path id="Vector (Stroke)_22" fill-rule="evenodd" clip-rule="evenodd" d="M11.7246 18.1073C11.8228 18.1401 11.8759 18.2463 11.8432 18.3445C11.6814 18.8299 11.3044 19.2088 10.8671 19.3728C10.8617 19.3748 10.8562 19.3766 10.8506 19.3781C10.613 19.4429 10.3648 19.4629 10.1394 19.481C10.0946 19.4846 10.0506 19.4882 10.0079 19.492C9.74373 19.5155 9.51357 19.549 9.30986 19.6486C9.09374 19.7893 8.94661 20.0129 8.79335 20.29C8.76853 20.3348 8.74343 20.3814 8.71775 20.4291C8.5901 20.6659 8.44795 20.9296 8.25265 21.1466C8.18338 21.2236 8.06482 21.2298 7.98785 21.1606C7.91088 21.0913 7.90464 20.9727 7.97392 20.8958C8.13635 20.7153 8.25321 20.4992 8.38077 20.2634C8.40823 20.2126 8.43619 20.1609 8.46521 20.1084C8.62205 19.8249 8.80917 19.5227 9.11662 19.327C9.12206 19.3236 9.12767 19.3204 9.13343 19.3175C9.40758 19.1804 9.70261 19.1426 9.97468 19.1184C10.0239 19.1141 10.0721 19.1101 10.1196 19.1063C10.3412 19.0882 10.5453 19.0715 10.7435 19.0186C11.0709 18.8929 11.3622 18.6015 11.4874 18.2259C11.5202 18.1277 11.6263 18.0746 11.7246 18.1073Z" fill="#1A6BE5"/>
<path id="Vector (Stroke)_23" fill-rule="evenodd" clip-rule="evenodd" d="M10.2654 12.9758C10.1378 12.8208 9.99185 12.8125 9.69703 12.8125C9.57602 12.8125 9.42736 12.8126 9.28598 12.8239C9.13826 12.8357 9.02598 12.8582 8.96488 12.8887C8.85677 12.9428 8.79478 13.0909 8.82293 13.2035C8.82665 13.2184 8.82853 13.2337 8.82853 13.249C8.82853 13.2842 8.84158 13.341 8.87337 13.4152C8.90386 13.4863 8.94582 13.5602 8.98904 13.625C9.09793 13.7884 9.1819 13.9953 9.10691 14.2203C9.1041 14.2287 9.1007 14.2369 9.09673 14.2449C9.06035 14.3176 8.99683 14.394 8.9424 14.4545C8.88509 14.5181 8.82223 14.581 8.7749 14.6283L8.77361 14.6296C8.70039 14.7028 8.58167 14.7028 8.50845 14.6296C8.43522 14.5564 8.43522 14.4377 8.50845 14.3644C8.55698 14.3159 8.61349 14.2593 8.66366 14.2036C8.70951 14.1526 8.73991 14.1133 8.755 14.0885C8.77017 14.0274 8.75442 13.9491 8.67702 13.833C8.62424 13.7539 8.57019 13.6597 8.52869 13.5629C8.49134 13.4757 8.45854 13.3736 8.45405 13.2723C8.39843 13.0053 8.52875 12.6875 8.79718 12.5533C8.92807 12.4879 9.1038 12.4623 9.25608 12.4501C9.41356 12.4375 9.57569 12.4375 9.69446 12.4375H9.69703C9.70403 12.4375 9.71107 12.4375 9.71814 12.4375C9.99103 12.4373 10.3148 12.437 10.5634 12.7479C10.5668 12.7521 10.57 12.7565 10.573 12.761C10.8113 13.1184 10.7671 13.673 10.377 13.933C10.3706 13.9373 10.3638 13.9413 10.3569 13.9447C10.2671 13.9896 10.1991 14.0245 10.1314 14.0882C10.0807 14.1728 10.0765 14.2599 10.0765 14.449C10.0765 14.5526 9.99258 14.6365 9.88903 14.6365C9.78548 14.6365 9.70153 14.5526 9.70153 14.449C9.70153 14.443 9.70152 14.4369 9.70152 14.4308C9.70137 14.2521 9.7012 14.0567 9.82902 13.865C9.83587 13.8547 9.84371 13.8452 9.85245 13.8364C9.96732 13.7216 10.0835 13.6622 10.1776 13.6151C10.3547 13.4888 10.4035 13.1905 10.2654 12.9758Z" fill="#1A6BE5"/>
<path id="Vector (Stroke)_24" fill-rule="evenodd" clip-rule="evenodd" d="M12.9071 18.4578C12.9427 18.4129 12.9968 18.3867 13.0541 18.3867C13.5414 18.3867 13.9783 18.6031 14.2542 18.9342C14.2571 18.9378 14.26 18.9414 14.2627 18.9452C14.5311 19.321 14.6427 19.8088 14.532 20.2517C14.5287 20.265 14.5239 20.2778 14.5178 20.2901C14.498 20.3296 14.4771 20.3817 14.4522 20.4439L14.4505 20.4481C14.4286 20.5029 14.4033 20.5662 14.3768 20.62C14.2562 20.9091 14.1239 21.1977 13.9933 21.4828L13.9926 21.4843C13.8603 21.7729 13.7297 22.0579 13.6112 22.3423C13.5714 22.4379 13.4616 22.4831 13.366 22.4433C13.2704 22.4035 13.2252 22.2937 13.265 22.1981C13.3863 21.9071 13.5194 21.6166 13.651 21.3296L13.6517 21.3281C13.7839 21.0396 13.9145 20.7546 14.033 20.4701C14.0347 20.4661 14.0365 20.4622 14.0384 20.4584C14.0582 20.4188 14.0791 20.3668 14.104 20.3046L14.1057 20.3003C14.1257 20.2503 14.1486 20.1931 14.1726 20.1426C14.246 19.8238 14.1662 19.4587 13.9616 19.1689C13.7989 18.9763 13.5572 18.8323 13.2768 18.7816C13.3511 19.6203 12.8485 20.5151 12.0884 20.8987C11.9575 20.9764 11.828 21.0282 11.7126 21.0744L11.7077 21.0763C11.5862 21.1249 11.4798 21.1679 11.3746 21.231L11.3692 21.2342L11.3692 21.2341C10.9969 21.4409 10.7771 21.8196 10.5882 22.2919C10.5497 22.388 10.4406 22.4348 10.3445 22.3963C10.2483 22.3578 10.2016 22.2487 10.24 22.1526C10.4347 21.6658 10.6943 21.1813 11.1843 20.9078C11.3164 20.829 11.4472 20.7766 11.5637 20.7301L11.5685 20.7281C11.69 20.6795 11.7964 20.6366 11.9016 20.5734C11.9058 20.571 11.91 20.5687 11.9143 20.5665C12.6101 20.2186 13.0423 19.3426 12.8716 18.6172C12.8585 18.5614 12.8716 18.5027 12.9071 18.4578Z" fill="#1A6BE5"/>
<path id="Vector (Stroke)_25" fill-rule="evenodd" clip-rule="evenodd" d="M5.35711 15.7577C5.45427 15.7219 5.56207 15.7717 5.59787 15.8688L5.77284 16.3438L5.92215 16.0025C5.95274 15.9326 6.02266 15.8882 6.09895 15.8902C6.17525 15.8923 6.24269 15.9403 6.26949 16.0118L6.38037 16.3075L6.54199 15.8688C6.57779 15.7717 6.68558 15.7219 6.78275 15.7577C6.87991 15.7935 6.92966 15.9013 6.89387 15.9985L6.55787 16.9105C6.53078 16.984 6.46082 17.0329 6.38247 17.0331C6.30411 17.0334 6.23388 16.9848 6.20636 16.9115L6.08056 16.576L5.92971 16.9208C5.89903 16.9909 5.82884 17.0353 5.75236 17.0331C5.67587 17.0308 5.60844 16.9823 5.58199 16.9105L5.24599 15.9985C5.21019 15.9013 5.25994 15.7935 5.35711 15.7577Z" fill="#1A6BE5"/>
<path id="Vector (Stroke)_26" fill-rule="evenodd" clip-rule="evenodd" d="M7.37273 15.7577C7.4699 15.7219 7.57769 15.7717 7.61349 15.8688L7.77511 16.3075L7.88599 16.0118C7.91343 15.9386 7.98339 15.8901 8.06155 15.8901C8.13971 15.8901 8.20967 15.9386 8.23711 16.0118L8.35963 16.3385L8.56074 15.8609C8.60093 15.7654 8.71087 15.7207 8.80631 15.7608C8.90175 15.801 8.94654 15.911 8.90636 16.0064L8.52236 16.9184C8.49256 16.9892 8.42261 17.0346 8.34582 17.0331C8.26904 17.0316 8.20095 16.9834 8.17399 16.9115L8.06155 16.6116L7.94911 16.9115C7.9216 16.9848 7.85137 17.0334 7.77301 17.0331C7.69465 17.0329 7.6247 16.984 7.59761 16.9105L7.26161 15.9985C7.22581 15.9013 7.27556 15.7935 7.37273 15.7577Z" fill="#1A6BE5"/>
<path id="Vector (Stroke)_27" fill-rule="evenodd" clip-rule="evenodd" d="M10.7671 15.7577C10.8643 15.7935 10.914 15.9013 10.8782 15.9985L10.5422 16.9105C10.5151 16.984 10.4452 17.0329 10.3668 17.0331C10.2885 17.0334 10.2182 16.9848 10.1907 16.9115L10.0783 16.6116L9.96586 16.9115C9.93889 16.9834 9.87081 17.0316 9.79402 17.0331C9.71724 17.0346 9.64729 16.9892 9.61749 16.9184L9.23349 16.0064C9.19331 15.911 9.2381 15.801 9.33354 15.7608C9.42898 15.7207 9.53892 15.7654 9.57911 15.8609L9.78022 16.3385L9.90274 16.0118C9.93018 15.9386 10.0001 15.8901 10.0783 15.8901C10.1565 15.8901 10.2264 15.9386 10.2539 16.0118L10.3647 16.3075L10.5264 15.8688C10.5622 15.7717 10.6699 15.7219 10.7671 15.7577Z" fill="#1A6BE5"/>
</g>
<path id="Vector (Stroke)_28" fill-rule="evenodd" clip-rule="evenodd" d="M5.13578 14.6836C4.71133 14.6836 4.36328 15.0316 4.36328 15.4561V17.2321C4.36328 17.6565 4.71133 18.0046 5.13578 18.0046H18.8638C19.2882 18.0046 19.6363 17.6565 19.6363 17.2321V15.4561C19.6363 15.0316 19.2882 14.6836 18.8638 14.6836H5.13578ZM3.98828 15.4561C3.98828 14.8245 4.50423 14.3086 5.13578 14.3086H18.8638C19.4953 14.3086 20.0113 14.8245 20.0113 15.4561V17.2321C20.0113 17.8636 19.4953 18.3796 18.8638 18.3796H5.13578C4.50423 18.3796 3.98828 17.8636 3.98828 17.2321V15.4561Z" fill="#1A6BE5"/>
<path id="Vector (Stroke)_29" fill-rule="evenodd" clip-rule="evenodd" d="M16.5616 14.6836C16.1371 14.6836 15.7891 15.0316 15.7891 15.4561V17.2321C15.7891 17.6565 16.1371 18.0046 16.5616 18.0046H18.8656C19.29 18.0046 19.6381 17.6565 19.6381 17.2321V15.4561C19.6381 15.0316 19.29 14.6836 18.8656 14.6836H16.5616ZM15.4141 15.4561C15.4141 14.8245 15.93 14.3086 16.5616 14.3086H18.8656C19.4971 14.3086 20.0131 14.8245 20.0131 15.4561V17.2321C20.0131 17.8636 19.4971 18.3796 18.8656 18.3796H16.5616C15.93 18.3796 15.4141 17.8636 15.4141 17.2321V15.4561Z" fill="#1A6BE5"/>
<path id="Vector (Stroke)_30" fill-rule="evenodd" clip-rule="evenodd" d="M17.5677 15.6914C17.2736 15.6914 17.0352 15.9298 17.0352 16.2239C17.0352 16.518 17.2736 16.7564 17.5677 16.7564C17.8617 16.7564 18.1002 16.518 18.1002 16.2239C18.1002 15.9298 17.8617 15.6914 17.5677 15.6914ZM16.6602 16.2239C16.6602 15.7227 17.0665 15.3164 17.5677 15.3164C18.0689 15.3164 18.4752 15.7227 18.4752 16.2239C18.4752 16.7251 18.0689 17.1314 17.5677 17.1314C17.0665 17.1314 16.6602 16.7251 16.6602 16.2239Z" fill="#1A6BE5"/>
<path id="Vector (Stroke)_31" fill-rule="evenodd" clip-rule="evenodd" d="M17.9143 16.5705C17.9875 16.4973 18.1062 16.4973 18.1795 16.5705L18.7075 17.0985C18.7807 17.1718 18.7807 17.2905 18.7075 17.3637C18.6342 17.4369 18.5155 17.4369 18.4423 17.3637L17.9143 16.8357C17.8411 16.7625 17.8411 16.6438 17.9143 16.5705Z" fill="#1A6BE5"/>
<path id="Vector (Stroke)_32" fill-rule="evenodd" clip-rule="evenodd" d="M19.3088 20.0276C19.3572 19.9792 19.428 19.961 19.4937 19.9801L22.4697 20.8441C22.5418 20.865 22.5945 20.927 22.6035 21.0015C22.6126 21.076 22.5763 21.1488 22.5114 21.1864L21.8106 21.5921L22.694 22.4756C22.7292 22.5107 22.7489 22.5584 22.7489 22.6082C22.7489 22.6579 22.7292 22.7056 22.694 22.7407L22.022 23.4127C21.9868 23.4479 21.9391 23.4677 21.8894 23.4677C21.8397 23.4677 21.792 23.4479 21.7568 23.4127L20.8734 22.5293L20.4677 23.2301C20.4301 23.2951 20.3573 23.3314 20.2828 23.3223C20.2082 23.3132 20.1463 23.2605 20.1253 23.1884L19.2613 20.2124C19.2423 20.1468 19.2605 20.0759 19.3088 20.0276ZM19.7165 20.4353L20.3631 22.6623L20.6711 22.1302C20.7003 22.0798 20.7513 22.0458 20.809 22.0382C20.8668 22.0307 20.9248 22.0504 20.966 22.0916L21.8894 23.015L22.2962 22.6082L21.3728 21.6847C21.3316 21.6436 21.3119 21.5856 21.3195 21.5278C21.3271 21.47 21.3611 21.4191 21.4115 21.3899L21.9436 21.0818L19.7165 20.4353Z" fill="#1A6BE5"/>
<path id="Vector (Stroke)_33" fill-rule="evenodd" clip-rule="evenodd" d="M19.1296 18.6424C19.2258 18.6039 19.3349 18.6507 19.3734 18.7468L19.5654 19.2268C19.6038 19.323 19.5571 19.4321 19.4609 19.4705C19.3648 19.509 19.2556 19.4622 19.2172 19.3661L19.0252 18.8861C18.9867 18.7899 19.0335 18.6808 19.1296 18.6424Z" fill="#1A6BE5"/>
<path id="Vector (Stroke)_34" fill-rule="evenodd" clip-rule="evenodd" d="M18.0981 18.9301C18.1669 18.8527 18.2855 18.8458 18.3629 18.9146L18.7949 19.2985C18.8722 19.3673 18.8792 19.4859 18.8104 19.5633C18.7416 19.6407 18.6231 19.6476 18.5457 19.5788L18.1137 19.1948C18.0363 19.126 18.0293 19.0075 18.0981 18.9301Z" fill="#1A6BE5"/>
<path id="Vector (Stroke)_35" fill-rule="evenodd" clip-rule="evenodd" d="M17.9142 19.9618C17.944 19.8626 18.0485 19.8063 18.1477 19.8361L18.6277 19.9801C18.7269 20.0098 18.7831 20.1144 18.7534 20.2136C18.7236 20.3127 18.6191 20.369 18.5199 20.3393L18.0399 20.1953C17.9407 20.1655 17.8845 20.061 17.9142 19.9618Z" fill="#1A6BE5"/>
</g>
</g>
</svg>
