<svg width="24" height="24" viewBox="0 0 24 24" fill="none" xmlns="http://www.w3.org/2000/svg">
<g id="fi_10693560" clip-path="url(#clip0_271_3651)">
<path id="Vector" d="M19.176 13.8504L19.029 14.4982C21.4228 15.0414 22.9695 15.9841 22.9695 16.8997C22.9695 17.6001 22.0833 18.3176 20.5381 18.8684C18.8627 19.4656 16.6286 19.7945 14.2474 19.7945C11.8668 19.7945 9.63314 19.4656 7.95788 18.8684C6.41283 18.3176 5.52666 17.6001 5.52666 16.8997C5.52666 16.8455 5.53209 16.7916 5.5425 16.7376C5.92181 16.8005 6.31252 16.854 6.71264 16.8977C6.71264 16.8984 6.71255 16.899 6.71255 16.8997C6.71255 17.5461 7.50825 18.0636 9.07753 18.4379C10.4625 18.7682 12.2985 18.9502 14.2474 18.9502C16.1968 18.9502 18.033 18.7682 19.4178 18.4379C20.9867 18.0637 21.7822 17.5461 21.7822 16.8997C21.7822 15.8069 19.4854 15.2992 17.8557 15.0766C18.4703 14.594 18.7946 14.0518 18.7946 13.4805V10.5158C18.7946 10.4217 18.7852 10.3277 18.7676 10.2343C19.4882 10.0888 20.1586 9.9075 20.7611 9.69277C22.6135 9.03267 23.6337 8.11116 23.6337 7.09791V4.13325C23.6337 3.12052 22.6136 2.19919 20.7612 1.53886C19.016 0.916781 16.7027 0.574219 14.2474 0.574219C11.7928 0.574219 9.47986 0.916828 7.73484 1.53886C5.88258 2.19919 4.86248 3.12052 4.86248 4.13325V7.098C4.86248 8.1112 5.88258 9.03272 7.73489 9.69286C9.47948 10.3146 11.7923 10.657 14.2474 10.657C15.6039 10.657 16.9167 10.5523 18.1144 10.354C18.1249 10.4082 18.1305 10.4622 18.1305 10.5158C18.1305 11.2168 17.2445 11.9348 15.6998 12.4857C14.0249 13.083 11.791 13.4119 9.40973 13.4119C7.02834 13.4119 4.79428 13.083 3.11902 12.4857C1.57383 11.9348 0.687609 11.2167 0.687609 10.5158C0.687609 9.59972 2.2358 8.65763 4.63181 8.11566L4.48528 7.4678C1.64972 8.10919 0.0234375 9.22013 0.0234375 10.5158V13.4805C0.0234375 14.4938 1.04358 15.4156 2.89598 16.0761C3.49861 16.2909 4.16902 16.4724 4.88958 16.618C4.87186 16.7116 4.86248 16.8057 4.86248 16.8997V19.8644C4.86248 20.8771 5.88258 21.7984 7.73484 22.4588C9.47986 23.0808 11.7928 23.4234 14.2474 23.4234C16.7027 23.4234 19.016 23.0808 20.7612 22.4588C22.6136 21.7985 23.6337 20.8771 23.6337 19.8644V16.8997C23.6337 15.6048 22.0089 14.4934 19.176 13.8504ZM7.95788 2.1645C9.63314 1.56727 11.8668 1.23839 14.2474 1.23839C16.6286 1.23839 18.8627 1.56731 20.5381 2.1645C22.0833 2.71528 22.9695 3.43284 22.9695 4.1332C22.9695 4.83408 22.0833 5.55183 20.5381 6.10242C18.8631 6.69933 16.629 7.02802 14.2474 7.02802C11.8664 7.02802 9.63267 6.69928 7.95783 6.10242C6.41278 5.55183 5.52666 4.83408 5.52666 4.1332C5.52666 3.43289 6.41283 2.71528 7.95788 2.1645ZM13.1812 9.97041V8.87006H12.5169V9.93347C11.7751 9.88191 11.0596 9.79716 10.3845 9.68142V8.52314H9.72028V9.55481C9.0848 9.42084 8.49272 9.25772 7.95783 9.06713C7.8293 9.02133 7.70578 8.97427 7.58648 8.92627V7.72584H6.92227V8.62369C6.02367 8.15714 5.52661 7.62281 5.52661 7.09795V5.49056C6.01298 5.95917 6.75806 6.38002 7.7348 6.72811C9.47939 7.34986 11.7922 7.69224 14.2473 7.69224C16.703 7.69224 19.0163 7.34981 20.761 6.72811C21.7379 6.38002 22.483 5.95917 22.9694 5.49056V7.098C22.9694 7.62314 22.4718 8.15775 21.5724 8.62444V7.72594H20.9082V8.92683C20.7892 8.97469 20.6661 9.02156 20.538 9.06722C20.0032 9.25781 19.4111 9.42094 18.7757 9.55486V8.52328H18.1115V9.68147C17.4363 9.7972 16.7209 9.88195 15.979 9.93352V8.87016H15.3148V9.97045C14.9633 9.98522 14.607 9.99286 14.2472 9.99286C13.8881 9.99277 13.5323 9.98513 13.1812 9.97041ZM21.118 16.8997C21.118 17.0248 20.7849 17.4289 19.2637 17.7918C17.9279 18.1104 16.1464 18.2859 14.2474 18.2859C12.3488 18.2859 10.5675 18.1104 9.23161 17.7918C7.90795 17.4761 7.48373 17.1293 7.3957 16.962C8.0498 17.0141 8.72419 17.0408 9.40969 17.0408C11.865 17.0408 14.1781 16.6982 15.9228 16.076C16.3014 15.941 16.6447 15.7949 16.9522 15.6394C20.0662 15.9442 21.118 16.6303 21.118 16.8997ZM2.74884 15.3099V14.1084H2.08463V15.0074C1.18519 14.5405 0.687609 14.0057 0.687609 13.4805V11.8733C1.17403 12.342 1.91911 12.7631 2.89594 13.1114C4.64095 13.7335 6.95423 14.0762 9.40969 14.0762C11.865 14.0762 14.1781 13.7335 15.9228 13.1114C16.8993 12.7631 17.6441 12.3422 18.1304 11.8735V13.4806C18.1304 14.0056 17.6333 14.5402 16.7347 15.007V14.1085H16.0705V15.3098C15.9514 15.3578 15.828 15.4048 15.6997 15.4506C15.1647 15.6413 14.5724 15.8046 13.9367 15.9387V14.9059H13.2725V16.0653C12.5973 16.1811 11.8819 16.2659 11.14 16.3175V15.2541H10.4758V16.3544C10.1247 16.3692 9.76884 16.3768 9.40959 16.3768C9.04988 16.3768 8.69358 16.3692 8.34202 16.3544V15.2541H7.6778V16.3174C6.93595 16.2658 6.2205 16.181 5.54531 16.0651V14.9059H4.88109V15.9385C4.2457 15.8045 3.65367 15.6413 3.11883 15.4506C2.99091 15.4047 2.86777 15.3578 2.74884 15.3099ZM21.5725 21.3903V20.491H20.9083V21.6927C20.7893 21.7406 20.6662 21.7875 20.5381 21.8332C20.0032 22.0238 19.4112 22.187 18.7758 22.321V21.2883H18.1116V22.4476C17.4364 22.5634 16.721 22.6483 15.9791 22.6999V21.6366H15.3149V22.7368C14.9633 22.7516 14.607 22.7593 14.2473 22.7593C13.8881 22.7593 13.5322 22.7516 13.1811 22.7369V21.6366H12.5169V22.6999C11.775 22.6484 11.0596 22.5635 10.3845 22.4477V21.2883H9.72023V22.3211C9.08484 22.1871 8.49272 22.0239 7.95778 21.8332C7.82925 21.7873 7.70569 21.7403 7.58644 21.6923V20.491H6.92222V21.3896C6.02362 20.9231 5.52656 20.3889 5.52656 19.8645V18.2565C6.01294 18.725 6.75797 19.1459 7.73475 19.4941C9.47977 20.1162 11.7927 20.4587 14.2473 20.4587C16.7026 20.4587 19.0159 20.1161 20.7611 19.4941C21.7379 19.1459 22.483 18.7251 22.9695 18.2565V19.8645C22.9695 20.3892 22.4719 20.9236 21.5725 21.3903ZM2.53908 10.5158C2.53908 10.641 2.87222 11.0453 4.39355 11.4086C5.72962 11.7277 7.51106 11.9033 9.40973 11.9033C12.8669 11.9033 15.3969 11.3209 16.1093 10.7455L16.5267 11.2622C15.56 12.043 12.6999 12.5675 9.40973 12.5675C7.46062 12.5675 5.62434 12.3854 4.23928 12.0546C2.67038 11.6799 1.87491 11.1622 1.87491 10.5158C1.87491 9.49486 3.861 8.98256 5.52717 8.73253L5.62575 9.38934C3.29358 9.73941 2.53908 10.2994 2.53908 10.5158ZM9.07744 5.67206C10.4627 6.00286 12.2988 6.18502 14.2474 6.18502C16.1965 6.18502 18.0328 6.00286 19.4178 5.67206C20.9867 5.29739 21.7822 4.77966 21.7822 4.13325C21.7822 3.48684 20.9867 2.96934 19.4177 2.59505C18.033 2.26472 16.1968 2.0828 14.2473 2.0828C12.2984 2.0828 10.4624 2.26472 9.07748 2.59505C7.5082 2.96934 6.7125 3.48689 6.7125 4.13325C6.71255 4.77961 7.5082 5.29734 9.07744 5.67206ZM9.23166 3.24113C10.5675 2.92247 12.3488 2.74697 14.2474 2.74697C16.1465 2.74697 17.928 2.92247 19.2637 3.24113C20.7849 3.60403 21.1181 4.00814 21.1181 4.1332C21.1181 4.25836 20.7849 4.66266 19.2636 5.02598C17.9275 5.34506 16.1461 5.52075 14.2474 5.52075C12.3492 5.52075 10.568 5.34502 9.23175 5.02598C7.71005 4.66261 7.37677 4.25831 7.37677 4.1332C7.37677 4.00814 7.71 3.60408 9.23166 3.24113ZM23.9766 11.7192V12.3834H23.2828V13.0772H22.6185V12.3834H21.9247V11.7192H22.6185V11.024H23.2828V11.7192H23.9766ZM2.46244 18.7687H3.15623V19.4329H2.46244V20.1267H1.79822V19.4329H1.10306V18.7687H1.79822V18.0735H2.46244V18.7687ZM1.79827 4.91845H1.10311V4.25423H1.79827V3.56044H2.46248V4.25423H3.15628V4.91845H2.46244V5.61225H1.79822L1.79827 4.91845Z" fill="#FFBC00"/>
</g>
<defs>
<clipPath id="clip0_271_3651">
<rect width="24" height="24" fill="white"/>
</clipPath>
</defs>
</svg>
