<svg width="24" height="24" viewBox="0 0 24 24" fill="none" xmlns="http://www.w3.org/2000/svg">
<g id="fi_10218024" clip-path="url(#clip0_350_3204)">
<g id="Group">
<g id="Group_2">
<path id="Vector (Stroke)" fill-rule="evenodd" clip-rule="evenodd" d="M14.8737 10.6714C14.9526 10.635 15.0448 10.6422 15.1171 10.6904C15.207 10.7503 15.3454 10.7924 15.5545 10.7924C15.7033 10.7924 15.8572 10.7555 16.0187 10.6748C16.089 10.6396 16.1719 10.6396 16.2423 10.6748C16.639 10.8732 16.9823 11.2671 17.2239 11.6931C17.4665 12.1208 17.6285 12.6193 17.6285 13.0584C17.6285 13.3344 17.5695 13.5731 17.4493 13.7725C17.3288 13.9724 17.1568 14.116 16.9579 14.2172C16.5713 14.414 16.0635 14.4604 15.5545 14.4604C15.1045 14.4604 14.6967 14.4105 14.3338 14.3068C14.2438 14.2811 14.1757 14.2073 14.1573 14.1155C14.0693 13.6751 13.8463 13.1826 13.5331 12.7799C13.4878 12.7216 13.4705 12.6463 13.486 12.5741C13.5653 12.2042 13.7351 11.8138 13.9689 11.4761C14.2019 11.1396 14.5095 10.8395 14.8737 10.6714ZM14.0011 12.5706C14.2877 12.9656 14.5013 13.4243 14.6125 13.8626C14.8886 13.9271 15.202 13.9604 15.5545 13.9604C16.0535 13.9604 16.4576 13.9109 16.7311 13.7716C16.8621 13.7049 16.9571 13.6205 17.0211 13.5144C17.0854 13.4077 17.1285 13.2625 17.1285 13.0584C17.1285 12.7295 17.0024 12.3161 16.789 11.9398C16.6003 11.6071 16.3603 11.3332 16.1178 11.1785C15.9343 11.2532 15.7461 11.2924 15.5545 11.2924C15.3425 11.2924 15.1459 11.2594 14.9755 11.1818C14.7562 11.3101 14.5513 11.5133 14.38 11.7607C14.2053 12.0132 14.0741 12.2993 14.0011 12.5706Z" fill="#CC66CC"/>
<path id="Vector (Stroke)_2" fill-rule="evenodd" clip-rule="evenodd" d="M15.5052 9.22656C15.0601 9.22656 14.6992 9.58742 14.6992 10.0326C14.6992 10.4777 15.0601 10.8386 15.5052 10.8386C15.9504 10.8386 16.3112 10.4777 16.3112 10.0326C16.3112 9.58742 15.9504 9.22656 15.5052 9.22656ZM14.1992 10.0326C14.1992 9.31128 14.7839 8.72656 15.5052 8.72656C16.2265 8.72656 16.8112 9.31128 16.8112 10.0326C16.8112 10.7538 16.2265 11.3386 15.5052 11.3386C14.7839 11.3386 14.1992 10.7538 14.1992 10.0326Z" fill="#CC66CC"/>
<path id="Vector (Stroke)_3" fill-rule="evenodd" clip-rule="evenodd" d="M7.8092 10.6748C7.88944 10.6347 7.98503 10.6407 8.05967 10.6904C8.14956 10.7503 8.28791 10.7924 8.497 10.7924C8.64581 10.7924 8.79977 10.7555 8.9612 10.6748C9.03158 10.6396 9.11442 10.6396 9.1848 10.6748C9.52368 10.8443 9.81737 11.1445 10.0424 11.4788C10.2687 11.815 10.4382 12.2043 10.5175 12.5741C10.5329 12.6463 10.5157 12.7216 10.4703 12.7799C10.1572 13.1826 9.93422 13.6751 9.84614 14.1155C9.82855 14.2034 9.76517 14.2752 9.68006 14.3036C9.35527 14.4119 8.8926 14.4604 8.449 14.4604C7.94001 14.4604 7.43212 14.414 7.04558 14.2172C6.84664 14.116 6.67466 13.9724 6.55416 13.7725C6.43394 13.5731 6.375 13.3344 6.375 13.0584C6.375 12.6222 6.52312 12.1356 6.76834 11.7097C7.01366 11.2836 7.37 10.8944 7.8092 10.6748ZM7.20166 11.9592C6.99088 12.3253 6.875 12.7266 6.875 13.0584C6.875 13.2625 6.91806 13.4077 6.98234 13.5144C7.04634 13.6205 7.14136 13.7049 7.27242 13.7716C7.54588 13.9109 7.94999 13.9604 8.449 13.9604C8.80195 13.9604 9.14144 13.927 9.38996 13.8667C9.50083 13.4272 9.71491 12.9668 10.0024 12.5705C9.92938 12.299 9.79843 12.0118 9.6276 11.758C9.46 11.509 9.26333 11.3058 9.06079 11.1783C8.87712 11.2531 8.68877 11.2924 8.497 11.2924C8.28665 11.2924 8.09153 11.2599 7.92206 11.1836C7.63867 11.357 7.38837 11.6349 7.20166 11.9592Z" fill="#CC66CC"/>
<path id="Vector (Stroke)_4" fill-rule="evenodd" clip-rule="evenodd" d="M8.49741 9.22656C8.05226 9.22656 7.69141 9.58742 7.69141 10.0326C7.69141 10.4777 8.05227 10.8386 8.49741 10.8386C8.94255 10.8386 9.30341 10.4777 9.30341 10.0326C9.30341 9.58742 8.94255 9.22656 8.49741 9.22656ZM7.19141 10.0326C7.19141 9.31128 7.77612 8.72656 8.49741 8.72656C9.21869 8.72656 9.80341 9.31128 9.80341 10.0326C9.80341 10.7538 9.21869 11.3386 8.49741 11.3386C7.77612 11.3386 7.19141 10.7538 7.19141 10.0326Z" fill="#CC66CC"/>
<path id="Vector (Stroke)_5" fill-rule="evenodd" clip-rule="evenodd" d="M11.1752 11.536C11.2591 11.496 11.3583 11.5059 11.4327 11.5617C11.56 11.6572 11.7818 11.7037 12.0027 11.7037C12.234 11.7037 12.433 11.627 12.6109 11.5381C12.6798 11.5037 12.7607 11.5029 12.8302 11.536C13.3919 11.8035 13.8571 12.3019 14.1804 12.8533C14.5036 13.4047 14.7007 14.0359 14.7007 14.5937C14.7007 14.9435 14.6229 15.2427 14.4702 15.4912C14.3174 15.7396 14.0996 15.9213 13.8449 16.0521C13.3453 16.3087 12.6827 16.3797 12.0027 16.3797C11.3227 16.3797 10.6601 16.3087 10.1605 16.0521C9.90576 15.9213 9.68794 15.7396 9.53522 15.4912C9.38244 15.2427 9.30469 14.9435 9.30469 14.5937C9.30469 14.0359 9.50179 13.4047 9.82501 12.8533C10.1482 12.3019 10.6135 11.8035 11.1752 11.536ZM10.2564 13.1062C9.96758 13.5988 9.80469 14.1435 9.80469 14.5937C9.80469 14.8679 9.86493 15.0728 9.96116 15.2293C10.0574 15.3859 10.1996 15.5101 10.3889 15.6073C10.7773 15.8068 11.3387 15.8797 12.0027 15.8797C12.6667 15.8797 13.2281 15.8068 13.6165 15.6073C13.8058 15.5101 13.9479 15.3859 14.0442 15.2293C14.1404 15.0728 14.2007 14.8679 14.2007 14.5937C14.2007 14.1435 14.0378 13.5988 13.749 13.1062C13.4826 12.6517 13.1227 12.2646 12.7182 12.0405C12.527 12.1256 12.2864 12.2037 12.0027 12.2037C11.788 12.2037 11.5082 12.1698 11.2725 12.0487C10.874 12.274 10.5195 12.6573 10.2564 13.1062Z" fill="#CC66CC"/>
<path id="Vector (Stroke)_6" fill-rule="evenodd" clip-rule="evenodd" d="M12.0014 9.46484C11.3707 9.46484 10.8594 9.97613 10.8594 10.6068C10.8594 11.2376 11.3707 11.7488 12.0014 11.7488C12.6321 11.7488 13.1434 11.2376 13.1434 10.6068C13.1434 9.97613 12.6321 9.46484 12.0014 9.46484ZM10.3594 10.6068C10.3594 9.69999 11.0945 8.96484 12.0014 8.96484C12.9082 8.96484 13.6434 9.69999 13.6434 10.6068C13.6434 11.5137 12.9082 12.2488 12.0014 12.2488C11.0945 12.2488 10.3594 11.5137 10.3594 10.6068Z" fill="#CC66CC"/>
</g>
<path id="Vector (Stroke)_7" fill-rule="evenodd" clip-rule="evenodd" d="M12.8633 2.00781C13.0014 2.00781 13.1133 2.11974 13.1133 2.25781V3.93781C13.1133 4.07588 13.0014 4.18781 12.8633 4.18781C12.7252 4.18781 12.6133 4.07588 12.6133 3.93781V2.25781C12.6133 2.11974 12.7252 2.00781 12.8633 2.00781Z" fill="#CC66CC"/>
<path id="Vector (Stroke)_8" fill-rule="evenodd" clip-rule="evenodd" d="M10.8869 1.82494C10.8869 1.20687 11.3829 0.710938 12.0009 0.710938C12.619 0.710938 13.1149 1.20687 13.1149 1.82494V2.02922C17.7579 2.5177 21.4842 6.24401 21.9727 10.8869H22.1769C22.795 10.8869 23.2909 11.3829 23.2909 12.0009C23.2909 12.619 22.795 13.1149 22.1769 13.1149H21.9727C21.4842 17.7579 17.7579 21.4842 13.1149 21.9727V22.1769C13.1149 22.795 12.619 23.2909 12.0009 23.2909C11.3829 23.2909 10.8869 22.795 10.8869 22.1769V21.9727C6.24401 21.4842 2.5177 17.7579 2.02922 13.1149H1.82494C1.20687 13.1149 0.710938 12.619 0.710938 12.0009C0.710938 11.3829 1.20687 10.8869 1.82494 10.8869H2.02922C2.5177 6.24401 6.24401 2.5177 10.8869 2.02922V1.82494ZM12.0009 1.21094C11.659 1.21094 11.3869 1.48301 11.3869 1.82494V2.25694C11.3869 2.38712 11.287 2.49552 11.1573 2.50611C6.57529 2.88015 2.88015 6.57529 2.50611 11.1573C2.49552 11.287 2.38712 11.3869 2.25694 11.3869H1.82494C1.48301 11.3869 1.21094 11.659 1.21094 12.0009C1.21094 12.3429 1.48301 12.6149 1.82494 12.6149H2.25694C2.38712 12.6149 2.49552 12.7148 2.50611 12.8446C2.88015 17.4266 6.57529 21.1217 11.1573 21.4958C11.287 21.5064 11.3869 21.6148 11.3869 21.7449V22.1769C11.3869 22.5189 11.659 22.7909 12.0009 22.7909C12.3429 22.7909 12.6149 22.5189 12.6149 22.1769V21.7449C12.6149 21.6148 12.7148 21.5064 12.8446 21.4958C17.4266 21.1217 21.1217 17.4266 21.4958 12.8446C21.5064 12.7148 21.6148 12.6149 21.7449 12.6149H22.1769C22.5189 12.6149 22.7909 12.3429 22.7909 12.0009C22.7909 11.659 22.5189 11.3869 22.1769 11.3869H21.7449C21.6148 11.3869 21.5064 11.287 21.4958 11.1573C21.1217 6.57529 17.4266 2.88015 12.8446 2.50611C12.7148 2.49552 12.6149 2.38712 12.6149 2.25694V1.82494C12.6149 1.48301 12.3429 1.21094 12.0009 1.21094ZM11.3046 3.75147C11.357 3.79887 11.3869 3.86625 11.3869 3.93694V4.32094C11.3869 4.66287 11.659 4.93494 12.0009 4.93494C12.3429 4.93494 12.6149 4.66287 12.6149 4.32094V3.93694C12.6149 3.86625 12.6449 3.79887 12.6973 3.75147C12.7497 3.70407 12.8198 3.68109 12.8901 3.68821C16.8003 4.08417 19.9177 7.2016 20.3137 11.1117C20.3208 11.1821 20.2978 11.2521 20.2504 11.3046C20.203 11.357 20.1356 11.3869 20.0649 11.3869H19.6809C19.339 11.3869 19.0669 11.659 19.0669 12.0009C19.0669 12.3429 19.339 12.6149 19.6809 12.6149H20.0649C20.1362 12.6149 20.204 12.6453 20.2514 12.6985C20.2989 12.7516 20.3214 12.8225 20.3133 12.8932C19.8682 16.8009 16.8009 19.8682 12.8932 20.3133C12.8225 20.3214 12.7516 20.2989 12.6985 20.2514C12.6453 20.204 12.6149 20.1362 12.6149 20.0649V19.6809C12.6149 19.339 12.3429 19.0669 12.0009 19.0669C11.659 19.0669 11.3869 19.339 11.3869 19.6809V20.0649C11.3869 20.1356 11.357 20.203 11.3046 20.2504C11.2521 20.2978 11.1821 20.3208 11.1117 20.3137C7.2016 19.9177 4.08417 16.8003 3.68821 12.8901C3.68109 12.8198 3.70407 12.7497 3.75147 12.6973C3.79887 12.6449 3.86625 12.6149 3.93694 12.6149H4.32094C4.66287 12.6149 4.93494 12.3429 4.93494 12.0009C4.93494 11.659 4.66287 11.3869 4.32094 11.3869H3.93694C3.86625 11.3869 3.79887 11.357 3.75147 11.3046C3.70407 11.2521 3.68109 11.1821 3.68821 11.1117C4.08417 7.2016 7.2016 4.08417 11.1117 3.68821C11.1821 3.68109 11.2521 3.70407 11.3046 3.75147ZM4.21848 10.8869H4.32094C4.93901 10.8869 5.43494 11.3829 5.43494 12.0009C5.43494 12.619 4.93901 13.1149 4.32094 13.1149H4.21848C4.69274 16.5679 7.43402 19.3091 10.8869 19.7834V19.6809C10.8869 19.0629 11.3829 18.5669 12.0009 18.5669C12.619 18.5669 13.1149 19.0629 13.1149 19.6809V19.7799C16.5655 19.2646 19.2646 16.5655 19.7799 13.1149H19.6809C19.0629 13.1149 18.5669 12.619 18.5669 12.0009C18.5669 11.3829 19.0629 10.8869 19.6809 10.8869H19.7834C19.3091 7.43402 16.5679 4.69274 13.1149 4.21848V4.32094C13.1149 4.93901 12.619 5.43494 12.0009 5.43494C11.3829 5.43494 10.8869 4.93901 10.8869 4.32094V4.21848C7.43402 4.69274 4.69274 7.43402 4.21848 10.8869Z" fill="#CC66CC"/>
<path id="Vector (Stroke)_9" fill-rule="evenodd" clip-rule="evenodd" d="M18.0859 2.25853C18.0859 1.64046 18.5819 1.14453 19.1999 1.14453H21.7439C22.362 1.14453 22.8579 1.64046 22.8579 2.25853V4.80253C22.8579 5.4206 22.362 5.91653 21.7439 5.91653C21.1259 5.91653 20.6299 5.4206 20.6299 4.80253V3.37253H19.1999C18.6388 3.37253 18.0859 2.88541 18.0859 2.25853ZM19.1999 1.64453C18.858 1.64453 18.5859 1.9166 18.5859 2.25853C18.5859 2.59165 18.897 2.87253 19.1999 2.87253H20.8799C21.018 2.87253 21.1299 2.98446 21.1299 3.12253V4.80253C21.1299 5.14446 21.402 5.41653 21.7439 5.41653C22.0859 5.41653 22.3579 5.14446 22.3579 4.80253V2.25853C22.3579 1.9166 22.0859 1.64453 21.7439 1.64453H19.1999Z" fill="#CC66CC"/>
<path id="Vector (Stroke)_10" fill-rule="evenodd" clip-rule="evenodd" d="M1.14453 2.25853C1.14453 1.64046 1.64046 1.14453 2.25853 1.14453H4.80253C5.36363 1.14453 5.91653 1.63165 5.91653 2.25853C5.91653 2.8766 5.4206 3.37253 4.80253 3.37253H3.37253V4.75453C3.37253 5.3726 2.8766 5.86853 2.25853 5.86853C1.64979 5.86853 1.14453 5.38175 1.14453 4.80253V2.25853ZM2.25853 1.64453C1.9166 1.64453 1.64453 1.9166 1.64453 2.25853V4.80253C1.64453 5.08731 1.90727 5.36853 2.25853 5.36853C2.60046 5.36853 2.87253 5.09646 2.87253 4.75453V3.12253C2.87253 2.98446 2.98446 2.87253 3.12253 2.87253H4.80253C5.14446 2.87253 5.41653 2.60046 5.41653 2.25853C5.41653 1.92541 5.10544 1.64453 4.80253 1.64453H2.25853Z" fill="#CC66CC"/>
<path id="Vector (Stroke)_11" fill-rule="evenodd" clip-rule="evenodd" d="M1.14453 19.1999C1.14453 18.6388 1.63165 18.0859 2.25853 18.0859C2.8766 18.0859 3.37253 18.5819 3.37253 19.1999V20.6299H4.80253C5.38475 20.6299 5.8568 21.1342 5.91529 21.7191C5.91612 21.7273 5.91653 21.7356 5.91653 21.7439C5.91653 22.362 5.4206 22.8579 4.80253 22.8579H2.25853C1.64046 22.8579 1.14453 22.362 1.14453 21.7439V19.1999ZM2.25853 18.5859C1.92541 18.5859 1.64453 18.897 1.64453 19.1999V21.7439C1.64453 22.0859 1.9166 22.3579 2.25853 22.3579H4.80253C5.14035 22.3579 5.40998 22.0924 5.41641 21.7562C5.37363 21.3878 5.08116 21.1299 4.80253 21.1299H3.12253C2.98446 21.1299 2.87253 21.018 2.87253 20.8799V19.1999C2.87253 18.858 2.60046 18.5859 2.25853 18.5859Z" fill="#CC66CC"/>
<path id="Vector (Stroke)_12" fill-rule="evenodd" clip-rule="evenodd" d="M20.6299 19.2507C20.6299 18.6326 21.1259 18.1367 21.7439 18.1367C22.3527 18.1367 22.8579 18.6235 22.8579 19.2027V21.7947C22.8579 22.4128 22.362 22.9087 21.7439 22.9087H19.1999C18.5819 22.9087 18.0859 22.4128 18.0859 21.7947C18.0859 21.1766 18.5819 20.6807 19.1999 20.6807H20.6299V19.2507ZM21.7439 18.6367C21.402 18.6367 21.1299 18.9088 21.1299 19.2507V20.9307C21.1299 21.0688 21.018 21.1807 20.8799 21.1807H19.1999C18.858 21.1807 18.5859 21.4528 18.5859 21.7947C18.5859 22.1366 18.858 22.4087 19.1999 22.4087H21.7439C22.0859 22.4087 22.3579 22.1366 22.3579 21.7947V19.2027C22.3579 18.9179 22.0952 18.6367 21.7439 18.6367Z" fill="#CC66CC"/>
<g id="Group_3">
<g id="Group_4">
<path id="Vector (Stroke)_13" fill-rule="evenodd" clip-rule="evenodd" d="M11.1367 2.00391C11.2748 2.00391 11.3867 2.11584 11.3867 2.25391V3.93391C11.3867 4.07198 11.2748 4.18391 11.1367 4.18391C10.9986 4.18391 10.8867 4.07198 10.8867 3.93391V2.25391C10.8867 2.11584 10.9986 2.00391 11.1367 2.00391Z" fill="#CC66CC"/>
<path id="Vector (Stroke)_14" fill-rule="evenodd" clip-rule="evenodd" d="M12.8633 2.00391C13.0014 2.00391 13.1133 2.11584 13.1133 2.25391V3.93391C13.1133 4.07198 13.0014 4.18391 12.8633 4.18391C12.7252 4.18391 12.6133 4.07198 12.6133 3.93391V2.25391C12.6133 2.11584 12.7252 2.00391 12.8633 2.00391Z" fill="#CC66CC"/>
</g>
<g id="Group_5">
<path id="Vector (Stroke)_15" fill-rule="evenodd" clip-rule="evenodd" d="M11.1367 19.8164C11.2748 19.8164 11.3867 19.9283 11.3867 20.0664V21.7464C11.3867 21.8845 11.2748 21.9964 11.1367 21.9964C10.9986 21.9964 10.8867 21.8845 10.8867 21.7464V20.0664C10.8867 19.9283 10.9986 19.8164 11.1367 19.8164Z" fill="#CC66CC"/>
<path id="Vector (Stroke)_16" fill-rule="evenodd" clip-rule="evenodd" d="M12.8633 19.8164C13.0014 19.8164 13.1133 19.9283 13.1133 20.0664V21.7464C13.1133 21.8845 13.0014 21.9964 12.8633 21.9964C12.7252 21.9964 12.6133 21.8845 12.6133 21.7464V20.0664C12.6133 19.9283 12.7252 19.8164 12.8633 19.8164Z" fill="#CC66CC"/>
</g>
</g>
<g id="Group_6">
<g id="Group_7">
<path id="Vector (Stroke)_17" fill-rule="evenodd" clip-rule="evenodd" d="M19.8164 11.1367C19.8164 10.9986 19.9283 10.8867 20.0664 10.8867H21.7464C21.8845 10.8867 21.9964 10.9986 21.9964 11.1367C21.9964 11.2748 21.8845 11.3867 21.7464 11.3867H20.0664C19.9283 11.3867 19.8164 11.2748 19.8164 11.1367Z" fill="#CC66CC"/>
<path id="Vector (Stroke)_18" fill-rule="evenodd" clip-rule="evenodd" d="M19.8164 12.8633C19.8164 12.7252 19.9283 12.6133 20.0664 12.6133H21.7464C21.8845 12.6133 21.9964 12.7252 21.9964 12.8633C21.9964 13.0014 21.8845 13.1133 21.7464 13.1133H20.0664C19.9283 13.1133 19.8164 13.0014 19.8164 12.8633Z" fill="#CC66CC"/>
</g>
<g id="Group_8">
<path id="Vector (Stroke)_19" fill-rule="evenodd" clip-rule="evenodd" d="M2.00781 11.1367C2.00781 10.9986 2.11974 10.8867 2.25781 10.8867H3.93781C4.07588 10.8867 4.18781 10.9986 4.18781 11.1367C4.18781 11.2748 4.07588 11.3867 3.93781 11.3867H2.25781C2.11974 11.3867 2.00781 11.2748 2.00781 11.1367Z" fill="#CC66CC"/>
<path id="Vector (Stroke)_20" fill-rule="evenodd" clip-rule="evenodd" d="M2.00781 12.8633C2.00781 12.7252 2.11974 12.6133 2.25781 12.6133H3.93781C4.07588 12.6133 4.18781 12.7252 4.18781 12.8633C4.18781 13.0014 4.07588 13.1133 3.93781 13.1133H2.25781C2.11974 13.1133 2.00781 13.0014 2.00781 12.8633Z" fill="#CC66CC"/>
</g>
</g>
</g>
</g>
<defs>
<clipPath id="clip0_350_3204">
<rect width="24" height="24" fill="white"/>
</clipPath>
</defs>
</svg>
