<svg width="24" height="24" viewBox="0 0 24 24" fill="none" xmlns="http://www.w3.org/2000/svg">
<g id="fi_10166120">
<path id="Vector" d="M4.31069 4.86023C2.46645 6.80225 1.46853 9.33936 1.50076 12.0045C1.51754 12.4958 2.24651 12.4902 2.25076 11.9953C2.22036 9.49097 3.12087 7.20233 4.86001 5.37073C8.69973 1.15052 14.6688 1.61634 18.2214 4.50556C18.3823 4.63648 18.6184 4.61213 18.7489 4.45118C18.8797 4.29059 18.8553 4.05438 18.6945 3.92365C14.8711 0.813968 8.44356 0.316471 4.31069 4.86023Z" fill="#6775F5"/>
<path id="Vector_2" d="M2.43876 13.79C2.34001 13.3118 1.61479 13.4457 1.70268 13.9343C2.48881 17.957 5.77593 22.1726 11.3038 22.4911C11.7789 22.4841 11.8062 21.7783 11.3261 21.7419C6.20304 21.4313 3.171 17.5242 2.43876 13.79Z" fill="#6775F5"/>
<path id="Vector_3" d="M18.247 19.5016C17.8031 19.7622 17.6347 20.387 18.0278 20.7442C18.0278 20.7442 19.0279 21.7429 19.0279 21.7429H13.1777C12.6893 21.7476 12.6818 22.4858 13.1777 22.4928C13.1777 22.4928 19.0279 22.4928 19.0279 22.4928C19.6769 22.5152 20.0332 21.6508 19.5556 21.2115C19.5556 21.2115 18.5548 20.2374 18.5548 20.2374C23.0881 16.6653 23.8442 9.66366 20.0871 5.28585C19.7689 4.91782 19.1994 5.38734 19.5137 5.76894C22.922 9.70802 22.3371 16.2171 18.247 19.5016Z" fill="#6775F5"/>
<path id="Vector_4" d="M11.8827 3.38281C9.50141 3.38281 7.30268 4.35748 5.69153 6.1272C5.552 6.28046 5.56317 6.51758 5.71625 6.65692C5.86898 6.79619 6.1063 6.78561 6.24597 6.6322C7.71338 5.02051 9.71527 4.13281 11.8827 4.13281C12.3731 4.12582 12.3774 3.39093 11.8827 3.38281Z" fill="#6775F5"/>
<path id="Vector_5" d="M10.3125 8.06304C10.3833 10.2933 13.6171 10.2926 13.6877 8.063C13.6168 5.83298 10.383 5.83334 10.3125 8.06304ZM12.9377 8.06304C12.9053 9.29913 11.0948 9.29907 11.0625 8.06301C11.095 6.82675 12.9054 6.82718 12.9377 8.06304Z" fill="#6775F5"/>
<path id="Vector_6" d="M14.2498 16.5C14.2498 16.0111 13.9363 15.594 13.4998 15.4391V13.0609C14.6706 12.6419 14.3872 10.8858 13.1248 10.875C13.1248 10.875 10.8746 10.875 10.8746 10.875C9.6129 10.887 9.32758 12.64 10.4996 13.0609C10.4996 13.0609 10.4996 15.4391 10.4996 15.4391C9.3288 15.8581 9.61218 17.6142 10.8746 17.625C10.8746 17.625 13.1248 17.625 13.1248 17.625C13.7451 17.625 14.2498 17.1204 14.2498 16.5ZM10.4996 16.5C10.4996 16.2931 10.6679 16.125 10.8746 16.125C11.0817 16.125 11.2496 15.9573 11.2496 15.75V12.75C11.2496 12.5427 11.0817 12.375 10.8746 12.375C10.3829 12.3674 10.3813 11.6333 10.8746 11.625C10.8746 11.625 13.1248 11.625 13.1248 11.625C13.6173 11.6347 13.618 12.3656 13.1248 12.375C12.9177 12.375 12.7498 12.5427 12.7498 12.75V15.75C12.7498 15.9573 12.9177 16.125 13.1248 16.125C13.6165 16.1325 13.6181 16.8669 13.1248 16.875H10.8746C10.6679 16.875 10.4996 16.7069 10.4996 16.5Z" fill="#6775F5"/>
</g>
</svg>
