<svg width="32" height="32" viewBox="0 0 32 32" fill="none" xmlns="http://www.w3.org/2000/svg">
<g id="fi_10237168" clip-path="url(#clip0_208_7549)">
<g id="Group">
<g id="Group_2">
<path id="Vector (Stroke)" fill-rule="evenodd" clip-rule="evenodd" d="M8.33831 1.45407C7.53941 1.45407 6.88376 2.10973 6.88376 2.90862V9.64801C6.88376 9.91579 6.66669 10.1329 6.39891 10.1329C6.13114 10.1329 5.91406 9.91579 5.91406 9.64801V2.90862C5.91406 1.57418 7.00386 0.484375 8.33831 0.484375H23.4656C24.8 0.484375 25.8898 1.57418 25.8898 2.90862V27.5389C25.8898 27.8067 25.6727 28.0238 25.405 28.0238C25.1372 28.0238 24.9201 27.8067 24.9201 27.5389V2.90862C24.9201 2.10973 24.2645 1.45407 23.4656 1.45407H8.33831Z" fill="#F57D34"/>
<path id="Vector (Stroke)_2" fill-rule="evenodd" clip-rule="evenodd" d="M6.39891 14.6914C6.66669 14.6914 6.88376 14.9085 6.88376 15.1763V29.0914C6.88376 29.8903 7.53941 30.546 8.33831 30.546H28.2171C28.4849 30.546 28.7019 30.763 28.7019 31.0308C28.7019 31.2986 28.4849 31.5156 28.2171 31.5156H8.33831C7.00386 31.5156 5.91406 30.4258 5.91406 29.0914V15.1763C5.91406 14.9085 6.13114 14.6914 6.39891 14.6914Z" fill="#F57D34"/>
<path id="Vector (Stroke)_3" fill-rule="evenodd" clip-rule="evenodd" d="M24.9219 9.4536C24.9219 9.18582 25.1389 8.96875 25.4067 8.96875H31.031C31.2987 8.96875 31.5158 9.18582 31.5158 9.4536V28.3142C31.5158 30.085 30.0866 31.5142 28.3158 31.5142H28.1219C26.3511 31.5142 24.9219 30.085 24.9219 28.3142V9.4536ZM25.8916 9.93845V28.3142C25.8916 29.5495 26.8866 30.5445 28.1219 30.5445H28.3158C29.5511 30.5445 30.5461 29.5495 30.5461 28.3142V9.93845H25.8916Z" fill="#F57D34"/>
</g>
<g id="Group_3">
<g id="Group_4">
<path id="Vector (Stroke)_4" fill-rule="evenodd" clip-rule="evenodd" d="M11.0579 17.2597C11.3247 17.2362 11.56 17.4333 11.5835 17.7001L11.8744 20.997C11.891 21.1846 11.7975 21.3648 11.6346 21.4592C11.4717 21.5536 11.2689 21.5451 11.1144 21.4375L8.39921 19.5466C8.17947 19.3936 8.1254 19.0914 8.27843 18.8717C8.43146 18.6519 8.73365 18.5979 8.95339 18.7509L10.8173 20.049L10.6176 17.7853C10.594 17.5186 10.7912 17.2833 11.0579 17.2597Z" fill="#F57D34"/>
<path id="Vector (Stroke)_5" fill-rule="evenodd" clip-rule="evenodd" d="M2.64493 3.73673C3.16373 3.66262 3.65225 3.88538 3.90501 4.30665C3.90665 4.30938 3.90826 4.31212 3.90984 4.31488L11.4735 17.5028C11.6054 17.7328 11.5281 18.0262 11.2998 18.1612L8.92408 19.5673C8.81263 19.6332 8.67942 19.6519 8.55415 19.619C8.42888 19.5862 8.32196 19.5046 8.25722 19.3924L0.646868 6.20761C0.410011 5.8092 0.403144 5.24972 0.734894 4.83504C0.740758 4.82771 0.746833 4.82055 0.753112 4.81357C1.24573 4.26622 1.87428 3.85526 2.63977 3.7375C2.64149 3.73723 2.64321 3.73698 2.64493 3.73673ZM2.78435 4.69636C2.29569 4.77231 1.86259 5.03505 1.48605 5.44882C1.43656 5.51839 1.43101 5.62979 1.48077 5.71271C1.48217 5.71505 1.48356 5.71741 1.48493 5.71978L8.85201 18.4831L10.3944 17.5703L3.07178 4.80275C3.03278 4.74029 2.9406 4.6748 2.78435 4.69636Z" fill="#F57D34"/>
<path id="Vector (Stroke)_6" fill-rule="evenodd" clip-rule="evenodd" d="M4.53574 5.42548C4.67213 5.65592 4.59588 5.95329 4.36544 6.08967L1.98968 7.49573C1.75924 7.63212 1.46187 7.55587 1.32549 7.32543C1.1891 7.09499 1.26535 6.79762 1.49579 6.66124L3.87155 5.25518C4.10199 5.11879 4.39936 5.19504 4.53574 5.42548Z" fill="#F57D34"/>
</g>
</g>
<g id="Group_5">
<path id="Vector (Stroke)_7" fill-rule="evenodd" clip-rule="evenodd" d="M15.8315 2.47274C18.4868 2.36435 20.6512 4.47994 20.6512 7.12688C20.6512 8.42952 20.1077 9.56825 19.2971 10.3788C19.2934 10.3825 19.2897 10.3861 19.2859 10.3897C18.6017 11.0311 18.227 11.8752 18.227 12.7511V13.1875C18.227 13.4553 18.0099 13.6723 17.7421 13.6723H14.2997C14.0319 13.6723 13.8149 13.4553 13.8149 13.1875V12.8966C13.8149 11.9728 13.3917 11.0258 12.6963 10.3303C12.6926 10.3266 12.689 10.3229 12.6854 10.3191C11.8768 9.45655 11.3906 8.32089 11.3906 7.02991C11.3906 7.02632 11.3907 7.02273 11.3907 7.01914C11.4449 4.58343 13.3916 2.58117 15.8297 2.47281L15.8315 2.47274ZM15.8719 3.44159C13.9485 3.52753 12.4059 5.1101 12.3603 7.03531C12.3617 8.06663 12.746 8.9634 13.3878 9.65048C14.1947 10.4602 14.7253 11.5637 14.7799 12.7026H17.2576C17.2712 11.5629 17.7651 10.4891 18.6166 9.68792C19.2577 9.04431 19.6815 8.14875 19.6815 7.12688C19.6815 5.0226 17.9676 3.35654 15.8719 3.44159Z" fill="#F57D34"/>
<path id="Vector (Stroke)_8" fill-rule="evenodd" clip-rule="evenodd" d="M15.9966 9.84375C16.2643 9.84375 16.4814 10.0608 16.4814 10.3286V13.0438C16.4814 13.3115 16.2643 13.5286 15.9966 13.5286C15.7288 13.5286 15.5117 13.3115 15.5117 13.0438V10.3286C15.5117 10.0608 15.7288 9.84375 15.9966 9.84375Z" fill="#F57D34"/>
<path id="Vector (Stroke)_9" fill-rule="evenodd" clip-rule="evenodd" d="M12.6523 13.2348C12.6523 12.9671 12.8694 12.75 13.1372 12.75H18.8584C19.1262 12.75 19.3433 12.9671 19.3433 13.2348C19.3433 13.5026 19.1262 13.7197 18.8584 13.7197H13.1372C12.8694 13.7197 12.6523 13.5026 12.6523 13.2348Z" fill="#F57D34"/>
</g>
<g id="Group_6">
<path id="Vector (Stroke)_10" fill-rule="evenodd" clip-rule="evenodd" d="M13.2344 18.4263C13.2344 18.1585 13.4514 17.9414 13.7192 17.9414H22.6404C22.9082 17.9414 23.1253 18.1585 23.1253 18.4263C23.1253 18.694 22.9082 18.9111 22.6404 18.9111H13.7192C13.4514 18.9111 13.2344 18.694 13.2344 18.4263Z" fill="#F57D34"/>
<path id="Vector (Stroke)_11" fill-rule="evenodd" clip-rule="evenodd" d="M12.6055 16.0005C12.6055 15.7327 12.8225 15.5156 13.0903 15.5156H22.6418C22.9096 15.5156 23.1267 15.7327 23.1267 16.0005C23.1267 16.2682 22.9096 16.4853 22.6418 16.4853H13.0903C12.8225 16.4853 12.6055 16.2682 12.6055 16.0005Z" fill="#F57D34"/>
<path id="Vector (Stroke)_12" fill-rule="evenodd" clip-rule="evenodd" d="M13.0898 20.8013C13.0898 20.5335 13.3069 20.3164 13.5747 20.3164H22.6414C22.9091 20.3164 23.1262 20.5335 23.1262 20.8013C23.1262 21.069 22.9091 21.2861 22.6414 21.2861H13.5747C13.3069 21.2861 13.0898 21.069 13.0898 20.8013Z" fill="#F57D34"/>
<path id="Vector (Stroke)_13" fill-rule="evenodd" clip-rule="evenodd" d="M14.6914 23.2231C14.6914 22.9554 14.9085 22.7383 15.1763 22.7383H22.5944C22.8622 22.7383 23.0793 22.9554 23.0793 23.2231C23.0793 23.4909 22.8622 23.708 22.5944 23.708H15.1763C14.9085 23.708 14.6914 23.4909 14.6914 23.2231Z" fill="#F57D34"/>
<path id="Vector (Stroke)_14" fill-rule="evenodd" clip-rule="evenodd" d="M8.62891 23.2231C8.62891 22.9554 8.84598 22.7383 9.11375 22.7383H12.9441C13.2118 22.7383 13.4289 22.9554 13.4289 23.2231C13.4289 23.4909 13.2118 23.708 12.9441 23.708H9.11375C8.84598 23.708 8.62891 23.4909 8.62891 23.2231Z" fill="#F57D34"/>
<path id="Vector (Stroke)_15" fill-rule="evenodd" clip-rule="evenodd" d="M18.4727 25.602C18.4727 25.3343 18.6897 25.1172 18.9575 25.1172H22.5939C22.8616 25.1172 23.0787 25.3343 23.0787 25.602C23.0787 25.8698 22.8616 26.0869 22.5939 26.0869H18.9575C18.6897 26.0869 18.4727 25.8698 18.4727 25.602Z" fill="#F57D34"/>
<path id="Vector (Stroke)_16" fill-rule="evenodd" clip-rule="evenodd" d="M8.62891 25.602C8.62891 25.3343 8.84598 25.1172 9.11375 25.1172H16.7259C16.9937 25.1172 17.2107 25.3343 17.2107 25.602C17.2107 25.8698 16.9937 26.0869 16.7259 26.0869H9.11375C8.84598 26.0869 8.62891 25.8698 8.62891 25.602Z" fill="#F57D34"/>
<path id="Vector (Stroke)_17" fill-rule="evenodd" clip-rule="evenodd" d="M13.1875 28.0239C13.1875 27.7561 13.4046 27.5391 13.6723 27.5391H22.5936C22.8613 27.5391 23.0784 27.7561 23.0784 28.0239C23.0784 28.2917 22.8613 28.5088 22.5936 28.5088H13.6723C13.4046 28.5088 13.1875 28.2917 13.1875 28.0239Z" fill="#F57D34"/>
<path id="Vector (Stroke)_18" fill-rule="evenodd" clip-rule="evenodd" d="M8.62891 28.0239C8.62891 27.7561 8.84598 27.5391 9.11375 27.5391H11.3441C11.6118 27.5391 11.8289 27.7561 11.8289 28.0239C11.8289 28.2917 11.6118 28.5088 11.3441 28.5088H9.11375C8.84598 28.5088 8.62891 28.2917 8.62891 28.0239Z" fill="#F57D34"/>
</g>
<path id="Vector (Stroke)_19" fill-rule="evenodd" clip-rule="evenodd" d="M15.9357 7.66119C15.3851 7.66836 14.9306 8.12719 14.9306 8.67928C14.9306 9.23575 15.3923 9.69747 15.9488 9.69747C16.5053 9.69747 16.967 9.23575 16.967 8.67928C16.967 8.1406 16.5685 7.70231 15.9357 7.66119ZM13.9609 8.67928C13.9609 7.58727 14.8568 6.69141 15.9488 6.69141C15.9578 6.69141 15.9668 6.69166 15.9757 6.69215C17.0804 6.75352 17.9367 7.57339 17.9367 8.67928C17.9367 9.7713 17.0408 10.6672 15.9488 10.6672C14.8568 10.6672 13.9609 9.7713 13.9609 8.67928Z" fill="#F57D34"/>
</g>
</g>
<defs>
<clipPath id="clip0_208_7549">
<rect width="32" height="32" fill="white"/>
</clipPath>
</defs>
</svg>
