<svg width="24" height="24" viewBox="0 0 24 24" fill="none" xmlns="http://www.w3.org/2000/svg">
<g id="fi_2261136" clip-path="url(#clip0_350_3746)">
<path id="Vector" d="M22.1163 5.91016H15.9961C15.6215 5.91217 15.2628 6.06171 14.9977 6.32638C14.7326 6.59104 14.5825 6.94951 14.5798 7.32409L14.5752 7.94111L14.5259 7.94163C14.036 7.9445 13.5671 8.14098 13.2215 8.48822C12.8759 8.83546 12.6816 9.30528 12.681 9.79519C12.6805 10.2851 12.8737 10.7554 13.2185 11.1034C13.5633 11.4514 14.0317 11.649 14.5216 11.653L14.5488 11.6534L14.53 14.3977H12.1441C12.1552 14.2453 12.1478 14.0921 12.122 13.9414C12.0544 13.5425 11.8576 13.1769 11.5619 12.9007C11.2661 12.6246 10.8879 12.4532 10.4853 12.4129C10.2294 12.3868 9.97081 12.4151 9.72659 12.496C9.48237 12.5769 9.25804 12.7086 9.06833 12.8823C8.87661 13.057 8.72344 13.2697 8.61861 13.5069C8.51378 13.7441 8.45959 14.0006 8.45952 14.2599C8.45952 14.3058 8.46124 14.3517 8.46467 14.3977H7.21311C6.83658 14.3992 6.47601 14.5499 6.21051 14.8169C5.94501 15.0839 5.79625 15.4453 5.79688 15.8219V22.0477C5.79625 22.4242 5.94501 22.7856 6.21051 23.0526C6.47601 23.3196 6.83658 23.4704 7.21311 23.4719H14.5372L22.0578 23.5305H22.0691C22.4404 23.5312 22.7968 23.3848 23.0603 23.1232C23.1943 22.9917 23.3009 22.8349 23.3738 22.6619C23.4467 22.4889 23.4845 22.3031 23.485 22.1154L23.5308 14.9844H23.5325V7.33436C23.5332 6.95782 23.3844 6.5964 23.1189 6.32941C22.8534 6.06241 22.4928 5.91163 22.1163 5.91016ZM14.4651 22.9094H7.21353C6.98613 22.9081 6.76854 22.8166 6.60849 22.6551C6.44844 22.4935 6.359 22.2751 6.3598 22.0477V15.822C6.359 15.5946 6.44844 15.3762 6.60849 15.2146C6.76854 15.0531 6.98613 14.9616 7.21353 14.9603H8.65677C8.71416 14.9604 8.77088 14.9479 8.82287 14.9235C8.87487 14.8992 8.92087 14.8638 8.95761 14.8197C8.99507 14.7749 9.02219 14.7224 9.03703 14.6659C9.05188 14.6094 9.05408 14.5504 9.04349 14.493C9.00398 14.276 9.02027 14.0526 9.09085 13.8437C9.16143 13.6348 9.28396 13.4473 9.44694 13.2987C9.57886 13.1781 9.73481 13.0867 9.90454 13.0305C10.0743 12.9744 10.254 12.9547 10.4318 12.9729C10.7115 13.0011 10.9742 13.1205 11.1794 13.3125C11.3847 13.5046 11.5212 13.7587 11.5679 14.0359C11.594 14.1869 11.5934 14.3413 11.5662 14.4921C11.5557 14.5495 11.5579 14.6086 11.5728 14.6651C11.5876 14.7216 11.6147 14.7741 11.6522 14.819C11.689 14.8632 11.7352 14.8988 11.7874 14.9233C11.8395 14.9477 11.8964 14.9603 11.954 14.9602H14.5263L14.51 17.0837C14.0286 17.0444 13.551 17.1957 13.18 17.5049C12.809 17.8142 12.5743 18.2568 12.5263 18.7374C12.4994 18.9961 12.5268 19.2575 12.6066 19.5051C12.6865 19.7526 12.8171 19.9808 12.99 20.175C13.1611 20.366 13.37 20.5193 13.6036 20.625C13.8372 20.7307 14.0902 20.7866 14.3466 20.7891C14.3914 20.7894 14.4365 20.7881 14.4815 20.7851L14.4651 22.9094ZM22.9225 22.1118C22.9222 22.2256 22.8994 22.3382 22.8552 22.4431C22.8111 22.5479 22.7465 22.643 22.6654 22.7227C22.5068 22.8801 22.2924 22.9683 22.069 22.968H22.0622L15.0276 22.9132L15.0453 20.598C15.0457 20.5401 15.0334 20.4828 15.0091 20.4302C14.9849 20.3776 14.9493 20.331 14.905 20.2937C14.8607 20.2564 14.8087 20.2293 14.7528 20.2143C14.6968 20.1994 14.6383 20.197 14.5813 20.2073C14.5052 20.2209 14.428 20.2273 14.3508 20.2265C14.1711 20.2253 13.9937 20.1867 13.8298 20.1132C13.6659 20.0396 13.5191 19.9327 13.3989 19.7993C13.2786 19.6659 13.1874 19.5089 13.1312 19.3383C13.0749 19.1676 13.0548 18.9872 13.0722 18.8084C13.0896 18.6296 13.144 18.4564 13.232 18.2998C13.3201 18.1432 13.4398 18.0066 13.5835 17.8989C13.7272 17.7911 13.8918 17.7144 14.0668 17.6738C14.2418 17.6332 14.4233 17.6294 14.5998 17.6628C14.6568 17.674 14.7155 17.6724 14.7718 17.6582C14.8281 17.6441 14.8806 17.6177 14.9256 17.5809C14.9705 17.5442 15.0068 17.498 15.0319 17.4456C15.057 17.3933 15.0702 17.3361 15.0707 17.278L15.0885 14.9626L17.4691 14.9818C17.4576 15.135 17.465 15.2891 17.4909 15.4406C17.5586 15.8395 17.7554 16.2052 18.0511 16.4813C18.3468 16.7575 18.7251 16.9288 19.1277 16.9691C19.1893 16.975 19.2505 16.978 19.3114 16.978C19.7679 16.979 20.2082 16.8084 20.5447 16.4998C20.7364 16.3252 20.8896 16.1124 20.9944 15.8752C21.0992 15.638 21.1534 15.3816 21.1535 15.1222C21.1535 15.0764 21.1518 15.0304 21.1483 14.9845H22.9681L22.9225 22.1118ZM22.97 14.4219H20.9566C20.8992 14.4218 20.8425 14.4343 20.7905 14.4586C20.7385 14.4829 20.6925 14.5184 20.6557 14.5625C20.6184 14.6073 20.5913 14.6597 20.5765 14.7161C20.5617 14.7725 20.5595 14.8315 20.57 14.8889C20.6096 15.1058 20.5933 15.3292 20.5227 15.5382C20.4521 15.7471 20.3296 15.9346 20.1666 16.0832C20.0347 16.2039 19.8788 16.2953 19.709 16.3514C19.5393 16.4076 19.3596 16.4272 19.1818 16.4089C18.9021 16.3807 18.6394 16.2614 18.4342 16.0694C18.2289 15.8774 18.0924 15.6233 18.0456 15.3461C18.0195 15.1948 18.0202 15.0401 18.0475 14.889C18.058 14.8318 18.0559 14.7729 18.0412 14.7167C18.0266 14.6604 17.9997 14.608 17.9626 14.5632C17.9261 14.519 17.8803 14.4833 17.8284 14.4587C17.7766 14.4341 17.72 14.4212 17.6626 14.4208L15.0925 14.4001L15.1131 11.3785C15.1131 11.3735 15.1127 11.3686 15.1124 11.3635C15.1124 11.3594 15.1124 11.3552 15.1119 11.3511C15.1114 11.3459 15.1105 11.3409 15.1098 11.3358C15.1092 11.3316 15.1087 11.3273 15.1079 11.3231C15.107 11.3181 15.1056 11.3133 15.1044 11.3085C15.1033 11.3037 15.1025 11.3001 15.1013 11.2961C15.0999 11.2914 15.0981 11.2867 15.0966 11.282C15.0952 11.2773 15.094 11.274 15.0923 11.27C15.0907 11.2661 15.0883 11.2614 15.0863 11.257C15.0843 11.2527 15.0828 11.2491 15.0808 11.2453C15.0787 11.2414 15.0761 11.2373 15.0737 11.2332C15.0713 11.2292 15.0694 11.2256 15.0669 11.2219C15.0645 11.2183 15.0616 11.2146 15.0589 11.2109C15.0562 11.2073 15.0538 11.2036 15.051 11.2C15.0482 11.1965 15.0452 11.1935 15.0423 11.1902C15.0394 11.1869 15.0362 11.1832 15.0329 11.1799C15.0296 11.1766 15.0267 11.1741 15.0235 11.1712C15.0204 11.1683 15.0167 11.1646 15.013 11.1615C15.0094 11.1584 15.0065 11.1565 15.0033 11.154C15 11.1515 14.9956 11.1479 14.9915 11.1451C14.9875 11.1423 14.9846 11.1407 14.9811 11.1385C14.9769 11.1359 14.9728 11.1332 14.9685 11.1307C14.9642 11.1283 14.961 11.127 14.9573 11.1251C14.9535 11.1233 14.9486 11.1205 14.9441 11.1186C14.9395 11.1168 14.9361 11.1156 14.9321 11.1139C14.9281 11.1123 14.923 11.1103 14.9183 11.1088C14.9136 11.1073 14.9099 11.1065 14.9057 11.1054C14.9014 11.1042 14.8963 11.1026 14.8916 11.1016C14.8869 11.1006 14.8828 11.1001 14.8783 11.0994C14.8738 11.0986 14.8689 11.0976 14.8638 11.097C14.8586 11.0965 14.8544 11.0964 14.8497 11.0961C14.845 11.0958 14.8407 11.0953 14.8361 11.0952L14.5258 11.0905C14.1848 11.0873 13.8588 10.9494 13.6189 10.7069C13.379 10.4644 13.2446 10.1369 13.245 9.7958C13.2454 9.45469 13.3805 9.12755 13.621 8.88562C13.8615 8.64369 14.1878 8.50655 14.5289 8.50408L14.8573 8.50061C14.8613 8.50061 14.8651 8.50009 14.869 8.49991C14.8742 8.49963 14.8794 8.49948 14.8846 8.49892C14.889 8.49845 14.8933 8.49761 14.8976 8.49695C14.9019 8.4963 14.9075 8.49555 14.9123 8.49456C14.9172 8.49358 14.9212 8.49231 14.9256 8.49114C14.9301 8.48997 14.9347 8.48894 14.9391 8.48753C14.9435 8.48612 14.948 8.4843 14.9525 8.48284C14.957 8.48139 14.9608 8.47994 14.9647 8.47816C14.9687 8.47638 14.9736 8.47398 14.978 8.47183C14.9818 8.47 14.9855 8.46827 14.9892 8.4663C14.9936 8.46391 14.9977 8.46119 15.002 8.45856C15.0054 8.45645 15.0089 8.45448 15.0122 8.45223C15.0163 8.44937 15.0203 8.44628 15.0243 8.44323C15.0274 8.44084 15.0307 8.43855 15.0336 8.43602C15.0374 8.43288 15.041 8.42945 15.0447 8.42608C15.0476 8.42336 15.0507 8.42069 15.0536 8.41783C15.0564 8.41497 15.0601 8.41075 15.0633 8.40719C15.0665 8.40362 15.069 8.40105 15.0717 8.39781C15.0743 8.39458 15.0773 8.39031 15.0801 8.38652C15.083 8.38272 15.0853 8.37972 15.0878 8.37611C15.0902 8.3725 15.0925 8.36823 15.095 8.36425C15.0976 8.36027 15.0997 8.3568 15.1018 8.35295C15.1038 8.34911 15.1058 8.34466 15.1078 8.34048C15.1099 8.33631 15.1118 8.33252 15.1135 8.32839C15.1153 8.32427 15.1168 8.31967 15.1182 8.31527C15.1196 8.31086 15.1213 8.30692 15.1229 8.30266C15.1244 8.29839 15.1254 8.29328 15.1266 8.28859C15.1278 8.28391 15.1289 8.28002 15.1297 8.27561C15.1306 8.2712 15.1313 8.266 15.1321 8.26122C15.1328 8.25644 15.1335 8.25231 15.134 8.24777C15.1345 8.24322 15.1346 8.23792 15.1348 8.233C15.1348 8.2292 15.1355 8.22545 15.1355 8.22161L15.142 7.32803C15.1432 7.10181 15.2334 6.88515 15.3933 6.72502C15.5531 6.56489 15.7695 6.47419 15.9958 6.47256H22.1163C22.3437 6.47388 22.5613 6.56537 22.7214 6.72696C22.8815 6.88856 22.9709 7.10705 22.97 7.3345V14.4219Z" fill="#FFBC00"/>
<path id="Vector_2" d="M21.5586 12.0586C21.484 12.0586 21.4125 12.0882 21.3597 12.141C21.307 12.1937 21.2773 12.2653 21.2773 12.3398V12.9238C21.2773 12.9984 21.307 13.0699 21.3597 13.1227C21.4125 13.1754 21.484 13.2051 21.5586 13.2051C21.6332 13.2051 21.7047 13.1754 21.7575 13.1227C21.8102 13.0699 21.8398 12.9984 21.8398 12.9238V12.3398C21.8398 12.2653 21.8102 12.1937 21.7575 12.141C21.7047 12.0882 21.6332 12.0586 21.5586 12.0586Z" fill="#FFBC00"/>
<path id="Vector_3" d="M21.5586 7.59375C21.484 7.59375 21.4125 7.62338 21.3597 7.67613C21.307 7.72887 21.2773 7.80041 21.2773 7.875V10.9328C21.2773 11.0074 21.307 11.0789 21.3597 11.1317C21.4125 11.1844 21.484 11.214 21.5586 11.214C21.6332 11.214 21.7047 11.1844 21.7575 11.1317C21.8102 11.0789 21.8398 11.0074 21.8398 10.9328V7.875C21.8398 7.80041 21.8102 7.72887 21.7575 7.67613C21.7047 7.62338 21.6332 7.59375 21.5586 7.59375Z" fill="#FFBC00"/>
<path id="Vector_4" d="M21.6641 22.0762C21.7387 22.0762 21.8102 22.0465 21.8629 21.9938C21.9157 21.941 21.9453 21.8695 21.9453 21.7949V21.2109C21.9453 21.1363 21.9157 21.0648 21.8629 21.0121C21.8102 20.9593 21.7387 20.9297 21.6641 20.9297C21.5895 20.9297 21.5179 20.9593 21.4652 21.0121C21.4124 21.0648 21.3828 21.1363 21.3828 21.2109V21.7949C21.3828 21.8695 21.4124 21.941 21.4652 21.9938C21.5179 22.0465 21.5895 22.0762 21.6641 22.0762Z" fill="#FFBC00"/>
<path id="Vector_5" d="M21.6641 20.085C21.7387 20.085 21.8102 20.0553 21.8629 20.0026C21.9157 19.9498 21.9453 19.8783 21.9453 19.8037V16.7461C21.9453 16.6715 21.9157 16.6 21.8629 16.5472C21.8102 16.4945 21.7387 16.4648 21.6641 16.4648C21.5895 16.4648 21.5179 16.4945 21.4652 16.5472C21.4124 16.6 21.3828 16.6715 21.3828 16.7461V19.8037C21.3828 19.8783 21.4124 19.9498 21.4652 20.0026C21.5179 20.0553 21.5895 20.085 21.6641 20.085Z" fill="#FFBC00"/>
<path id="Vector_6" d="M7.34998 12.135C7.59201 12.1353 7.83008 12.0736 8.04148 11.9557C8.25288 11.8378 8.43056 11.6678 8.55757 11.4618L9.23229 10.3661C9.2615 10.3188 9.28041 10.2659 9.28778 10.2108C9.29515 10.1557 9.29082 10.0997 9.27506 10.0464C9.25931 9.99306 9.23249 9.94368 9.19636 9.90144C9.16023 9.85921 9.11559 9.82508 9.06537 9.80127C8.75483 9.65538 8.51466 9.39249 8.39737 9.07006C8.28007 8.74763 8.29519 8.39187 8.43942 8.08055C8.58364 7.76924 8.84524 7.52767 9.16705 7.40866C9.48885 7.28964 9.84468 7.30286 10.1568 7.44542C10.2476 7.48844 10.3332 7.54172 10.4119 7.60423C10.4555 7.63921 10.5061 7.66452 10.5602 7.67849C10.6144 7.69246 10.6709 7.69476 10.726 7.68526C10.7811 7.67575 10.8336 7.65465 10.88 7.62335C10.9263 7.59205 10.9655 7.55126 10.9949 7.50369L11.8158 6.17056C12.0145 5.84805 12.0769 5.45985 11.9895 5.09129C11.902 4.72273 11.6718 4.40398 11.3494 4.20509L10.0483 3.40639C10.3291 3.01257 10.4456 2.52494 10.3731 2.04673C10.3007 1.56852 10.045 1.13726 9.66022 0.84425C9.45535 0.687278 9.21945 0.575651 8.96817 0.51677C8.71689 0.457889 8.45596 0.453099 8.20268 0.502719C7.94915 0.551868 7.70872 0.653595 7.4969 0.801342C7.28508 0.949088 7.10657 1.13958 6.97287 1.36053C6.94953 1.39906 6.92765 1.43848 6.90725 1.4788L5.8399 0.823672C5.68103 0.726216 5.50443 0.661184 5.32029 0.632329C5.13616 0.603473 4.94813 0.611366 4.76706 0.65555C4.58599 0.699735 4.41546 0.779337 4.26532 0.889764C4.11517 1.00019 3.98837 1.13926 3.89225 1.29894L0.674653 6.61489C0.479942 6.93742 0.4203 7.32373 0.508675 7.68996C0.59705 8.0562 0.826309 8.3728 1.14668 8.57103L2.06909 9.13714C2.11377 9.16451 2.16369 9.18221 2.21563 9.1891C2.26758 9.19599 2.32039 9.19193 2.37066 9.17716C2.42093 9.16239 2.46755 9.13725 2.50751 9.10336C2.54747 9.06947 2.57989 9.02758 2.60267 8.98039C2.67199 8.8367 2.77067 8.70915 2.89234 8.60595C3.014 8.50275 3.15595 8.42621 3.30902 8.38125C3.46209 8.3363 3.62289 8.32393 3.78103 8.34495C3.93918 8.36598 4.09116 8.41992 4.22717 8.5033C4.36318 8.58668 4.4802 8.69765 4.57068 8.82905C4.66116 8.96045 4.72309 9.10936 4.75247 9.26616C4.78185 9.42297 4.77803 9.5842 4.74126 9.73944C4.70449 9.89468 4.63558 10.0405 4.53898 10.1675C4.50706 10.2091 4.48424 10.257 4.472 10.3081C4.45975 10.3591 4.45836 10.4121 4.46791 10.4637C4.47746 10.5154 4.49773 10.5644 4.52742 10.6077C4.55712 10.6509 4.59556 10.6875 4.64028 10.715L6.61564 11.9273C6.83645 12.0632 7.09068 12.1351 7.34998 12.135ZM5.33093 9.36589C5.30756 9.00795 5.17183 8.66652 4.94308 8.39022C4.71433 8.11393 4.40422 7.91686 4.05694 7.82709C3.70965 7.73732 3.3429 7.75942 3.00891 7.89026C2.67492 8.02109 2.39073 8.25398 2.19682 8.55575L1.44092 8.09169C1.24689 7.97143 1.10813 7.77949 1.05476 7.55754C1.00139 7.33559 1.03772 7.10154 1.15587 6.90622L4.37323 1.59017C4.43096 1.49395 4.50719 1.41012 4.59751 1.34353C4.68783 1.27694 4.79045 1.22891 4.89944 1.20221C5.00844 1.17551 5.12164 1.17068 5.23251 1.18799C5.34338 1.2053 5.44972 1.24441 5.54539 1.30306L6.7782 2.05944C6.82726 2.08969 6.88241 2.10871 6.9397 2.11512C6.99698 2.12153 7.05498 2.11518 7.10951 2.09652C7.1647 2.07773 7.21505 2.04698 7.25696 2.00646C7.29887 1.96594 7.33131 1.91666 7.35195 1.86214C7.42967 1.65731 7.55837 1.47571 7.72588 1.33452C7.89339 1.19332 8.09416 1.09721 8.30918 1.05528C8.48518 1.02092 8.66648 1.02437 8.84104 1.06542C9.0156 1.10647 9.17944 1.18416 9.32168 1.29336C9.4637 1.40191 9.58178 1.5386 9.66857 1.69487C9.75535 1.85114 9.80895 2.02363 9.82603 2.20156C9.84311 2.3795 9.82329 2.55904 9.76783 2.72896C9.71235 2.89889 9.62242 3.05554 9.50365 3.18912C9.46549 3.23198 9.43722 3.2827 9.42084 3.33769C9.40446 3.39269 9.40038 3.45061 9.40887 3.50736C9.41729 3.56474 9.43822 3.61957 9.47017 3.66797C9.50213 3.71637 9.54433 3.75715 9.59379 3.78744L11.0555 4.68453C11.2506 4.80527 11.3899 4.99851 11.4427 5.22182C11.4955 5.44514 11.4575 5.68028 11.3371 5.87563L10.6106 7.05533C10.5424 7.01145 10.4714 6.97201 10.3981 6.93725C10.0169 6.75846 9.58616 6.71515 9.17702 6.81446C8.76788 6.91378 8.4049 7.14979 8.14812 7.48344C7.9886 7.69081 7.87439 7.92937 7.81287 8.18367C7.75135 8.43796 7.7439 8.70234 7.79099 8.9597C7.83808 9.21706 7.93866 9.46167 8.08624 9.67771C8.23382 9.89375 8.4251 10.0764 8.64771 10.2139C8.65193 10.2165 8.65615 10.219 8.66037 10.2216L8.07856 11.1665C7.96053 11.3583 7.77132 11.4956 7.5523 11.5483C7.33329 11.6011 7.10232 11.5649 6.90992 11.4477L5.10082 10.3375C5.2726 10.0438 5.35272 9.70546 5.33093 9.36589Z" fill="#FFBC00"/>
</g>
<defs>
<clipPath id="clip0_350_3746">
<rect width="24" height="24" fill="white"/>
</clipPath>
</defs>
</svg>
