<svg width="24" height="24" viewBox="0 0 24 24" fill="none" xmlns="http://www.w3.org/2000/svg">
<g id="fi_2163226" clip-path="url(#clip0_271_2515)">
<path id="Vector" d="M21.5749 16.1679V15.4783C21.5749 13.9474 21.03 12.4602 20.0407 11.2909C19.9154 11.1428 19.6935 11.1241 19.5452 11.2496C19.397 11.375 19.3785 11.5968 19.5039 11.745C20.386 12.7876 20.8717 14.1134 20.8717 15.4783V16.1679C20.8717 18.1667 19.8569 19.9999 18.1569 21.0716C18.0548 21.136 17.9929 21.2483 17.9929 21.369V23.2956H15.769L15.6167 22.265C15.5905 22.0877 15.4346 21.9604 15.2558 21.9651C15.1758 21.968 15.1049 21.9695 15.0391 21.9695H14.0628C13.8687 21.9695 13.7113 22.1269 13.7113 22.3211C13.7113 22.5153 13.8687 22.6727 14.0628 22.6727H14.9662L15.0583 23.2956H12.0345L12.1266 22.6726H12.4222C12.6164 22.6726 12.7738 22.5153 12.7738 22.3211C12.7738 22.1269 12.6164 21.9695 12.4222 21.9695H11.8231C11.6488 21.9695 11.5009 22.0972 11.4754 22.2696L11.3237 23.2956H9.09984V21.9824C9.09984 21.8324 9.00473 21.699 8.86294 21.65C7.46948 21.1693 6.31922 20.1901 5.62397 18.8929C5.56275 18.7786 5.44369 18.7074 5.31413 18.7074H3.12891V15.3259H4.61105C4.79414 15.3259 4.94658 15.1853 4.96144 15.0028C5.13206 12.9096 6.43439 11.0675 8.3602 10.1954C8.48597 10.1384 8.56673 10.0132 8.56673 9.87514V7.16094C8.78438 7.23434 9.29798 7.43558 9.81586 7.84189C10.0941 8.06014 10.3305 8.30502 10.5248 8.57408C10.521 8.63473 10.5184 8.69577 10.5184 8.75736C10.5184 9.52986 10.8202 10.2465 11.3348 10.7771H11.0941C10.9 10.7771 10.7426 10.9345 10.7426 11.1287C10.7426 11.3229 10.9 11.4802 11.0941 11.4802H12.4753H14.4079H15.9453C16.1394 11.4802 16.2968 11.3229 16.2968 11.1287C16.2968 10.9345 16.1394 10.7771 15.9453 10.7771H15.5485C15.8232 10.4938 16.037 10.1576 16.1768 9.788C16.9545 9.94053 17.693 10.2491 18.3535 10.7037C18.5135 10.8138 18.7324 10.7734 18.8424 10.6134C18.9525 10.4535 18.9121 10.2346 18.7522 10.1245C18.0206 9.62098 17.204 9.27688 16.3442 9.10381C16.3577 8.98991 16.3649 8.87431 16.3649 8.75736C16.3649 7.89514 15.9859 7.11969 15.3856 6.5863V5.97298C15.3856 5.77878 15.2282 5.62142 15.034 5.62142C14.8399 5.62142 14.6825 5.77878 14.6825 5.97298V6.12308C14.4155 5.99797 14.1266 5.91228 13.8233 5.87272V4.71875C13.8233 4.52455 13.6658 4.36719 13.4717 4.36719C13.2775 4.36719 13.1201 4.52455 13.1201 4.71875V5.86513C12.7947 5.90075 12.4853 5.98977 12.2008 6.12312V5.735C12.2008 5.5408 12.0434 5.38344 11.8492 5.38344C11.6551 5.38344 11.4977 5.5408 11.4977 5.735V6.58639C11.1543 6.89145 10.8839 7.27578 10.715 7.71027C10.5717 7.56055 10.4166 7.4195 10.2499 7.28877C9.48389 6.68783 8.72667 6.47145 8.64211 6.44858C8.46061 6.39997 8.25708 6.43948 8.10642 6.55419C7.95436 6.67011 7.86361 6.85334 7.86361 7.04431V9.65281C5.91638 10.6175 4.57828 12.4845 4.29516 14.6227H3.04392C2.70309 14.6227 2.42578 14.8994 2.42578 15.2395V18.7937C2.42578 19.1338 2.70309 19.4105 3.04392 19.4105H5.10755C5.85272 20.6995 7.00791 21.6887 8.39672 22.2278V23.2956H2.77734C2.58319 23.2956 2.42578 23.453 2.42578 23.6472C2.42578 23.8414 2.58319 23.9988 2.77734 23.9988H8.74828H11.6272H15.4656H18.3445H21.2234C21.4175 23.9988 21.5749 23.8414 21.5749 23.6472C21.5749 23.453 21.4175 23.2956 21.2234 23.2956H18.696V21.5596C20.5024 20.3456 21.5749 18.3445 21.5749 16.1679ZM13.4416 6.5503C14.6658 6.5503 15.6617 7.54044 15.6617 8.75745C15.6617 9.63814 15.144 10.4238 14.3371 10.7772H12.5462C11.7393 10.4239 11.2215 9.63814 11.2215 8.75745C11.2215 7.54044 12.2175 6.5503 13.4416 6.5503Z" fill="#2BB656"/>
<path id="Vector_2" d="M6.32422 14.3945V16.2245C6.32422 16.4187 6.48162 16.576 6.67578 16.576C6.86994 16.576 7.02734 16.4187 7.02734 16.2245V14.3945C7.02734 14.2003 6.86994 14.043 6.67578 14.043C6.48162 14.043 6.32422 14.2003 6.32422 14.3945Z" fill="#2BB656"/>
<path id="Vector_3" d="M13.4427 10.3262C14.3114 10.3262 15.0182 9.62214 15.0182 8.75683C15.0182 7.89152 14.3114 7.1875 13.4427 7.1875C12.574 7.1875 11.8672 7.89152 11.8672 8.75683C11.8672 9.62214 12.574 10.3262 13.4427 10.3262ZM13.4427 7.89067C13.9237 7.89067 14.3151 8.27922 14.3151 8.75688C14.3151 9.23453 13.9237 9.62308 13.4427 9.62308C12.9617 9.62308 12.5703 9.23453 12.5703 8.75688C12.5703 8.27922 12.9617 7.89067 13.4427 7.89067Z" fill="#2BB656"/>
<path id="Vector_4" d="M9.12244 5.84639C10.3342 5.84639 11.4027 5.11758 11.8449 3.98967C11.9157 3.80892 11.8267 3.60492 11.6459 3.53405C11.4651 3.46303 11.2611 3.55228 11.1902 3.73303C10.8544 4.58972 10.0428 5.14327 9.12244 5.14327C7.8983 5.14327 6.90234 4.14736 6.90234 2.92322C6.90234 1.69908 7.8983 0.703125 9.12244 0.703125C10.1127 0.703125 10.9916 1.368 11.2597 2.31989C11.3123 2.50678 11.5064 2.61558 11.6933 2.56298C11.8802 2.51039 11.9891 2.31619 11.9364 2.1293C11.5834 0.875625 10.4262 0 9.12244 0C7.51059 0 6.19922 1.31138 6.19922 2.92317C6.19922 4.53497 7.51059 5.84639 9.12244 5.84639Z" fill="#2BB656"/>
<path id="Vector_5" d="M9.12239 1.34766C8.25366 1.34766 7.54688 2.05439 7.54688 2.92308C7.54688 3.79177 8.25366 4.4985 9.12239 4.4985C9.99112 4.4985 10.6979 3.79177 10.6979 2.92308C10.6979 2.05439 9.99117 1.34766 9.12239 1.34766ZM9.12239 3.79542C8.64136 3.79542 8.25 3.40411 8.25 2.92313C8.25 2.44214 8.64136 2.05083 9.12239 2.05083C9.60342 2.05083 9.99478 2.44214 9.99478 2.92313C9.99478 3.40411 9.60347 3.79542 9.12239 3.79542Z" fill="#2BB656"/>
<path id="Vector_6" d="M4.64192 8.88541C5.51066 8.88541 6.21744 8.17867 6.21744 7.30994C6.21744 6.44116 5.51066 5.73438 4.64192 5.73438C3.77319 5.73438 3.06641 6.44116 3.06641 7.30994C3.06641 8.17867 3.77319 8.88541 4.64192 8.88541ZM4.64192 6.4375C5.12295 6.4375 5.51431 6.82891 5.51431 7.30994C5.51431 7.79097 5.12295 8.18228 4.64192 8.18228C4.16089 8.18228 3.76953 7.79092 3.76953 7.30994C3.76953 6.82886 4.16089 6.4375 4.64192 6.4375Z" fill="#2BB656"/>
<path id="Vector_7" d="M18.5013 7.29556C19.37 7.29556 20.0768 6.58878 20.0768 5.72005C20.0768 4.85131 19.37 4.14453 18.5013 4.14453C17.6326 4.14453 16.9258 4.85131 16.9258 5.72005C16.9258 6.58878 17.6326 7.29556 18.5013 7.29556ZM18.5013 4.84761C18.9823 4.84761 19.3737 5.23897 19.3737 5.72C19.3737 6.20103 18.9823 6.59239 18.5013 6.59239C18.0203 6.59239 17.6289 6.20103 17.6289 5.72C17.6289 5.23897 18.0203 4.84761 18.5013 4.84761Z" fill="#2BB656"/>
<path id="Vector_8" d="M13.4727 3.64844C13.6668 3.64844 13.8242 3.49104 13.8242 3.29688C13.8242 3.10271 13.6668 2.94531 13.4727 2.94531C13.2785 2.94531 13.1211 3.10271 13.1211 3.29688C13.1211 3.49104 13.2785 3.64844 13.4727 3.64844Z" fill="#2BB656"/>
<path id="Vector_9" d="M15.0352 4.95703C15.2293 4.95703 15.3867 4.79963 15.3867 4.60547C15.3867 4.41131 15.2293 4.25391 15.0352 4.25391C14.841 4.25391 14.6836 4.41131 14.6836 4.60547C14.6836 4.79963 14.841 4.95703 15.0352 4.95703Z" fill="#2BB656"/>
</g>
<defs>
<clipPath id="clip0_271_2515">
<rect width="24" height="24" fill="white"/>
</clipPath>
</defs>
</svg>
