<svg width="17" height="17" viewBox="0 0 17 17" fill="none" xmlns="http://www.w3.org/2000/svg">
<g id="fi_3135791" clip-path="url(#clip0_208_9448)">
<g id="Group">
<g id="Group_2">
<path id="Vector" d="M11.0522 2.08984H6.18359C6.05412 2.08984 5.94922 2.19475 5.94922 2.32422C5.94922 2.45369 6.05412 2.55859 6.18359 2.55859H11.0522C11.1816 2.55859 11.2865 2.45369 11.2865 2.32422C11.2865 2.19475 11.1816 2.08984 11.0522 2.08984Z" fill="#363430"/>
<path id="Vector_2" d="M11.0522 3.46094H6.18359C6.05412 3.46094 5.94922 3.56584 5.94922 3.69531C5.94922 3.82478 6.05412 3.92969 6.18359 3.92969H11.0522C11.1816 3.92969 11.2865 3.82478 11.2865 3.69531C11.2865 3.56584 11.1816 3.46094 11.0522 3.46094Z" fill="#363430"/>
<path id="Vector_3" d="M15.5372 8.60497H14.1458V7.95066C14.1458 7.08828 13.4442 6.38672 12.5818 6.38672H9.94678C9.08441 6.38672 8.38281 7.08828 8.38281 7.95066V8.60497H6.99141C6.29159 8.60497 5.72656 9.17237 5.72656 9.86981V15.2299C5.72656 15.9273 6.29397 16.4948 6.99141 16.4948H15.5372C16.2346 16.4948 16.802 15.9273 16.802 15.2299V14.2143C16.802 14.0848 16.6971 13.9799 16.5677 13.9799C16.4382 13.9799 16.3333 14.0848 16.3333 14.2143V15.2299C16.3333 15.6689 15.9762 16.026 15.5372 16.026H6.99141C6.55244 16.026 6.19531 15.6689 6.19531 15.2299V11.9081C6.56466 12.3635 7.12028 12.662 7.74509 12.6864V13.0442C7.74509 13.5165 8.12934 13.9008 8.60162 13.9008C9.07391 13.9008 9.45816 13.5165 9.45816 13.0442V12.688H13.0704V13.0442C13.0704 13.5165 13.4547 13.9008 13.9269 13.9008C14.3992 13.9008 14.7835 13.5165 14.7835 13.0442V12.6864C15.4083 12.662 15.9639 12.3635 16.3333 11.9081V13.1186C16.3333 13.248 16.4382 13.3529 16.5676 13.3529C16.6971 13.3529 16.802 13.248 16.802 13.1186V9.86975C16.802 9.17256 16.2372 8.60497 15.5372 8.60497ZM8.85156 7.95066C8.85156 7.34678 9.34288 6.85547 9.94678 6.85547H12.5818C13.1857 6.85547 13.677 7.34678 13.677 7.95066V8.60497H13.1889V7.95066C13.1889 7.61594 12.9166 7.34359 12.5818 7.34359H9.94678C9.61203 7.34359 9.33969 7.61594 9.33969 7.95066V8.60497H8.85156V7.95066ZM9.80844 8.60497V7.95066C9.80844 7.87441 9.87047 7.81234 9.94678 7.81234H12.5818C12.6581 7.81234 12.7202 7.87437 12.7202 7.95066V8.60497H9.80844ZM8.98941 13.0442C8.98941 13.2581 8.81547 13.432 8.60162 13.432C8.38778 13.432 8.21384 13.2581 8.21384 13.0442V12.2064C8.21384 11.9926 8.38778 11.8186 8.60162 11.8186C8.81547 11.8186 8.98941 11.9926 8.98941 12.2064V13.0442ZM14.3147 13.0442C14.3147 13.2581 14.1408 13.432 13.9269 13.432C13.7131 13.432 13.5392 13.2581 13.5392 13.0442V12.4561C13.5392 12.4552 13.5392 12.4544 13.5392 12.4537C13.5392 12.4529 13.5392 12.452 13.5392 12.4513V12.2064C13.5392 11.9926 13.7131 11.8187 13.9269 11.8187C14.1408 11.8187 14.3147 11.9926 14.3147 12.2064V13.0442ZM14.7835 12.2172V12.2064C14.7835 11.7342 14.3992 11.3499 13.9269 11.3499C13.4547 11.3499 13.0704 11.7342 13.0704 12.2064V12.2193H9.45816V12.2064C9.45816 11.7342 9.07391 11.3499 8.60162 11.3499C8.12934 11.3499 7.74509 11.7342 7.74509 12.2064V12.2172C6.88319 12.1738 6.19531 11.4589 6.19531 10.5864V9.86975C6.19531 9.43016 6.55159 9.07369 6.99141 9.07369H15.5372C15.9759 9.07369 16.3333 9.42903 16.3333 9.86978V10.5864C16.3333 11.4589 15.6454 12.1738 14.7835 12.2172Z" fill="#363430"/>
<path id="Vector_4" d="M5.42319 16.026H1.95981C1.57919 16.026 1.26953 15.7164 1.26953 15.3357V4.07784C1.26953 4.02725 1.27494 3.9775 1.2855 3.92922H3.41847C3.86381 3.92922 4.22613 3.56691 4.22613 3.12159V0.988625C4.27441 0.978094 4.32416 0.972656 4.37475 0.972656H12.3212C12.7019 0.972656 13.0115 1.28231 13.0115 1.66294V5.68425C13.0115 5.81372 13.1164 5.91862 13.2459 5.91862C13.3754 5.91862 13.4803 5.81372 13.4803 5.68425V1.66294C13.4803 1.02384 12.9603 0.503906 12.3212 0.503906H4.37472C4.06512 0.503906 3.77403 0.624438 3.55512 0.843344L1.14022 3.25828C0.921313 3.47719 0.800781 3.76825 0.800781 4.07784V15.3357C0.800781 15.9748 1.32072 16.4948 1.95981 16.4948H5.42319C5.55266 16.4948 5.65756 16.3899 5.65756 16.2604C5.65756 16.1309 5.55266 16.026 5.42319 16.026ZM3.75734 1.30412V3.12159C3.75734 3.30844 3.60531 3.46047 3.41844 3.46047H1.601L3.75734 1.30412Z" fill="#363430"/>
</g>
</g>
</g>
<defs>
<clipPath id="clip0_208_9448">
<rect width="16" height="16" fill="white" transform="translate(0.800781 0.5)"/>
</clipPath>
</defs>
</svg>
