<svg width="32" height="32" viewBox="0 0 32 32" fill="none" xmlns="http://www.w3.org/2000/svg">
<g id="fi_4300058" clip-path="url(#clip0_208_8544)">
<g id="Group">
<path id="Vector" d="M28.9214 23.8609C28.6716 23.8638 28.699 23.8517 28.3669 23.875V16.1049C28.3669 15.2733 27.6903 14.5968 26.8587 14.5968H23.0513C23.0492 14.5968 23.0472 14.5965 23.0452 14.5965H18.6607V2.89114L22.2566 6.36707C22.4599 6.56357 22.5764 6.83832 22.5764 7.12101V12.8556C22.5764 13.1145 22.7863 13.3244 23.0452 13.3244C23.3041 13.3244 23.5139 13.1145 23.5139 12.8556V7.12101C23.5139 6.58564 23.2932 6.06514 22.9082 5.69301L18.5177 1.44907C18.419 1.35645 18.2299 1.27332 18.0426 1.34176L10.1663 3.98926V2.16426C10.1722 1.36682 9.45669 0.672762 8.62438 0.721137C7.82831 0.721137 7.18062 1.36851 7.18062 2.16426V4.99282L5.11994 5.68551C4.3105 5.95764 3.76662 6.71414 3.76662 7.56814V23.8635C1.68069 23.9169 0 25.6291 0 27.7277V30.1113C0 30.7585 0.526437 31.2848 1.1735 31.2848H30.8264C31.4736 31.2848 31.9999 30.7584 31.9999 30.1113V26.9395C32 25.242 30.6189 23.8609 28.9214 23.8609ZM28.9214 24.7984C30.102 24.7984 31.0625 25.7589 31.0625 26.9395V27.4313H26.5156V26.9395C26.5167 25.6582 27.6425 24.6874 28.9214 24.7984ZM27.4294 16.1049V24.1168C26.341 24.592 25.5781 25.678 25.5781 26.9395V27.4312H18.6607V15.5343H26.8587C27.1734 15.5343 27.4294 15.7903 27.4294 16.1049ZM8.11812 2.16426C8.11812 1.88545 8.34525 1.65864 8.62438 1.65864C8.87506 1.62182 9.21263 1.81839 9.22875 2.16426V4.30439L8.11812 4.6777V2.16426ZM3.76669 24.8001V27.4313H0.952375C1.09819 25.9874 2.29688 24.8497 3.76669 24.8001ZM0.9375 30.1114V28.3688H3.76669V30.3474H1.17356C1.04338 30.3474 0.9375 30.2415 0.9375 30.1114ZM4.70419 7.56814C4.70419 7.11726 4.99131 6.71789 5.41869 6.5742L17.7232 2.4382V4.99226L7.5 8.4287C7.25462 8.51114 7.12256 8.77695 7.20506 9.02239C7.27087 9.21826 7.4535 9.34189 7.64931 9.34189C7.69881 9.34189 7.74919 9.33401 7.79875 9.31733L17.7232 5.98139V8.36608L7.5 11.8025C7.25462 11.885 7.12256 12.1508 7.20506 12.3961C7.27087 12.592 7.4535 12.7156 7.64931 12.7156C7.69881 12.7156 7.74919 12.7078 7.79875 12.6911L17.7232 9.35507V11.7398L7.5 15.1762C7.25462 15.2586 7.12256 15.5245 7.20506 15.7699C7.27087 15.9658 7.4535 16.0894 7.64931 16.0894C7.69881 16.0894 7.74919 16.0815 7.79875 16.0648L17.7232 12.7289V15.0638C17.7232 15.0644 17.7232 15.065 17.7232 15.0656V15.1136L7.5 18.5499C7.25462 18.6325 7.12256 18.8983 7.20506 19.1436C7.27087 19.3395 7.4535 19.4631 7.64931 19.4631C7.69881 19.4631 7.74919 19.4553 7.79875 19.4386L17.7231 16.1026V18.4873L11.3396 20.6331C11.0942 20.7155 10.9621 20.9813 11.0446 21.2268C11.1104 21.4226 11.2931 21.5463 11.4889 21.5463C11.5384 21.5463 11.5887 21.5384 11.6383 21.5217L17.7231 19.4763V30.3473H13.6736V25.4765C13.6736 25.1573 13.5278 24.8634 13.2734 24.6704C13.0191 24.4774 12.6969 24.4159 12.3894 24.5018L8.02644 25.7198C7.5285 25.8588 7.18075 26.3169 7.18075 26.8339V30.3473H4.70419V7.56814ZM8.11825 26.834C8.11825 26.736 8.18419 26.6491 8.2785 26.6228L9.95837 26.1538V30.3474H8.11819L8.11825 26.834ZM10.8959 30.3474V25.892L12.6414 25.4047C12.665 25.3981 12.687 25.4022 12.7066 25.4171C12.7261 25.432 12.7361 25.452 12.7361 25.4766V30.3474H10.8959ZM18.6607 30.3474V28.3688H25.5781V30.3474H18.6607ZM31.0625 30.1114C31.0625 30.2416 30.9566 30.3474 30.8265 30.3474H26.5156V28.3688H31.0625V30.1114Z" fill="#F57D34"/>
<path id="Vector_2" d="M7.6485 22.8353C7.698 22.8353 7.74838 22.8274 7.79794 22.8107L9.53832 22.2257C9.78369 22.1433 9.91575 21.8775 9.83325 21.6321C9.75075 21.3866 9.48494 21.2545 9.23956 21.3371L7.49919 21.9221C7.25381 22.0046 7.12175 22.2704 7.20425 22.5158C7.27006 22.7116 7.45269 22.8353 7.6485 22.8353Z" fill="#F57D34"/>
<path id="Vector_3" d="M20.7124 19.4008H25.3093C25.7452 19.4008 26.0999 19.0462 26.0999 18.6103V17.482C26.0999 17.046 25.7452 16.6914 25.3093 16.6914H20.7124C20.2764 16.6914 19.9219 17.046 19.9219 17.482V18.6103C19.9219 19.0462 20.2765 19.4008 20.7124 19.4008ZM20.8594 17.6289H25.1624V18.4633H20.8594V17.6289Z" fill="#F57D34"/>
<path id="Vector_4" d="M20.7124 22.9633H25.3093C25.7452 22.9633 26.0999 22.6087 26.0999 22.1727V21.0444C26.0999 20.6085 25.7452 20.2539 25.3093 20.2539H20.7124C20.2764 20.2539 19.9219 20.6085 19.9219 21.0444V22.1727C19.9219 22.6087 20.2765 22.9633 20.7124 22.9633ZM20.8594 21.1914H25.1624V22.0258H20.8594V21.1914Z" fill="#F57D34"/>
<path id="Vector_5" d="M20.7124 26.5648H22.2329C22.6688 26.5648 23.0234 26.2102 23.0234 25.7743V24.646C23.0234 24.2101 22.6688 23.8555 22.2329 23.8555H20.7124C20.2764 23.8555 19.9219 24.2101 19.9219 24.646V25.7743C19.9219 26.2102 20.2765 26.5648 20.7124 26.5648ZM20.8594 24.793H22.0859V25.6273H20.8594V24.793Z" fill="#F57D34"/>
</g>
</g>
<defs>
<clipPath id="clip0_208_8544">
<rect width="32" height="32" fill="white"/>
</clipPath>
</defs>
</svg>
