<svg width="32" height="32" viewBox="0 0 32 32" fill="none" xmlns="http://www.w3.org/2000/svg">
<g id="fi_8677126" clip-path="url(#clip0_199_8699)">
<g id="Layer_x0020_1">
<path id="Vector" fill-rule="evenodd" clip-rule="evenodd" d="M7.51548 22.6829C7.27177 22.6829 7.10306 22.4392 7.1593 22.2142L9.01518 14.7906C9.03393 14.7532 10.4212 11.1351 14.0392 12.1474C14.5079 12.2786 14.3204 13.0097 13.833 12.8785C10.9648 12.0724 9.84002 14.7532 9.72754 15.0343L7.8904 22.4017C7.85291 22.5704 7.68419 22.6829 7.51548 22.6829Z" fill="#F57D34"/>
<path id="Vector_2" fill-rule="evenodd" clip-rule="evenodd" d="M24.4611 22.6839C24.2924 22.6839 24.1424 22.5715 24.1049 22.4027L22.249 15.0354C22.1553 14.773 21.0305 12.111 18.2186 12.8609C17.7312 12.9733 17.5437 12.261 18.0311 12.1297C21.5929 11.1924 22.9427 14.7542 22.9614 14.7917L24.836 22.2153C24.8735 22.4402 24.7236 22.6839 24.4611 22.6839Z" fill="#F57D34"/>
<path id="Vector_3" fill-rule="evenodd" clip-rule="evenodd" d="M16.0453 12.1851H16.0266C13.9457 12.0351 12.3523 8.81078 12.2773 7.4048C11.9961 6.9174 10.8901 4.79906 11.6025 3.61804C11.7337 3.29936 13.2146 0.262449 16.0266 0H16.0828C18.876 0.262449 20.357 3.29936 20.507 3.61804C21.2006 4.79906 20.0945 6.9174 19.8133 7.4048C19.7384 8.81078 18.1449 12.0351 16.0828 12.1851C16.0641 12.1851 16.0641 12.1851 16.0453 12.1851ZM16.0453 0.749854C13.6083 0.993556 12.2773 3.95548 12.2398 3.99297C11.6774 4.94903 13.0272 7.04862 13.0272 7.31107C13.0272 8.39836 14.4706 11.304 16.0453 11.4353C17.6388 11.304 19.0822 8.39836 19.0822 7.31107C19.0822 6.99238 20.432 5.099 19.8321 3.93673C19.8133 3.91798 18.4636 0.993556 16.0453 0.749854Z" fill="#F57D34"/>
<path id="Vector_4" fill-rule="evenodd" clip-rule="evenodd" d="M12.6505 7.68648C12.3881 7.68648 12.1631 7.42404 12.3318 7.10535C12.9129 5.94307 13.2316 4.96826 13.1566 4.5371C13.1004 4.18092 13.5503 3.95596 13.794 4.19966C13.8315 4.23716 14.6001 4.98701 16.0436 5.00576C16.531 5.00576 16.531 5.77436 16.0436 5.75561C15.0688 5.73686 14.3377 5.43692 13.869 5.17447C13.719 5.96182 13.3441 6.73042 12.9879 7.48027C12.9129 7.6115 12.7817 7.68648 12.6505 7.68648Z" fill="#F57D34"/>
<path id="Vector_5" fill-rule="evenodd" clip-rule="evenodd" d="M19.4383 7.68545C19.2696 7.68545 19.1759 7.59172 19.1009 7.44175C18.7447 6.74813 18.3698 5.8858 18.2198 5.17344C17.7887 5.41714 16.9826 5.75457 16.0452 5.75457C15.5578 5.75457 15.5578 5.02347 16.0452 5.00472C18.0511 4.96723 18.2198 3.87994 18.726 4.14239C19.1946 4.38609 18.4823 4.66729 19.7758 7.1418C19.907 7.38551 19.7195 7.68545 19.4383 7.68545Z" fill="#F57D34"/>
<path id="Vector_6" fill-rule="evenodd" clip-rule="evenodd" d="M16.0448 15.8043C15.9324 15.8043 15.8199 15.7481 15.7449 15.6544L13.664 12.8799C13.5141 12.6737 13.5891 10.7991 13.5891 10.4241C13.5891 9.93674 14.3389 9.93674 14.3389 10.4241V12.5237L16.3448 15.2045C16.5322 15.4482 16.3448 15.8043 16.0448 15.8043Z" fill="#F57D34"/>
<path id="Vector_7" fill-rule="evenodd" clip-rule="evenodd" d="M16.0469 15.8043C15.7469 15.8043 15.5595 15.4482 15.7469 15.2045L17.7528 12.5425V10.4241C17.7528 9.93674 18.5026 9.93674 18.5026 10.4241C18.5026 10.7991 18.5776 12.6737 18.4277 12.8799L16.3468 15.6544C16.2718 15.7481 16.1594 15.8043 16.0469 15.8043Z" fill="#F57D34"/>
<path id="Vector_8" fill-rule="evenodd" clip-rule="evenodd" d="M16.0452 20.3945C15.7078 20.3945 15.5578 19.982 15.7827 19.7571L18.1635 17.3763V15.258C18.1635 15.1267 18.2198 14.9955 18.351 14.9393L19.4758 14.2832V12.4085C19.4758 11.9211 20.2256 11.9211 20.2256 12.4085V14.4894C20.2256 14.6393 20.1506 14.7518 20.0382 14.8268L18.9134 15.4829V17.545C18.9134 17.6388 18.8571 17.7325 18.8009 17.8075L16.3076 20.282C16.2327 20.357 16.1389 20.3945 16.0452 20.3945Z" fill="#F57D34"/>
<path id="Vector_9" fill-rule="evenodd" clip-rule="evenodd" d="M16.0468 22.6829C15.8406 22.6829 15.6719 22.5142 15.6719 22.308V15.4281C15.6719 14.9406 16.4217 14.9406 16.4217 15.4281V22.308C16.4217 22.5142 16.253 22.6829 16.0468 22.6829Z" fill="#F57D34"/>
<path id="Vector_10" fill-rule="evenodd" clip-rule="evenodd" d="M16.0445 20.3945C15.9508 20.3945 15.857 20.357 15.7821 20.282L13.3075 17.8075C13.2325 17.7325 13.1951 17.6388 13.1951 17.545V15.4829L12.0703 14.8268C11.9391 14.7518 11.8828 14.6393 11.8828 14.5081V12.4085C11.8828 11.9211 12.6327 11.9211 12.6327 12.4085V14.2832L13.7574 14.9393C13.8699 14.9955 13.9449 15.1267 13.9449 15.258V17.3763L16.3069 19.7571C16.5507 19.982 16.3819 20.3945 16.0445 20.3945Z" fill="#F57D34"/>
<path id="Vector_11" fill-rule="evenodd" clip-rule="evenodd" d="M29.9365 25.8891H2.06073C1.47959 25.8891 0.992188 25.4204 0.992188 24.8393V22.9834C0.992188 22.4023 1.47959 21.9336 2.06073 21.9336H29.9365C30.5177 21.9336 30.9863 22.4023 30.9863 22.9834V24.8393C30.9863 25.4204 30.5177 25.8891 29.9365 25.8891ZM2.06073 22.6834C1.89201 22.6834 1.74204 22.8147 1.74204 22.9834V24.8393C1.74204 25.008 1.89201 25.1392 2.06073 25.1392H29.9365C30.1053 25.1392 30.2365 25.008 30.2365 24.8393V22.9834C30.2365 22.8147 30.1053 22.6834 29.9365 22.6834H2.06073Z" fill="#F57D34"/>
<path id="Vector_12" fill-rule="evenodd" clip-rule="evenodd" d="M28.8317 31.9815H3.26165C3.05544 31.9815 2.88672 31.8128 2.88672 31.6066V25.514C2.88672 25.0266 3.63657 25.0266 3.63657 25.514V31.2316H28.4567V25.514C28.4567 25.0266 29.2066 25.0266 29.2066 25.514V31.6066C29.2066 31.8128 29.0379 31.9815 28.8317 31.9815Z" fill="#F57D34"/>
<path id="Vector_13" fill-rule="evenodd" clip-rule="evenodd" d="M7.4794 22.684C7.32943 22.684 7.17946 22.5903 7.12322 22.4403C6.33587 20.4157 2.96153 9.9365 10.4226 8.79297H13.197C13.6844 8.79297 13.6844 9.54282 13.197 9.54282H10.4976C9.0166 9.74903 7.91057 10.4239 7.25444 11.5487C5.13611 15.1292 7.79809 22.1029 7.83558 22.1779C7.92931 22.4216 7.74185 22.684 7.4794 22.684ZM24.5198 22.684C24.2574 22.684 24.0699 22.4216 24.1636 22.1779C24.2011 22.1029 26.8444 15.1292 24.7448 11.5487C24.0699 10.4239 22.9826 9.74903 21.5017 9.54282H18.8959C18.4085 9.54282 18.4085 8.79297 18.8959 8.79297H21.5766C29.0189 9.84276 25.6446 20.5094 24.8573 22.4403C24.801 22.5903 24.6698 22.684 24.5198 22.684Z" fill="#F57D34"/>
<path id="Vector_14" fill-rule="evenodd" clip-rule="evenodd" d="M24.595 28.6639H7.49837C7.01096 28.6639 7.01096 27.9141 7.49837 27.9141H24.595C25.0824 27.9141 25.1012 28.6639 24.595 28.6639Z" fill="#F57D34"/>
</g>
</g>
<defs>
<clipPath id="clip0_199_8699">
<rect width="32" height="32" fill="white"/>
</clipPath>
</defs>
</svg>
