<svg width="17" height="17" viewBox="0 0 17 17" fill="none" xmlns="http://www.w3.org/2000/svg">
<g id="fi_2600295" clip-path="url(#clip0_208_9484)">
<g id="Group">
<path id="Vector" d="M14.8009 8.90634C14.8009 5.47941 12.0129 2.69141 8.586 2.69141C7.73947 2.69141 6.91869 2.85866 6.14653 3.18853C6.02769 3.23928 5.9725 3.37678 6.02328 3.49563C6.07406 3.61447 6.21156 3.66966 6.33038 3.61888C6.80094 3.41788 7.29122 3.28263 7.79503 3.2135C6.26194 4.48594 5.31328 6.49956 5.24903 8.67247H2.84434C2.91869 6.82922 3.868 5.13728 5.41678 4.11147C5.5245 4.04009 5.554 3.89494 5.48266 3.78719C5.41128 3.67944 5.26606 3.65 5.15838 3.72131C3.41306 4.87728 2.37109 6.81563 2.37109 8.90637C2.37109 12.3333 5.15909 15.1213 8.58603 15.1213C12.013 15.1213 14.8009 12.3333 14.8009 8.90634ZM14.3278 8.67247H11.923C11.8588 6.49994 10.9104 4.48666 9.37781 3.21419C12.0978 3.59069 14.2154 5.87769 14.3278 8.67247ZM11.4495 10.6504C11.6211 11.161 11.9715 11.5741 12.4767 11.8624C11.9715 12.1507 11.6211 12.5638 11.4495 13.0744C11.2778 12.5638 10.9274 12.1507 10.4223 11.8624C10.9275 11.5741 11.2778 11.161 11.4495 10.6504ZM11.3003 10.0739C11.3003 10.0739 11.3003 10.0739 11.3003 10.0739V10.0739ZM10.8059 9.14044H11.4546C11.4486 9.33616 11.4355 9.53144 11.4146 9.72516C11.2845 9.73953 11.1758 9.83303 11.1441 9.96269L11.0468 10.36C10.881 11.0372 10.3685 11.3907 9.96778 11.568C9.76316 11.6582 9.70369 12.0301 9.96778 12.1568C10.3685 12.3341 10.881 12.6876 11.0468 13.3648L11.1441 13.7621C11.1665 13.8536 11.2272 13.9269 11.3067 13.9674C10.7192 14.2844 10.0707 14.5019 9.38366 14.5977C9.73159 14.3084 10.0526 13.9785 10.3426 13.6112C10.4226 13.5097 10.4053 13.3626 10.3039 13.2825C10.2025 13.2025 10.0554 13.2198 9.97528 13.3212C9.63341 13.7542 9.24584 14.1308 8.82 14.4451V9.14044H9.683C9.81222 9.14044 9.91697 9.03569 9.91697 8.90647C9.91697 8.77725 9.81222 8.6725 9.683 8.6725H8.82V3.37234C10.3985 4.53766 11.3871 6.51862 11.4546 8.67247H10.8059C10.6767 8.67247 10.572 8.77722 10.572 8.90644C10.572 9.03566 10.6767 9.14044 10.8059 9.14044ZM8.35203 14.4443C6.77259 13.2783 5.78369 11.2957 5.71725 9.14044H8.35203V14.4443ZM8.35203 3.37234V8.67247H5.71741C5.78491 6.51862 6.77347 4.53766 8.35203 3.37234ZM2.84419 9.14044H5.24894C5.31209 11.3117 6.25844 13.3243 7.78859 14.5977C5.07141 14.2189 2.95669 11.9332 2.84419 9.14044ZM11.7735 13.6859L11.8521 13.3647C12.0179 12.6876 12.5304 12.3341 12.9312 12.1568C13.1357 12.0666 13.1952 11.6947 12.9312 11.5679C12.5304 11.3907 12.0179 11.0372 11.8521 10.36L11.8183 10.222C11.8773 9.86681 11.9123 9.50431 11.9227 9.14041H14.3278C14.2516 11.0342 13.2548 12.6948 11.7735 13.6859Z" fill="#9C9A96"/>
<path id="Vector_2" d="M16.4597 2.98141C16.4486 2.974 16.4369 2.96753 16.4246 2.96213C16.0239 2.78484 15.5114 2.43134 15.3456 1.75416L15.2484 1.35684C15.2138 1.21575 15.0882 1.11719 14.9429 1.11719C14.7977 1.11719 14.6721 1.21572 14.6375 1.35684L14.5403 1.75416C14.3745 2.43134 13.862 2.78484 13.4613 2.96213C13.2773 3.03741 13.1902 3.42747 13.4613 3.55097C13.862 3.72825 14.3745 4.08175 14.5403 4.75894L14.6375 5.15628C14.6721 5.29738 14.7977 5.39594 14.9429 5.39594C15.0882 5.39594 15.2138 5.29741 15.2484 5.15628L15.3456 4.75897C15.5114 4.08178 16.0239 3.72828 16.4247 3.551C16.6172 3.46369 16.6867 3.13303 16.4597 2.98141ZM14.9429 4.46853C14.7713 3.95791 14.4209 3.54484 13.9157 3.25653C14.4209 2.96822 14.7714 2.55516 14.9429 2.04453C15.1145 2.55516 15.4649 2.96822 15.9701 3.25653C15.4649 3.54487 15.1146 3.95794 14.9429 4.46853Z" fill="#9C9A96"/>
<path id="Vector_3" d="M15.0088 14.2497C14.9977 14.2423 14.986 14.2358 14.9737 14.2304C14.6484 14.0865 14.4462 13.8614 14.3727 13.5615L14.3138 13.321C14.2828 13.1941 14.1699 13.1055 14.0393 13.1055H14.0393C13.9087 13.1055 13.7958 13.1941 13.7647 13.3209L13.7058 13.5615C13.6324 13.8614 13.4302 14.0865 13.1048 14.2304C12.9277 14.3059 12.8593 14.6371 13.1048 14.7558C13.4302 14.8998 13.6324 15.1248 13.7058 15.4247L13.7647 15.6654C13.7958 15.7922 13.9087 15.8808 14.0393 15.8808C14.1699 15.8808 14.2828 15.7922 14.3139 15.6653L14.3728 15.4248C14.4462 15.1248 14.6484 14.8998 14.9738 14.7558C15.1376 14.6825 15.2176 14.3953 15.0088 14.2497ZM13.8593 13.4322L13.8593 13.4324C13.8593 13.4323 13.8593 13.4322 13.8593 13.4322C13.8593 13.4322 13.8593 13.4322 13.8593 13.4322ZM14.0392 14.9928C13.9354 14.7961 13.7844 14.628 13.5904 14.4931C13.7843 14.3582 13.9354 14.19 14.0392 13.9933C14.1431 14.1901 14.2942 14.3582 14.4881 14.4931C14.2942 14.628 14.1431 14.7961 14.0392 14.9928Z" fill="#9C9A96"/>
<path id="Vector_4" d="M2.66519 5.79516C2.81372 5.70025 2.85953 5.40103 2.63009 5.28906C2.30469 5.14509 2.1025 4.92003 2.02906 4.62012L1.97016 4.37956C1.93909 4.25269 1.82616 4.16406 1.69553 4.16406C1.56494 4.16409 1.452 4.25272 1.421 4.37956L1.36209 4.62012C1.28866 4.92006 1.08644 5.14513 0.761062 5.28906C0.583999 5.3645 0.515531 5.69572 0.761062 5.81444C1.08644 5.95837 1.28862 6.18344 1.36206 6.48338L1.42094 6.72391C1.45197 6.85078 1.56487 6.93941 1.69547 6.93941C1.82606 6.93941 1.939 6.85081 1.97006 6.72394L2.02897 6.48338C2.10237 6.18344 2.30459 5.95841 2.62997 5.81444C2.64228 5.809 2.65403 5.80256 2.66519 5.79516ZM1.69559 6.05147C1.59172 5.85475 1.44069 5.68659 1.24675 5.55172C1.44069 5.41688 1.59175 5.24869 1.69559 5.05197C1.79944 5.24866 1.9505 5.41688 2.14444 5.55172C1.95047 5.68659 1.79944 5.85478 1.69559 6.05147Z" fill="#9C9A96"/>
</g>
</g>
<defs>
<clipPath id="clip0_208_9484">
<rect width="16" height="16" fill="white" transform="translate(0.601562 0.5)"/>
</clipPath>
</defs>
</svg>
