<svg width="24" height="24" viewBox="0 0 24 24" fill="none" xmlns="http://www.w3.org/2000/svg">
<g id="Idea" clip-path="url(#clip0_208_7616)">
<g id="Group">
<g id="Group_2">
<path id="Vector" d="M10.4856 5.84756C8.23437 6.37246 6.42213 8.15779 5.86873 10.3959C5.31359 12.6412 5.94893 14.9297 7.56837 16.5178C8.14118 17.0796 8.48323 17.98 8.48323 18.9265V19.0776C8.48323 19.7008 8.75515 20.2616 9.18635 20.6481V21.8901C9.18635 23.0532 10.1326 23.9994 11.2957 23.9994H12.702C13.8651 23.9994 14.8114 23.0532 14.8114 21.8901V20.6481C15.2426 20.2616 15.5145 19.7009 15.5145 19.0776V18.9237C15.5145 17.9916 15.8748 17.0741 16.4784 16.4693C17.6704 15.2746 18.327 13.6872 18.327 11.9994C18.327 7.96448 14.5878 4.8914 10.4856 5.84756ZM13.4051 21.8901C13.4051 22.2778 13.0897 22.5932 12.702 22.5932H11.2957C10.908 22.5932 10.5926 22.2778 10.5926 21.8901V21.1869H13.4051V21.8901ZM15.4829 15.476C14.6093 16.3514 14.1082 17.6081 14.1082 18.9237V19.0776C14.1082 19.4653 13.7928 19.7807 13.4051 19.7807H10.5926C10.2049 19.7807 9.88948 19.4653 9.88948 19.0776V18.9265C9.88948 17.5906 9.4023 16.3467 8.55293 15.5138C7.29246 14.2777 6.79938 12.4907 7.23382 10.7334C7.66155 9.00342 9.0633 7.62313 10.8049 7.2171C14.0239 6.46649 16.9207 8.86949 16.9207 11.9994C16.9207 13.3121 16.4101 14.5468 15.4829 15.476Z" fill="#FFBC00"/>
</g>
</g>
<g id="Group_3">
<g id="Group_4">
<path id="Vector_2" d="M6.53282 5.53841L4.54405 3.5497C4.26951 3.2751 3.82429 3.2751 3.5497 3.5497C3.2751 3.82429 3.2751 4.26946 3.5497 4.54405L5.53846 6.53277C5.81301 6.80737 6.25827 6.80737 6.53282 6.53277C6.80741 6.25818 6.80741 5.81301 6.53282 5.53841Z" fill="#FFBC00"/>
</g>
</g>
<g id="Group_5">
<g id="Group_6">
<path id="Vector_3" d="M3.5625 11.2969H0.703125C0.314812 11.2969 0 11.6117 0 12C0 12.3883 0.314812 12.7031 0.703125 12.7031H3.5625C3.95081 12.7031 4.26562 12.3883 4.26562 12C4.26562 11.6117 3.95081 11.2969 3.5625 11.2969Z" fill="#FFBC00"/>
</g>
</g>
<g id="Group_7">
<g id="Group_8">
<path id="Vector_4" d="M23.2969 11.2969H20.4375C20.0492 11.2969 19.7344 11.6117 19.7344 12C19.7344 12.3883 20.0492 12.7031 20.4375 12.7031H23.2969C23.6852 12.7031 24 12.3883 24 12C24 11.6117 23.6852 11.2969 23.2969 11.2969Z" fill="#FFBC00"/>
</g>
</g>
<g id="Group_9">
<g id="Group_10">
<path id="Vector_5" d="M20.4508 3.5497C20.1763 3.2751 19.7311 3.2751 19.4564 3.5497L17.4677 5.53841C17.1931 5.81296 17.1931 6.25818 17.4677 6.53277C17.7422 6.80737 18.1874 6.80737 18.462 6.53277L20.4508 4.54405C20.7254 4.26951 20.7254 3.82429 20.4508 3.5497Z" fill="#FFBC00"/>
</g>
</g>
<g id="Group_11">
<g id="Group_12">
<path id="Vector_6" d="M12 0C11.6117 0 11.2969 0.314812 11.2969 0.703125V3.5625C11.2969 3.95081 11.6117 4.26562 12 4.26562C12.3883 4.26562 12.7031 3.95081 12.7031 3.5625V0.703125C12.7031 0.314812 12.3883 0 12 0Z" fill="#FFBC00"/>
</g>
</g>
<g id="Group_13">
<g id="Group_14">
<path id="Vector_7" d="M11.9991 8.48438C11.7101 8.48438 11.4157 8.51902 11.1245 8.58722C9.91212 8.8702 8.89714 9.86822 8.59896 11.0706C8.5055 11.4475 8.73523 11.8288 9.11211 11.9223C9.48907 12.0158 9.87036 11.786 9.96382 11.4091C10.1354 10.7174 10.7442 10.1201 11.4447 9.95653C11.6314 9.9128 11.818 9.89062 11.9991 9.89062C12.3874 9.89062 12.7023 9.57581 12.7023 9.1875C12.7023 8.79919 12.3874 8.48438 11.9991 8.48438Z" fill="#FFBC00"/>
</g>
</g>
</g>
<defs>
<clipPath id="clip0_208_7616">
<rect width="24" height="24" fill="white"/>
</clipPath>
</defs>
</svg>
