<svg width="32" height="32" viewBox="0 0 32 32" fill="none" xmlns="http://www.w3.org/2000/svg">
<g id="Section Icon" clip-path="url(#clip0_271_3099)">
<path id="Vector" d="M1.99961 2.17772C-0.515052 4.78972 -0.000385359 7.56439 -0.000385359 15.9937C-0.000385359 22.9937 -1.22172 30.0111 5.17028 31.6631C7.16628 32.1764 24.8516 32.1764 26.8449 31.6604C29.5063 30.9737 31.6716 28.8151 31.9676 25.0511C32.0089 24.5257 32.0089 7.47105 31.9663 6.93505C31.6516 2.92572 29.1836 0.615054 25.9316 0.147054C25.1863 0.0390541 25.0369 0.00705405 21.2129 0.000387382C7.64895 0.00705405 4.67561 -0.596946 1.99961 2.17772Z" fill="url(#paint0_linear_271_3099)"/>
<path id="Vector_2" d="M15.9958 4.18718C11.1545 4.18718 6.55712 3.75652 4.80112 8.26318C4.07578 10.1245 4.18112 12.5419 4.18112 16.0032C4.18112 19.0405 4.08378 21.8952 4.80112 23.7419C6.55312 28.2512 11.1878 27.8192 15.9931 27.8192C20.6291 27.8192 25.4091 28.3019 27.1865 23.7419C27.9131 21.8619 27.8065 19.4805 27.8065 16.0032C27.8065 11.3872 28.0611 8.40718 25.8225 6.16985C23.5558 3.90318 20.4905 4.18718 15.9905 4.18718H15.9958ZM14.9371 6.31652C25.0358 6.30052 26.3211 5.17785 25.6118 20.7739C25.3598 26.2899 21.1598 25.6845 15.9971 25.6845C6.58378 25.6845 6.31312 25.4152 6.31312 15.9979C6.31312 6.47118 7.05978 6.32185 14.9371 6.31385V6.31652ZM22.3025 8.27785C21.5198 8.27785 20.8851 8.91252 20.8851 9.69518C20.8851 10.4779 21.5198 11.1125 22.3025 11.1125C23.0851 11.1125 23.7198 10.4779 23.7198 9.69518C23.7198 8.91252 23.0851 8.27785 22.3025 8.27785ZM15.9958 9.93518C12.6451 9.93518 9.92912 12.6525 9.92912 16.0032C9.92912 19.3539 12.6451 22.0699 15.9958 22.0699C19.3465 22.0699 22.0611 19.3539 22.0611 16.0032C22.0611 12.6525 19.3465 9.93518 15.9958 9.93518ZM15.9958 12.0645C21.2024 12.0645 21.2091 19.9419 15.9958 19.9419C10.7905 19.9419 10.7825 12.0645 15.9958 12.0645Z" fill="white"/>
</g>
<defs>
<linearGradient id="paint0_linear_271_3099" x1="2.06097" y1="29.9565" x2="31.8016" y2="4.21635" gradientUnits="userSpaceOnUse">
<stop stop-color="#FFDD55"/>
<stop offset="0.5" stop-color="#FF543E"/>
<stop offset="1" stop-color="#C837AB"/>
</linearGradient>
<clipPath id="clip0_271_3099">
<rect width="32" height="32" fill="white"/>
</clipPath>
</defs>
</svg>
