<svg width="48" height="49" viewBox="0 0 48 49" fill="none" xmlns="http://www.w3.org/2000/svg">
<g id="fi_3655710" clip-path="url(#clip0_743_9612)">
<g id="Group">
<path id="Vector" d="M33.1126 31.1693L29.6236 31.1641L29.6215 32.5731L33.1115 32.5783C33.5132 32.5783 33.816 32.861 33.816 33.2359V46.3865C33.816 46.7751 33.5001 47.091 33.1115 47.091H7.74951V48.5H33.1115C34.277 48.5 35.2251 47.552 35.2251 46.3865V33.2359C35.2251 32.0771 34.2967 31.1693 33.1126 31.1693Z" fill="#F4C4F7"/>
<path id="Vector_2" d="M14.7945 35.3496H16.2035V36.7586H14.7945V35.3496Z" fill="#F4C4F7"/>
<path id="Vector_3" d="M17.6125 35.3496H19.0216V36.7586H17.6125V35.3496Z" fill="#F4C4F7"/>
<path id="Vector_4" d="M20.4305 35.3496H21.8395V36.7586H20.4305V35.3496Z" fill="#F4C4F7"/>
<path id="Vector_5" d="M11.9765 35.3496H13.3855V36.7586H11.9765V35.3496Z" fill="#F4C4F7"/>
<path id="Vector_6" d="M9.15851 35.3496H10.5675V36.7586H9.15851V35.3496Z" fill="#F4C4F7"/>
<path id="Vector_7" d="M3.52252 35.3496H4.93152V36.7586H3.52252V35.3496Z" fill="#F4C4F7"/>
<path id="Vector_8" d="M23.2485 35.3496H24.6575V36.7586H23.2485V35.3496Z" fill="#F4C4F7"/>
<path id="Vector_9" d="M6.34052 35.3496H7.74952V36.7586H6.34052V35.3496Z" fill="#F4C4F7"/>
<path id="Vector_10" d="M6.34052 39.1064H7.74952V40.5154H6.34052V39.1064Z" fill="#F4C4F7"/>
<path id="Vector_11" d="M11.9765 39.1064H13.3855V40.5154H11.9765V39.1064Z" fill="#F4C4F7"/>
<path id="Vector_12" d="M9.15851 39.1064H10.5675V40.5154H9.15851V39.1064Z" fill="#F4C4F7"/>
<path id="Vector_13" d="M14.7945 39.1064H16.2035V40.5154H14.7945V39.1064Z" fill="#F4C4F7"/>
<path id="Vector_14" d="M3.52252 39.1064H4.93152V40.5154H3.52252V39.1064Z" fill="#F4C4F7"/>
<path id="Vector_15" d="M17.6125 39.1064H19.0216V40.5154H17.6125V39.1064Z" fill="#F4C4F7"/>
<path id="Vector_16" d="M20.4305 39.1064H21.8395V40.5154H20.4305V39.1064Z" fill="#F4C4F7"/>
<path id="Vector_17" d="M23.2485 39.1064H24.6575V40.5154H23.2485V39.1064Z" fill="#F4C4F7"/>
<path id="Vector_18" d="M6.34052 42.8643H21.9335V44.2733H6.34052V42.8643Z" fill="#F4C4F7"/>
<path id="Vector_19" d="M23.3425 42.8643H24.7515V44.2733H23.3425V42.8643Z" fill="#F4C4F7"/>
<path id="Vector_20" d="M3.52252 42.8643H4.93152V44.2733H3.52252V42.8643Z" fill="#F4C4F7"/>
<path id="Vector_21" d="M45.4168 33.0014H43.3033V29.6668C43.3033 28.2424 42.1446 27.0836 40.7202 27.0836H27.9452C27.2977 27.0836 26.771 26.557 26.771 25.9095V24.4535H42.5519V12.7588H41.1429V23.0445H14.3249V24.4535H21.6047V25.9095C21.6047 26.557 21.078 27.0836 20.4305 27.0836H11.9765C10.5521 27.0836 9.39335 28.2424 9.39335 29.6668V31.1338L2.1135 31.1228C0.94807 31.1228 0 32.0709 0 33.2363V46.387C0 47.5524 0.94807 48.5005 2.1135 48.5005H6.34051V47.0915H2.1135C1.72499 47.0915 1.409 46.7755 1.409 46.387V33.2363C1.409 32.8478 1.72499 32.5318 2.11247 32.5318L28.2125 32.5713L28.2146 31.1623L10.8023 31.1359V29.6668C10.8023 29.0193 11.329 28.4926 11.9765 28.4926H20.4305C21.8549 28.4926 23.0137 27.3339 23.0137 25.9095V24.4535H25.362V25.9095C25.362 27.3339 26.5208 28.4926 27.9452 28.4926H40.7202C41.3676 28.4926 41.8943 29.0193 41.8943 29.6668V33.0014H39.7808C38.3564 33.0014 37.1977 34.1602 37.1977 35.5846V45.9173C37.1977 47.3417 38.3564 48.5005 39.7808 48.5005H45.4168C46.8412 48.5005 48 47.3417 48 45.9173V35.5846C48 34.1602 46.8412 33.0014 45.4168 33.0014ZM38.6067 35.5846C38.6067 34.9371 39.1333 34.4105 39.7808 34.4105H41.8943V37.6981H38.6067V35.5846ZM46.591 45.9173C46.591 46.5648 46.0643 47.0915 45.4168 47.0915H39.7808C39.1333 47.0915 38.6067 46.5648 38.6067 45.9173V39.1071H46.591V45.9173ZM46.591 37.6981H43.3033V34.4105H45.4168C46.0643 34.4105 46.591 34.9371 46.591 35.5846V37.6981Z" fill="#F4C4F7"/>
<path id="Vector_22" d="M12.1644 5.29102H21.5577V6.70002H12.1644V5.29102Z" fill="#F4C4F7"/>
<path id="Vector_23" d="M12.1644 8.1084H16.861V9.5174H12.1644V8.1084Z" fill="#F4C4F7"/>
<path id="Vector_24" d="M12.9158 23.044H6.85712V5.66634H9.01759V21.635H38.9824V5.66634H41.1428V11.3493H42.5518V4.25734H38.9824V0.5H27.7573C26.1809 0.5 24.7939 1.32248 24 2.56015C23.2061 1.32248 21.819 0.5 20.2426 0.5H9.01759V4.25734H5.44812V24.453H12.9158V23.044ZM24.7045 4.96184C24.7045 3.27855 26.074 1.909 27.7573 1.909H37.5734V14.59H27.7573C26.5771 14.59 25.5033 15.0514 24.7045 15.8023V4.96184ZM24.7045 19.0519C24.7045 17.3686 26.074 15.999 27.7573 15.999H37.5734V20.226H24.7045V19.0519ZM10.4266 1.909H20.2426C21.9259 1.909 23.2955 3.27855 23.2955 4.96184V15.8023C22.4967 15.0514 21.4228 14.59 20.2426 14.59H10.4266V1.909ZM10.4266 15.999H20.2426C21.9259 15.999 23.2955 17.3686 23.2955 19.0519V20.226H10.4266V15.999Z" fill="#F4C4F7"/>
<path id="Vector_25" d="M26.4423 5.29102H35.8356V6.70002H26.4423V5.29102Z" fill="#F4C4F7"/>
<path id="Vector_26" d="M26.4423 8.1084H31.1389V9.5174H26.4423V8.1084Z" fill="#F4C4F7"/>
<path id="Vector_27" d="M27.4755 35.3496H28.8845V36.7586H27.4755V35.3496Z" fill="#F4C4F7"/>
<path id="Vector_28" d="M30.2935 35.3496H31.7025V36.7586H30.2935V35.3496Z" fill="#F4C4F7"/>
<path id="Vector_29" d="M27.4755 39.1064H28.8845V40.5154H27.4755V39.1064Z" fill="#F4C4F7"/>
<path id="Vector_30" d="M30.2935 39.1064H31.7025V40.5154H30.2935V39.1064Z" fill="#F4C4F7"/>
<path id="Vector_31" d="M18.2701 8.1084H19.6791V9.5174H18.2701V8.1084Z" fill="#F4C4F7"/>
<path id="Vector_32" d="M32.548 8.1084H33.957V9.5174H32.548V8.1084Z" fill="#F4C4F7"/>
</g>
</g>
<defs>
<clipPath id="clip0_743_9612">
<rect width="48" height="48" fill="white" transform="translate(0 0.5)"/>
</clipPath>
</defs>
</svg>
