<svg width="48" height="49" viewBox="0 0 48 49" fill="none" xmlns="http://www.w3.org/2000/svg">
<g id="fi_3001217">
<path id="Vector" d="M30.75 35C30.5511 35 30.3603 35.079 30.2197 35.2197C30.079 35.3603 30 35.5511 30 35.75V41C29.9993 41.5965 29.7621 42.1685 29.3403 42.5903C28.9185 43.0121 28.3465 43.2493 27.75 43.25H11.25C10.6535 43.2493 10.0815 43.0121 9.65973 42.5903C9.23792 42.1685 9.00066 41.5965 9 41V8C9.00066 7.40346 9.23792 6.83155 9.65973 6.40973C10.0815 5.98792 10.6535 5.75066 11.25 5.75H13.7863L15.0791 8.33547C15.1414 8.46005 15.2372 8.56482 15.3557 8.63803C15.4742 8.71125 15.6107 8.75002 15.75 8.75H23.25C23.3893 8.75002 23.5258 8.71125 23.6443 8.63803C23.7628 8.56482 23.8586 8.46005 23.9209 8.33547L25.2136 5.75H27.75C28.3465 5.75066 28.9185 5.98792 29.3403 6.40973C29.7621 6.83155 29.9993 7.40346 30 8V11.75C30 11.9489 30.079 12.1397 30.2197 12.2803C30.3603 12.421 30.5511 12.5 30.75 12.5C30.9489 12.5 31.1397 12.421 31.2803 12.2803C31.421 12.1397 31.5 11.9489 31.5 11.75V8C31.4988 7.0058 31.1034 6.05265 30.4004 5.34964C29.6973 4.64664 28.7442 4.25117 27.75 4.25H11.25C10.2558 4.25117 9.30265 4.64664 8.59964 5.34964C7.89664 6.05265 7.50117 7.0058 7.5 8V41C7.50117 41.9942 7.89664 42.9473 8.59964 43.6504C9.30265 44.3534 10.2558 44.7488 11.25 44.75H27.75C28.7442 44.7488 29.6973 44.3534 30.4004 43.6504C31.1034 42.9473 31.4988 41.9942 31.5 41V35.75C31.5 35.5511 31.421 35.3603 31.2803 35.2197C31.1397 35.079 30.9489 35 30.75 35ZM23.5364 5.75L22.7864 7.25H16.2136L15.4637 5.75H23.5364Z" fill="#F4C4F7"/>
<path id="Vector_2" d="M17.25 41.75H21.75C21.9489 41.75 22.1397 41.671 22.2803 41.5303C22.421 41.3897 22.5 41.1989 22.5 41C22.5 40.8011 22.421 40.6103 22.2803 40.4697C22.1397 40.329 21.9489 40.25 21.75 40.25H17.25C17.0511 40.25 16.8603 40.329 16.7197 40.4697C16.579 40.6103 16.5 40.8011 16.5 41C16.5 41.1989 16.579 41.3897 16.7197 41.5303C16.8603 41.671 17.0511 41.75 17.25 41.75Z" fill="#F4C4F7"/>
<path id="Vector_3" d="M30.75 13.25C28.9248 13.2499 27.1311 13.7256 25.5459 14.6302C23.9606 15.5348 22.6385 16.837 21.71 18.4084C20.7816 19.9798 20.2788 21.7661 20.2512 23.5911C20.2237 25.4161 20.6723 27.2167 21.553 28.8154L19.567 33.1902C19.5152 33.3044 19.4929 33.4298 19.5021 33.5549C19.5113 33.68 19.5517 33.8008 19.6196 33.9063C19.6876 34.0117 19.7809 34.0984 19.891 34.1585C20.0011 34.2185 20.1246 34.25 20.25 34.25C20.3114 34.2501 20.3725 34.2425 20.432 34.2275L25.649 32.9216C27.0501 33.7009 28.611 34.149 30.2121 34.2315C31.8132 34.3139 33.4119 34.0285 34.8856 33.3972C36.3593 32.766 37.6688 31.8055 38.7137 30.5896C39.7587 29.3736 40.5112 27.9345 40.9136 26.3826C41.316 24.8308 41.3576 23.2073 41.0353 21.6368C40.7129 20.0664 40.0351 18.5906 39.0539 17.3227C38.0726 16.0548 36.814 15.0286 35.3746 14.3226C33.9352 13.6166 32.3532 13.2497 30.75 13.25ZM30.75 32.75C29.1295 32.7523 27.539 32.3125 26.15 31.4778C26.0331 31.4073 25.8991 31.37 25.7625 31.37C25.7011 31.3699 25.64 31.3774 25.5805 31.3925L21.5755 32.3945L23.078 29.0847C23.1282 28.974 23.1507 28.8528 23.1437 28.7315C23.1367 28.6101 23.1003 28.4923 23.0377 28.3882C22.0132 26.6844 21.5816 24.6893 21.8103 22.7144C22.0391 20.7395 22.9153 18.896 24.3022 17.4715C25.6891 16.0471 27.5087 15.122 29.4768 14.8406C31.4448 14.5592 33.4507 14.9374 35.1812 15.9161C36.9117 16.8949 38.2694 18.419 39.0424 20.2507C39.8154 22.0824 39.9602 24.1184 39.4541 26.041C38.948 27.9636 37.8195 29.6646 36.2449 30.8783C34.6703 32.092 32.7381 32.7501 30.75 32.75Z" fill="#F4C4F7"/>
<path id="Vector_4" d="M36 22.25H33V19.25C33 19.0511 32.921 18.8603 32.7803 18.7197C32.6397 18.579 32.4489 18.5 32.25 18.5H29.25C29.0511 18.5 28.8603 18.579 28.7197 18.7197C28.579 18.8603 28.5 19.0511 28.5 19.25V22.25H25.5C25.3011 22.25 25.1103 22.329 24.9697 22.4697C24.829 22.6103 24.75 22.8011 24.75 23V26C24.75 26.1989 24.829 26.3897 24.9697 26.5303C25.1103 26.671 25.3011 26.75 25.5 26.75H28.5V29.75C28.5 29.9489 28.579 30.1397 28.7197 30.2803C28.8603 30.421 29.0511 30.5 29.25 30.5H32.25C32.4489 30.5 32.6397 30.421 32.7803 30.2803C32.921 30.1397 33 29.9489 33 29.75V26.75H36C36.1989 26.75 36.3897 26.671 36.5303 26.5303C36.671 26.3897 36.75 26.1989 36.75 26V23C36.75 22.8011 36.671 22.6103 36.5303 22.4697C36.3897 22.329 36.1989 22.25 36 22.25ZM35.25 25.25H32.25C32.0511 25.25 31.8603 25.329 31.7197 25.4697C31.579 25.6103 31.5 25.8011 31.5 26V29H30V26C30 25.8011 29.921 25.6103 29.7803 25.4697C29.6397 25.329 29.4489 25.25 29.25 25.25H26.25V23.75H29.25C29.4489 23.75 29.6397 23.671 29.7803 23.5303C29.921 23.3897 30 23.1989 30 23V20H31.5V23C31.5 23.1989 31.579 23.3897 31.7197 23.5303C31.8603 23.671 32.0511 23.75 32.25 23.75H35.25V25.25Z" fill="#F4C4F7"/>
</g>
</svg>
