<svg width="48" height="49" viewBox="0 0 48 49" fill="none" xmlns="http://www.w3.org/2000/svg">
<g id="fi_3253572" clip-path="url(#clip0_743_9710)">
<g id="Group">
<path id="Vector" d="M47.2969 47.0941H45.119V31.6953C45.119 31.3069 44.8042 30.9922 44.4158 30.9922H37.105V24.4059C37.105 23.3785 35.4146 23.6028 35.6988 24.5996V47.0941H29.0911V19.6687V15.301H35.6988V20.4636C35.4329 21.3964 37.105 21.7826 37.105 20.6579V14.5977C37.105 14.2093 36.7903 13.8946 36.4019 13.8946H35.8792V11.1875C35.8792 10.7991 35.5645 10.4844 35.1761 10.4844H29.6137C29.2253 10.4844 28.9106 10.7991 28.9106 11.1875V13.8946H28.3879C27.9995 13.8946 27.6847 14.2093 27.6847 14.5977V18.9655H20.3739C19.9856 18.9655 19.6708 19.2802 19.6708 19.6686V28.1294H13.0631V25.5947C13.0631 25.2063 12.7483 24.8916 12.36 24.8916H11.7727V24.0825C11.7727 22.4379 10.6057 21.0611 9.05615 20.7358V16.2044C9.05615 15.816 8.74134 15.5013 8.35303 15.5013C7.96472 15.5013 7.6499 15.816 7.6499 16.2044V20.7358C6.1004 21.061 4.93331 22.4379 4.93331 24.0825V24.8916H4.34606C3.95775 24.8916 3.64293 25.2063 3.64293 25.5947V40.7256C3.64293 41.6347 5.04918 41.6347 5.04918 40.7256V26.2979H11.6569V47.0941H5.049V44.4637C5.049 43.5546 3.64275 43.5546 3.64275 44.4637V47.0941H0.703122C-0.205972 47.0941 -0.205972 48.5004 0.703122 48.5004H47.2969C48.206 48.5004 48.206 47.0941 47.2969 47.0941ZM6.33947 24.0826C6.33947 22.9724 7.24275 22.0692 8.35293 22.0692C9.46312 22.0692 10.3664 22.9724 10.3664 24.0826V24.8737H6.33947V24.0826ZM37.1049 32.3984H43.7126V47.0941H37.1049V32.3984ZM30.3169 11.8907H34.4729V13.8947H30.3169V11.8907ZM21.077 20.3718H27.6847V47.0941H21.077V20.3718ZM19.6707 44.3285H17.2332V32.7035H19.6707V44.3285ZM13.063 29.5358H19.6707V31.2972H16.5301C16.1418 31.2972 15.827 31.612 15.827 32.0004V45.0316C15.827 45.42 16.1418 45.7347 16.5301 45.7347H19.6707V47.0941H13.063V29.5358Z" fill="#F4C4F7"/>
<path id="Vector_2" d="M6.85876 29.6748H9.84705C10.2354 29.6748 10.5502 29.3601 10.5502 28.9717C10.5502 28.5833 10.2354 28.2686 9.84705 28.2686H6.85876C6.47045 28.2686 6.15564 28.5833 6.15564 28.9717C6.15564 29.3601 6.47045 29.6748 6.85876 29.6748Z" fill="#F4C4F7"/>
<path id="Vector_3" d="M6.85876 32.6787H9.84705C10.2354 32.6787 10.5502 32.364 10.5502 31.9756C10.5502 31.5872 10.2354 31.2725 9.84705 31.2725H6.85876C6.47045 31.2725 6.15564 31.5872 6.15564 31.9756C6.15564 32.364 6.47045 32.6787 6.85876 32.6787Z" fill="#F4C4F7"/>
<path id="Vector_4" d="M6.85876 35.6826H9.84705C10.2354 35.6826 10.5502 35.3679 10.5502 34.9795C10.5502 34.5911 10.2354 34.2764 9.84705 34.2764H6.85876C6.47045 34.2764 6.15564 34.5911 6.15564 34.9795C6.15564 35.3679 6.47045 35.6826 6.85876 35.6826Z" fill="#F4C4F7"/>
<path id="Vector_5" d="M6.85876 38.6865H9.84705C10.2354 38.6865 10.5502 38.3718 10.5502 37.9834C10.5502 37.595 10.2354 37.2803 9.84705 37.2803H6.85876C6.47045 37.2803 6.15564 37.595 6.15564 37.9834C6.15564 38.3718 6.47045 38.6865 6.85876 38.6865Z" fill="#F4C4F7"/>
<path id="Vector_6" d="M6.85876 41.6895H9.84705C10.2354 41.6895 10.5502 41.3747 10.5502 40.9863C10.5502 40.5979 10.2354 40.2832 9.84705 40.2832H6.85876C6.47045 40.2832 6.15564 40.5979 6.15564 40.9863C6.15564 41.3747 6.47045 41.6895 6.85876 41.6895Z" fill="#F4C4F7"/>
<path id="Vector_7" d="M6.85876 44.6934H9.84705C10.2354 44.6934 10.5502 44.3786 10.5502 43.9902C10.5502 43.6018 10.2354 43.2871 9.84705 43.2871H6.85876C6.47045 43.2871 6.15564 43.6018 6.15564 43.9902C6.15564 44.3786 6.47045 44.6934 6.85876 44.6934Z" fill="#F4C4F7"/>
<path id="Vector_8" d="M38.8275 35.6826H41.8158C42.2042 35.6826 42.5189 35.3679 42.5189 34.9795C42.5189 34.5911 42.2042 34.2764 41.8158 34.2764H38.8275C38.4391 34.2764 38.1244 34.5911 38.1244 34.9795C38.1244 35.3679 38.4392 35.6826 38.8275 35.6826Z" fill="#F4C4F7"/>
<path id="Vector_9" d="M41.8158 37.2803H38.8275C38.4391 37.2803 38.1244 37.595 38.1244 37.9834C38.1244 38.3718 38.4391 38.6865 38.8275 38.6865H41.8158C42.2042 38.6865 42.5189 38.3718 42.5189 37.9834C42.5189 37.595 42.2042 37.2803 41.8158 37.2803Z" fill="#F4C4F7"/>
<path id="Vector_10" d="M41.8158 40.2832H38.8275C38.4391 40.2832 38.1244 40.5979 38.1244 40.9863C38.1244 41.3747 38.4391 41.6895 38.8275 41.6895H41.8158C42.2042 41.6895 42.5189 41.3747 42.5189 40.9863C42.5189 40.5979 42.2042 40.2832 41.8158 40.2832Z" fill="#F4C4F7"/>
<path id="Vector_11" d="M41.8158 43.2871H38.8275C38.4391 43.2871 38.1244 43.6018 38.1244 43.9902C38.1244 44.3786 38.4391 44.6934 38.8275 44.6934H41.8158C42.2042 44.6934 42.5189 44.3786 42.5189 43.9902C42.5189 43.6018 42.2042 43.2871 41.8158 43.2871Z" fill="#F4C4F7"/>
<path id="Vector_12" d="M23.1562 45.2236C23.5446 45.2236 23.8594 44.9089 23.8594 44.5205V22.8643C23.8594 22.4759 23.5446 22.1611 23.1562 22.1611C22.7679 22.1611 22.4531 22.4759 22.4531 22.8643V44.5205C22.4531 44.9088 22.7679 45.2236 23.1562 45.2236Z" fill="#F4C4F7"/>
<path id="Vector_13" d="M25.7812 45.2236C26.1697 45.2236 26.4844 44.9089 26.4844 44.5205V22.8643C26.4844 22.4759 26.1697 22.1611 25.7812 22.1611C25.3928 22.1611 25.0781 22.4759 25.0781 22.8643V44.5205C25.0781 44.9088 25.3928 45.2236 25.7812 45.2236Z" fill="#F4C4F7"/>
<path id="Vector_14" d="M31.1188 17.376C30.2139 17.376 30.2124 18.7822 31.1188 18.7822C32.0237 18.7822 32.0252 17.376 31.1188 17.376Z" fill="#F4C4F7"/>
<path id="Vector_15" d="M31.1188 20.2822C30.2139 20.2822 30.2124 21.6885 31.1188 21.6885C32.0237 21.6885 32.0252 20.2822 31.1188 20.2822Z" fill="#F4C4F7"/>
<path id="Vector_16" d="M31.1188 23.1885C30.2139 23.1885 30.2124 24.5947 31.1188 24.5947C32.0237 24.5947 32.0252 23.1885 31.1188 23.1885Z" fill="#F4C4F7"/>
<path id="Vector_17" d="M31.1188 26.0947C30.2139 26.0947 30.2124 27.501 31.1188 27.501C32.0237 27.501 32.0252 26.0947 31.1188 26.0947Z" fill="#F4C4F7"/>
<path id="Vector_18" d="M31.1188 29.001C30.2139 29.001 30.2124 30.4072 31.1188 30.4072C32.0237 30.4072 32.0252 29.001 31.1188 29.001Z" fill="#F4C4F7"/>
<path id="Vector_19" d="M31.1188 31.9072C30.2139 31.9072 30.2124 33.3135 31.1188 33.3135C32.0237 33.3135 32.0252 31.9072 31.1188 31.9072Z" fill="#F4C4F7"/>
<path id="Vector_20" d="M31.1188 34.8135C30.2139 34.8135 30.2124 36.2197 31.1188 36.2197C32.0237 36.2197 32.0252 34.8135 31.1188 34.8135Z" fill="#F4C4F7"/>
<path id="Vector_21" d="M31.1188 37.7197C30.2139 37.7197 30.2124 39.126 31.1188 39.126C32.0237 39.126 32.0252 37.7197 31.1188 37.7197Z" fill="#F4C4F7"/>
<path id="Vector_22" d="M31.1188 40.626C30.2139 40.626 30.2124 42.0322 31.1188 42.0322C32.0237 42.0322 32.0252 40.626 31.1188 40.626Z" fill="#F4C4F7"/>
<path id="Vector_23" d="M31.1188 44.9385C32.0237 44.9385 32.0252 43.5322 31.1188 43.5322C30.2139 43.5322 30.2124 44.9385 31.1188 44.9385Z" fill="#F4C4F7"/>
<path id="Vector_24" d="M33.6709 17.376C32.766 17.376 32.7645 18.7822 33.6709 18.7822C34.5757 18.7822 34.5772 17.376 33.6709 17.376Z" fill="#F4C4F7"/>
<path id="Vector_25" d="M33.6709 20.2822C32.766 20.2822 32.7645 21.6885 33.6709 21.6885C34.5757 21.6885 34.5772 20.2822 33.6709 20.2822Z" fill="#F4C4F7"/>
<path id="Vector_26" d="M33.6709 23.1885C32.766 23.1885 32.7645 24.5947 33.6709 24.5947C34.5757 24.5947 34.5772 23.1885 33.6709 23.1885Z" fill="#F4C4F7"/>
<path id="Vector_27" d="M33.6709 26.0947C32.766 26.0947 32.7645 27.501 33.6709 27.501C34.5757 27.501 34.5772 26.0947 33.6709 26.0947Z" fill="#F4C4F7"/>
<path id="Vector_28" d="M33.6709 29.001C32.766 29.001 32.7645 30.4072 33.6709 30.4072C34.5757 30.4072 34.5772 29.001 33.6709 29.001Z" fill="#F4C4F7"/>
<path id="Vector_29" d="M33.6709 31.9072C32.766 31.9072 32.7645 33.3135 33.6709 33.3135C34.5757 33.3135 34.5772 31.9072 33.6709 31.9072Z" fill="#F4C4F7"/>
<path id="Vector_30" d="M33.6709 34.8135C32.766 34.8135 32.7645 36.2197 33.6709 36.2197C34.5757 36.2197 34.5772 34.8135 33.6709 34.8135Z" fill="#F4C4F7"/>
<path id="Vector_31" d="M33.6709 37.7197C32.766 37.7197 32.7645 39.126 33.6709 39.126C34.5757 39.126 34.5772 37.7197 33.6709 37.7197Z" fill="#F4C4F7"/>
<path id="Vector_32" d="M33.6709 40.626C32.766 40.626 32.7645 42.0322 33.6709 42.0322C34.5757 42.0322 34.5772 40.626 33.6709 40.626Z" fill="#F4C4F7"/>
<path id="Vector_33" d="M33.6709 44.9385C34.5757 44.9385 34.5772 43.5322 33.6709 43.5322C32.766 43.5322 32.7645 44.9385 33.6709 44.9385Z" fill="#F4C4F7"/>
<path id="Vector_34" d="M6.59718 13.0535C5.95433 13.6964 6.94865 14.6906 7.59149 14.0479C7.99237 13.6469 8.65865 13.6469 9.05952 14.0479C9.70246 14.6906 10.6967 13.6963 10.0538 13.0535C9.10096 12.1006 7.55015 12.1007 6.59718 13.0535Z" fill="#F4C4F7"/>
<path id="Vector_35" d="M5.56987 11.9892C6.30665 11.2524 7.28531 10.8466 8.32556 10.8466C9.36581 10.8466 10.3445 11.2523 11.0813 11.9892C11.7243 12.632 12.7185 11.6376 12.0757 10.9948C11.0733 9.99252 9.74147 9.44043 8.32556 9.44043C6.90965 9.44043 5.57784 9.99252 4.57556 10.9948C3.93262 11.6376 4.92694 12.6319 5.56987 11.9892Z" fill="#F4C4F7"/>
<path id="Vector_36" d="M30.6664 7.61602C30.0236 8.25905 31.0177 9.25309 31.6608 8.61043C32.0616 8.20946 32.7279 8.20946 33.1287 8.61043C33.7717 9.25309 34.766 8.25896 34.1231 7.61602C33.1701 6.66315 31.6194 6.66315 30.6664 7.61602Z" fill="#F4C4F7"/>
<path id="Vector_37" d="M29.142 6.75759C29.3219 6.75759 29.5019 6.68896 29.6392 6.55171C30.3759 5.81493 31.3547 5.40909 32.3949 5.40909C33.4353 5.40909 34.4138 5.81484 35.1506 6.55162C35.7936 7.19437 36.7879 6.20024 36.145 5.5574C35.1427 4.55502 33.8109 4.00293 32.3949 4.00293C30.979 4.00293 29.6472 4.55502 28.6448 5.5573C28.2274 5.97477 28.5516 6.75759 29.142 6.75759Z" fill="#F4C4F7"/>
<path id="Vector_38" d="M24.3808 5.34406C25.7163 5.34406 26.8029 4.2575 26.8029 2.92203C26.8029 1.58656 25.7164 0.5 24.3808 0.5C23.0453 0.5 21.9588 1.58656 21.9588 2.92203C21.9588 4.2575 23.0454 5.34406 24.3808 5.34406ZM24.3808 1.90625C24.941 1.90625 25.3966 2.36187 25.3966 2.92203C25.3966 3.48219 24.941 3.93781 24.3808 3.93781C23.8207 3.93781 23.3651 3.48219 23.3651 2.92203C23.3651 2.36187 23.8208 1.90625 24.3808 1.90625Z" fill="#F4C4F7"/>
<path id="Vector_39" d="M16.2297 8.56086C17.5652 8.56086 18.6516 7.4743 18.6516 6.13883C18.6516 4.80336 17.5652 3.7168 16.2297 3.7168C14.8941 3.7168 13.8077 4.80336 13.8077 6.13883C13.8077 7.4743 14.8942 8.56086 16.2297 8.56086ZM16.2297 5.12305C16.7898 5.12305 17.2454 5.57867 17.2454 6.13883C17.2454 6.69898 16.7898 7.15461 16.2297 7.15461C15.6696 7.15461 15.2139 6.69898 15.2139 6.13883C15.2139 5.57867 15.6696 5.12305 16.2297 5.12305Z" fill="#F4C4F7"/>
<path id="Vector_40" d="M40.4088 14.4671C41.7443 14.4671 42.8308 13.3805 42.8308 12.0451C42.8308 10.7096 41.7443 9.62305 40.4088 9.62305C39.0733 9.62305 37.9868 10.7096 37.9868 12.0451C37.9868 13.3805 39.0733 14.4671 40.4088 14.4671ZM40.4088 11.0293C40.9689 11.0293 41.4246 11.4849 41.4246 12.0451C41.4246 12.6052 40.9689 13.0609 40.4088 13.0609C39.8486 13.0609 39.393 12.6052 39.393 12.0451C39.393 11.4849 39.8487 11.0293 40.4088 11.0293Z" fill="#F4C4F7"/>
<path id="Vector_41" d="M24.3197 15.6797C23.9316 15.6769 23.6146 15.9891 23.6109 16.3771C23.608 16.7653 23.9202 17.0831 24.3084 17.086H24.314C24.7002 17.086 25.0143 16.7747 25.0171 16.3885C25.02 16.0003 24.7078 15.6825 24.3197 15.6797Z" fill="#F4C4F7"/>
<path id="Vector_42" d="M24.3421 12.8672C23.9539 12.8644 23.6361 13.1766 23.6333 13.5646C23.6305 13.9537 23.9427 14.2706 24.3308 14.2735H24.3364C24.7218 14.2735 25.0368 13.9622 25.0396 13.576C25.0425 13.1878 24.7303 12.87 24.3421 12.8672Z" fill="#F4C4F7"/>
<path id="Vector_43" d="M24.3863 7.24221C23.9981 7.23939 23.6803 7.55158 23.6775 7.94064C23.6747 8.32877 23.9869 8.64564 24.375 8.64939H24.3806C24.7669 8.64939 25.081 8.33814 25.0838 7.95096C25.0875 7.56283 24.7744 7.24596 24.3863 7.24221Z" fill="#F4C4F7"/>
<path id="Vector_44" d="M24.3637 10.0547C23.9756 10.0519 23.6587 10.3641 23.6559 10.7521C23.6522 11.1412 23.9653 11.4581 24.3534 11.461H24.3591C24.7444 11.461 25.0585 11.1506 25.0612 10.7635C25.0649 10.3753 24.7528 10.0585 24.3637 10.0547Z" fill="#F4C4F7"/>
<path id="Vector_45" d="M16.23 11.9375C16.6183 11.9375 16.9331 11.6227 16.9331 11.2344C16.9331 10.846 16.6183 10.5312 16.23 10.5312C15.8417 10.5312 15.5269 10.846 15.5269 11.2344C15.5269 11.6227 15.8417 11.9375 16.23 11.9375Z" fill="#F4C4F7"/>
<path id="Vector_46" d="M16.23 26C16.6183 26 16.9331 25.6852 16.9331 25.2969C16.9331 24.9085 16.6183 24.5938 16.23 24.5938C15.8417 24.5938 15.5269 24.9085 15.5269 25.2969C15.5269 25.6852 15.8417 26 16.23 26Z" fill="#F4C4F7"/>
<path id="Vector_47" d="M16.23 16.1562C15.8409 16.1562 15.5269 16.4703 15.5269 16.8594C15.5269 17.2475 15.8409 17.5616 16.23 17.5616C16.6181 17.5616 16.9331 17.2474 16.9331 16.8594C16.9331 16.4703 16.6181 16.1562 16.23 16.1562Z" fill="#F4C4F7"/>
<path id="Vector_48" d="M16.23 14.75C16.6183 14.75 16.9331 14.4352 16.9331 14.0469C16.9331 13.6585 16.6183 13.3438 16.23 13.3438C15.8417 13.3438 15.5269 13.6585 15.5269 14.0469C15.5269 14.4352 15.8417 14.75 16.23 14.75Z" fill="#F4C4F7"/>
<path id="Vector_49" d="M16.23 18.9688C15.8409 18.9688 15.5269 19.2828 15.5269 19.6719C15.5269 20.06 15.8409 20.3741 16.23 20.3741C16.6181 20.3741 16.9331 20.0599 16.9331 19.6719C16.9331 19.2828 16.6181 18.9688 16.23 18.9688Z" fill="#F4C4F7"/>
<path id="Vector_50" d="M16.23 23.1875C16.6183 23.1875 16.9331 22.8727 16.9331 22.4844C16.9331 22.096 16.6183 21.7812 16.23 21.7812C15.8417 21.7812 15.5269 22.096 15.5269 22.4844C15.5269 22.8727 15.8417 23.1875 16.23 23.1875Z" fill="#F4C4F7"/>
<path id="Vector_51" d="M40.4091 25.8125C40.7974 25.8125 41.1122 25.4977 41.1122 25.1094C41.1122 24.721 40.7974 24.4062 40.4091 24.4062C40.0207 24.4062 39.7059 24.721 39.7059 25.1094C39.7059 25.4977 40.0207 25.8125 40.4091 25.8125Z" fill="#F4C4F7"/>
<path id="Vector_52" d="M40.4091 27.2188C40.02 27.2188 39.7059 27.5328 39.7059 27.9209C39.7059 28.3099 40.02 28.625 40.4091 28.625C40.7972 28.625 41.1122 28.31 41.1122 27.9209C41.1122 27.5328 40.7972 27.2188 40.4091 27.2188Z" fill="#F4C4F7"/>
<path id="Vector_53" d="M40.4091 23C40.7974 23 41.1122 22.6852 41.1122 22.2969C41.1122 21.9085 40.7974 21.5938 40.4091 21.5938C40.0207 21.5938 39.7059 21.9085 39.7059 22.2969C39.7059 22.6852 40.0207 23 40.4091 23Z" fill="#F4C4F7"/>
<path id="Vector_54" d="M40.4091 17.375C40.7974 17.375 41.1122 17.0602 41.1122 16.6719C41.1122 16.2835 40.7974 15.9688 40.4091 15.9688C40.0207 15.9688 39.7059 16.2835 39.7059 16.6719C39.7059 17.0602 40.0207 17.375 40.4091 17.375Z" fill="#F4C4F7"/>
<path id="Vector_55" d="M40.4091 20.1875C40.7974 20.1875 41.1122 19.8727 41.1122 19.4844C41.1122 19.096 40.7974 18.7812 40.4091 18.7812C40.0207 18.7812 39.7059 19.096 39.7059 19.4844C39.7059 19.8727 40.0207 20.1875 40.4091 20.1875Z" fill="#F4C4F7"/>
</g>
</g>
<defs>
<clipPath id="clip0_743_9710">
<rect width="48" height="48" fill="white" transform="translate(0 0.5)"/>
</clipPath>
</defs>
</svg>
