<svg width="48" height="49" viewBox="0 0 48 49" fill="none" xmlns="http://www.w3.org/2000/svg">
<g id="fi_2850830" clip-path="url(#clip0_743_9648)">
<g id="Page-1">
<g id="023---Bag-and-Shoe-Shopping">
<path id="Shape" d="M1.4628 10.2213C1.03434 10.5131 0.778254 10.9981 0.778993 11.5165C0.786862 17.7872 1.50214 32.369 7.86883 32.369H23.8741C24.3087 32.369 24.661 32.0167 24.661 31.5821C24.661 31.1475 24.3087 30.7952 23.8741 30.7952H7.86883C3.82188 30.7952 2.3685 20.4083 2.34883 11.5252C6.15231 12.9098 10.1277 13.7663 14.1639 14.0707V20.5657C14.1639 22.304 15.5731 23.7132 17.3115 23.7132H20.459C22.1973 23.7132 23.6065 22.304 23.6065 20.5657V14.0707C27.6441 13.7754 31.6201 12.9137 35.4177 11.511C35.4098 12.7063 35.3831 14.5334 35.2461 16.5951C35.2276 16.8762 35.3604 17.1459 35.5946 17.3025C35.8288 17.4591 36.1287 17.4789 36.3815 17.3544C36.6342 17.2299 36.8014 16.9801 36.8199 16.6989C36.9592 14.5964 36.9867 12.737 36.9946 11.5165C36.995 10.9973 36.7381 10.5116 36.3086 10.2198C35.8791 9.92808 35.3329 9.8682 34.8503 10.06C33.0573 10.7416 31.2114 11.275 29.3311 11.655C27.8557 5.2828 23.6435 0.893555 18.8852 0.893555C14.1269 0.893555 9.91473 5.2828 8.44247 11.655C6.56285 11.275 4.71748 10.7418 2.92483 10.0608C2.44092 9.86924 1.89362 9.92933 1.4628 10.2213ZM18.8852 2.46732C20.6116 2.46732 22.7103 6.21132 23.387 12.5111C21.9911 12.6276 20.4905 12.6968 18.8852 12.6968C17.28 12.6968 15.7794 12.6276 14.3835 12.5111C15.0602 6.21132 17.1588 2.46732 18.8852 2.46732ZM22.0328 20.5657C22.0328 21.4349 21.3282 22.1395 20.459 22.1395H17.3115C16.4423 22.1395 15.7377 21.4349 15.7377 20.5657V14.1833C16.741 14.2391 17.7899 14.2706 18.8852 14.2706C19.9806 14.2706 21.0295 14.2391 22.0328 14.1833V20.5657ZM27.7833 11.9493C26.9067 12.1019 25.964 12.2404 24.9545 12.3553C24.5917 9.00791 23.7537 5.73605 22.4679 3.54772C24.9104 5.06405 26.8792 8.09198 27.7833 11.9493ZM15.3025 3.54772C14.0168 5.73605 13.1779 9.00791 12.816 12.3553C11.8064 12.2404 10.8637 12.1019 9.98319 11.9493C10.8913 8.09198 12.86 5.06405 15.3025 3.54772Z" fill="#F4C4F7"/>
<path id="Shape_2" d="M10.2295 27.6528H8.14662C7.68999 27.0085 7.35307 26.2872 7.152 25.5235C7.07395 25.2454 6.84975 25.0324 6.56798 24.9686C6.2862 24.9049 5.99216 25.0007 5.802 25.2182C5.61184 25.4357 5.55615 25.7399 5.65692 26.0106C6.53744 28.7206 7.3259 29.0582 7.584 29.1692C7.68208 29.2107 7.78751 29.2321 7.89403 29.2321H10.2311C10.6657 29.2321 11.018 28.8798 11.018 28.4452C11.018 28.0106 10.6657 27.6583 10.2311 27.6583L10.2295 27.6528Z" fill="#F4C4F7"/>
<path id="Shape_3" d="M17.3115 18.992C17.3115 19.4265 17.6638 19.7788 18.0983 19.7788H19.6721C20.1067 19.7788 20.459 19.4265 20.459 18.992C20.459 18.5574 20.1067 18.2051 19.6721 18.2051H18.0983C17.6638 18.2051 17.3115 18.5574 17.3115 18.992Z" fill="#F4C4F7"/>
<path id="Shape_4" d="M40.9093 15.357C33.8722 21.3971 28.9479 28.435 25.3518 33.5757C24.7908 34.3783 24.2588 35.1385 23.7529 35.8467C20.3331 40.6349 15.6063 37.3772 15.4119 37.2379C15.0106 36.9499 14.3189 36.7783 12.2415 37.6911C10.8155 38.3273 9.5197 39.2221 8.41963 40.3303C7.32192 41.4202 5.53412 43.5259 5.89373 45.3774C6.10106 46.3042 6.77941 47.0542 7.68074 47.3533C9.25183 47.9245 10.92 48.1806 12.5901 48.1071H23.6065C27.4843 48.1071 28.6292 46.099 30.7082 42.4541C31.4706 41.1164 32.4188 39.4553 33.7038 37.5274C34.8274 35.8724 36.1664 34.3744 37.6855 33.0729C38.7748 35.2569 39.3426 37.6639 39.3442 40.1045V46.5333C39.3442 47.4025 40.0488 48.1071 40.918 48.1071H43.2786C44.1478 48.1071 44.8524 47.4025 44.8524 46.5333V37.736C44.8519 36.3336 45.0371 34.9373 45.4032 33.5836C46.1067 30.9947 47.195 27.0524 47.206 26.932C47.7718 20.7078 45.5677 17.1566 44.2032 15.5938C43.354 14.6289 41.8879 14.5235 40.9093 15.357ZM43.8885 33.1713C43.4846 34.6592 43.2796 36.1942 43.2786 37.736V46.5333H40.918V40.1045C40.9145 37.2996 40.2308 34.5374 38.9256 32.0547C40.8835 30.5502 43.0006 29.2652 45.2388 28.2225L43.8885 33.1713ZM45.681 26.3104C43.7594 27.0918 36.6184 30.3235 32.3944 36.6572C31.0788 38.6314 30.1125 40.3201 29.3413 41.6775C27.3245 45.2098 26.5699 46.5333 23.6065 46.5333H12.5901C11.1308 46.6022 9.67195 46.3884 8.29373 45.9038C7.5391 45.5891 7.46514 45.2043 7.44074 45.0784C7.28337 44.2868 8.10724 42.8617 9.53071 41.4477C10.4919 40.4767 11.6244 39.6918 12.871 39.1327C13.4085 38.8537 13.9893 38.6675 14.5888 38.5819C15.6469 39.2638 16.8326 39.7235 18.0739 39.933C19.9979 40.2375 22.7685 39.933 25.0331 36.7602C25.5422 36.0481 26.0773 35.284 26.6415 34.4783C30.1896 29.4068 35.0486 22.4617 41.9346 16.553C42.2573 16.2773 42.7417 16.3124 43.0213 16.6317C44.1859 17.9623 46.0445 20.9682 45.681 26.3104Z" fill="#F4C4F7"/>
<path id="Shape_5" d="M13.5045 40.5726C12.435 41.054 11.4636 41.7289 10.6395 42.5634C10.325 42.8749 10.0304 43.2058 9.75736 43.5541C9.58475 43.7762 9.54373 44.0735 9.64976 44.334C9.75579 44.5946 9.99276 44.7788 10.2714 44.8172C10.55 44.8556 10.828 44.7425 11.0006 44.5204C11.2325 44.2247 11.483 43.944 11.7505 43.68C12.4372 42.9821 13.2468 42.4171 14.1387 42.0134C14.5172 41.8282 14.6827 41.3777 14.514 40.9915C14.3452 40.6054 13.9023 40.4207 13.5092 40.5726H13.5045Z" fill="#F4C4F7"/>
</g>
</g>
</g>
<defs>
<clipPath id="clip0_743_9648">
<rect width="48" height="48" fill="white" transform="translate(0 0.5)"/>
</clipPath>
</defs>
</svg>
