<svg width="48" height="49" viewBox="0 0 48 49" fill="none" xmlns="http://www.w3.org/2000/svg">
<g clip-path="url(#clip0_743_9494)">
<path d="M47.9419 27.2573C47.5872 24.7999 45.6567 22.8695 43.1994 22.5148V21.0604C43.1994 17.0477 40.149 13.7805 36.3995 13.7805C32.7579 13.7805 29.7092 16.9485 29.5996 20.8428H29.646L29.5996 20.8508V36.6162C29.5996 41.6561 25.8316 45.7488 21.1997 45.7488C16.5678 45.7488 12.7998 41.6505 12.7998 36.6162V35.2506C13.9598 35.2506 15.1998 34.4098 15.1998 32.0506V30.0387C20.3341 28.7259 23.9996 24.3172 23.9996 19.3188V17.6509H22.3997L22.3661 7.239C22.3545 5.31173 20.9715 3.66616 19.0749 3.32306C18.6658 2.06978 17.3181 1.38539 16.0648 1.79458C14.8115 2.20368 14.1271 3.55136 14.5363 4.80474C14.9454 6.05802 16.2931 6.74241 17.5464 6.33322C18.2175 6.11412 18.7572 5.60923 19.0205 4.95424C20.0454 5.24583 20.7554 6.17822 20.7637 7.2438L20.7997 17.6509H19.1997V19.342C19.1359 22.1247 17.2703 24.5429 14.595 25.3107C13.1635 25.7649 11.6265 25.7649 10.1951 25.3107C7.52279 24.5403 5.66142 22.1225 5.59992 19.342V17.6509H3.19995V7.251C3.20455 6.16972 3.93174 5.22493 4.97593 4.94384C5.46282 6.18332 6.8623 6.79331 8.10178 6.30642C9.34126 5.81953 9.95125 4.41995 9.46436 3.18056C8.97747 1.94118 7.57789 1.33109 6.33851 1.81798C5.66692 2.08188 5.14872 2.63257 4.92633 3.31906C3.00906 3.64666 1.60528 5.30593 1.59998 7.251V17.6509H0V19.3148C0 24.3188 3.66795 28.7291 8.79987 30.0387V32.0506C8.79987 34.4098 10.0399 35.2506 11.1998 35.2506V36.6162C11.1998 42.5361 15.6854 47.3488 21.1997 47.3488C26.714 47.3488 31.1995 42.5305 31.1995 36.6162V20.8892C31.2795 17.8533 33.6139 15.3829 36.3995 15.3829C39.2666 15.3829 41.5994 17.93 41.5994 21.0628V22.5148C38.5383 22.9566 36.4151 25.7962 36.8569 28.8573C37.2987 31.9183 40.1383 34.0416 43.1994 33.5998C46.2604 33.158 48.3837 30.3183 47.9419 27.2573ZM16.7998 4.85104C16.358 4.85104 15.9998 4.49284 15.9998 4.05105C15.9998 3.60926 16.358 3.25106 16.7998 3.25106C17.2415 3.25106 17.5997 3.60926 17.5997 4.05105C17.5997 4.49284 17.2415 4.85104 16.7998 4.85104ZM7.19989 3.25106C7.64169 3.25106 7.99988 3.60926 7.99988 4.05105C7.99988 4.49284 7.64169 4.85104 7.19989 4.85104C6.7581 4.85104 6.39991 4.49284 6.39991 4.05105C6.39991 3.60926 6.7581 3.25106 7.19989 3.25106ZM1.59998 19.3148V19.2508H3.99994V19.342C4.05994 22.8191 6.37321 25.8535 9.71026 26.8323C11.4589 27.386 13.3359 27.386 15.0846 26.8323C18.4232 25.8548 20.7386 22.8203 20.7997 19.342V19.2508H22.3997V19.3148C22.3997 23.7652 18.9693 27.6811 14.2398 28.6283C13.1292 28.8507 11.9916 28.9065 10.8646 28.7939C10.4936 28.7579 10.1249 28.7021 9.75986 28.6267C5.03033 27.6811 1.59998 23.7652 1.59998 19.3148ZM11.1998 33.6506C10.4798 33.6506 10.3998 32.5306 10.3998 32.0506V30.3531C10.4638 30.3611 10.5294 30.3643 10.5942 30.3707C10.6742 30.3795 10.7542 30.3859 10.8342 30.3931C11.2126 30.4267 11.5942 30.4491 11.979 30.4499H12.019C12.403 30.4499 12.7838 30.4267 13.1598 30.3931C13.2398 30.3859 13.3246 30.3795 13.407 30.3707C13.4702 30.3635 13.5358 30.3611 13.599 30.3531V32.0506C13.599 32.5306 13.519 33.6506 12.799 33.6506H11.1998ZM42.3994 32.0506C40.1903 32.0506 38.3994 30.2598 38.3994 28.0507C38.3994 25.8416 40.1903 24.0508 42.3994 24.0508C44.6084 24.0508 46.3993 25.8416 46.3993 28.0507C46.3967 30.2588 44.6073 32.048 42.3994 32.0506Z" fill="#F4C4F7"/>
<path d="M42.3994 25.6514C41.0739 25.6514 39.9994 26.7259 39.9994 28.0513C39.9994 29.3768 41.0739 30.4513 42.3994 30.4513C43.7248 30.4513 44.7993 29.3768 44.7993 28.0513C44.7993 26.7259 43.7248 25.6514 42.3994 25.6514ZM42.3994 28.8513C41.9576 28.8513 41.5994 28.4931 41.5994 28.0513C41.5994 27.6095 41.9576 27.2513 42.3994 27.2513C42.8411 27.2513 43.1993 27.6095 43.1993 28.0513C43.1993 28.4931 42.8411 28.8513 42.3994 28.8513Z" fill="#F4C4F7"/>
</g>
<defs>
<clipPath id="clip0_743_9494">
<rect width="48" height="48" fill="white" transform="translate(0 0.5)"/>
</clipPath>
</defs>
</svg>
