<svg width="48" height="49" viewBox="0 0 48 49" fill="none" xmlns="http://www.w3.org/2000/svg">
<g id="fi_10690955">
<g id="Layer_1">
<g id="Group">
<g id="Group_2">
<path id="Vector" d="M37.2462 41.7771H20.1362C18.1793 41.7771 16.5872 40.1851 16.5872 38.2281V28.132C16.5872 26.1751 18.1793 24.583 20.1362 24.583H37.2462C39.2031 24.583 40.7952 26.1751 40.7952 28.132V38.2281C40.795 40.1851 39.2029 41.7771 37.2462 41.7771ZM20.1362 26.083C19.0065 26.083 18.0872 27.0021 18.0872 28.132V38.2281C18.0872 39.358 19.0063 40.2771 20.1362 40.2771H37.2462C38.3758 40.2771 39.2952 39.358 39.2952 38.2281V28.132C39.2952 27.0023 38.376 26.083 37.2462 26.083H20.1362Z" fill="#F4C4F7"/>
</g>
<g id="Group_3">
<path id="Vector_2" d="M31.7813 26.0831C31.3671 26.0831 31.0313 25.7473 31.0313 25.3331V22.958H26.3509V25.3331C26.3509 25.7473 26.0151 26.0831 25.6009 26.0831C25.1867 26.0831 24.8509 25.7473 24.8509 25.3331V22.208C24.8509 21.7938 25.1867 21.458 25.6009 21.458H31.7813C32.1955 21.458 32.5313 21.7938 32.5313 22.208V25.3331C32.5313 25.7473 32.1955 26.0831 31.7813 26.0831Z" fill="#F4C4F7"/>
</g>
<g id="Group_4">
<path id="Vector_3" d="M18.7187 16.0142C18.3045 16.0142 17.9687 15.6783 17.9687 15.2642V8.72266H13.2881V15.2642C13.2881 15.6783 12.9523 16.0142 12.5381 16.0142C12.124 16.0142 11.7881 15.6783 11.7881 15.2642V7.97266C11.7881 7.55847 12.124 7.22266 12.5381 7.22266H18.7187C19.1329 7.22266 19.4687 7.55847 19.4687 7.97266V15.2642C19.4687 15.6783 19.1329 16.0142 18.7187 16.0142Z" fill="#F4C4F7"/>
</g>
<g id="Group_5">
<path id="Vector_4" d="M21.2953 41.7775C20.8812 41.7775 20.5453 41.4417 20.5453 41.0275V25.6807C20.5453 25.2665 20.8812 24.9307 21.2953 24.9307C21.7095 24.9307 22.0453 25.2665 22.0453 25.6807V41.0275C22.0453 41.4417 21.7095 41.7775 21.2953 41.7775Z" fill="#F4C4F7"/>
</g>
<g id="Group_6">
<path id="Vector_5" d="M35.8785 41.7775C35.4644 41.7775 35.1285 41.4417 35.1285 41.0275V25.6807C35.1285 25.2665 35.4644 24.9307 35.8785 24.9307C36.2927 24.9307 36.6285 25.2665 36.6285 25.6807V41.0275C36.6285 41.4417 36.2927 41.7775 35.8785 41.7775Z" fill="#F4C4F7"/>
</g>
<g id="Group_7">
<path id="Vector_6" d="M17.3372 39.2768H10.8707C8.84945 39.2768 7.20508 37.6324 7.20508 35.6112V18.1793C7.20508 16.158 8.84945 14.5137 10.8707 14.5137H20.3845C22.4068 14.5137 24.0521 16.158 24.0521 18.1793V25.3324C24.0521 25.7466 23.7163 26.0824 23.3021 26.0824C22.888 26.0824 22.5521 25.7466 22.5521 25.3324V18.1793C22.5521 16.9851 21.5798 16.0137 20.3845 16.0137H10.8707C9.6767 16.0137 8.70508 16.9851 8.70508 18.1793V35.6112C8.70508 36.8054 9.6767 37.7768 10.8707 37.7768H17.3372C17.7514 37.7768 18.0872 38.1126 18.0872 38.5268C18.0872 38.941 17.7514 39.2768 17.3372 39.2768Z" fill="#F4C4F7"/>
</g>
<g id="Group_8">
<path id="Vector_7" d="M11.7604 41.7776H10.0165C9.60229 41.7776 9.26648 41.4418 9.26648 41.0276V38.8018C9.26648 38.3876 9.60229 38.0518 10.0165 38.0518C10.4307 38.0518 10.7665 38.3876 10.7665 38.8018V40.2776H11.0104V38.8018C11.0104 38.3876 11.3462 38.0518 11.7604 38.0518C12.1746 38.0518 12.5104 38.3876 12.5104 38.8018V41.0276C12.5104 41.4418 12.1746 41.7776 11.7604 41.7776Z" fill="#F4C4F7"/>
</g>
<g id="Group_9">
<path id="Vector_8" d="M12.8044 35.5688C12.3902 35.5688 12.0544 35.233 12.0544 34.8188V18.9492C12.0544 18.535 12.3902 18.1992 12.8044 18.1992C13.2186 18.1992 13.5544 18.535 13.5544 18.9492V34.8188C13.5544 35.233 13.2186 35.5688 12.8044 35.5688ZM18.4524 26.4301C18.0383 26.4301 17.7024 26.0943 17.7024 25.6801V18.9492C17.7024 18.535 18.0383 18.1992 18.4524 18.1992C18.8666 18.1992 19.2024 18.535 19.2024 18.9492V25.6801C19.2024 26.0943 18.8666 26.4301 18.4524 26.4301Z" fill="#F4C4F7"/>
</g>
</g>
</g>
</g>
</svg>
