<svg width="48" height="49" viewBox="0 0 48 49" fill="none" xmlns="http://www.w3.org/2000/svg">
<g clip-path="url(#clip0_743_9503)">
<path d="M16.1719 41.4688C14.2333 41.4688 12.6562 43.0458 12.6562 44.9844C12.6562 46.9229 14.2333 48.5 16.1719 48.5C18.1104 48.5 19.6875 46.9229 19.6875 44.9844C19.6875 43.0458 18.1104 41.4688 16.1719 41.4688ZM16.1719 47.0938C15.0088 47.0938 14.0625 46.1474 14.0625 44.9844C14.0625 43.8213 15.0088 42.875 16.1719 42.875C17.3349 42.875 18.2812 43.8213 18.2812 44.9844C18.2812 46.1474 17.3349 47.0938 16.1719 47.0938Z" fill="#F4C4F7"/>
<path d="M16.1719 45.6875C16.5602 45.6875 16.875 45.3727 16.875 44.9844C16.875 44.596 16.5602 44.2812 16.1719 44.2812C15.7835 44.2812 15.4688 44.596 15.4688 44.9844C15.4688 45.3727 15.7835 45.6875 16.1719 45.6875Z" fill="#F4C4F7"/>
<path d="M40.2656 45.6875C40.654 45.6875 40.9688 45.3727 40.9688 44.9844C40.9688 44.596 40.654 44.2812 40.2656 44.2812C39.8773 44.2812 39.5625 44.596 39.5625 44.9844C39.5625 45.3727 39.8773 45.6875 40.2656 45.6875Z" fill="#F4C4F7"/>
<path d="M40.2656 41.4688C38.3271 41.4688 36.75 43.0458 36.75 44.9844C36.75 46.9229 38.3271 48.5 40.2656 48.5C42.2042 48.5 43.7812 46.9229 43.7812 44.9844C43.7812 43.0458 42.2042 41.4688 40.2656 41.4688ZM40.2656 47.0938C39.1026 47.0938 38.1562 46.1474 38.1562 44.9844C38.1562 43.8213 39.1026 42.875 40.2656 42.875C41.4287 42.875 42.375 43.8213 42.375 44.9844C42.375 46.1474 41.4287 47.0938 40.2656 47.0938Z" fill="#F4C4F7"/>
<path d="M11.6106 34.5269L16.7286 31.625H28.2188C29.9165 31.625 31.3371 30.4153 31.6638 28.8125H38.9866C41.2368 28.8125 43.1976 27.29 43.755 25.11L47.9781 8.59616C48.0318 8.38569 47.9854 8.16228 47.8522 7.99072C47.7189 7.81916 47.514 7.71875 47.2969 7.71875H12.7746L12.416 6.31672C11.5413 2.89194 8.45963 0.5 4.92188 0.5H2.10938C0.946312 0.5 0 1.44631 0 2.60938C0 3.77244 0.946312 4.71875 2.10938 4.71875H4.92188C6.53034 4.71875 7.93116 5.80531 8.32856 7.36128L13.7289 28.4761L9.53081 30.8564C7.98909 31.7292 7.03125 33.3709 7.03125 35.1406C7.03125 37.8545 9.23925 40.0625 11.9531 40.0625H43.0781C44.2412 40.0625 45.1875 39.1162 45.1875 37.9531C45.1875 36.7901 44.2412 35.8438 43.0781 35.8438H11.9531C11.5654 35.8438 11.25 35.5284 11.25 35.1406C11.25 34.888 11.388 34.6529 11.6106 34.5269ZM37.6728 20.8438H33.3519L33.6156 15.6875H38.4638L37.6728 20.8438ZM39.8865 15.6875H44.7131L43.3945 20.8438H39.0954L39.8865 15.6875ZM37.457 22.25L36.6659 27.4062H33.0164L33.28 22.25H37.457ZM31.9438 20.8438H27.6157L27.3518 15.6875H32.2074L31.9438 20.8438ZM33.6875 14.2812L33.9511 9.125H39.4706L38.6796 14.2812H33.6875ZM32.2793 14.2812H27.2798L27.016 9.125H32.543L32.2793 14.2812ZM25.8718 14.2812H23.0887C22.7003 14.2812 22.3855 14.596 22.3855 14.9844C22.3855 15.3728 22.7003 15.6875 23.0887 15.6875H25.9437L26.2075 20.8438H21.8868L20.0884 9.125H25.6079L25.8718 14.2812ZM20.4641 20.8438H16.1314L14.8126 15.6875H19.6728L20.4641 20.8438ZM20.6799 22.25L21.4713 27.4062H17.8099L16.4911 22.25H20.6799ZM22.8939 27.4062L22.1026 22.25H26.2795L26.5433 27.4062H22.8939ZM27.9515 27.4062L27.6877 22.25H31.8719L31.6083 27.4062H27.9515ZM42.3926 24.7617C41.9945 26.3187 40.5938 27.4062 38.9866 27.4062H38.0886L38.8796 22.25H43.0348L42.3926 24.7617ZM45.0728 14.2812H40.1023L40.8934 9.125H46.3913L45.0728 14.2812ZM18.6657 9.125L19.4571 14.2812H14.4531L13.1343 9.125H18.6657ZM4.92188 3.3125H2.10938C1.72162 3.3125 1.40625 2.99712 1.40625 2.60938C1.40625 2.22162 1.72162 1.90625 2.10938 1.90625H4.92188C6.39984 1.90625 7.77975 2.41728 8.87231 3.28944L7.86984 4.292C7.04081 3.67259 6.01594 3.3125 4.92188 3.3125ZM11.9531 37.25H43.0781C43.4659 37.25 43.7812 37.5654 43.7812 37.9531C43.7812 38.3409 43.4659 38.6562 43.0781 38.6562H11.9531C10.0146 38.6562 8.4375 37.0792 8.4375 35.1406C8.4375 33.8766 9.12197 32.7039 10.2241 32.0799L14.8901 29.4342C15.1661 29.2777 15.3031 28.9557 15.2244 28.6483L9.69094 7.01309C9.52753 6.37316 9.24225 5.79059 8.86472 5.28603L9.86747 4.28328C10.4147 4.96784 10.8259 5.77334 11.0535 6.66491L16.5828 28.2837C16.6624 28.5948 16.9427 28.8126 17.264 28.8126H30.2077C29.9174 29.631 29.1354 30.2188 28.2188 30.2188H16.5431C16.4215 30.2188 16.3021 30.2503 16.1963 30.3103L10.9174 33.3035C10.2552 33.6781 9.84375 34.3822 9.84375 35.1406C9.84375 36.3037 10.7901 37.25 11.9531 37.25Z" fill="#F4C4F7"/>
</g>
<defs>
<clipPath id="clip0_743_9503">
<rect width="48" height="48" fill="white" transform="translate(0 0.5)"/>
</clipPath>
</defs>
</svg>
