<svg width="48" height="49" viewBox="0 0 48 49" fill="none" xmlns="http://www.w3.org/2000/svg">
<g clip-path="url(#clip0_743_9512)">
<path d="M43.8642 20.3643H41.764C41.3756 20.3643 41.0609 20.679 41.0609 21.0674C41.0609 21.4558 41.3756 21.7705 41.764 21.7705H43.8642C44.2526 21.7705 44.5674 21.4558 44.5674 21.0674C44.5674 20.679 44.2526 20.3643 43.8642 20.3643Z" fill="#F4C4F7"/>
<path d="M6.23618 20.3643H4.1358C3.7474 20.3643 3.43268 20.679 3.43268 21.0674C3.43268 21.4558 3.7474 21.7705 4.1358 21.7705H6.23599C6.6244 21.7705 6.93921 21.4558 6.93921 21.0674C6.9393 20.679 6.62458 20.3643 6.23618 20.3643Z" fill="#F4C4F7"/>
<path d="M41.8118 10.7833C41.6177 10.447 41.1875 10.3319 40.8513 10.5259L39.0325 11.5761C38.6962 11.7703 38.581 12.2003 38.7752 12.5367C38.9055 12.7622 39.1417 12.8883 39.3847 12.8883C39.504 12.8883 39.625 12.8579 39.7356 12.794L41.5544 11.7438C41.8908 11.5496 42.006 11.1195 41.8118 10.7833Z" fill="#F4C4F7"/>
<path d="M9.22478 29.5977C9.03072 29.2614 8.60041 29.1464 8.26422 29.3403L6.44547 30.3904C6.10919 30.5846 5.99397 31.0146 6.18813 31.351C6.38313 31.689 6.81391 31.8015 7.14869 31.6083L8.96744 30.5582C9.30381 30.364 9.41903 29.934 9.22478 29.5977Z" fill="#F4C4F7"/>
<path d="M34.2837 3.25543C33.9471 3.06137 33.5173 3.1764 33.3231 3.51277L32.273 5.33152C32.0014 5.80196 32.345 6.3864 32.8813 6.3864C33.1243 6.3864 33.3606 6.2603 33.4909 6.03474L34.5409 4.21599C34.7352 3.87962 34.62 3.44958 34.2837 3.25543Z" fill="#F4C4F7"/>
<path d="M15.4696 35.8424C15.1331 35.6482 14.7032 35.7634 14.509 36.0997L13.459 37.9185C13.1873 38.3889 13.531 38.9734 14.0672 38.9734C14.3102 38.9734 14.5465 38.8473 14.6768 38.6217L15.7269 36.8029C15.9212 36.4666 15.806 36.0365 15.4696 35.8424Z" fill="#F4C4F7"/>
<path d="M24 0.5C23.6116 0.5 23.2969 0.814719 23.2969 1.20312V3.30322C23.2969 3.69162 23.6117 4.00634 24 4.00634C24.3884 4.00634 24.7031 3.69162 24.7031 3.30322V1.20312C24.7031 0.814719 24.3884 0.5 24 0.5Z" fill="#F4C4F7"/>
<path d="M15.7271 5.33152L14.677 3.51277C14.4829 3.1764 14.0527 3.06137 13.7164 3.25543C13.3801 3.44958 13.2649 3.87962 13.4591 4.21599L14.5092 6.03474C14.7042 6.37271 15.1349 6.4853 15.4697 6.29208C15.806 6.09793 15.9212 5.6678 15.7271 5.33152Z" fill="#F4C4F7"/>
<path d="M34.5411 37.9184L33.491 36.0997C33.2969 35.7634 32.8666 35.6483 32.5304 35.8423C32.1942 36.0365 32.0789 36.4665 32.2731 36.8029L33.3232 38.6216C33.5182 38.9596 33.949 39.0722 34.2837 38.879C34.62 38.6848 34.7352 38.2547 34.5411 37.9184Z" fill="#F4C4F7"/>
<path d="M8.96753 11.5763L7.14869 10.526C6.81241 10.3318 6.38238 10.4469 6.18813 10.7833C5.99397 11.1196 6.10919 11.5497 6.44547 11.744C8.25419 12.7536 8.2871 12.8885 8.61522 12.8885C9.33306 12.8885 9.58872 11.9349 8.96753 11.5763Z" fill="#F4C4F7"/>
<path d="M41.5545 30.3905L39.7357 29.3404C39.3993 29.1463 38.9692 29.2614 38.7752 29.5977C38.581 29.934 38.6962 30.364 39.0325 30.5583L40.8513 31.6084C40.9621 31.6723 41.0829 31.7027 41.2022 31.7027C41.92 31.7027 42.1756 30.7492 41.5545 30.3905Z" fill="#F4C4F7"/>
<path d="M36.7001 11.342C36.4639 11.0338 36.0224 10.9756 35.7141 11.212C35.4061 11.4483 35.3479 11.8897 35.5841 12.1979C37.5506 14.7623 38.5901 17.8293 38.5901 21.0677C38.5901 25.9963 36.1271 30.5575 32.0018 33.2686C31.0625 33.8859 30.4274 34.8339 30.2114 35.8971H28.3806C27.9922 35.8971 27.6775 36.2118 27.6775 36.6002C27.6775 36.9886 27.9922 37.3033 28.3806 37.3033H30.1288V38.281H17.8711V37.3033H25.0993C25.4877 37.3033 25.8024 36.9886 25.8024 36.6002C25.8024 36.2118 25.4877 35.8971 25.0993 35.8971H17.7607C17.514 34.8112 16.8586 33.8444 15.9025 33.2052C8.29002 28.1167 7.10558 17.3137 13.7666 10.7245C19.3332 5.21796 27.8241 5.18814 33.4224 9.9288C33.7188 10.1798 34.1626 10.1428 34.4135 9.84658C34.6644 9.55024 34.6276 9.10652 34.3312 8.85555C28.1977 3.66161 18.8819 3.68617 12.7775 9.7248C5.47649 16.9472 6.77886 28.798 15.121 34.3745C15.9625 34.937 16.4648 35.8675 16.4648 36.8637C16.4648 39.497 16.4648 38.5058 16.4648 40.5991C16.4648 41.4882 16.9968 42.2548 17.7589 42.599V43.7046C17.7589 44.8964 18.7144 45.8686 19.8995 45.897L20.186 46.6173C20.641 47.7612 21.7306 48.5004 22.9615 48.5004H24.8968C26.2138 48.5004 27.3794 47.7097 27.8662 46.486L28.1005 45.897C29.2857 45.8686 30.2411 44.8963 30.2411 43.7046V42.599C31.0031 42.2548 31.5351 41.4881 31.5351 40.5991C31.5351 39.1917 31.5351 38.0088 31.5351 36.7074C31.5351 35.7998 31.9983 34.9538 32.7742 34.4439C37.2965 31.4719 39.9965 26.4715 39.9965 21.0677C39.9965 17.517 38.8566 14.154 36.7001 11.342ZM24.897 47.094H22.9617C21.7487 47.094 21.4284 45.9181 21.4135 45.8982H26.5865C26.5791 45.9076 26.1991 47.094 24.897 47.094ZM28.8351 43.7044C28.835 44.1386 28.4817 44.4919 28.0476 44.4919C26.2662 44.4919 21.617 44.4919 19.9525 44.4919C19.5184 44.4919 19.1652 44.1386 19.1652 43.7044V42.7926H28.8351V43.7044ZM30.1289 40.599C30.1289 41.0332 29.7756 41.3864 29.3415 41.3864H18.6587C18.2244 41.3864 17.8713 41.0332 17.8713 40.599V39.6872H30.129V40.599H30.1289Z" fill="#F4C4F7"/>
<path d="M35.1329 15.4379C34.9095 14.4671 34.1226 13.8032 33.1285 13.7463C31.375 13.6454 29.5653 14.0956 27.8937 15.0468C27.5561 15.2388 27.4383 15.6681 27.6303 16.0058C27.8223 16.3434 28.2514 16.4612 28.5892 16.2692C30.0247 15.4526 31.5678 15.0661 33.0483 15.1503C33.4134 15.1713 33.6802 15.3965 33.7622 15.753C34.3391 18.2618 33.549 21.1039 31.6485 23.3562C29.6088 25.773 26.8413 26.8748 24.4989 26.7165C24.8555 25.8984 25.3078 25.0047 25.8772 24.0931C26.859 23.7844 28.0232 23.8413 28.0356 23.842C28.4238 23.8605 28.7543 23.5663 28.7758 23.1787C28.7973 22.791 28.5003 22.4593 28.1126 22.4379C28.0776 22.4358 27.6281 22.413 27.0212 22.463C28.1949 20.9693 29.7167 19.5217 31.6829 18.3775C32.0185 18.1822 32.1322 17.7517 31.9369 17.416C31.7417 17.0803 31.3112 16.9666 30.9754 17.1619C29.9121 17.7806 28.9705 18.4803 28.1347 19.2256C28.0926 18.9233 28.0394 18.7267 28.0339 18.7069C27.9303 18.3339 27.5449 18.1156 27.1712 18.2182C26.7976 18.3204 26.5773 18.7067 26.6782 19.0808C26.6804 19.0891 26.8909 19.892 26.7018 20.6562C25.9927 21.4474 25.3823 22.2638 24.8598 23.0715C24.8268 23.1124 24.7989 23.1568 24.7759 23.2036C24.3408 23.8876 23.9669 24.5639 23.6475 25.2115C23.4211 22.9415 24.2329 20.4976 25.9083 18.5122C25.9698 18.4393 26.0323 18.3675 26.0953 18.2967C26.3536 18.0067 26.3278 17.5622 26.0379 17.3039C25.7478 17.0456 25.3034 17.0713 25.0451 17.3612C24.9738 17.4412 24.9033 17.5225 24.8337 17.605C22.6492 20.1934 21.7484 23.4927 22.4239 26.4303C22.492 26.7262 22.613 26.9931 22.7757 27.2236C22.5481 27.8271 22.3592 28.4022 22.2029 28.9353C22.1192 28.772 22.03 28.6055 21.935 28.4362C22.4621 27.3203 21.9649 24.3587 19.6376 22.3358C17.9584 20.8763 15.795 20.2543 13.8501 20.6716C13.1187 20.8286 12.6113 21.4122 12.5577 22.1584C12.4151 24.1423 13.3325 26.1982 15.0118 27.6577C16.8106 29.2213 19.0316 29.7198 20.8158 29.3178C21.4174 30.4328 21.5425 30.9741 21.6662 31.1693C21.5239 31.9345 21.4817 32.4068 21.478 32.4512C21.4454 32.838 21.7323 33.1776 22.1189 33.2108C22.1392 33.2126 22.1595 33.2133 22.1794 33.2133C22.5406 33.2133 22.8477 32.9366 22.8793 32.5703C22.8812 32.5486 23.0595 30.5907 23.9714 28.0483C25.3662 28.4164 29.5719 27.9975 32.7233 24.2635C34.9077 21.6748 35.8084 18.3754 35.1329 15.4379ZM15.9053 24.4319C17.7643 25.3378 19.0888 26.6915 20.0171 28.0201C18.6318 28.1556 17.1388 27.6431 15.9342 26.5961C14.5872 25.4252 13.8494 23.8039 13.9603 22.259C13.9687 22.1424 14.0309 22.0709 14.1452 22.0463C15.6595 21.721 17.3678 22.226 18.7149 23.3969C19.6882 24.2429 20.3412 25.3243 20.588 26.442C19.5924 25.2111 18.2682 24.0188 16.5213 23.1676C16.1723 22.9977 15.7512 23.1426 15.5811 23.4917C15.4111 23.841 15.5562 24.2618 15.9053 24.4319Z" fill="#F4C4F7"/>
</g>
<defs>
<clipPath id="clip0_743_9512">
<rect width="48" height="48" fill="white" transform="translate(0 0.5)"/>
</clipPath>
</defs>
</svg>
