<svg width="48" height="49" viewBox="0 0 48 49" fill="none" xmlns="http://www.w3.org/2000/svg">
<g id="fi_10861162">
<path id="Vector" d="M44.625 22.1562C43.9989 22.1562 43.4105 22.4001 42.9678 22.8427C42.6377 23.1727 42.4184 23.5839 42.328 24.0312H35.7783C35.7409 23.078 35.5905 22.1532 35.3388 21.2707H39.579C39.8379 21.2707 40.0477 21.0608 40.0477 20.8019V17.8594C41.1162 17.6416 41.9227 16.6947 41.9227 15.5629C41.9227 14.2706 40.8713 13.2192 39.579 13.2192C38.9528 13.2192 38.3643 13.463 37.9217 13.9057C37.479 14.3484 37.2352 14.9369 37.2352 15.563C37.2352 16.6948 38.0418 17.6418 39.1102 17.8595V20.3333H35.0272C33.8317 17.1797 31.3205 14.6685 28.1669 13.4729V9.38984H30.6407C30.8585 10.4583 31.8054 11.2648 32.9373 11.2648C33.5633 11.2648 34.1518 11.021 34.5945 10.5784C35.0373 10.1358 35.281 9.54716 35.281 8.92109C35.281 7.62875 34.2296 6.57734 32.9373 6.57734C31.8054 6.57734 30.8585 7.38387 30.6407 8.45234H27.6982C27.4392 8.45234 27.2294 8.66216 27.2294 8.92109V13.1612C26.3468 12.9095 25.4221 12.7592 24.4689 12.7217V6.17159C25.5374 5.95381 26.3439 5.00684 26.3439 3.875C26.3439 2.58266 25.2925 1.53125 24.0002 1.53125C22.7078 1.53125 21.6564 2.58266 21.6564 3.875C21.6564 4.50106 21.9003 5.08962 22.3429 5.53231C22.673 5.86231 23.0841 6.08169 23.5314 6.17197V12.7217C22.5782 12.7592 21.6534 12.9095 20.7709 13.1612V8.92109C20.7709 8.66216 20.5611 8.45234 20.3021 8.45234H17.3596C17.1418 7.38387 16.1948 6.57734 15.063 6.57734C13.7707 6.57734 12.7192 7.62875 12.7192 8.92109C12.7192 9.54706 12.9631 10.1357 13.4058 10.5784C13.8485 11.0211 14.4369 11.2648 15.063 11.2648C16.1948 11.2648 17.1418 10.4583 17.3596 9.38984H19.8334V13.4728C16.6798 14.6684 14.1686 17.1796 12.973 20.3332H8.88984V17.8595C9.95822 17.6417 10.7647 16.6947 10.7647 15.5629C10.7647 14.9368 10.5209 14.3483 10.0784 13.9057C9.63572 13.463 9.04716 13.2192 8.42109 13.2192C7.12875 13.2192 6.07734 14.2706 6.07734 15.5629C6.07734 16.6947 6.88387 17.6417 7.95234 17.8595V20.8019C7.95234 21.0608 8.16216 21.2707 8.42109 21.2707H12.6612C12.4095 22.1532 12.2591 23.078 12.2217 24.0312H5.67159C5.45381 22.9628 4.50675 22.1562 3.37491 22.1562C2.74884 22.1562 2.16037 22.4001 1.71759 22.8427C1.27491 23.2854 1.03116 23.8739 1.03125 24.4999C1.03125 25.7922 2.08266 26.8437 3.37491 26.8437C4.00106 26.8437 4.58962 26.5998 5.03222 26.1571C5.36231 25.827 5.58159 25.4158 5.67197 24.9686H12.2216C12.259 25.9218 12.4094 26.8466 12.6611 27.7291H8.42109C8.16216 27.7291 7.95234 27.939 7.95234 28.1979V31.1404C6.88387 31.3582 6.07734 32.3052 6.07734 33.437C6.07734 34.7293 7.12875 35.7807 8.42109 35.7807C9.04716 35.7807 9.63562 35.5369 10.0783 35.0943C10.5211 34.6516 10.7648 34.0631 10.7648 33.437C10.7648 32.3052 9.95831 31.3582 8.88984 31.1404V28.6666H12.9727C14.1683 31.8203 16.6795 34.3315 19.8331 35.5271V39.61H17.3594C17.1416 38.5415 16.1946 37.735 15.0627 37.735C14.4367 37.735 13.8481 37.9788 13.4055 38.4214C12.9628 38.8641 12.7191 39.4527 12.7191 40.0786C12.7191 41.371 13.7705 42.4224 15.0627 42.4224C16.1946 42.4224 17.1416 41.6158 17.3594 40.5474H20.3018C20.5608 40.5474 20.7706 40.3375 20.7706 40.0786V35.8386C21.6532 36.0903 22.5779 36.2407 23.5312 36.2781V42.8281C22.4627 43.0459 21.6562 43.9929 21.6562 45.1247C21.6562 46.4171 22.7076 47.4685 23.9999 47.4685C25.2922 47.4685 26.3437 46.4171 26.3437 45.1247C26.3437 44.4987 26.0998 43.9101 25.6571 43.4674C25.327 43.1374 24.9159 42.918 24.4687 42.8277V36.2781C25.4218 36.2406 26.3466 36.0903 27.2291 35.8386V40.0786C27.2291 40.3375 27.4389 40.5474 27.6979 40.5474H30.6404C30.8582 41.6158 31.8052 42.4224 32.937 42.4224C34.2293 42.4224 35.2807 41.371 35.2807 40.0786C35.2807 39.4526 35.0369 38.8639 34.5943 38.4214C34.1516 37.9787 33.5631 37.7349 32.937 37.7349C31.8052 37.7349 30.8582 38.5414 30.6404 39.6099H28.1666V35.527C31.3203 34.3314 33.8314 31.8202 35.027 28.6665H39.11V31.1403C38.0415 31.3581 37.235 32.3051 37.235 33.4369C37.235 34.063 37.4788 34.6515 37.9214 35.0942C38.364 35.5369 38.9527 35.7807 39.5787 35.7807C40.8711 35.7807 41.9225 34.7292 41.9225 33.4369C41.9225 32.3051 41.1159 31.3581 40.0475 31.1403V28.1978C40.0475 27.9389 39.8377 27.729 39.5787 27.729H35.3386C35.5903 26.8465 35.7407 25.9217 35.7781 24.9685H42.3282C42.546 26.0369 43.493 26.8435 44.6248 26.8435C45.9172 26.8435 46.9686 25.7921 46.9686 24.4997C46.9686 23.2074 45.9173 22.1562 44.625 22.1562ZM38.1727 15.5629C38.1727 15.1872 38.319 14.8341 38.5846 14.5685C38.8502 14.3029 39.2033 14.1566 39.5789 14.1566C40.3543 14.1566 40.9852 14.7874 40.9852 15.5628C40.9852 16.3382 40.3543 16.9691 39.5789 16.9691C38.8035 16.9691 38.1727 16.3383 38.1727 15.5629ZM32.9371 7.51484C33.7125 7.51484 34.3433 8.14569 34.3433 8.92109C34.3433 9.29675 34.197 9.64981 33.9314 9.91541C33.6657 10.181 33.3126 10.3273 32.9371 10.3273C32.1617 10.3273 31.5308 9.6965 31.5308 8.92109C31.5308 8.14569 32.1617 7.51484 32.9371 7.51484ZM15.0628 10.3273C14.6872 10.3273 14.3342 10.181 14.0685 9.91541C13.8029 9.64981 13.6566 9.29666 13.6566 8.92109C13.6566 8.14569 14.2874 7.51484 15.0628 7.51484C15.8382 7.51484 16.4691 8.14569 16.4691 8.92109C16.4691 9.6965 15.8381 10.3273 15.0628 10.3273ZM7.01484 15.5629C7.01484 14.7875 7.64569 14.1567 8.42109 14.1567C8.79675 14.1567 9.14981 14.3029 9.41541 14.5686C9.68091 14.8342 9.82725 15.1873 9.82725 15.5629C9.82725 16.3383 9.19641 16.9692 8.42109 16.9692C7.64569 16.9692 7.01484 16.3383 7.01484 15.5629ZM4.36922 25.4944C4.10362 25.76 3.75047 25.9063 3.37491 25.9063C2.59959 25.9062 1.96875 25.2754 1.96875 24.4999C1.96875 24.1243 2.115 23.7713 2.38059 23.5057C2.64619 23.2401 2.99934 23.0937 3.37491 23.0937C4.15031 23.0937 4.78116 23.7246 4.78125 24.5C4.78125 24.8756 4.63491 25.2287 4.36922 25.4944ZM9.82734 33.4371C9.82734 33.8127 9.681 34.1658 9.41541 34.4314C9.14972 34.697 8.79656 34.8433 8.42109 34.8433C7.64569 34.8433 7.01484 34.2125 7.01484 33.4371C7.01484 32.6617 7.64569 32.0308 8.42109 32.0308C9.1965 32.0308 9.82734 32.6617 9.82734 33.4371ZM15.0628 41.4852C14.2874 41.4852 13.6567 40.8543 13.6567 40.0789C13.6567 39.7033 13.803 39.3502 14.0686 39.0846C14.3341 38.819 14.6872 38.6727 15.0628 38.6727C15.8382 38.6727 16.4692 39.3036 16.4692 40.079C16.4692 40.8544 15.8382 41.4852 15.0628 41.4852ZM32.9371 38.6727C33.3127 38.6727 33.6658 38.8189 33.9314 39.0846C34.197 39.3502 34.3433 39.7032 34.3433 40.0788C34.3433 40.8542 33.7125 41.4851 32.9371 41.4851C32.1617 41.4851 31.5308 40.8542 31.5308 40.0788C31.5308 39.3034 32.1617 38.6727 32.9371 38.6727ZM40.9852 33.4371C40.9852 34.2125 40.3543 34.8433 39.5789 34.8433C39.2032 34.8433 38.8502 34.697 38.5845 34.4314C38.319 34.1658 38.1727 33.8127 38.1727 33.4371C38.1727 32.6617 38.8035 32.0308 39.5789 32.0308C40.3543 32.0308 40.9852 32.6617 40.9852 33.4371ZM22.5937 3.875C22.5937 3.09959 23.2246 2.46875 24 2.46875C24.7754 2.46875 25.4062 3.09959 25.4062 3.875C25.4062 4.65041 24.7754 5.28125 24 5.28125C23.6243 5.28125 23.2713 5.13491 23.0056 4.86931C22.7401 4.60372 22.5937 4.25066 22.5937 3.875ZM25.4062 45.125C25.4062 45.9004 24.7754 46.5312 24 46.5312C23.2246 46.5312 22.5937 45.9004 22.5937 45.125C22.5937 44.3496 23.2246 43.7187 24 43.7187C24.3756 43.7187 24.7286 43.8651 24.9943 44.1307C25.2599 44.3963 25.4062 44.7494 25.4062 45.125ZM24 35.351C18.0168 35.351 13.149 30.4832 13.149 24.5C13.149 18.5168 18.0168 13.649 24 13.649C29.9832 13.649 34.8509 18.5168 34.8509 24.5C34.8509 30.4832 29.9832 35.351 24 35.351ZM44.625 25.9062C43.8496 25.9062 43.2187 25.2754 43.2187 24.5C43.2187 24.1243 43.3651 23.7713 43.6307 23.5057C43.8964 23.24 44.2494 23.0937 44.625 23.0937C45.4004 23.0937 46.0312 23.7246 46.0312 24.5C46.0312 25.2754 45.4004 25.9062 44.625 25.9062ZM24 15.9924C19.3088 15.9924 15.4923 19.8088 15.4923 24.5001C15.4923 29.1913 19.3088 33.0078 24 33.0078C28.6912 33.0078 32.5076 29.1912 32.5076 24.5001C32.5076 19.8089 28.6912 15.9924 24 15.9924ZM24 32.0702C19.8258 32.0702 16.4298 28.6742 16.4298 24.5C16.4298 20.3258 19.8258 16.9298 24 16.9298C28.1741 16.9298 31.5701 20.3258 31.5701 24.5C31.5701 28.6743 28.1741 32.0702 24 32.0702ZM26.4269 26.4582C26.4269 27.636 25.5834 28.6207 24.4687 28.8397V29.4191C24.4687 29.6779 24.2589 29.8878 24 29.8878C23.7411 29.8878 23.5312 29.6779 23.5312 29.4191V28.8398C22.8962 28.7156 22.3323 28.3413 21.969 27.7871C21.8271 27.5705 21.8875 27.28 22.104 27.138C22.3207 26.996 22.611 27.0566 22.753 27.273C23.0299 27.6954 23.4961 27.9476 24 27.9476C24.8212 27.9476 25.4894 27.2794 25.4894 26.4581C25.4894 25.6367 24.8212 24.9687 24 24.9687C22.6618 24.9687 21.573 23.88 21.573 22.5418C21.573 21.364 22.4166 20.3793 23.5312 20.1603V19.5809C23.5312 19.3221 23.7411 19.1122 24 19.1122C24.2589 19.1122 24.4687 19.3221 24.4687 19.5809V20.1602C25.1038 20.2845 25.6676 20.6587 26.0309 21.213C26.1728 21.4296 26.1124 21.7201 25.8959 21.8621C25.6792 22.0038 25.3888 21.9435 25.2469 21.727C24.97 21.3046 24.5039 21.0524 24 21.0524C23.1787 21.0524 22.5105 21.7206 22.5105 22.5419C22.5105 23.3633 23.1787 24.0312 24 24.0312C25.3382 24.0312 26.4269 25.12 26.4269 26.4582Z" fill="#F4C4F7"/>
</g>
</svg>
