<svg width="48" height="48" viewBox="0 0 48 48" fill="none" xmlns="http://www.w3.org/2000/svg">
<g id="fi_3771388" clip-path="url(#clip0_743_9558)">
<g id="Group">
<path id="Vector" d="M47.2969 6.3568C47.6853 6.3568 48 6.04199 48 5.65368V0.703124C48 0.314812 47.6853 0 47.2969 0H6.08006C5.69175 0 5.37693 0.314812 5.37693 0.703124V16.8275C4.2524 17.7273 3.50494 19.0702 3.39234 20.5729C2.48485 20.7184 1.6605 21.1657 1.03697 21.8585C0.315194 22.6605 -0.050993 23.6956 0.00572565 24.773C0.076788 26.1234 0.811037 27.3284 1.95122 28.0166C1.93444 28.3028 1.94972 28.5927 2.00082 28.8812C2.00391 28.8988 2.00775 28.9163 2.01216 28.9335L5.27109 41.6268C5.43103 42.3081 6.02953 42.7829 6.73031 42.7829H16.4562V45.8884C16.4562 47.0527 17.4034 48 18.5678 48H23.6177C24.7821 48 25.7295 47.0527 25.7295 45.8884V33.5125C25.7295 32.3481 24.7822 31.4008 23.6177 31.4008H20.6305L20.9802 30.0389H32.9543L35.9813 33.6197C36.1149 33.7778 36.3114 33.8689 36.5183 33.8689H41.1439C41.731 33.8689 42.0599 33.1602 41.6809 32.7118L39.4213 30.0388H47.2969C47.6853 30.0388 48 29.724 48 29.3357V9.57251C48 8.66342 46.5938 8.66342 46.5938 9.57251V28.6327H21.3098C21.323 28.5105 21.331 28.3884 21.332 28.2667C21.7918 27.8322 22.163 27.3293 22.437 26.7802H44.038C44.4264 26.7802 44.7412 26.4654 44.7412 26.0771V3.96196C44.7412 3.57365 44.4264 3.25884 44.038 3.25884H9.3388C8.95049 3.25884 8.63568 3.57365 8.63568 3.96196V15.6662C8.00333 15.6722 7.37343 15.792 6.78318 16.0192V1.40625H46.5937V5.65368C46.5938 6.04199 46.9085 6.3568 47.2969 6.3568ZM6.73031 41.3766C6.67396 41.3618 6.64228 41.3313 6.63515 41.2851L3.38128 28.6114C3.15422 27.2439 4.25944 25.9445 5.64815 25.9445C6.9119 25.9445 7.93996 26.9727 7.93996 28.2363C7.93996 28.2539 7.94062 28.2717 7.94193 28.2893L8.23208 32.1303C8.30062 33.0372 9.70274 32.9307 9.6343 32.0244L9.34668 28.2163C9.35755 26.9618 10.381 25.9444 11.638 25.9444C12.895 25.9444 13.9185 26.9618 13.9293 28.2163L12.9351 41.3765H10.3407L9.91639 35.7595C9.84796 34.8529 8.44574 34.9589 8.51418 35.8654L8.93043 41.3765H6.73031V41.3766ZM24.3232 43.1121H17.8623V35.2992H24.3232V43.1121ZM23.6177 46.5937H18.5678C18.1788 46.5937 17.8624 46.2773 17.8624 45.8883V44.5183H24.3233V45.8883C24.3232 46.2773 24.0067 46.5937 23.6177 46.5937ZM24.3232 33.5125V33.893H17.8623V33.5125C17.8623 33.1235 18.1788 32.8071 18.5677 32.8071H23.6176C24.0067 32.8071 24.3232 33.1235 24.3232 33.5125ZM18.5678 31.4008C17.4034 31.4008 16.4562 32.3481 16.4562 33.5125V41.3766H14.3456L15.3342 28.2893C15.3355 28.2717 15.3362 28.254 15.3362 28.2363C15.3362 26.9727 16.3642 25.9445 17.634 25.9445C19.0158 25.9445 20.1219 27.244 19.8948 28.6114L19.1787 31.4008H18.5678ZM39.6288 32.4627H36.8446L34.7957 30.0388H37.58L39.6288 32.4627ZM43.335 4.66508V25.374H22.9048C22.9776 24.971 23.0043 24.5555 22.9821 24.1338C22.8482 21.5903 20.8967 19.5097 18.4275 19.1575C18.2565 18.3152 17.8224 17.5524 17.1718 16.9668C16.3698 16.2451 15.3348 15.8797 14.2573 15.9356C13.4093 15.9802 12.616 16.2822 11.9646 16.7995C11.393 16.3508 10.7378 16.0266 10.042 15.8426V4.66508H43.335ZM8.48193 17.0773C9.59858 17.0177 10.6899 17.4439 11.4748 18.2447C11.8245 18.5339 12.167 18.5256 12.5023 18.2197C12.9739 17.6896 13.6234 17.3771 14.3312 17.3399C15.0343 17.3029 15.7083 17.5416 16.2311 18.0121C16.7519 18.4807 17.0598 19.1234 17.0987 19.8225C17.0988 19.8287 17.099 19.8359 17.0992 19.8401C17.1153 20.2093 17.4144 20.5031 17.7838 20.5125C19.8048 20.5637 21.4713 22.1869 21.5777 24.2078C21.6227 25.0623 21.3942 25.8826 20.9353 26.5709C20.3121 25.338 19.0115 24.5384 17.6279 24.5384C16.397 24.5384 15.3056 25.1434 14.633 26.071C13.9605 25.1433 12.8689 24.5384 11.638 24.5384C10.4071 24.5384 9.31536 25.1435 8.6428 26.0713C7.96968 25.1435 6.87665 24.5384 5.64215 24.5384C4.26037 24.5384 2.96128 25.3418 2.33991 26.5726C1.79166 26.1101 1.44891 25.4377 1.41 24.6992C1.37297 23.9969 1.61175 23.3221 2.08219 22.7993C2.55272 22.2765 3.19866 21.9682 3.90122 21.9312C4.34569 21.908 4.83834 21.7494 4.78875 21.1709C4.68112 19.0256 6.33581 17.1903 8.48193 17.0773Z" fill="#F4C4F7"/>
<path id="Vector_2" d="M26.6884 17.7559C25.6721 17.7559 24.7164 18.152 23.997 18.8714C23.3542 19.5142 24.3485 20.5085 24.9914 19.8657C25.4452 19.412 26.0479 19.162 26.6885 19.162C27.3291 19.162 27.9318 19.412 28.3856 19.8657C29.0284 20.5085 30.0228 19.5142 29.38 18.8714C28.6604 18.152 27.7046 17.7559 26.6884 17.7559Z" fill="#F4C4F7"/>
<path id="Vector_3" d="M26.6884 13.9395C24.6638 13.9395 22.7593 14.7288 21.3259 16.1623C20.683 16.8051 21.6775 17.7994 22.3202 17.1566C23.4881 15.9887 25.0392 15.3456 26.6883 15.3456C28.3374 15.3456 29.8887 15.9887 31.0564 17.1566C31.6992 17.7994 32.6937 16.8051 32.0508 16.1623C30.6175 14.7288 28.713 13.9395 26.6884 13.9395Z" fill="#F4C4F7"/>
<path id="Vector_4" d="M20.3252 14.0117C23.8339 10.5029 29.5431 10.5029 33.0517 14.0117C33.6947 14.6544 34.6891 13.6602 34.0461 13.0173C29.9891 8.96032 23.3878 8.96041 19.3307 13.0173C18.6879 13.6601 19.6823 14.6544 20.3252 14.0117Z" fill="#F4C4F7"/>
</g>
</g>
<defs>
<clipPath id="clip0_743_9558">
<rect width="48" height="48" fill="white"/>
</clipPath>
</defs>
</svg>
