<svg width="48" height="49" viewBox="0 0 48 49" fill="none" xmlns="http://www.w3.org/2000/svg">
<g id="fi_2432846">
<g id="Group">
<path id="Vector" d="M33.7189 28.739C34.4894 28.7381 35.2281 28.4316 35.7729 27.8868C36.3177 27.342 36.6242 26.6033 36.6251 25.8328V25.6884H38.9287C39.1027 25.6883 39.2696 25.6191 39.3927 25.4961C39.5157 25.373 39.5849 25.2062 39.585 25.0321V16.2046C39.5849 16.0306 39.5157 15.8638 39.3927 15.7407C39.2696 15.6177 39.1027 15.5485 38.9287 15.5484H36.6251V15.4048C36.6239 14.6344 36.3173 13.896 35.7725 13.3514C35.2277 12.8069 34.4892 12.5005 33.7189 12.4996H25.7812V9.92301C26.5977 9.52084 27.2541 8.85418 27.6436 8.03153C28.033 7.20887 28.1326 6.27863 27.9261 5.39218C27.7197 4.50572 27.2193 3.71522 26.5064 3.14932C25.7936 2.58341 24.9102 2.27539 24 2.27539C23.0898 2.27539 22.2064 2.58341 21.4935 3.14932C20.7807 3.71522 20.2803 4.50572 20.0738 5.39218C19.8673 6.27863 19.9669 7.20887 20.3564 8.03153C20.7458 8.85418 21.4022 9.52084 22.2187 9.92301V12.4996H14.2811C13.5106 12.5005 12.7719 12.807 12.2271 13.3518C11.6822 13.8967 11.3757 14.6354 11.3749 15.4059V15.5495H9.07123C8.89721 15.5496 8.73035 15.6188 8.6073 15.7418C8.48425 15.8649 8.41508 16.0317 8.41498 16.2058V25.0321C8.41508 25.2062 8.48425 25.373 8.6073 25.4961C8.73035 25.6191 8.89721 25.6883 9.07123 25.6884H11.3749V25.8328C11.3757 26.6033 11.6822 27.342 12.2271 27.8868C12.7719 28.4316 13.5106 28.7381 14.2811 28.739H18.8437V30.7325H11.322C10.5515 30.7334 9.81277 31.0399 9.26794 31.5847C8.7231 32.1296 8.41662 32.8682 8.41573 33.6388V46.0621C8.41583 46.2362 8.485 46.403 8.60805 46.5261C8.7311 46.6491 8.89796 46.7183 9.07198 46.7184H38.928C39.102 46.7183 39.2689 46.6491 39.3919 46.5261C39.515 46.403 39.5841 46.2362 39.5842 46.0621V33.6388C39.5833 32.8682 39.2769 32.1296 38.732 31.5847C38.1872 31.0399 37.4485 30.7334 36.678 30.7325H29.1562V28.739H33.7189ZM38.2725 16.8609V24.3759H36.6251V16.8609H38.2725ZM21.2812 6.31213C21.2812 5.77442 21.4407 5.24877 21.7394 4.80168C22.0382 4.35458 22.4628 4.00611 22.9596 3.80034C23.4563 3.59456 24.003 3.54072 24.5304 3.64562C25.0578 3.75053 25.5422 4.00946 25.9224 4.38969C26.3026 4.76991 26.5616 5.25435 26.6665 5.78173C26.7714 6.30912 26.7176 6.85577 26.5118 7.35255C26.306 7.84934 25.9575 8.27395 25.5104 8.57269C25.0633 8.87143 24.5377 9.03088 24 9.03088C23.2792 9.03009 22.5881 8.7434 22.0784 8.2337C21.5687 7.72401 21.282 7.03295 21.2812 6.31213ZM23.5312 10.3138C23.8425 10.3533 24.1575 10.3533 24.4687 10.3138V12.4996H23.5312V10.3138ZM9.72748 24.3759V16.8609H11.3749V24.3759H9.72748ZM12.6874 25.8328V15.4048C12.6878 14.9822 12.8559 14.5771 13.1547 14.2784C13.4535 13.9796 13.8586 13.8115 14.2811 13.811H22.8641H22.875C22.875 13.811 22.8821 13.811 22.8859 13.811H25.1141H25.125C25.125 13.811 25.1321 13.811 25.1359 13.811H33.7189C34.1414 13.8115 34.5465 13.9796 34.8453 14.2784C35.144 14.5771 35.3121 14.9822 35.3126 15.4048V25.8328C35.3121 26.2553 35.144 26.6604 34.8453 26.9592C34.5465 27.2579 34.1414 27.426 33.7189 27.4265H28.518C28.512 27.4265 28.5064 27.4246 28.5 27.4246C28.4936 27.4246 28.488 27.4246 28.482 27.4265H19.5195C19.5135 27.4265 19.5079 27.4246 19.5015 27.4246C19.4951 27.4246 19.4895 27.4246 19.4835 27.4265H14.2811C13.8586 27.426 13.4535 27.2579 13.1547 26.9592C12.8559 26.6604 12.6878 26.2553 12.6874 25.8328ZM31.7809 45.4059H16.2184V39.992H31.7809V45.4059ZM38.2717 33.6388V45.4059H33.0934V39.3358C33.0934 39.1617 33.0242 38.9948 32.9011 38.8717C32.7781 38.7486 32.6112 38.6795 32.4371 38.6795H15.5621C15.3881 38.6796 15.2212 38.7488 15.0982 38.8718C14.9751 38.9949 14.906 39.1617 14.9059 39.3358V45.4059H9.72823V33.6388C9.72872 33.2162 9.8968 32.8111 10.1956 32.5124C10.4944 32.2136 10.8994 32.0455 11.322 32.045H36.678C37.1005 32.0455 37.5056 32.2136 37.8044 32.5124C38.1032 32.8111 38.2712 33.2162 38.2717 33.6388ZM27.8437 30.7325H20.1562V28.739H27.8437V30.7325Z" fill="#F4C4F7"/>
<path id="Vector_2" d="M20.7191 19.1174C20.719 18.5427 20.5484 17.9809 20.229 17.503C19.9096 17.0252 19.4556 16.6528 18.9246 16.433C18.3936 16.2131 17.8093 16.1556 17.2456 16.2678C16.6819 16.38 16.1641 16.6568 15.7577 17.0633C15.3513 17.4697 15.0746 17.9875 14.9625 18.5512C14.8503 19.1149 14.9079 19.6992 15.1278 20.2303C15.3477 20.7613 15.7202 21.2151 16.198 21.5345C16.6759 21.8538 17.2377 22.0243 17.8125 22.0244C18.5832 22.0236 19.3221 21.7171 19.867 21.1721C20.412 20.6271 20.7184 19.8881 20.7191 19.1174ZM17.8125 20.7119C17.4973 20.7119 17.1891 20.6184 16.9271 20.4433C16.665 20.2682 16.4607 20.0193 16.3401 19.7281C16.2194 19.4368 16.1879 19.1164 16.2494 18.8072C16.3109 18.4981 16.4627 18.2141 16.6855 17.9912C16.9084 17.7683 17.1924 17.6165 17.5016 17.555C17.8107 17.4935 18.1312 17.5251 18.4224 17.6457C18.7136 17.7664 18.9625 17.9706 19.1376 18.2327C19.3128 18.4948 19.4062 18.803 19.4062 19.1182C19.4057 19.5407 19.2377 19.9458 18.9389 20.2446C18.6401 20.5433 18.235 20.7114 17.8125 20.7119Z" fill="#F4C4F7"/>
<path id="Vector_3" d="M30.1875 22.0244C30.7623 22.0244 31.3242 21.854 31.8021 21.5346C32.2801 21.2153 32.6526 20.7614 32.8725 20.2303C33.0925 19.6993 33.15 19.1149 33.0379 18.5512C32.9258 17.9874 32.649 17.4696 32.2425 17.0631C31.8361 16.6567 31.3182 16.3799 30.7545 16.2678C30.1907 16.1556 29.6064 16.2132 29.0753 16.4331C28.5443 16.6531 28.0904 17.0256 27.771 17.5035C27.4517 17.9815 27.2812 18.5434 27.2812 19.1182C27.2821 19.8887 27.5886 20.6274 28.1335 21.1722C28.6783 21.717 29.417 22.0235 30.1875 22.0244ZM30.1875 17.5244C30.5027 17.5244 30.8108 17.6179 31.0729 17.793C31.335 17.9681 31.5393 18.217 31.6599 18.5083C31.7806 18.7995 31.8121 19.1199 31.7506 19.4291C31.6891 19.7382 31.5373 20.0222 31.3145 20.2451C31.0916 20.468 30.8076 20.6198 30.4984 20.6813C30.1893 20.7428 29.8688 20.7112 29.5776 20.5906C29.2864 20.47 29.0375 20.2657 28.8623 20.0036C28.6872 19.7415 28.5937 19.4334 28.5937 19.1182C28.5942 18.6956 28.7623 18.2905 29.0611 17.9918C29.3599 17.693 29.765 17.5249 30.1875 17.5244Z" fill="#F4C4F7"/>
<path id="Vector_4" d="M19.4531 24.8281C19.4532 25.0021 19.5224 25.169 19.6454 25.2921C19.7685 25.4151 19.9354 25.4843 20.1094 25.4844H27.8906C28.0647 25.4844 28.2316 25.4152 28.3547 25.2922C28.4777 25.1691 28.5469 25.0022 28.5469 24.8281C28.5469 24.6541 28.4777 24.4872 28.3547 24.3641C28.2316 24.241 28.0647 24.1719 27.8906 24.1719H20.1094C19.9354 24.172 19.7685 24.2411 19.6454 24.3642C19.5224 24.4872 19.4532 24.6541 19.4531 24.8281Z" fill="#F4C4F7"/>
<path id="Vector_5" d="M35.553 36.5449C35.9053 36.5449 36.2497 36.4405 36.5426 36.2447C36.8355 36.049 37.0638 35.7708 37.1986 35.4453C37.3335 35.1198 37.3687 34.7617 37.3 34.4162C37.2313 34.0706 37.0616 33.7533 36.8125 33.5041C36.5634 33.255 36.246 33.0854 35.9005 33.0166C35.555 32.9479 35.1968 32.9832 34.8713 33.118C34.5458 33.2528 34.2677 33.4811 34.0719 33.7741C33.8762 34.067 33.7717 34.4114 33.7717 34.7637C33.7723 35.2359 33.9602 35.6886 34.2941 36.0225C34.628 36.3565 35.0807 36.5443 35.553 36.5449ZM35.553 34.2949C35.6457 34.2949 35.7363 34.3224 35.8134 34.3739C35.8905 34.4254 35.9506 34.4986 35.986 34.5843C36.0215 34.6699 36.0308 34.7642 36.0127 34.8551C35.9946 34.946 35.95 35.0296 35.8844 35.0951C35.8189 35.1607 35.7354 35.2053 35.6444 35.2234C35.5535 35.2415 35.4592 35.2322 35.3736 35.1967C35.2879 35.1613 35.2147 35.1012 35.1632 35.0241C35.1117 34.947 35.0842 34.8564 35.0842 34.7637C35.0843 34.6394 35.1337 34.5202 35.2216 34.4323C35.3095 34.3444 35.4287 34.295 35.553 34.2949Z" fill="#F4C4F7"/>
<path id="Vector_6" d="M10.6657 34.7637C10.6657 35.116 10.7702 35.4604 10.9659 35.7533C11.1616 36.0462 11.4398 36.2745 11.7653 36.4093C12.0908 36.5442 12.4489 36.5794 12.7945 36.5107C13.14 36.442 13.4574 36.2723 13.7065 36.0232C13.9556 35.7741 14.1253 35.4567 14.194 35.1112C14.2627 34.7656 14.2274 34.4075 14.0926 34.082C13.9578 33.7565 13.7295 33.4783 13.4366 33.2826C13.1436 33.0869 12.7993 32.9824 12.447 32.9824C11.9747 32.983 11.522 33.1709 11.1881 33.5048C10.8542 33.8387 10.6663 34.2914 10.6657 34.7637ZM12.447 34.2949C12.5397 34.2949 12.6303 34.3224 12.7074 34.3739C12.7845 34.4254 12.8445 34.4986 12.88 34.5843C12.9155 34.6699 12.9248 34.7642 12.9067 34.8551C12.8886 34.946 12.844 35.0296 12.7784 35.0951C12.7129 35.1607 12.6293 35.2053 12.5384 35.2234C12.4475 35.2415 12.3532 35.2322 12.2676 35.1967C12.1819 35.1613 12.1087 35.1012 12.0572 35.0241C12.0057 34.947 11.9782 34.8564 11.9782 34.7637C11.9782 34.6394 12.0276 34.5201 12.1155 34.4322C12.2034 34.3443 12.3226 34.2949 12.447 34.2949Z" fill="#F4C4F7"/>
</g>
</g>
</svg>
