<svg width="48" height="49" viewBox="0 0 48 49" fill="none" xmlns="http://www.w3.org/2000/svg">
<g id="fi_2204128" clip-path="url(#clip0_743_9576)">
<path id="Vector" d="M46.6491 31.578H46.396V30.0111C46.396 29.2917 45.8106 28.7063 45.0912 28.7063H43.7668L38.0521 22.9915C38.0277 22.9672 38.0017 22.9459 37.975 22.9258V15.1013H42.0995C42.3697 15.1013 42.6163 14.9474 42.7351 14.7045C42.8538 14.4617 42.824 14.1725 42.6581 13.9592L39.8275 10.3189C39.6934 10.1466 39.4873 10.0457 39.2689 10.0457H37.773L14.7577 0.910232C14.7354 0.901268 14.7124 0.893437 14.689 0.886738C14.6815 0.884568 14.6739 0.883152 14.6664 0.881265C14.6523 0.877774 14.6383 0.874094 14.6239 0.871452C14.6104 0.868905 14.5968 0.867301 14.5832 0.865602C14.5748 0.864564 14.5665 0.863149 14.558 0.862394C14.5414 0.860885 14.525 0.860319 14.5085 0.860035C14.5037 0.859941 14.4991 0.859375 14.4943 0.859375H14.4838C14.4815 0.859375 14.4791 0.859375 14.4768 0.859375H12.735C12.368 0.859375 12.0619 1.13989 12.03 1.50542L11.2838 10.0458H6.50864C6.48533 9.13168 5.73607 8.39478 4.8164 8.39478H1.69441C0.760117 8.39468 0 9.1548 0 10.0891V15.1591C0 16.0934 0.760117 16.8535 1.69441 16.8535H4.8164C5.75069 16.8535 6.51081 16.0934 6.51081 15.1591V15.1014H11.0011L10.161 43.0539H9.51533C8.1187 43.0539 6.98249 44.1901 6.98249 45.5867V47.4336C6.98249 47.8244 7.29933 48.1412 7.69014 48.1412H8.96062C9.35143 48.1412 9.66828 47.8244 9.66828 47.4336C9.66828 47.0428 9.35143 46.7259 8.96062 46.7259H8.3978V45.5867C8.3978 44.9705 8.8991 44.4692 9.51533 44.4692H11.6075H18.4731C19.0893 44.4692 19.5906 44.9705 19.5906 45.5867V46.7259H11.7911C11.4003 46.7259 11.0835 47.0428 11.0835 47.4336C11.0835 47.8244 11.4003 48.1412 11.7911 48.1412H20.2983C20.6891 48.1412 21.006 47.8244 21.006 47.4336V45.5867C21.006 44.1901 19.8697 43.0539 18.4731 43.0539H17.0715L16.2314 15.1014H20.1448V18.6309C20.1448 19.6422 20.9676 20.4649 21.9788 20.4649H27.4083C28.4195 20.4649 29.2423 19.6422 29.2423 18.6309V15.1014H36.5594V22.8667C36.4987 22.8989 36.4416 22.9404 36.3905 22.9915L30.6757 28.7063H29.2545C28.535 28.7063 27.9497 29.2917 27.9497 30.0111V31.578H27.2908C26.5459 31.578 25.9399 32.184 25.9399 32.9289V34.2601C25.9399 35.0049 26.5459 35.6108 27.2908 35.6108H29.1896C29.5804 35.6108 29.8972 35.294 29.8972 34.9032C29.8972 34.5124 29.5804 34.1955 29.1896 34.1955H27.3552V32.9934H46.5844V34.1955H32.0205C31.6297 34.1955 31.3128 34.5124 31.3128 34.9032C31.3128 35.294 31.6297 35.6108 32.0205 35.6108H46.6491C47.394 35.6108 48 35.0049 48 34.2601V32.9289C48 32.1841 47.394 31.578 46.6491 31.578ZM13.3835 2.27469H13.8458L14.5248 10.0458H12.7045L13.3835 2.27469ZM5.0955 15.1591C5.0955 15.313 4.97029 15.4382 4.8164 15.4382H1.69441C1.54052 15.4382 1.41531 15.313 1.41531 15.1591V10.0891C1.41531 9.9352 1.54052 9.80999 1.69441 9.80999H4.8164C4.97029 9.80999 5.0955 9.9352 5.0955 10.0891V10.7534V14.3937V15.1591ZM6.51081 11.4611H20.8526C21.2434 11.4611 21.5603 11.1443 21.5603 10.7534C21.5603 10.3626 21.2434 10.0458 20.8526 10.0458H15.9454L15.299 2.64776L33.9367 10.0458H23.6833C23.2924 10.0458 22.9756 10.3626 22.9756 10.7534C22.9756 11.1443 23.2924 11.4611 23.6833 11.4611H37.6334C37.6347 11.4611 37.6361 11.4613 37.6374 11.4613C37.6382 11.4613 37.639 11.4611 37.6398 11.4611H38.9226L40.6526 13.6861H28.5348H20.8525H6.51072L6.51081 11.4611ZM12.2476 20.7416L14.3832 22.2878L12.1067 25.4322L12.2476 20.7416ZM12.3704 35.4808L15.3174 31.7989L15.4961 37.7455L12.3704 35.4808ZM12.5896 27.1786L15.0754 23.7451L15.2362 29.0961L12.5896 27.1786ZM12.0142 28.5096L14.624 30.4003L11.8533 33.8617L12.0142 28.5096ZM14.624 38.8613L11.5891 42.6529L11.7653 36.7903L14.624 38.8613ZM12.7908 19.3876L14.862 16.6409L14.9925 20.9816L12.7908 19.3876ZM14.2501 15.1014L12.341 17.6333L12.4171 15.1014H14.2501ZM13.0811 43.0538L15.5626 39.9537L15.6557 43.0538H13.0811ZM27.8273 18.6309C27.8273 18.8618 27.6394 19.0496 27.4085 19.0496H21.9791C21.7482 19.0496 21.5604 18.8618 21.5604 18.6309V15.1014H27.8273V18.6309ZM41.7653 28.7063H37.975V24.916L41.7653 28.7063ZM36.5597 24.8243V28.7064H32.6776L36.5597 24.8243ZM29.3653 30.1216H44.9807V31.578H29.3653V30.1216Z" fill="#F4C4F7"/>
</g>
<defs>
<clipPath id="clip0_743_9576">
<rect width="48" height="48" fill="white" transform="translate(0 0.5)"/>
</clipPath>
</defs>
</svg>
