<svg width="48" height="49" viewBox="0 0 48 49" fill="none" xmlns="http://www.w3.org/2000/svg">
<g id="fi_3655608" clip-path="url(#clip0_743_9580)">
<g id="Group">
<g id="Group_2">
<path id="Vector" d="M43.7707 29.1157C43.4962 28.8412 43.0537 28.8438 42.779 29.1184C42.5044 29.393 42.5071 29.8408 42.7817 30.1155C42.919 30.2528 43.099 30.3214 43.2789 30.3214C43.4588 30.3214 43.6388 30.2528 43.776 30.1155C44.0506 29.8408 44.0506 29.3957 43.776 29.1211L43.7707 29.1157Z" fill="#F4C4F7"/>
<path id="Vector_2" d="M39.3471 29.1137C39.0714 28.8402 38.6288 28.8448 38.3555 29.1206C38.0821 29.3963 38.0867 29.8442 38.3625 30.1176C38.4995 30.2537 38.6786 30.3215 38.8576 30.3215C39.0385 30.3215 39.2194 30.2522 39.3569 30.1135C39.6304 29.8378 39.6284 29.3926 39.3527 29.1192L39.3471 29.1137Z" fill="#F4C4F7"/>
<path id="Vector_3" d="M34.9278 29.1157C34.6533 28.8412 34.2108 28.8438 33.9362 29.1184C33.6616 29.393 33.6643 29.8408 33.9389 30.1155C34.0761 30.2528 34.2561 30.3214 34.436 30.3214C34.6159 30.3214 34.7959 30.2528 34.9332 30.1155C35.2078 29.8408 35.2078 29.3957 34.9332 29.1211L34.9278 29.1157Z" fill="#F4C4F7"/>
<path id="Vector_4" d="M30.5065 29.1157C30.232 28.8412 29.7895 28.8438 29.5148 29.1184C29.2402 29.393 29.243 29.8408 29.5176 30.1155C29.6548 30.2528 29.8348 30.3214 30.0147 30.3214C30.1946 30.3214 30.3746 30.2528 30.5119 30.1155C30.7865 29.8408 30.7865 29.3957 30.5119 29.1211L30.5065 29.1157Z" fill="#F4C4F7"/>
<path id="Vector_5" d="M26.0852 29.1157C25.8107 28.8412 25.3682 28.8438 25.0935 29.1184C24.8189 29.393 24.8216 29.8408 25.0962 30.1155C25.2335 30.2528 25.4135 30.3214 25.5934 30.3214C25.7733 30.3214 25.9533 30.2528 26.0905 30.1155C26.3651 29.8408 26.3651 29.3957 26.0905 29.1211L26.0852 29.1157Z" fill="#F4C4F7"/>
<path id="Vector_6" d="M21.6637 29.1157C21.3892 28.8412 20.9467 28.8438 20.6721 29.1184C20.3975 29.393 20.4002 29.8408 20.6748 30.1155C20.812 30.2528 20.992 30.3214 21.1719 30.3214C21.3518 30.3214 21.5318 30.2528 21.6691 30.1155C21.9437 29.8408 21.9437 29.3957 21.6691 29.1211L21.6637 29.1157Z" fill="#F4C4F7"/>
<path id="Vector_7" d="M41.6486 25.8593C41.4328 25.5365 40.9961 25.4498 40.6734 25.6655C40.3506 25.8814 40.2638 26.318 40.4797 26.6408L40.4851 26.6489C40.6207 26.8517 40.8433 26.9614 41.0703 26.9614C41.2046 26.9614 41.3404 26.9229 41.4605 26.8427C41.7833 26.6268 41.8701 26.1902 41.6542 25.8674L41.6486 25.8593Z" fill="#F4C4F7"/>
<path id="Vector_8" d="M37.1372 25.7528C36.8626 25.4783 36.4174 25.4783 36.1429 25.7528C35.8683 26.0274 35.8683 26.4726 36.1429 26.7472L36.1511 26.7553C36.2883 26.8926 36.4683 26.9612 36.6482 26.9612C36.8281 26.9612 37.0081 26.8926 37.1454 26.7553C37.42 26.4806 37.42 26.0355 37.1454 25.7609L37.1372 25.7528Z" fill="#F4C4F7"/>
<path id="Vector_9" d="M32.7105 25.7475C32.4359 25.4729 31.9934 25.4757 31.7188 25.7502C31.4442 26.0248 31.4469 26.4727 31.7215 26.7474C31.8588 26.8846 32.0388 26.9532 32.2187 26.9532C32.3986 26.9532 32.5786 26.8846 32.7158 26.7474C32.9904 26.4727 32.9904 26.0276 32.7158 25.753L32.7105 25.7475Z" fill="#F4C4F7"/>
<path id="Vector_10" d="M28.2891 25.7475C28.0146 25.4729 27.5721 25.4757 27.2974 25.7502C27.0227 26.0247 27.0255 26.4727 27.3001 26.7474C27.4374 26.8846 27.6174 26.9532 27.7973 26.9532C27.9772 26.9532 28.1572 26.8846 28.2944 26.7474C28.569 26.4727 28.569 26.0276 28.2944 25.753L28.2891 25.7475Z" fill="#F4C4F7"/>
<path id="Vector_11" d="M23.9512 25.848C23.7367 25.5244 23.3004 25.4357 22.9766 25.6504C22.6529 25.8649 22.5645 26.3013 22.7791 26.625L22.7845 26.6331C22.9198 26.8373 23.1433 26.9479 23.3712 26.9479C23.5046 26.9479 23.6395 26.91 23.7591 26.8307C24.0828 26.6162 24.1712 26.1799 23.9566 25.8561L23.9512 25.848Z" fill="#F4C4F7"/>
<path id="Vector_12" d="M34.0314 23.4803C34.1522 23.562 34.2891 23.6011 34.4246 23.6011C34.6502 23.6011 34.8719 23.4927 35.0078 23.2917L35.0132 23.2837C35.2307 22.9619 35.1462 22.5248 34.8246 22.3073C34.5029 22.0897 34.0658 22.1742 33.8483 22.496L33.8428 22.504C33.6253 22.8258 33.7098 23.2628 34.0314 23.4803Z" fill="#F4C4F7"/>
<path id="Vector_13" d="M29.6123 23.4817C29.7326 23.5623 29.8686 23.6009 30.0033 23.6009C30.2299 23.6009 30.4523 23.4916 30.5879 23.2893L30.5933 23.2812C30.8096 22.9587 30.7235 22.5218 30.4009 22.3057C30.0783 22.0896 29.6415 22.1755 29.4253 22.4981L29.4199 22.5062C29.2037 22.8287 29.2898 23.2655 29.6123 23.4817Z" fill="#F4C4F7"/>
<path id="Vector_14" d="M46.2004 33.8303C47.1927 33.8303 48 33.0229 48 32.0306V31.0694C48 27.3017 46.2637 24.1428 42.9785 21.9342C40.1298 20.0187 36.31 18.9639 32.2226 18.9639C32.0955 18.9639 31.9688 18.9649 31.8422 18.967L32.2374 16.0644C33.2204 16.0215 34.0074 15.2108 34.0074 14.2174V12.6063C34.0074 11.5842 33.1771 10.7525 32.1563 10.7525H19.8174V6.44029L25.409 4.98492C26.6211 4.6671 27.3517 3.42173 27.0372 2.20729C26.7202 0.993791 25.4736 0.261791 24.2572 0.575572L16.9654 2.47645C15.9468 2.74288 15.2624 3.62882 15.2624 4.68107V10.7524H1.85109C0.830344 10.7524 0 11.5841 0 12.6062V14.2173C0 15.2107 0.787125 16.0214 1.77009 16.0643L5.88169 46.2427C6.06216 47.5701 7.02562 48.4973 8.22459 48.4973H19.4257H45.0199C46.6631 48.4973 48 47.1603 48 45.5171V43.7382C48 43.0757 47.4599 42.5369 46.796 42.5369H45.4685V40.6168C46.6646 40.2833 47.5451 39.1838 47.5451 37.8817C47.5451 36.5899 46.6769 35.4978 45.4937 35.1564C45.6564 34.7535 45.7683 34.3099 45.8225 33.8304H46.2004V33.8303ZM16.6686 4.68107C16.6686 4.27204 16.9247 3.94073 17.3206 3.83714L24.6102 1.93673C25.0765 1.81645 25.555 2.09732 25.6762 2.56129C25.7964 3.02582 25.5165 3.50282 25.0534 3.62432L18.9371 5.21629C18.6273 5.29682 18.4111 5.57667 18.4111 5.89673V10.7523H16.6685V4.68107H16.6686ZM3.18994 16.0684H15.9465C16.3348 16.0684 16.6496 15.7537 16.6496 15.3653C16.6496 14.9769 16.3348 14.6622 15.9465 14.6622H1.85109C1.60997 14.6622 1.40625 14.4584 1.40625 14.2173V12.6062C1.40625 12.3636 1.60997 12.1587 1.85109 12.1587H32.1564C32.3976 12.1587 32.6013 12.3637 32.6013 12.6062V14.2173C32.6013 14.4584 32.3976 14.6622 32.1564 14.6622H19.2876C18.8993 14.6622 18.5844 14.9769 18.5844 15.3653C18.5844 15.7537 18.8993 16.0684 19.2876 16.0684H30.8177L30.4139 19.0342C27.0176 19.2983 23.8907 20.3044 21.4671 21.9342C19.9455 22.9572 18.7568 24.1844 17.9184 25.5812L5.07281 29.8889L3.18994 16.0684ZM5.2005 30.8256C5.20491 30.8388 5.20612 30.8523 5.20603 30.8659L5.2005 30.8256ZM5.26613 31.3073L17.0786 27.3459C16.6597 28.5025 16.4454 29.7483 16.4454 31.0694V32.0306C16.4454 33.0229 17.2528 33.8303 18.2452 33.8303H18.6231C18.6772 34.3099 18.789 34.7534 18.9517 35.1564C17.7684 35.4979 16.9003 36.59 16.9003 37.8817C16.9003 38.1214 16.9306 38.354 16.9867 38.5765L6.74016 42.1265L5.26613 31.3073ZM16.8967 47.091H8.22459C7.66612 47.091 7.34531 46.5698 7.27509 46.053L6.93375 43.5478L17.6748 39.8264C18.0247 40.1977 18.4721 40.476 18.977 40.6168V42.5369H17.6495C16.9855 42.5369 16.4454 43.0757 16.4454 43.7382V45.5171C16.4454 46.0946 16.6111 46.6339 16.8967 47.091ZM46.5938 43.9431V45.5171C46.5938 46.385 45.8877 47.091 45.0199 47.091H19.4257C18.5578 47.091 17.8517 46.385 17.8517 45.5171V43.9431H31.5959C31.9842 43.9431 32.299 43.6284 32.299 43.24C32.299 42.8516 31.9842 42.5369 31.5959 42.5369H20.3832V40.7211H44.0622V42.5369H34.9045C34.5162 42.5369 34.2014 42.8516 34.2014 43.24C34.2014 43.6284 34.5162 43.9431 34.9045 43.9431H46.5938ZM46.1389 37.8817C46.1389 38.672 45.4972 39.3148 44.7085 39.3148H19.737C18.9483 39.3148 18.3067 38.672 18.3067 37.8817C18.3067 37.0929 18.9483 36.4512 19.737 36.4512H19.7947C20.1022 36.7599 20.4622 37.0125 20.874 37.1964C22.1746 37.7772 23.7465 37.5819 24.8855 36.7243C25.5913 37.3521 26.4518 37.694 27.3425 37.694C28.2264 37.694 29.0806 37.3573 29.7834 36.7385C30.4857 37.3556 31.3388 37.6913 32.2214 37.6913C33.1046 37.6913 33.9577 37.3564 34.6607 36.7396C35.3634 37.3577 36.2182 37.6941 37.1032 37.6941C37.9945 37.6941 38.8556 37.3517 39.5602 36.7245C40.6987 37.5822 42.2692 37.7772 43.5697 37.1969C43.982 37.013 44.3424 36.7602 44.6503 36.4513H44.7085C45.4972 36.4512 46.1389 37.0928 46.1389 37.8817ZM20.0409 33.8303H44.4046C44.2545 34.8406 43.768 35.5685 42.9968 35.9126C42.1087 36.3087 40.9773 36.126 40.2403 35.4644C39.6129 34.9111 39.112 35.1795 38.8003 35.5045C38.3197 36.0096 37.717 36.2878 37.1032 36.2878C36.4875 36.2878 35.8838 36.0095 35.4033 35.5045C35.3914 35.4919 35.3789 35.4797 35.3662 35.4681C34.7374 34.898 34.2326 35.1726 33.9215 35.5017C33.4339 36.0141 32.8461 36.2849 32.2215 36.2849C31.6076 36.2849 31.0048 36.0068 30.5257 35.5032C30.2147 35.1742 29.7113 34.9004 29.0804 35.465C29.0663 35.4776 29.0528 35.4906 29.0398 35.5044C28.5592 36.0095 27.9565 36.2877 27.3427 36.2877C26.7288 36.2877 26.1261 36.0094 25.6433 35.5021C25.3316 35.1771 24.8286 34.9074 24.2009 35.4682C23.4673 36.1259 22.3351 36.3085 21.4475 35.9122C20.6768 35.5683 20.1909 34.8404 20.0409 33.8303ZM18.2452 32.424C18.0282 32.424 17.8517 32.2475 17.8517 32.0306V31.0694C17.8517 26.9286 20.2444 24.4506 22.2516 23.1011C24.8708 21.34 28.4119 20.3701 32.2226 20.3701C36.0334 20.3701 39.5746 21.34 42.1938 23.1011C44.2011 24.4506 46.5938 26.9286 46.5938 31.0693V32.0305C46.5938 32.2474 46.4173 32.4239 46.2004 32.4239H18.2452V32.424Z" fill="#F4C4F7"/>
</g>
</g>
</g>
<defs>
<clipPath id="clip0_743_9580">
<rect width="48" height="48" fill="white" transform="translate(0 0.5)"/>
</clipPath>
</defs>
</svg>
