<svg width="48" height="49" viewBox="0 0 48 49" fill="none" xmlns="http://www.w3.org/2000/svg">
<g id="fi_2216014" clip-path="url(#clip0_743_9599)">
<g id="029---eSports">
<path id="Shape" d="M46.4 19.8472V17.3C46.3869 9.17175 39.9836 2.4911 31.8632 2.1336C31.5356 1.16127 30.626 0.504767 29.6 0.5H18.4C17.374 0.504767 16.4644 1.16127 16.1368 2.1336C8.01641 2.4911 1.61309 9.17175 1.6 17.3V19.8472C0.644519 20.185 0.00420111 21.0866 0 22.1V30.1C0.00420111 31.1134 0.644519 32.015 1.6 32.3528V43.7C1.6 45.4673 3.03269 46.9 4.8 46.9H9.6C9.6 47.7837 10.3163 48.5 11.2 48.5H16C16.8837 48.5 17.6 47.7837 17.6 46.9V45.3C17.6 44.4163 16.8837 43.7 16 43.7H11.2C10.3163 43.7 9.6 44.4163 9.6 45.3H4.8C3.91634 45.3 3.2 44.5837 3.2 43.7V32.5H4.8V35.044C4.80276 37.4858 6.69145 39.5106 9.12715 39.6831C11.5629 39.8556 13.718 38.1171 14.0648 35.7L14.88 29.9976C16.6638 29.7371 18.3245 28.9351 19.6376 27.7H28.3624C29.6755 28.9351 31.3362 29.7371 33.12 29.9976L33.9352 35.7C34.282 38.1171 36.4371 39.8556 38.8729 39.6831C41.3086 39.5106 43.1972 37.4858 43.2 35.044V32.5H45.6C46.9255 32.5 48 31.4255 48 30.1V22.1C47.9958 21.0866 47.3555 20.185 46.4 19.8472ZM11.2 45.3H16V46.9H11.2V45.3ZM18.4 2.1H29.6C30.0418 2.1 30.4 2.45817 30.4 2.9C30.4 3.34183 30.0418 3.7 29.6 3.7H18.4C17.9582 3.7 17.6 3.34183 17.6 2.9C17.6 2.45817 17.9582 2.1 18.4 2.1ZM2.4 30.9C1.95817 30.9 1.6 30.5418 1.6 30.1V22.1C1.6 21.6582 1.95817 21.3 2.4 21.3H4.8V30.9H2.4ZM41.6 35.044C41.5953 36.6443 40.3569 37.9699 38.7606 38.0833C37.1644 38.1967 35.7509 37.0595 35.52 35.476L34.6176 29.156C34.564 28.7834 34.2579 28.4986 33.8824 28.472C32.133 28.3477 30.489 27.5897 29.2584 26.34C29.1082 26.1867 28.9026 26.1002 28.688 26.1H19.312C19.0974 26.1002 18.8918 26.1867 18.7416 26.34C17.5115 27.5901 15.8678 28.3487 14.1184 28.4736C13.7429 28.5002 13.4368 28.785 13.3832 29.1576L12.48 35.476C12.2491 37.0595 10.8356 38.1967 9.2394 38.0833C7.64315 37.9699 6.40471 36.6443 6.4 35.044V21.3C6.40009 18.3749 8.1699 15.7405 10.8779 14.6346C13.586 13.5287 16.6939 14.1711 18.7416 16.26C18.8915 16.4137 19.0973 16.5003 19.312 16.5H28.688C28.9027 16.5003 29.1085 16.4137 29.2584 16.26C31.3061 14.1711 34.414 13.5287 37.1221 14.6346C39.8301 15.7405 41.5999 18.3749 41.6 21.3V35.044ZM34.4 12.5C32.1537 12.495 29.9916 13.3543 28.3616 14.9H19.6416C17.2993 12.6861 13.9335 11.9311 10.8699 12.9322C7.80629 13.9333 5.53586 16.5302 4.9528 19.7H3.2V17.3C3.2119 10.0456 8.91374 4.07661 16.16 3.7328C16.5071 4.67097 17.3997 5.29546 18.4 5.3H29.6C30.6003 5.29546 31.4929 4.67097 31.84 3.7328C39.0863 4.07661 44.7881 10.0456 44.8 17.3V19.7H43.0472C42.2726 15.532 38.6393 12.5068 34.4 12.5ZM46.4 30.1C46.4 30.5418 46.0418 30.9 45.6 30.9H43.2V21.3H45.6C46.0418 21.3 46.4 21.6582 46.4 22.1V30.1Z" fill="#F4C4F7"/>
<path id="Path" d="M16 20.4996H14.4V18.8996C14.4 18.4578 14.0419 18.0996 13.6 18.0996C13.1582 18.0996 12.8 18.4578 12.8 18.8996V20.4996H11.2C10.7582 20.4996 10.4 20.8578 10.4 21.2996C10.4 21.7414 10.7582 22.0996 11.2 22.0996H12.8V23.6996C12.8 24.1414 13.1582 24.4996 13.6 24.4996C14.0419 24.4996 14.4 24.1414 14.4 23.6996V22.0996H16C16.4419 22.0996 16.8 21.7414 16.8 21.2996C16.8 20.8578 16.4419 20.4996 16 20.4996Z" fill="#F4C4F7"/>
<path id="Path_2" d="M34.4 22.9004C33.9581 22.9004 33.6 23.2586 33.6 23.7004V24.5004C33.6 24.9422 33.9581 25.3004 34.4 25.3004C34.8418 25.3004 35.2 24.9422 35.2 24.5004V23.7004C35.2 23.2586 34.8418 22.9004 34.4 22.9004Z" fill="#F4C4F7"/>
<path id="Path_3" d="M34.4 17.2998C33.9581 17.2998 33.6 17.658 33.6 18.0998V18.8998C33.6 19.3416 33.9581 19.6998 34.4 19.6998C34.8418 19.6998 35.2 19.3416 35.2 18.8998V18.0998C35.2 17.658 34.8418 17.2998 34.4 17.2998Z" fill="#F4C4F7"/>
<path id="Path_4" d="M37.6 20.5H36.8C36.3582 20.5 36 20.8582 36 21.3C36 21.7418 36.3582 22.1 36.8 22.1H37.6C38.0418 22.1 38.4 21.7418 38.4 21.3C38.4 20.8582 38.0418 20.5 37.6 20.5Z" fill="#F4C4F7"/>
<path id="Path_5" d="M32 20.5H31.2C30.7582 20.5 30.4 20.8582 30.4 21.3C30.4 21.7418 30.7582 22.1 31.2 22.1H32C32.4419 22.1 32.8 21.7418 32.8 21.3C32.8 20.8582 32.4419 20.5 32 20.5Z" fill="#F4C4F7"/>
<path id="Path_6" d="M23.2 18.8996C23.2 18.4578 22.8418 18.0996 22.4 18.0996H20.8C20.3582 18.0996 20 18.4578 20 18.8996C20 19.3414 20.3582 19.6996 20.8 19.6996H22.4C22.8418 19.6996 23.2 19.3414 23.2 18.8996Z" fill="#F4C4F7"/>
<path id="Path_7" d="M27.2 18.0996H25.6C25.1582 18.0996 24.8 18.4578 24.8 18.8996C24.8 19.3414 25.1582 19.6996 25.6 19.6996H27.2C27.6418 19.6996 28 19.3414 28 18.8996C28 18.4578 27.6418 18.0996 27.2 18.0996Z" fill="#F4C4F7"/>
<path id="Path_8" d="M25.6 22.9004H22.4C21.9581 22.9004 21.6 23.2586 21.6 23.7004C21.6 24.1422 21.9581 24.5004 22.4 24.5004H25.6C26.0418 24.5004 26.4 24.1422 26.4 23.7004C26.4 23.2586 26.0418 22.9004 25.6 22.9004Z" fill="#F4C4F7"/>
</g>
</g>
<defs>
<clipPath id="clip0_743_9599">
<rect width="48" height="48" fill="white" transform="translate(0 0.5)"/>
</clipPath>
</defs>
</svg>
