<svg width="10" height="6" viewBox="0 0 10 6" fill="none" xmlns="http://www.w3.org/2000/svg">
<path d="M5.23906 1.84847C4.86805 0.771726 3.87196 0 2.69823 0C1.20746 0 0 1.24079 0 2.77272C0 4.30465 1.20746 5.54544 2.69823 5.54544C3.87196 5.54544 4.86805 4.77369 5.23906 3.69697H7.19527V5.54544H8.99409V3.69697H9.8935V1.84847H5.23906ZM2.69823 3.69695C2.20131 3.69695 1.79881 3.28336 1.79881 2.7727C1.79881 2.26204 2.20131 1.84847 2.69823 1.84847C3.19515 1.84847 3.59765 2.26206 3.59765 2.77272C3.59765 3.28338 3.19515 3.69695 2.69823 3.69695Z" fill="#8D8A8E"/>
</svg>
