<svg width="15" height="15" viewBox="0 0 15 15" fill="none" xmlns="http://www.w3.org/2000/svg">
<path d="M14.0851 11.0319L11.9873 9.45856C12.5118 8.55951 12.7365 7.51062 12.7365 6.38681C12.7365 2.86554 9.88953 0.0185547 6.36826 0.0185547C2.84699 0.0185547 0 2.86554 0 6.38678C0 9.90803 2.84699 12.755 6.36826 12.755C7.49207 12.755 8.46604 12.4554 9.44001 12.0058L11.0133 14.1036C11.8375 15.1525 13.4108 15.3023 14.3848 14.3284C15.2838 13.4293 15.2089 11.856 14.0851 11.0319ZM6.36826 11.2567C3.67111 11.2567 1.49841 9.08396 1.49841 6.38681C1.49841 3.68967 3.67111 1.51697 6.36826 1.51697C9.0654 1.51697 11.2381 3.68967 11.2381 6.38678C11.2381 9.0839 9.0654 11.2567 6.36826 11.2567Z" fill="#B3B3B3"/>
</svg>
