<svg width="14" height="14" viewBox="0 0 14 14" fill="none" xmlns="http://www.w3.org/2000/svg">
<g clip-path="url(#clip0_909_16402)">
<path d="M8.53629 9.76202L6.73885 10.809C6.69485 10.8346 6.65045 10.8563 6.60528 10.8742C6.6149 10.8487 6.6234 10.8222 6.63076 10.7948C6.73078 10.4214 6.50985 10.0319 6.12775 9.90801C6.11837 9.90497 6.10882 9.90257 6.09912 9.90082C5.5874 9.80853 5.0801 9.62511 4.67248 9.47775C4.52969 9.42613 4.39486 9.37738 4.27963 9.34C3.79713 9.18348 3.36671 9.37409 3.00919 9.58109L1.72368 10.3254L1.62707 10.1546C1.49574 9.92267 1.20021 9.84077 0.968279 9.97205L0.463951 10.2575C0.231994 10.3888 0.150072 10.6843 0.281377 10.9163L1.76409 13.5361C1.85293 13.6931 2.01694 13.7813 2.1856 13.7813C2.26618 13.7813 2.34788 13.7612 2.42288 13.7187L2.92724 13.4333C3.15917 13.302 3.24109 13.0064 3.10979 12.7745L2.98587 12.5555L3.21859 12.4211L5.49706 13.0317C5.62932 13.0671 5.7609 13.0847 5.89037 13.0847C6.15238 13.0847 6.40556 13.0126 6.63705 12.87L9.89905 10.8615C10.2225 10.6623 10.3262 10.1624 10.1167 9.81252C10.0155 9.6437 9.6027 9.14096 8.53629 9.76202ZM2.71169 13.0526L2.20736 13.338C2.18573 13.3503 2.15705 13.3423 2.1448 13.3206L0.662084 10.7008C0.649834 10.6791 0.657763 10.6505 0.67942 10.6382L1.18375 10.3528C1.19067 10.3489 1.19829 10.347 1.20592 10.347C1.22206 10.347 1.23797 10.3554 1.24634 10.3702L2.72905 12.99C2.74128 13.0117 2.73332 13.0403 2.71169 13.0526ZM9.66961 10.489L6.40764 12.4975C6.16329 12.6479 5.89505 12.6855 5.61026 12.6091L3.24426 11.9751C3.18826 11.9601 3.12852 11.968 3.07829 11.997L2.77034 12.1748L1.93917 10.7061L3.2284 9.95969C3.62213 9.73175 3.88753 9.67277 4.14464 9.75614C4.25295 9.79128 4.37843 9.83664 4.52373 9.88917C4.94261 10.0406 5.46288 10.2287 6.00505 10.3284C6.16058 10.3848 6.24754 10.5346 6.20816 10.6816C6.16627 10.838 6.04867 10.9063 5.85865 10.8849C5.5973 10.831 5.34776 10.7598 5.08387 10.6844C4.9574 10.6483 4.82662 10.6109 4.69198 10.5749C4.57533 10.5437 4.45537 10.6128 4.42407 10.7296C4.39278 10.8463 4.46207 10.9662 4.57875 10.9975C4.70992 11.0326 4.83895 11.0695 4.96369 11.1051C5.23918 11.1838 5.49941 11.2581 5.7807 11.3156C5.78212 11.3159 5.78351 11.316 5.78494 11.3162C5.78644 11.3165 5.78789 11.317 5.78942 11.3172L6.01309 11.3536C6.36145 11.4093 6.67087 11.3548 6.95905 11.187L8.75652 10.1401C9.23498 9.86142 9.61238 9.82199 9.74139 10.0373C9.82796 10.182 9.7911 10.4141 9.66961 10.489ZM1.30089 10.8072C1.31527 10.9056 1.24719 10.9971 1.14878 11.0115C1.05036 11.0258 0.958955 10.9577 0.944545 10.8594C0.930162 10.7609 0.998275 10.6695 1.09666 10.6551C1.1951 10.6407 1.28651 10.7088 1.30089 10.8072ZM4.7083 7.27986V7.84096C4.7083 7.93147 4.76403 8.0126 4.84847 8.04511L5.0883 8.13742C5.12655 8.26443 5.17741 8.3871 5.2403 8.50407L5.1359 8.73906C5.09918 8.82178 5.11715 8.91855 5.18116 8.98256L5.57794 9.37932C5.64193 9.4433 5.73873 9.46132 5.82139 9.42454L6.05651 9.32012C6.17349 9.38298 6.29613 9.43381 6.42298 9.47207L6.51534 9.71198C6.54783 9.79642 6.62898 9.85215 6.71949 9.85215H7.28061C7.37112 9.85215 7.45225 9.79642 7.48476 9.71198L7.57707 9.47215C7.70408 9.43387 7.82672 9.38301 7.9437 9.32015L8.17872 9.42452C8.26138 9.46127 8.35818 9.4433 8.42219 9.37929L8.81894 8.98253C8.88293 8.91855 8.90089 8.82178 8.86417 8.73906L8.75975 8.50393C8.82261 8.38696 8.87344 8.26432 8.91172 8.13742L9.15164 8.04508C9.23607 8.01259 9.2918 7.93144 9.2918 7.84093V7.27984C9.2918 7.18933 9.23607 7.1082 9.15164 7.07569L8.9118 6.98338C8.87355 6.85636 8.82269 6.7337 8.7598 6.61672L8.86417 6.38173C8.90089 6.29904 8.88293 6.20225 8.81894 6.13826L8.42219 5.7415C8.35818 5.67752 8.26146 5.6595 8.17872 5.69625L7.94356 5.80068C7.82661 5.73781 7.704 5.68698 7.5771 5.6487L7.48473 5.40879C7.45225 5.32435 7.37109 5.26862 7.28058 5.26862H6.71949C6.62898 5.26862 6.54785 5.32435 6.51534 5.40879L6.42298 5.6487C6.29605 5.68695 6.17344 5.73781 6.05651 5.80065L5.82136 5.69622C5.73864 5.65953 5.64187 5.67749 5.57789 5.74148L5.18113 6.13824C5.11715 6.20222 5.09918 6.29902 5.1359 6.3817L5.24033 6.61678C5.17747 6.7337 5.12664 6.85636 5.08833 6.98332L4.84847 7.07566C4.76403 7.10823 4.7083 7.18938 4.7083 7.27986ZM5.1458 7.43006L5.34913 7.35181C5.41642 7.32591 5.46665 7.26849 5.48333 7.19832C5.52153 7.03782 5.58489 6.88505 5.6716 6.74428C5.70944 6.68284 5.71453 6.60672 5.68527 6.54076L5.59673 6.34143L5.78108 6.15707L5.98044 6.24561C6.04632 6.27487 6.12249 6.26979 6.18391 6.23194C6.32473 6.14524 6.47747 6.08191 6.63792 6.04371C6.70806 6.027 6.76551 5.9768 6.79141 5.90948L6.86969 5.70612H7.13036L7.20864 5.90948C7.23454 5.97677 7.29199 6.027 7.36212 6.04371C7.52252 6.08188 7.67526 6.14521 7.81614 6.23194C7.87761 6.26979 7.95371 6.27484 8.0196 6.24561L8.219 6.15707L8.40332 6.34143L8.31484 6.54068C8.28558 6.60663 8.29066 6.68276 8.32851 6.74417C8.41524 6.88497 8.47854 7.03774 8.51674 7.19827C8.53345 7.26843 8.58365 7.32588 8.65097 7.35178L8.85427 7.43004V7.69073L8.65089 7.76902C8.58357 7.79491 8.53337 7.85236 8.51669 7.92252C8.47851 8.0829 8.41519 8.23564 8.32842 8.37654C8.29061 8.43798 8.28552 8.51408 8.31478 8.58L8.40332 8.7794L8.219 8.96375L8.01974 8.87526C7.95387 8.84598 7.87772 8.85106 7.81625 8.88891C7.67543 8.97564 7.52263 9.039 7.36215 9.07717C7.29199 9.09388 7.23454 9.14408 7.20864 9.2114L7.13041 9.41467H6.86972L6.79143 9.21129C6.76554 9.144 6.70809 9.09377 6.63792 9.07706C6.47761 9.03892 6.32487 8.97559 6.18391 8.88883C6.12247 8.85098 6.04634 8.84592 5.98047 8.87518L5.78111 8.96372L5.59676 8.77937L5.68527 8.58011C5.71455 8.51416 5.70944 8.43804 5.6716 8.37659C5.58489 8.2358 5.52156 8.08303 5.48333 7.9225C5.46665 7.85233 5.41645 7.79488 5.34913 7.76899L5.14583 7.69073V7.43006H5.1458ZM7.00001 8.75768C7.6602 8.75768 8.19728 8.22057 8.19728 7.56041C8.19728 6.90025 7.66017 6.36314 7.00001 6.36314C6.33985 6.36314 5.80274 6.90025 5.80274 7.56041C5.80274 8.22057 6.33982 8.75768 7.00001 8.75768ZM7.00001 6.80064C7.41894 6.80064 7.75978 7.14148 7.75978 7.56041C7.75978 7.97934 7.41894 8.32018 7.00001 8.32018C6.58108 8.32018 6.24024 7.97934 6.24024 7.56041C6.24024 7.14148 6.58108 6.80064 7.00001 6.80064ZM1.75006 3.56388C2.59441 3.56388 3.28134 2.87695 3.28134 2.0326C3.28134 1.18828 2.59441 0.501348 1.75006 0.501348C0.905717 0.501348 0.218814 1.18828 0.218814 2.0326C0.218814 2.87695 0.905717 3.56388 1.75006 3.56388ZM1.75006 0.938848C2.35319 0.938848 2.84384 1.4295 2.84384 2.0326C2.84384 2.63572 2.35319 3.12638 1.75006 3.12638C1.14697 3.12638 0.656314 2.63572 0.656314 2.0326C0.656314 1.4295 1.14697 0.938848 1.75006 0.938848ZM0.978342 2.22403C0.89292 2.13861 0.89292 2.00011 0.978342 1.91469C1.06376 1.8293 1.20223 1.82924 1.28771 1.91469L1.50025 2.12726L2.2201 1.47396C2.30954 1.39278 2.4479 1.39948 2.52909 1.48892C2.6103 1.57839 2.6036 1.71672 2.5141 1.79791L1.63992 2.59126C1.59814 2.62918 1.54551 2.64802 1.49295 2.64802C1.43684 2.64802 1.38084 2.62656 1.33824 2.58396L0.978342 2.22403ZM7.00007 3.28128C7.84441 3.28128 8.53134 2.59435 8.53134 1.75003C8.53134 0.905707 7.84441 0.21875 7.00007 0.21875C6.15572 0.21875 5.46879 0.90568 5.46879 1.75C5.46879 2.59432 6.15572 3.28128 7.00007 3.28128ZM7.00007 0.65625C7.60319 0.65625 8.09384 1.14691 8.09384 1.75C8.09384 2.35309 7.60319 2.84375 7.00007 2.84375C6.39694 2.84375 5.90629 2.35309 5.90629 1.75C5.90629 1.14691 6.39694 0.65625 7.00007 0.65625ZM6.22831 1.94143C6.14289 1.85601 6.14289 1.71752 6.22831 1.63209C6.31376 1.5467 6.45223 1.54664 6.53768 1.63209L6.75023 1.84466L7.4701 1.19137C7.55955 1.11021 7.69788 1.11688 7.77909 1.20635C7.8603 1.29579 7.8536 1.43415 7.7641 1.51534L6.8899 2.30869C6.84812 2.34661 6.79548 2.36545 6.74292 2.36545C6.68681 2.36545 6.63082 2.34399 6.58821 2.30139L6.22831 1.94143ZM12.2501 0.21875C11.4057 0.21875 10.7188 0.90568 10.7188 1.75C10.7188 2.59432 11.4057 3.28125 12.2501 3.28125C13.0944 3.28125 13.7813 2.59432 13.7813 1.75C13.7813 0.90568 13.0944 0.21875 12.2501 0.21875ZM12.2501 2.84378C11.6469 2.84378 11.1563 2.35312 11.1563 1.75003C11.1563 1.14693 11.6469 0.65625 12.2501 0.65625C12.8532 0.65625 13.3438 1.14691 13.3438 1.75C13.3438 2.35309 12.8532 2.84378 12.2501 2.84378ZM13.0141 1.51534L12.1399 2.30869C12.0981 2.34661 12.0455 2.36545 11.9929 2.36545C11.9368 2.36545 11.8808 2.34399 11.8382 2.30139L11.4783 1.94146C11.3929 1.85604 11.3929 1.71754 11.4783 1.63212C11.5638 1.5467 11.7023 1.54673 11.7877 1.63212L12.0002 1.84469L12.7201 1.19137C12.8095 1.11021 12.9479 1.11688 13.0291 1.20635C13.1103 1.29582 13.1036 1.43415 13.0141 1.51534ZM10.7523 3.722C10.7902 3.76225 10.8099 3.8132 10.8116 3.86455C10.8119 3.871 10.8118 3.87748 10.8115 3.88393C10.811 3.89143 10.8103 3.89886 10.8091 3.90627L10.7317 4.42936C10.7141 4.54888 10.6026 4.63143 10.4834 4.61377C10.3942 4.60059 10.3257 4.5354 10.3039 4.45356L9.50366 5.22323C9.46122 5.26406 9.40659 5.28432 9.35204 5.28432C9.29462 5.28432 9.2373 5.26187 9.19435 5.21722C9.11062 5.13013 9.11327 4.99166 9.20036 4.9079L10.0057 4.13325C9.92101 4.10971 9.85544 4.03602 9.84658 3.94324C9.83509 3.82299 9.92328 3.71618 10.0435 3.70467L10.5701 3.65436C10.5767 3.65367 10.5832 3.65329 10.5899 3.65321C10.5964 3.65315 10.603 3.65329 10.6094 3.65378C10.6604 3.65761 10.7101 3.67913 10.7487 3.71823C10.7497 3.71924 10.7507 3.72025 10.7517 3.72127C10.7518 3.72157 10.7521 3.72176 10.7523 3.722ZM3.1805 3.71829C3.21897 3.67929 3.26865 3.65775 3.31943 3.65386C3.3261 3.65334 3.33291 3.65318 3.33945 3.65326C3.34601 3.65334 3.35257 3.65375 3.35913 3.65444L3.88567 3.70472C4.00592 3.71621 4.09411 3.82304 4.08262 3.9433C4.07376 4.03607 4.00817 4.10974 3.92343 4.13331L4.72884 4.90796C4.81593 4.99168 4.81858 5.13018 4.73485 5.21727C4.69192 5.2619 4.63458 5.28437 4.57716 5.28437C4.52261 5.28437 4.46798 5.26408 4.42554 5.22329L3.6253 4.45361C3.60351 4.53545 3.53493 4.60064 3.44584 4.61382C3.32624 4.63159 3.21512 4.54891 3.19745 4.42941L3.12012 3.90633C3.11895 3.89892 3.11818 3.89148 3.11774 3.88399C3.11739 3.87751 3.11731 3.87103 3.11755 3.8646C3.11925 3.81325 3.13899 3.76231 3.17694 3.72206C3.17713 3.72184 3.17735 3.72162 3.17755 3.7214C3.17856 3.72031 3.17951 3.7193 3.1805 3.71829ZM6.80959 4.81321L6.81766 4.34096C6.74019 4.43078 6.60476 4.44268 6.51277 4.36672C6.41964 4.2898 6.40643 4.15193 6.48338 4.05877L6.87833 3.58039C6.92112 3.52855 6.98464 3.49904 7.05265 3.50098C7.11986 3.50271 7.18256 3.53527 7.22264 3.58925L7.59244 4.08734C7.66446 4.18436 7.64423 4.32138 7.54721 4.39338C7.45605 4.46105 7.32945 4.44727 7.25483 4.36475L7.24706 4.82068C7.24504 4.9402 7.14748 5.03571 7.02842 5.03571C7.02714 5.03571 7.02588 5.03571 7.02459 5.03568C6.90379 5.03358 6.80754 4.93399 6.80959 4.81321Z" fill="#696763"/>
</g>
<defs>
<clipPath id="clip0_909_16402">
<rect width="14" height="14" fill="white"/>
</clipPath>
</defs>
</svg>
