<svg width="14" height="14" viewBox="0 0 14 14" fill="none" xmlns="http://www.w3.org/2000/svg">
<g id="fi_9215201">
<g id="outline">
<path id="Vector" d="M0.875 7.65626C0.903731 7.65627 0.932184 7.65063 0.958732 7.63964C0.985279 7.62865 1.0094 7.61254 1.02972 7.59222C1.05003 7.57191 1.06615 7.54779 1.07713 7.52124C1.08812 7.49469 1.09377 7.46624 1.09375 7.43751V3.78498L2.443 5.80886C2.46301 5.83878 2.49009 5.86332 2.52183 5.8803C2.55357 5.89729 2.589 5.9062 2.625 5.90626H4.59375V6.56251C4.5938 6.59851 4.60272 6.63394 4.61971 6.66568C4.6367 6.69742 4.66124 6.72449 4.69116 6.74451L6.00366 7.61951C6.0396 7.64346 6.08181 7.65625 6.125 7.65625C6.16819 7.65625 6.2104 7.64346 6.24634 7.61951L7.55884 6.74451C7.58876 6.72449 7.6133 6.69742 7.63029 6.66568C7.64728 6.63394 7.6562 6.59851 7.65625 6.56251V5.90626H9.625C9.661 5.9062 9.69644 5.89729 9.72818 5.8803C9.75992 5.86331 9.78699 5.83877 9.807 5.80884L11.1562 3.78497V6.12501C11.1562 6.18302 11.1793 6.23866 11.2203 6.27969C11.2613 6.32071 11.317 6.34376 11.375 6.34376C11.433 6.34376 11.4887 6.32071 11.5297 6.27969C11.5707 6.23866 11.5938 6.18302 11.5938 6.12501V3.06251C11.5938 3.03378 11.5881 3.00532 11.5771 2.97877C11.5661 2.95223 11.55 2.92811 11.5297 2.90779C11.5094 2.88747 11.4853 2.87136 11.4587 2.86037C11.4322 2.84939 11.4037 2.84374 11.375 2.84376H8.07164C8.02037 2.36323 7.79319 1.91865 7.43381 1.59557C7.07443 1.27249 6.60825 1.09375 6.125 1.09375C5.64175 1.09375 5.17557 1.27249 4.81619 1.59557C4.45681 1.91865 4.22963 2.36323 4.17836 2.84376H0.875C0.846269 2.84374 0.817816 2.84939 0.791268 2.86037C0.764721 2.87136 0.740599 2.88747 0.720283 2.90779C0.699967 2.92811 0.683855 2.95223 0.672867 2.97877C0.66188 3.00532 0.656233 3.03378 0.65625 3.06251V7.43751C0.656233 7.46624 0.66188 7.49469 0.672867 7.52124C0.683855 7.54779 0.699967 7.57191 0.720283 7.59222C0.740599 7.61254 0.764721 7.62865 0.791268 7.63964C0.817816 7.65063 0.846269 7.65627 0.875 7.65626ZM6.125 7.17475L5.03125 6.44544V4.59376H7.21875V6.44544L6.125 7.17475ZM9.50793 5.46876H7.65625V4.59376H7.875C7.93302 4.59376 7.98866 4.57071 8.02968 4.52969C8.0707 4.48866 8.09375 4.43302 8.09375 4.37501C8.09375 4.31699 8.0707 4.26135 8.02968 4.22033C7.98866 4.1793 7.93302 4.15626 7.875 4.15626H4.375C4.31698 4.15626 4.26134 4.1793 4.22032 4.22033C4.1793 4.26135 4.15625 4.31699 4.15625 4.37501C4.15625 4.43302 4.1793 4.48866 4.22032 4.52969C4.26134 4.57071 4.31698 4.59376 4.375 4.59376H4.59375V5.46876H2.74207L1.28374 3.28126H10.9663L9.50793 5.46876ZM5.50635 2.84376C5.55157 2.71581 5.63535 2.60503 5.74614 2.52668C5.85694 2.44833 5.9893 2.40625 6.125 2.40625C6.2607 2.40625 6.39306 2.44833 6.50386 2.52668C6.61465 2.60503 6.69843 2.71581 6.74365 2.84376H5.50635ZM6.125 1.53126C6.49311 1.53177 6.84875 1.66462 7.12704 1.90557C7.40533 2.14653 7.5877 2.47951 7.64087 2.84376H7.19664C7.1462 2.59676 7.012 2.37477 6.81672 2.21533C6.62145 2.0559 6.37709 1.96882 6.125 1.96882C5.87291 1.96882 5.62855 2.0559 5.43328 2.21533C5.238 2.37477 5.10379 2.59676 5.05336 2.84376H4.60913C4.6623 2.47951 4.84467 2.14653 5.12296 1.90557C5.40124 1.66462 5.75689 1.53177 6.125 1.53126Z" fill="#696763"/>
<path id="Vector_2" d="M0.875 10.2812H6.125C6.18302 10.2812 6.23866 10.2582 6.27968 10.2172C6.3207 10.1762 6.34375 10.1205 6.34375 10.0625C6.34375 10.0045 6.3207 9.94884 6.27968 9.90782C6.23866 9.8668 6.18302 9.84375 6.125 9.84375H1.09375V9.1875C1.09375 9.12948 1.0707 9.07384 1.02968 9.03282C0.988656 8.9918 0.933016 8.96875 0.875 8.96875C0.816984 8.96875 0.761344 8.9918 0.72032 9.03282C0.679297 9.07384 0.65625 9.12948 0.65625 9.1875V10.0625C0.656233 10.0912 0.66188 10.1197 0.672867 10.1462C0.683855 10.1728 0.699967 10.1969 0.720283 10.2172C0.740599 10.2375 0.764721 10.2536 0.791268 10.2646C0.817816 10.2756 0.846269 10.2813 0.875 10.2812Z" fill="#696763"/>
<path id="Vector_3" d="M13.3438 9.625C13.3438 8.97603 13.1513 8.34164 12.7908 7.80204C12.4302 7.26244 11.9178 6.84187 11.3182 6.59352C10.7186 6.34517 10.0589 6.28019 9.42236 6.4068C8.78586 6.53341 8.2012 6.84592 7.74231 7.30481C7.28342 7.7637 6.97091 8.34836 6.8443 8.98486C6.71769 9.62136 6.78267 10.2811 7.03102 10.8807C7.27937 11.4803 7.69994 11.9927 8.23954 12.3533C8.77914 12.7138 9.41353 12.9063 10.0625 12.9063C10.9325 12.9053 11.7665 12.5593 12.3816 11.9441C12.9968 11.329 13.3428 10.495 13.3438 9.625ZM10.0625 12.4688C9.50006 12.4688 8.95025 12.302 8.4826 11.9895C8.01495 11.677 7.65046 11.2329 7.43522 10.7133C7.21998 10.1936 7.16367 9.62185 7.27339 9.07021C7.38312 8.51858 7.65396 8.01187 8.05167 7.61417C8.44937 7.21646 8.95608 6.94562 9.50771 6.83589C10.0593 6.72617 10.6311 6.78248 11.1508 6.99772C11.6704 7.21296 12.1145 7.57745 12.427 8.0451C12.7395 8.51275 12.9063 9.06256 12.9063 9.625C12.9054 10.3789 12.6055 11.1018 12.0724 11.6349C11.5393 12.168 10.8164 12.4679 10.0625 12.4688Z" fill="#696763"/>
<path id="Vector_4" d="M12.4044 9.47035L11.9669 9.03285C11.9466 9.01253 11.9225 8.99642 11.896 8.98542C11.8694 8.97443 11.841 8.96877 11.8123 8.96877C11.7835 8.96877 11.7551 8.97443 11.7286 8.98542C11.702 8.99642 11.6779 9.01253 11.6576 9.03285L11.2201 9.47035C11.1803 9.5116 11.1582 9.56686 11.1587 9.62422C11.1592 9.68157 11.1822 9.73644 11.2228 9.77699C11.2633 9.81755 11.3182 9.84056 11.3756 9.84106C11.4329 9.84155 11.4882 9.81951 11.5294 9.77966L11.5833 9.72577C11.563 10.023 11.4563 10.3078 11.2762 10.5451C11.0962 10.7825 10.8507 10.962 10.5699 11.0616C10.2892 11.1613 9.98545 11.1766 9.69607 11.1059C9.40669 11.0351 9.1443 10.8813 8.94119 10.6634C8.73808 10.4455 8.60311 10.1729 8.55288 9.87931C8.50265 9.58567 8.53936 9.28376 8.65848 9.01071C8.7776 8.73766 8.97394 8.50539 9.22335 8.34248C9.47276 8.17956 9.76436 8.09311 10.0623 8.09376C10.1203 8.09376 10.1759 8.07071 10.2169 8.02969C10.258 7.98867 10.281 7.93303 10.281 7.87501C10.281 7.81699 10.258 7.76135 10.2169 7.72033C10.1759 7.67931 10.1203 7.65626 10.0623 7.65626C9.6761 7.65497 9.29809 7.76727 8.97527 7.97918C8.65246 8.19109 8.39908 8.49326 8.2467 8.84808C8.09431 9.2029 8.04963 9.59469 8.11822 9.97471C8.18682 10.3547 8.36565 10.7062 8.63248 10.9853C8.8993 11.2645 9.24232 11.459 9.61885 11.5447C9.99539 11.6304 10.3888 11.6034 10.7501 11.4672C11.1115 11.331 11.4248 11.0915 11.651 10.7786C11.8773 10.4657 12.0066 10.0931 12.0227 9.70728L12.0951 9.77968C12.1363 9.81952 12.1916 9.84157 12.249 9.84107C12.3063 9.84058 12.3612 9.81757 12.4017 9.77701C12.4423 9.73645 12.4653 9.68159 12.4658 9.62423C12.4663 9.56688 12.4443 9.5116 12.4044 9.47035Z" fill="#696763"/>
<path id="Vector_5" d="M10.0623 8.53125C10.0335 8.53123 10.0051 8.53688 9.97854 8.54787C9.95199 8.55885 9.92787 8.57497 9.90755 8.59528C9.88723 8.6156 9.87112 8.63972 9.86013 8.66627C9.84915 8.69282 9.8435 8.72127 9.84352 8.75V9.53444L9.4701 9.90785C9.44921 9.92803 9.43254 9.95216 9.42108 9.97885C9.40962 10.0055 9.40358 10.0342 9.40333 10.0633C9.40308 10.0923 9.40861 10.1211 9.41961 10.148C9.43061 10.1749 9.44685 10.1993 9.46739 10.2199C9.48793 10.2404 9.51235 10.2567 9.53924 10.2677C9.56612 10.2787 9.59493 10.2842 9.62397 10.2839C9.65302 10.2837 9.68172 10.2776 9.70841 10.2662C9.7351 10.2547 9.75924 10.2381 9.77941 10.2172L10.2169 9.77966C10.2372 9.75936 10.2534 9.73525 10.2644 9.70871C10.2754 9.68217 10.281 9.65373 10.281 9.625V8.75C10.281 8.72127 10.2754 8.69282 10.2644 8.66627C10.2534 8.63972 10.2373 8.6156 10.217 8.59528C10.1967 8.57497 10.1725 8.55885 10.146 8.54787C10.1195 8.53688 10.091 8.53123 10.0623 8.53125Z" fill="#696763"/>
<path id="Vector_6" d="M0.875 8.53125C0.995812 8.53125 1.09375 8.43331 1.09375 8.3125C1.09375 8.19169 0.995812 8.09375 0.875 8.09375C0.754188 8.09375 0.65625 8.19169 0.65625 8.3125C0.65625 8.43331 0.754188 8.53125 0.875 8.53125Z" fill="#696763"/>
</g>
</g>
</svg>
