<?xml version="1.0" standalone="no"?>
<!DOCTYPE svg PUBLIC "-//W3C//DTD SVG 20010904//EN"
 "http://www.w3.org/TR/2001/REC-SVG-20010904/DTD/svg10.dtd">
<svg version="1.0" xmlns="http://www.w3.org/2000/svg"
 width="326.000000pt" height="326.000000pt" viewBox="0 0 326.000000 326.000000"
 preserveAspectRatio="xMidYMid meet">
<metadata>
Created by potrace 1.14, written by Peter Selinger 2001-2017
</metadata>
<g transform="translate(0.000000,326.000000) scale(0.100000,-0.100000)"
fill="#000000" stroke="none">
<path d="M1619 3256 c-2 -2 -51 -6 -109 -9 -58 -4 -118 -9 -135 -12 -171 -31
-331 -83 -470 -152 -89 -45 -236 -136 -265 -164 -8 -8 -26 -23 -40 -32 -14
-10 -65 -57 -113 -105 -261 -257 -423 -585 -474 -957 -12 -88 -9 -348 6 -435
63 -393 250 -733 539 -987 218 -190 472 -314 769 -374 149 -31 442 -33 583 -4
107 21 143 30 219 55 485 159 862 526 1034 1007 102 283 118 631 46 928 -32
128 -56 191 -129 340 -158 321 -415 575 -745 737 -38 19 -86 40 -105 47 -19 7
-44 17 -55 21 -92 38 -281 78 -405 85 -52 3 -107 8 -121 10 -15 2 -28 3 -30 1z"/>
</g>
</svg>
