<svg width="100" height="100" viewBox="0 0 100 100" fill="none" xmlns="http://www.w3.org/2000/svg">
<rect width="100" height="100" rx="8" fill="#F3F2F2"/>
<path d="M59.3333 31.8337V35.8203C59.3333 35.8203 56.68 35.8337 56.6667 35.8203V31.8337H52.6667C52.6667 31.8337 52.68 29.1803 52.6667 29.167H56.6667V25.167H59.3333V29.167H63.3333V31.8337H59.3333ZM55.3333 37.167V33.167H51.3333V29.167H40.6667C39.2 29.167 38 30.367 38 31.8337V47.8337C38 49.3003 39.2 50.5003 40.6667 50.5003H56.6667C58.1333 50.5003 59.3333 49.3003 59.3333 47.8337V37.167H55.3333ZM40.6667 47.8337L44.6667 42.5003L47.3333 46.5003L51.3333 41.167L56.6667 47.8337H40.6667Z" fill="#CFCDC9"/>
<path d="M32.7 70.825L31.635 68.04C31.5583 67.85 31.4817 67.61 31.405 67.32C31.3683 67.4633 31.33 67.5967 31.29 67.72C31.2533 67.8433 31.2167 67.9533 31.18 68.05L30.12 70.825H32.7ZM34.805 73.5H33.985C33.8917 73.5 33.815 73.4767 33.755 73.43C33.695 73.3833 33.6517 73.3233 33.625 73.25L32.99 71.585H29.825L29.19 73.25C29.1667 73.3133 29.1233 73.3717 29.06 73.425C28.9967 73.475 28.92 73.5 28.83 73.5H28.01L30.87 66.32H31.945L34.805 73.5ZM38.869 69.65C38.709 69.44 38.5357 69.2933 38.349 69.21C38.1657 69.1267 37.959 69.085 37.729 69.085C37.2823 69.085 36.9357 69.2467 36.689 69.57C36.4457 69.89 36.324 70.3583 36.324 70.975C36.324 71.2983 36.3507 71.575 36.404 71.805C36.4607 72.0317 36.5407 72.2183 36.644 72.365C36.7507 72.5083 36.8807 72.615 37.034 72.685C37.1873 72.7517 37.3607 72.785 37.554 72.785C37.8373 72.785 38.0823 72.7217 38.289 72.595C38.4957 72.4683 38.689 72.29 38.869 72.06V69.65ZM39.849 66.12V73.5H39.259C39.1223 73.5 39.0373 73.435 39.004 73.305L38.919 72.72C38.7023 72.9767 38.4557 73.1833 38.179 73.34C37.9057 73.4933 37.589 73.57 37.229 73.57C36.939 73.57 36.6757 73.5133 36.439 73.4C36.2057 73.2867 36.0057 73.1217 35.839 72.905C35.6723 72.685 35.544 72.4133 35.454 72.09C35.364 71.7667 35.319 71.395 35.319 70.975C35.319 70.5983 35.369 70.2483 35.469 69.925C35.569 69.6017 35.714 69.3217 35.904 69.085C36.094 68.8483 36.324 68.6633 36.594 68.53C36.864 68.3933 37.169 68.325 37.509 68.325C37.8157 68.325 38.0757 68.375 38.289 68.475C38.5057 68.575 38.699 68.7167 38.869 68.9V66.12H39.849ZM44.6842 69.65C44.5242 69.44 44.3509 69.2933 44.1642 69.21C43.9809 69.1267 43.7742 69.085 43.5442 69.085C43.0976 69.085 42.7509 69.2467 42.5042 69.57C42.2609 69.89 42.1392 70.3583 42.1392 70.975C42.1392 71.2983 42.1659 71.575 42.2192 71.805C42.2759 72.0317 42.3559 72.2183 42.4592 72.365C42.5659 72.5083 42.6959 72.615 42.8492 72.685C43.0026 72.7517 43.1759 72.785 43.3692 72.785C43.6526 72.785 43.8976 72.7217 44.1042 72.595C44.3109 72.4683 44.5042 72.29 44.6842 72.06V69.65ZM45.6642 66.12V73.5H45.0742C44.9376 73.5 44.8526 73.435 44.8192 73.305L44.7342 72.72C44.5176 72.9767 44.2709 73.1833 43.9942 73.34C43.7209 73.4933 43.4042 73.57 43.0442 73.57C42.7542 73.57 42.4909 73.5133 42.2542 73.4C42.0209 73.2867 41.8209 73.1217 41.6542 72.905C41.4876 72.685 41.3592 72.4133 41.2692 72.09C41.1792 71.7667 41.1342 71.395 41.1342 70.975C41.1342 70.5983 41.1842 70.2483 41.2842 69.925C41.3842 69.6017 41.5292 69.3217 41.7192 69.085C41.9092 68.8483 42.1392 68.6633 42.4092 68.53C42.6792 68.3933 42.9842 68.325 43.3242 68.325C43.6309 68.325 43.8909 68.375 44.1042 68.475C44.3209 68.575 44.5142 68.7167 44.6842 68.9V66.12H45.6642ZM54.2637 72.605V73.5H50.1537V66.32H51.2187V72.605H54.2637ZM57.1332 68.34C57.5065 68.34 57.8432 68.4017 58.1432 68.525C58.4465 68.645 58.7032 68.82 58.9132 69.05C59.1265 69.2767 59.2899 69.5517 59.4032 69.875C59.5165 70.195 59.5732 70.555 59.5732 70.955C59.5732 71.355 59.5165 71.7167 59.4032 72.04C59.2899 72.3633 59.1265 72.6383 58.9132 72.865C58.7032 73.0917 58.4465 73.2667 58.1432 73.39C57.8432 73.51 57.5065 73.57 57.1332 73.57C56.7565 73.57 56.4165 73.51 56.1132 73.39C55.8132 73.2667 55.5565 73.0917 55.3432 72.865C55.1299 72.6383 54.9649 72.3633 54.8482 72.04C54.7349 71.7167 54.6782 71.355 54.6782 70.955C54.6782 70.555 54.7349 70.195 54.8482 69.875C54.9649 69.5517 55.1299 69.2767 55.3432 69.05C55.5565 68.82 55.8132 68.645 56.1132 68.525C56.4165 68.4017 56.7565 68.34 57.1332 68.34ZM57.1332 72.81C57.6132 72.81 57.9715 72.6483 58.2082 72.325C58.4449 72.0017 58.5632 71.5467 58.5632 70.96C58.5632 70.3733 58.4449 69.9183 58.2082 69.595C57.9715 69.2683 57.6132 69.105 57.1332 69.105C56.6465 69.105 56.2832 69.2683 56.0432 69.595C55.8065 69.9183 55.6882 70.3733 55.6882 70.96C55.6882 71.5467 55.8065 72.0017 56.0432 72.325C56.2832 72.6483 56.6465 72.81 57.1332 72.81ZM62.6173 70.965C62.7906 70.965 62.9423 70.9417 63.0723 70.895C63.2056 70.8483 63.3156 70.7833 63.4023 70.7C63.4923 70.6133 63.5589 70.51 63.6023 70.39C63.6489 70.27 63.6723 70.1383 63.6723 69.995C63.6723 69.7017 63.5823 69.4683 63.4023 69.295C63.2256 69.1183 62.9639 69.03 62.6173 69.03C62.2739 69.03 62.0123 69.1183 61.8323 69.295C61.6556 69.4683 61.5673 69.7017 61.5673 69.995C61.5673 70.1383 61.5889 70.27 61.6323 70.39C61.6789 70.5067 61.7456 70.6083 61.8323 70.695C61.9223 70.7783 62.0323 70.845 62.1623 70.895C62.2956 70.9417 62.4473 70.965 62.6173 70.965ZM64.1723 73.765C64.1723 73.645 64.1389 73.55 64.0723 73.48C64.0056 73.4067 63.9139 73.35 63.7973 73.31C63.6839 73.2667 63.5506 73.2367 63.3973 73.22C63.2439 73.2 63.0823 73.185 62.9123 73.175C62.7456 73.165 62.5739 73.1567 62.3973 73.15C62.2206 73.14 62.0506 73.1233 61.8873 73.1C61.7139 73.1867 61.5706 73.2917 61.4573 73.415C61.3473 73.5383 61.2923 73.6833 61.2923 73.85C61.2923 73.9567 61.3189 74.0567 61.3723 74.15C61.4289 74.2433 61.5139 74.3233 61.6273 74.39C61.7439 74.46 61.8889 74.5133 62.0623 74.55C62.2389 74.59 62.4489 74.61 62.6923 74.61C62.9323 74.61 63.1439 74.5883 63.3273 74.545C63.5106 74.505 63.6639 74.4467 63.7873 74.37C63.9139 74.2967 64.0089 74.2083 64.0723 74.105C64.1389 74.0017 64.1723 73.8883 64.1723 73.765ZM65.1623 68.61V68.975C65.1623 69.095 65.0873 69.17 64.9373 69.2L64.3923 69.28C64.4389 69.3833 64.4756 69.4933 64.5023 69.61C64.5289 69.7233 64.5423 69.8433 64.5423 69.97C64.5423 70.22 64.4939 70.4467 64.3973 70.65C64.3006 70.85 64.1673 71.0217 63.9973 71.165C63.8273 71.3083 63.6239 71.4183 63.3873 71.495C63.1539 71.5717 62.8973 71.61 62.6173 71.61C62.3873 71.61 62.1723 71.585 61.9723 71.535C61.8723 71.595 61.7956 71.6617 61.7423 71.735C61.6923 71.805 61.6673 71.875 61.6673 71.945C61.6673 72.0617 61.7156 72.1483 61.8123 72.205C61.9123 72.2617 62.0406 72.3033 62.1973 72.33C62.3573 72.3533 62.5389 72.3683 62.7423 72.375C62.9489 72.3817 63.1573 72.3933 63.3673 72.41C63.5806 72.4233 63.7889 72.45 63.9923 72.49C64.1989 72.5267 64.3806 72.5883 64.5373 72.675C64.6973 72.7583 64.8256 72.875 64.9223 73.025C65.0223 73.1717 65.0723 73.3633 65.0723 73.6C65.0723 73.82 65.0173 74.0333 64.9073 74.24C64.8006 74.4467 64.6439 74.63 64.4373 74.79C64.2306 74.95 63.9789 75.0783 63.6823 75.175C63.3856 75.2717 63.0489 75.32 62.6723 75.32C62.2956 75.32 61.9673 75.2833 61.6873 75.21C61.4106 75.1367 61.1789 75.0383 60.9923 74.915C60.8089 74.7917 60.6706 74.6483 60.5773 74.485C60.4873 74.3217 60.4423 74.1517 60.4423 73.975C60.4423 73.7283 60.5189 73.52 60.6723 73.35C60.8256 73.1767 61.0373 73.0417 61.3073 72.945C61.1606 72.8783 61.0439 72.7883 60.9573 72.675C60.8706 72.5583 60.8273 72.405 60.8273 72.215C60.8273 72.1417 60.8406 72.0667 60.8673 71.99C60.8939 71.91 60.9339 71.8317 60.9873 71.755C61.0439 71.675 61.1123 71.6 61.1923 71.53C61.2756 71.46 61.3706 71.3967 61.4773 71.34C61.2273 71.2 61.0306 71.015 60.8873 70.785C60.7439 70.5517 60.6723 70.28 60.6723 69.97C60.6723 69.72 60.7206 69.495 60.8173 69.295C60.9139 69.095 61.0473 68.9233 61.2173 68.78C61.3906 68.6367 61.5956 68.5267 61.8323 68.45C62.0723 68.3733 62.3339 68.335 62.6173 68.335C63.0573 68.335 63.4356 68.4267 63.7523 68.61H65.1623ZM68.3438 68.34C68.7171 68.34 69.0538 68.4017 69.3538 68.525C69.6571 68.645 69.9138 68.82 70.1238 69.05C70.3371 69.2767 70.5004 69.5517 70.6138 69.875C70.7271 70.195 70.7838 70.555 70.7838 70.955C70.7838 71.355 70.7271 71.7167 70.6138 72.04C70.5004 72.3633 70.3371 72.6383 70.1238 72.865C69.9138 73.0917 69.6571 73.2667 69.3538 73.39C69.0538 73.51 68.7171 73.57 68.3438 73.57C67.9671 73.57 67.6271 73.51 67.3238 73.39C67.0238 73.2667 66.7671 73.0917 66.5538 72.865C66.3404 72.6383 66.1754 72.3633 66.0588 72.04C65.9454 71.7167 65.8888 71.355 65.8888 70.955C65.8888 70.555 65.9454 70.195 66.0588 69.875C66.1754 69.5517 66.3404 69.2767 66.5538 69.05C66.7671 68.82 67.0238 68.645 67.3238 68.525C67.6271 68.4017 67.9671 68.34 68.3438 68.34ZM68.3438 72.81C68.8238 72.81 69.1821 72.6483 69.4188 72.325C69.6554 72.0017 69.7738 71.5467 69.7738 70.96C69.7738 70.3733 69.6554 69.9183 69.4188 69.595C69.1821 69.2683 68.8238 69.105 68.3438 69.105C67.8571 69.105 67.4938 69.2683 67.2538 69.595C67.0171 69.9183 66.8988 70.3733 66.8988 70.96C66.8988 71.5467 67.0171 72.0017 67.2538 72.325C67.4938 72.6483 67.8571 72.81 68.3438 72.81Z" fill="#9C9A96"/>
</svg>
