<svg xmlns="http://www.w3.org/2000/svg" width="21" height="20" viewBox="0 0 21 20" fill="none">
  <path d="M18.9725 0.10625C19.0578 0.163297 19.1277 0.240462 19.1761 0.330933C19.2245 0.421403 19.2499 0.522398 19.25 0.625V10C19.25 10.1248 19.2126 10.2468 19.1426 10.3501C19.0727 10.4535 18.9734 10.5336 18.8575 10.58L18.8537 10.5813L18.8463 10.585L18.8175 10.5963C18.6532 10.6616 18.4877 10.7241 18.3212 10.7837C17.9913 10.9025 17.5325 11.0625 17.0125 11.2213C15.9925 11.5363 14.6637 11.875 13.625 11.875C12.5662 11.875 11.69 11.525 10.9275 11.2188L10.8925 11.2063C10.1 10.8875 9.425 10.625 8.625 10.625C7.75 10.625 6.5775 10.9125 5.57875 11.2213C5.13157 11.3606 4.68847 11.5128 4.25 11.6775V19.375C4.25 19.5408 4.18415 19.6997 4.06694 19.8169C3.94973 19.9342 3.79076 20 3.625 20C3.45924 20 3.30027 19.9342 3.18306 19.8169C3.06585 19.6997 3 19.5408 3 19.375V0.625C3 0.45924 3.06585 0.300269 3.18306 0.183058C3.30027 0.065848 3.45924 0 3.625 0C3.79076 0 3.94973 0.065848 4.06694 0.183058C4.18415 0.300269 4.25 0.45924 4.25 0.625V0.9775C4.5325 0.87875 4.87 0.765 5.2375 0.6525C6.2575 0.34 7.5875 0 8.625 0C9.675 0 10.53 0.34625 11.2763 0.64875L11.33 0.67125C12.1075 0.985 12.785 1.25 13.625 1.25C14.5 1.25 15.6725 0.9625 16.6713 0.65375C17.2404 0.476015 17.8028 0.27755 18.3575 0.05875L18.3813 0.05L18.3862 0.0475H18.3875" fill="#E7E6E5"/>
</svg>