<svg width="20" height="20" viewBox="0 0 20 20" fill="none" xmlns="http://www.w3.org/2000/svg">
<g clip-path="url(#clip0_743_9487)">
<path d="M8.73972 4.87344C6.86366 5.31086 5.35347 6.79863 4.89229 8.66371C4.42968 10.5348 4.95913 12.4419 6.30866 13.7653C6.78601 14.2335 7.07104 14.9838 7.07104 15.7725V15.8984C7.07104 16.4178 7.29765 16.8852 7.65698 17.2072V18.2422C7.65698 19.2114 8.44554 20 9.4148 20H10.5867C11.5559 20 12.3445 19.2114 12.3445 18.2422V17.2072C12.7038 16.8852 12.9304 16.4179 12.9304 15.8984V15.7702C12.9304 14.9935 13.2307 14.2289 13.7337 13.7249C14.7271 12.7293 15.2742 11.4064 15.2742 10C15.2742 6.63754 12.1582 4.07664 8.73972 4.87344ZM11.1726 18.2422C11.1726 18.5653 10.9098 18.8281 10.5867 18.8281H9.4148C9.09171 18.8281 8.82886 18.5653 8.82886 18.2422V17.6562H11.1726V18.2422ZM12.9041 12.8971C12.1761 13.6267 11.7585 14.6739 11.7585 15.7702V15.8984C11.7585 16.2215 11.4957 16.4844 11.1726 16.4844H8.82886C8.50577 16.4844 8.24292 16.2215 8.24292 15.8984V15.7725C8.24292 14.6593 7.83694 13.6227 7.12913 12.9286C6.07874 11.8986 5.66784 10.4094 6.02987 8.945C6.38632 7.50332 7.55444 6.35309 9.00581 6.01473C11.6883 5.38922 14.1023 7.39172 14.1023 10C14.1023 11.0939 13.6767 12.1228 12.9041 12.8971Z" fill="#696763"/>
<path d="M8.73972 4.87344C6.86366 5.31086 5.35347 6.79863 4.89229 8.66371C4.42968 10.5348 4.95913 12.4419 6.30866 13.7653C6.78601 14.2335 7.07104 14.9838 7.07104 15.7725V15.8984C7.07104 16.4178 7.29765 16.8852 7.65698 17.2072V18.2422C7.65698 19.2114 8.44554 20 9.4148 20H10.5867C11.5559 20 12.3445 19.2114 12.3445 18.2422V17.2072C12.7038 16.8852 12.9304 16.4179 12.9304 15.8984V15.7702C12.9304 14.9935 13.2307 14.2289 13.7337 13.7249C14.7271 12.7293 15.2742 11.4064 15.2742 10C15.2742 6.63754 12.1582 4.07664 8.73972 4.87344ZM11.1726 18.2422C11.1726 18.5653 10.9098 18.8281 10.5867 18.8281H9.4148C9.09171 18.8281 8.82886 18.5653 8.82886 18.2422V17.6562H11.1726V18.2422ZM12.9041 12.8971C12.1761 13.6267 11.7585 14.6739 11.7585 15.7702V15.8984C11.7585 16.2215 11.4957 16.4844 11.1726 16.4844H8.82886C8.50577 16.4844 8.24292 16.2215 8.24292 15.8984V15.7725C8.24292 14.6593 7.83694 13.6227 7.12913 12.9286C6.07874 11.8986 5.66784 10.4094 6.02987 8.945C6.38632 7.50332 7.55444 6.35309 9.00581 6.01473C11.6883 5.38922 14.1023 7.39172 14.1023 10C14.1023 11.0939 13.6767 12.1228 12.9041 12.8971Z" fill="url(#paint0_linear_743_9487)"/>
<path d="M5.44319 4.61383L3.78589 2.95656C3.5571 2.72773 3.18608 2.72773 2.95726 2.95656C2.72843 3.18539 2.72843 3.55637 2.95726 3.7852L4.61456 5.44246C4.84335 5.67129 5.2144 5.67129 5.44319 5.44246C5.67202 5.21363 5.67202 4.84266 5.44319 4.61383Z" fill="#696763"/>
<path d="M5.44319 4.61383L3.78589 2.95656C3.5571 2.72773 3.18608 2.72773 2.95726 2.95656C2.72843 3.18539 2.72843 3.55637 2.95726 3.7852L4.61456 5.44246C4.84335 5.67129 5.2144 5.67129 5.44319 5.44246C5.67202 5.21363 5.67202 4.84266 5.44319 4.61383Z" fill="url(#paint1_linear_743_9487)"/>
<path d="M2.96948 9.41406H0.58667C0.263076 9.41406 0.000732422 9.67641 0.000732422 10C0.000732422 10.3236 0.263076 10.5859 0.58667 10.5859H2.96948C3.29308 10.5859 3.55542 10.3236 3.55542 10C3.55542 9.67641 3.29308 9.41406 2.96948 9.41406Z" fill="#696763"/>
<path d="M2.96948 9.41406H0.58667C0.263076 9.41406 0.000732422 9.67641 0.000732422 10C0.000732422 10.3236 0.263076 10.5859 0.58667 10.5859H2.96948C3.29308 10.5859 3.55542 10.3236 3.55542 10C3.55542 9.67641 3.29308 9.41406 2.96948 9.41406Z" fill="url(#paint2_linear_743_9487)"/>
<path d="M19.4148 9.41406H17.032C16.7084 9.41406 16.446 9.67641 16.446 10C16.446 10.3236 16.7084 10.5859 17.032 10.5859H19.4148C19.7384 10.5859 20.0007 10.3236 20.0007 10C20.0007 9.67641 19.7384 9.41406 19.4148 9.41406Z" fill="#696763"/>
<path d="M19.4148 9.41406H17.032C16.7084 9.41406 16.446 9.67641 16.446 10C16.446 10.3236 16.7084 10.5859 17.032 10.5859H19.4148C19.7384 10.5859 20.0007 10.3236 20.0007 10C20.0007 9.67641 19.7384 9.41406 19.4148 9.41406Z" fill="url(#paint3_linear_743_9487)"/>
<path d="M17.0442 2.95656C16.8155 2.72773 16.4444 2.72773 16.2156 2.95656L14.5583 4.61383C14.3294 4.84262 14.3294 5.21363 14.5583 5.44246C14.7871 5.67129 15.1581 5.67129 15.3869 5.44246L17.0442 3.7852C17.273 3.55641 17.273 3.18539 17.0442 2.95656Z" fill="#696763"/>
<path d="M17.0442 2.95656C16.8155 2.72773 16.4444 2.72773 16.2156 2.95656L14.5583 4.61383C14.3294 4.84262 14.3294 5.21363 14.5583 5.44246C14.7871 5.67129 15.1581 5.67129 15.3869 5.44246L17.0442 3.7852C17.273 3.55641 17.273 3.18539 17.0442 2.95656Z" fill="url(#paint4_linear_743_9487)"/>
<path d="M10.0007 0C9.67714 0 9.41479 0.262344 9.41479 0.585938V2.96875C9.41479 3.29234 9.67714 3.55469 10.0007 3.55469C10.3243 3.55469 10.5867 3.29234 10.5867 2.96875V0.585938C10.5867 0.262344 10.3243 0 10.0007 0Z" fill="#696763"/>
<path d="M10.0007 0C9.67714 0 9.41479 0.262344 9.41479 0.585938V2.96875C9.41479 3.29234 9.67714 3.55469 10.0007 3.55469C10.3243 3.55469 10.5867 3.29234 10.5867 2.96875V0.585938C10.5867 0.262344 10.3243 0 10.0007 0Z" fill="url(#paint5_linear_743_9487)"/>
<path d="M10.0007 7.07031C9.75987 7.07031 9.51452 7.09918 9.2719 7.15602C8.26155 7.39184 7.41573 8.22352 7.16726 9.22551C7.08937 9.53961 7.28081 9.85734 7.59487 9.93527C7.90901 10.0132 8.22675 9.82164 8.30464 9.50762C8.44765 8.93113 8.95491 8.4334 9.53874 8.29711C9.69429 8.26066 9.84976 8.24219 10.0007 8.24219C10.3243 8.24219 10.5867 7.97984 10.5867 7.65625C10.5867 7.33266 10.3243 7.07031 10.0007 7.07031Z" fill="#696763"/>
<path d="M10.0007 7.07031C9.75987 7.07031 9.51452 7.09918 9.2719 7.15602C8.26155 7.39184 7.41573 8.22352 7.16726 9.22551C7.08937 9.53961 7.28081 9.85734 7.59487 9.93527C7.90901 10.0132 8.22675 9.82164 8.30464 9.50762C8.44765 8.93113 8.95491 8.4334 9.53874 8.29711C9.69429 8.26066 9.84976 8.24219 10.0007 8.24219C10.3243 8.24219 10.5867 7.97984 10.5867 7.65625C10.5867 7.33266 10.3243 7.07031 10.0007 7.07031Z" fill="url(#paint6_linear_743_9487)"/>
</g>
<defs>
<linearGradient id="paint0_linear_743_9487" x1="3.21502" y1="0.535715" x2="12.6793" y2="20" gradientUnits="userSpaceOnUse">
<stop stop-color="#A193F2"/>
<stop offset="1" stop-color="#C44EB9"/>
</linearGradient>
<linearGradient id="paint1_linear_743_9487" x1="3.21502" y1="0.535715" x2="12.6793" y2="20" gradientUnits="userSpaceOnUse">
<stop stop-color="#A193F2"/>
<stop offset="1" stop-color="#C44EB9"/>
</linearGradient>
<linearGradient id="paint2_linear_743_9487" x1="3.21502" y1="0.535715" x2="12.6793" y2="20" gradientUnits="userSpaceOnUse">
<stop stop-color="#A193F2"/>
<stop offset="1" stop-color="#C44EB9"/>
</linearGradient>
<linearGradient id="paint3_linear_743_9487" x1="3.21502" y1="0.535715" x2="12.6793" y2="20" gradientUnits="userSpaceOnUse">
<stop stop-color="#A193F2"/>
<stop offset="1" stop-color="#C44EB9"/>
</linearGradient>
<linearGradient id="paint4_linear_743_9487" x1="3.21502" y1="0.535715" x2="12.6793" y2="20" gradientUnits="userSpaceOnUse">
<stop stop-color="#A193F2"/>
<stop offset="1" stop-color="#C44EB9"/>
</linearGradient>
<linearGradient id="paint5_linear_743_9487" x1="3.21502" y1="0.535715" x2="12.6793" y2="20" gradientUnits="userSpaceOnUse">
<stop stop-color="#A193F2"/>
<stop offset="1" stop-color="#C44EB9"/>
</linearGradient>
<linearGradient id="paint6_linear_743_9487" x1="3.21502" y1="0.535715" x2="12.6793" y2="20" gradientUnits="userSpaceOnUse">
<stop stop-color="#A193F2"/>
<stop offset="1" stop-color="#C44EB9"/>
</linearGradient>
<clipPath id="clip0_743_9487">
<rect width="20" height="20" fill="white"/>
</clipPath>
</defs>
</svg>
