<svg width="32" height="32" viewBox="0 0 32 32" fill="none" xmlns="http://www.w3.org/2000/svg">
<g id="fi_2600295" clip-path="url(#clip0_208_9646)">
<g id="Group">
<path id="Vector" d="M28.4027 16.8166C28.4027 9.96272 22.8267 4.38672 15.9728 4.38672C14.2797 4.38672 12.6382 4.72122 11.0938 5.38097C10.8562 5.48247 10.7458 5.75747 10.8473 5.99516C10.9489 6.23284 11.2239 6.34322 11.4615 6.24166C12.4027 5.83966 13.3832 5.56916 14.3908 5.43091C11.3247 7.97578 9.42734 12.003 9.29884 16.3488H4.48947C4.63816 12.6623 6.53678 9.27847 9.63434 7.22684C9.84978 7.08409 9.90878 6.79378 9.76609 6.57828C9.62334 6.36278 9.33291 6.30391 9.11753 6.44653C5.62691 8.75847 3.54297 12.6352 3.54297 16.8167C3.54297 23.6705 9.11897 29.2465 15.9728 29.2465C22.8267 29.2465 28.4027 23.6705 28.4027 16.8166ZM27.4565 16.3488H22.6468C22.5183 12.0038 20.6217 7.97722 17.5564 5.43228C22.9963 6.18528 27.2315 10.7593 27.4565 16.3488ZM21.6997 20.3047C22.0429 21.3259 22.7437 22.152 23.7541 22.7287C22.7437 23.3053 22.0429 24.1314 21.6997 25.1527C21.3565 24.1314 20.6557 23.3053 19.6453 22.7287C20.6557 22.152 21.3565 21.3259 21.6997 20.3047ZM21.4014 19.1518C21.4015 19.1518 21.4015 19.1518 21.4014 19.1518V19.1518ZM20.4127 17.2848H21.7099C21.698 17.6762 21.6718 18.0668 21.63 18.4542C21.3697 18.483 21.1523 18.67 21.0889 18.9293L20.8944 19.7239C20.5628 21.0783 19.5378 21.7853 18.7363 22.1398C18.3271 22.3203 18.2082 23.064 18.7363 23.3175C19.5378 23.6721 20.5628 24.3791 20.8944 25.7335L21.0889 26.5282C21.1337 26.711 21.2552 26.8578 21.4141 26.9387C20.2393 27.5727 18.9422 28.0077 17.5681 28.1993C18.264 27.6207 18.9059 26.9608 19.4859 26.2262C19.646 26.0234 19.6114 25.7291 19.4086 25.569C19.2057 25.4088 18.9115 25.4435 18.7513 25.6463C18.0676 26.5123 17.2925 27.2656 16.4408 27.894V17.2848H18.1668C18.4252 17.2848 18.6347 17.0753 18.6347 16.8168C18.6347 16.5584 18.4252 16.3489 18.1668 16.3489H16.4408V5.74859C19.5978 8.07922 21.575 12.0412 21.71 16.3488H20.4127C20.1542 16.3488 19.9447 16.5583 19.9447 16.8168C19.9447 17.0752 20.1542 17.2848 20.4127 17.2848ZM15.5048 27.8925C12.346 25.5605 10.3682 21.5953 10.2353 17.2848H15.5048V27.8925ZM15.5048 5.74859V16.3488H10.2356C10.3706 12.0412 12.3477 8.07922 15.5048 5.74859ZM4.48916 17.2848H9.29866C9.42497 21.6274 11.3177 25.6526 14.378 28.1994C8.94359 27.4417 4.71416 22.8703 4.48916 17.2848ZM22.3478 26.3758L22.505 25.7334C22.8366 24.379 23.8616 23.672 24.6631 23.3175C25.0723 23.1371 25.1913 22.3933 24.6631 22.1398C23.8616 21.7852 22.8366 21.0782 22.505 19.7238L22.4375 19.4478C22.5553 18.7375 22.6253 18.0125 22.6462 17.2847H27.4564C27.3039 21.0723 25.3103 24.3936 22.3478 26.3758Z" fill="#F57D34"/>
<path id="Vector_2" d="M31.7163 4.96672C31.6941 4.95191 31.6706 4.93897 31.6461 4.92816C30.8446 4.57359 29.8196 3.86659 29.4881 2.51222L29.2936 1.71759C29.2245 1.43541 28.9733 1.23828 28.6828 1.23828C28.3923 1.23828 28.1411 1.43534 28.072 1.71759L27.8775 2.51222C27.5459 3.86659 26.5209 4.57359 25.7194 4.92816C25.3514 5.07872 25.1772 5.85884 25.7194 6.10584C26.5209 6.46041 27.5459 7.16741 27.8775 8.52178L28.072 9.31647C28.1411 9.59866 28.3922 9.79578 28.6828 9.79578C28.9733 9.79578 29.2245 9.59872 29.2936 9.31647L29.4881 8.52184C29.8197 7.16747 30.8447 6.46047 31.6462 6.10591C32.0312 5.93128 32.1702 5.26997 31.7163 4.96672ZM28.6828 7.94097C28.3395 6.91972 27.6387 6.09359 26.6283 5.51697C27.6388 4.94034 28.3396 4.11422 28.6828 3.09297C29.026 4.11422 29.7268 4.94034 30.7371 5.51697C29.7268 6.09366 29.026 6.91978 28.6828 7.94097Z" fill="#F57D34"/>
<path id="Vector_3" d="M28.8107 27.4994C28.7884 27.4846 28.7649 27.4717 28.7405 27.4609C28.0897 27.1729 27.6853 26.7228 27.5384 26.123L27.4207 25.6419C27.3586 25.3882 27.1328 25.2109 26.8716 25.2109H26.8715C26.6103 25.2109 26.3845 25.3881 26.3224 25.6419L26.2046 26.123C26.0578 26.7228 25.6533 27.1729 25.0026 27.4609C24.6485 27.6117 24.5115 28.2742 25.0026 28.5116C25.6533 28.7996 26.0578 29.2496 26.2046 29.8495L26.3224 30.3307C26.3845 30.5845 26.6104 30.7616 26.8717 30.7616C27.1328 30.7616 27.3587 30.5843 27.4207 30.3307L27.5385 29.8496C27.6854 29.2497 28.0898 28.7996 28.7405 28.5117C29.0682 28.3649 29.2281 27.7906 28.8107 27.4994ZM26.5116 25.8644L26.5117 25.8649C26.5117 25.8647 26.5116 25.8645 26.5116 25.8644C26.5116 25.8643 26.5116 25.8643 26.5116 25.8644ZM26.8715 28.9857C26.6638 28.5922 26.3617 28.2559 25.9738 27.9862C26.3617 27.7165 26.6638 27.3801 26.8715 26.9867C27.0792 27.3801 27.3813 27.7164 27.7692 27.9862C27.3813 28.2559 27.0792 28.5922 26.8715 28.9857Z" fill="#F57D34"/>
<path id="Vector_4" d="M4.12725 10.5981C4.42431 10.4083 4.51594 9.80988 4.05706 9.58594C3.40625 9.298 3.00187 8.84787 2.855 8.24806L2.73719 7.76694C2.67506 7.51319 2.44919 7.33594 2.18794 7.33594C1.92675 7.336 1.70087 7.51325 1.63887 7.76694L1.52106 8.24806C1.37419 8.84794 0.969749 9.29806 0.318999 9.58594C-0.0351262 9.73681 -0.172064 10.3992 0.318999 10.6367C0.969749 10.9246 1.37412 11.3747 1.521 11.9746L1.63875 12.4556C1.70081 12.7094 1.92662 12.8866 2.18781 12.8866C2.449 12.8866 2.67487 12.7094 2.737 12.4557L2.85481 11.9746C3.00162 11.3747 3.40606 10.9246 4.05681 10.6367C4.08144 10.6258 4.10494 10.6129 4.12725 10.5981ZM2.18806 11.1108C1.98031 10.7173 1.67825 10.381 1.29037 10.1112C1.67825 9.84156 1.98037 9.50519 2.18806 9.11175C2.39575 9.50512 2.69787 9.84156 3.08575 10.1112C2.69781 10.381 2.39575 10.7174 2.18806 11.1108Z" fill="#F57D34"/>
</g>
</g>
<defs>
<clipPath id="clip0_208_9646">
<rect width="32" height="32" fill="white"/>
</clipPath>
</defs>
</svg>
