<svg width="32" height="32" viewBox="0 0 32 32" fill="none" xmlns="http://www.w3.org/2000/svg">
<g id="Layer 2">
<g id="linkedin">
<path id="background" d="M27.6364 0H4.36364C1.95367 0 0 1.95367 0 4.36364V27.6364C0 30.0463 1.95367 32 4.36364 32H27.6364C30.0463 32 32 30.0463 32 27.6364V4.36364C32 1.95367 30.0463 0 27.6364 0Z" fill="#0077B5"/>
<g id="icon">
<path id="Vector" d="M11.5288 8.72727C11.5288 9.26668 11.3688 9.79397 11.0691 10.2425C10.7695 10.691 10.3435 11.0405 9.84518 11.2469C9.34683 11.4534 8.79847 11.5074 8.26943 11.4021C7.74039 11.2969 7.25444 11.0372 6.87302 10.6557C6.4916 10.2743 6.23186 9.78838 6.12662 9.25934C6.02139 8.7303 6.0754 8.18194 6.28182 7.68359C6.48824 7.18525 6.8378 6.7593 7.2863 6.45963C7.7348 6.15995 8.26209 6 8.80149 6C9.52481 6 10.2185 6.28734 10.73 6.7988C11.2414 7.31026 11.5288 8.00396 11.5288 8.72727Z" fill="white"/>
<path id="Vector_2" d="M10.9091 13.274V25.3231C10.9095 25.412 10.8924 25.5001 10.8588 25.5824C10.8251 25.6646 10.7755 25.7394 10.7128 25.8024C10.6501 25.8655 10.5756 25.9155 10.4935 25.9496C10.4114 25.9837 10.3234 26.0013 10.2345 26.0013H7.35996C7.27107 26.0015 7.18301 25.9842 7.10084 25.9503C7.01868 25.9164 6.94402 25.8666 6.88116 25.8037C6.81831 25.7409 6.7685 25.6662 6.73459 25.584C6.70069 25.5019 6.68336 25.4138 6.6836 25.3249V13.274C6.6836 13.0946 6.75486 12.9226 6.8817 12.7958C7.00854 12.6689 7.18058 12.5977 7.35996 12.5977H10.2345C10.4136 12.5981 10.5851 12.6696 10.7116 12.7964C10.838 12.9232 10.9091 13.095 10.9091 13.274Z" fill="white"/>
<path id="Vector_3" d="M25.9343 19.5436V25.3764C25.9346 25.4581 25.9186 25.539 25.8875 25.6146C25.8563 25.6901 25.8105 25.7588 25.7527 25.8166C25.6949 25.8744 25.6263 25.9202 25.5507 25.9513C25.4752 25.9825 25.3942 25.9984 25.3125 25.9982H22.2216C22.1399 25.9984 22.0589 25.9825 21.9833 25.9513C21.9078 25.9202 21.8392 25.8744 21.7814 25.8166C21.7236 25.7588 21.6778 25.6901 21.6466 25.6146C21.6155 25.539 21.5995 25.4581 21.5998 25.3764V19.7236C21.5998 18.88 21.847 16.0291 19.3943 16.0291C17.4943 16.0291 17.107 17.98 17.0307 18.8563V25.3764C17.0307 25.5397 16.9664 25.6965 16.8518 25.8129C16.7371 25.9292 16.5813 25.9958 16.418 25.9982H13.4325C13.3509 25.9982 13.2702 25.9821 13.1948 25.9508C13.1195 25.9195 13.051 25.8737 12.9935 25.8159C12.9359 25.7582 12.8902 25.6896 12.8592 25.6142C12.8281 25.5387 12.8123 25.4579 12.8125 25.3764V13.2182C12.8123 13.1366 12.8281 13.0558 12.8592 12.9803C12.8902 12.9049 12.9359 12.8364 12.9935 12.7786C13.051 12.7208 13.1195 12.675 13.1948 12.6437C13.2702 12.6124 13.3509 12.5963 13.4325 12.5963H16.418C16.5829 12.5963 16.741 12.6619 16.8576 12.7785C16.9743 12.8951 17.0398 13.0533 17.0398 13.2182V14.2691C17.7452 13.2109 18.7907 12.3945 21.0216 12.3945C25.9634 12.3945 25.9343 17.0091 25.9343 19.5436Z" fill="white"/>
</g>
</g>
</g>
</svg>
