<svg width="48" height="48" viewBox="0 0 48 48" fill="none" xmlns="http://www.w3.org/2000/svg">
<path d="M43.3821 35.7894C43.0073 35.7938 43.0485 35.7756 42.5503 35.8105V24.1554C42.5503 22.908 41.5355 21.8932 40.2881 21.8932H34.5769C34.5738 21.8932 34.5709 21.8927 34.5678 21.8927H27.991V4.33475L33.3849 9.54866C33.6898 9.84341 33.8647 10.2555 33.8647 10.6796V19.2815C33.8647 19.6698 34.1795 19.9846 34.5678 19.9846C34.9561 19.9846 35.2709 19.6698 35.2709 19.2815V10.6796C35.2709 9.8765 34.9398 9.09575 34.3623 8.53756L27.7765 2.17166C27.6285 2.03272 27.3448 1.90803 27.0638 2.01069L15.2494 5.98194V3.24444C15.2583 2.04828 14.185 1.00719 12.9366 1.07975C11.7425 1.07975 10.7709 2.05081 10.7709 3.24444V7.48728L7.67991 8.52631C6.46575 8.9345 5.64994 10.0693 5.64994 11.3503V35.7932C2.52103 35.8734 0 38.4418 0 41.5896V45.165C0 46.1357 0.789656 46.9253 1.76025 46.9253H46.2397C47.2103 46.9253 47.9999 46.1356 47.9999 45.165V40.4072C48 37.861 45.9284 35.7894 43.3821 35.7894ZM43.3821 37.1956C45.153 37.1956 46.5938 38.6364 46.5938 40.4073V41.1449H39.7734V40.4073C39.775 38.4853 41.4637 37.0291 43.3821 37.1956ZM41.1441 24.1554V36.1733C39.5115 36.886 38.3672 38.5151 38.3672 40.4072V41.1448H27.991V23.2994H40.2881C40.7601 23.2994 41.1441 23.6834 41.1441 24.1554ZM12.1772 3.24444C12.1772 2.82622 12.5179 2.486 12.9366 2.486C13.3126 2.43078 13.8189 2.72563 13.8431 3.24444V6.45463L12.1772 7.0146V3.24444ZM5.65003 37.1982V41.1449H1.42856C1.64728 38.9791 3.44531 37.2726 5.65003 37.1982ZM1.40625 45.1651V42.5512H5.65003V45.5191H1.76034C1.56506 45.5191 1.40625 45.3603 1.40625 45.1651ZM7.05628 11.3503C7.05628 10.6739 7.48697 10.0749 8.12803 9.85935L26.5849 3.65535V7.48644L11.25 12.6411C10.8819 12.7648 10.6838 13.1635 10.8076 13.5316C10.9063 13.8254 11.1803 14.0109 11.474 14.0109C11.5482 14.0109 11.6238 13.9991 11.6981 13.974L26.5849 8.97013V12.5472L11.25 17.7017C10.8819 17.8255 10.6838 18.2242 10.8076 18.5923C10.9063 18.8861 11.1803 19.0715 11.474 19.0715C11.5482 19.0715 11.6238 19.0597 11.6981 19.0347L26.5849 14.0307V17.6077L11.25 22.7623C10.8819 22.886 10.6838 23.2847 10.8076 23.6529C10.9063 23.9467 11.1803 24.1321 11.474 24.1321C11.5482 24.1321 11.6238 24.1203 11.6981 24.0953L26.5849 19.0914V22.5937C26.5849 22.5946 26.5848 22.5955 26.5848 22.5964V22.6685L11.25 27.823C10.8819 27.9467 10.6838 28.3454 10.8076 28.7135C10.9063 29.0073 11.1803 29.1928 11.474 29.1928C11.5482 29.1928 11.6238 29.1809 11.6981 29.1559L26.5847 24.1519V27.729L17.0093 30.9477C16.6413 31.0713 16.4432 31.47 16.5669 31.8382C16.6657 32.132 16.9396 32.3174 17.2333 32.3174C17.3076 32.3174 17.3831 32.3056 17.4575 32.2806L26.5847 29.2125V45.519H20.5104V38.2128C20.5104 37.7339 20.2916 37.2931 19.9102 37.0036C19.5287 36.7141 19.0453 36.6219 18.5841 36.7507L12.0397 38.5777C11.2928 38.7862 10.7711 39.4734 10.7711 40.2489V45.519H7.05628V11.3503ZM12.1774 40.249C12.1774 40.102 12.2763 39.9718 12.4177 39.9322L14.9376 39.2287V45.5191H12.1773L12.1774 40.249ZM16.3438 45.5191V38.8361L18.9622 38.1051C18.9975 38.0952 19.0305 38.1013 19.0598 38.1238C19.0892 38.1461 19.1041 38.1761 19.1041 38.2129V45.5191H16.3438ZM27.991 45.5191V42.5512H38.3672V45.5191H27.991ZM46.5938 45.1651C46.5938 45.3604 46.4349 45.5191 46.2397 45.5191H39.7734V42.5512H46.5938V45.1651Z" fill="#F9E3FC"/>
<path d="M11.474 34.253C11.5482 34.253 11.6238 34.2411 11.6981 34.2161L14.3087 33.3386C14.6768 33.215 14.8748 32.8162 14.7511 32.4481C14.6273 32.0799 14.2286 31.8817 13.8606 32.0057L11.25 32.8832C10.8819 33.0068 10.6838 33.4056 10.8076 33.7737C10.9063 34.0674 11.1803 34.253 11.474 34.253Z" fill="#F9E3FC"/>
<path d="M31.0704 29.0992H37.9658C38.6197 29.0992 39.1516 28.5673 39.1516 27.9135V26.221C39.1516 25.5671 38.6197 25.0352 37.9658 25.0352H31.0704C30.4165 25.0352 29.8846 25.5671 29.8846 26.221V27.9135C29.8846 28.5673 30.4166 29.0992 31.0704 29.0992ZM31.2909 26.4414H37.7454V27.693H31.2909V26.4414Z" fill="#F9E3FC"/>
<path d="M31.0704 34.4449H37.9658C38.6197 34.4449 39.1516 33.913 39.1516 33.2591V31.5666C39.1516 30.9127 38.6197 30.3809 37.9658 30.3809H31.0704C30.4165 30.3809 29.8846 30.9128 29.8846 31.5666V33.2591C29.8846 33.913 30.4166 34.4449 31.0704 34.4449ZM31.2909 31.7871H37.7454V33.0387H31.2909V31.7871Z" fill="#F9E3FC"/>
<path d="M31.0704 39.8473H33.3511C34.005 39.8473 34.537 39.3153 34.537 38.6615V36.969C34.537 36.3151 34.005 35.7832 33.3511 35.7832H31.0704C30.4165 35.7832 29.8846 36.3151 29.8846 36.969V38.6615C29.8846 39.3153 30.4166 39.8473 31.0704 39.8473ZM31.2909 37.1895H33.1307V38.441H31.2909V37.1895Z" fill="#F9E3FC"/>
</svg>
