<svg width="48" height="48" viewBox="0 0 48 48" fill="none" xmlns="http://www.w3.org/2000/svg">
<g id="fi_8299561" clip-path="url(#clip0_795_17768)">
<g id="_x38_0_Startup">
<g id="Group">
<g id="Vector">
<path d="M24.0044 27.3467C24.0041 27.3467 24.0045 27.3467 24.0044 27.3467C22.2061 27.3478 20.7418 28.8108 20.7418 30.6093C20.7418 32.2324 23.2939 36.3046 23.5846 36.7633C23.7791 37.0706 24.2286 37.0715 24.4243 36.7633C24.715 36.3041 27.2637 32.2319 27.2637 30.6093C27.2637 28.8101 25.8018 27.3467 24.0044 27.3467ZM24.0039 28.3407C24.5696 28.341 25.0296 28.802 25.0296 29.3682C25.0296 29.7113 24.5505 30.7069 24.003 31.6538C23.4555 30.7073 22.976 29.7119 22.976 29.3682C22.976 28.8004 23.4384 28.3407 24.0039 28.3407ZM24.0039 35.55C22.9934 33.8687 21.7358 31.4874 21.7358 30.6094C21.7358 30.2331 21.8367 29.8833 21.9997 29.5705C22.155 30.584 23.3339 32.4861 23.5837 32.8799C23.7782 33.1872 24.2276 33.1881 24.4234 32.8799C24.6731 32.4861 25.8512 30.5834 26.0062 29.5699C26.1689 29.8828 26.2697 30.2328 26.2697 30.6093C26.2697 31.4874 25.014 33.8686 24.0039 35.55Z" fill="#F9E3FC"/>
<path d="M46.1767 17.4995C45.3947 17.4373 44.6599 17.8867 44.3507 18.6217L42.1587 23.9714C41.5122 23.654 40.7046 23.7186 40.1085 24.1947L37.3579 26.4293C36.6303 27.0118 35.8362 27.4428 34.998 27.7102C31.7038 28.7562 29.8288 29.861 29.426 30.9952C29.259 31.4694 28.9877 31.9956 28.6193 32.5586C27.529 34.2239 26.9487 36.098 26.9351 37.9822C26.4858 38.2197 26.1871 38.6902 26.1871 39.2276V39.5164C25.4707 39.7848 24.9567 40.4707 24.9567 41.2797V46.0344C24.9567 47.0362 25.7722 47.8517 26.774 47.8517H34.3899C35.3847 47.8517 36.2082 47.0476 36.2082 46.0344V41.2797C36.2082 40.4715 35.6952 39.7857 34.9797 39.5171V39.2276C34.9797 38.7185 34.7117 38.2747 34.3059 38.0266C34.5223 37.5631 34.8448 37.1638 35.2603 36.8586C36.1174 36.2242 36.4152 36.2113 40.2883 35.0166C42.123 34.4588 43.5689 33.0294 44.1563 31.1928L47.7674 19.872C48.1392 18.7561 47.3435 17.6038 46.1767 17.4995ZM27.1812 39.2276C27.1812 39.0238 27.3215 38.8515 27.5147 38.8179C27.6293 38.7971 33.5467 38.8068 33.6148 38.8126C33.8226 38.8329 33.9856 39.015 33.9856 39.2276V39.3917H27.1812V39.2276ZM34.32 40.3857C34.8131 40.3857 35.2141 40.7866 35.2141 41.2798V46.0345C35.2141 46.4936 34.8424 46.8577 34.3909 46.8577H26.774C26.3201 46.8577 25.9508 46.4884 25.9508 46.0345V41.2798C25.9508 40.7867 26.3516 40.3857 26.8448 40.3857H34.32ZM46.8222 19.5637L43.2091 30.8903C42.7213 32.4158 41.5215 33.6026 39.9969 34.0661C36.1591 35.2502 35.6876 35.305 34.6704 36.0586C34.0607 36.5064 33.6089 37.1114 33.3271 37.8112H27.9358C27.9824 36.1779 28.5002 34.5551 29.4513 33.1027C29.8628 32.4727 30.1702 31.8752 30.3633 31.3271C30.6395 30.5491 32.4849 29.5511 35.2995 28.6576C36.2547 28.3528 37.1565 27.864 37.9822 27.203L40.7323 24.9688C41.1083 24.6687 41.6579 24.7103 41.9749 25.0557C42.346 25.7002 41.935 26.0364 41.6128 26.4914C41.1391 27.0893 40.628 27.6704 40.0912 28.2202C39.0259 29.3235 37.8435 30.3219 36.6115 31.378C36.4227 31.5401 36.3829 31.8168 36.5184 32.0256C36.6526 32.2331 36.9207 32.3113 37.1469 32.2046C38.6104 31.5154 39.9718 30.5354 41.2003 29.2861C41.8483 28.6032 42.3618 27.9562 42.7705 27.3052C43.3562 26.3637 43.6223 25.5402 42.9535 24.6544L45.2693 19.002C45.41 18.6681 45.7449 18.4666 46.0939 18.4899C46.6141 18.5369 46.9934 19.0519 46.8222 19.5637Z" fill="#F9E3FC"/>
<path d="M7.71544 35.0155C11.442 36.1657 11.8761 36.2145 12.7468 36.8595C13.1618 37.1645 13.4841 37.5636 13.6997 38.0267C13.2943 38.2748 13.0264 38.7182 13.0264 39.2276V39.5167C12.3104 39.7852 11.7969 40.4711 11.7969 41.2797V46.0344C11.7969 47.0362 12.6124 47.8517 13.6142 47.8517H21.2302C22.2249 47.8517 23.0484 47.0476 23.0484 46.0344V41.2797C23.0484 40.4709 22.5347 39.7851 21.8185 39.5167V39.2276C21.8185 38.6831 21.5117 38.2078 21.0702 37.9775C21.0418 34.2783 19.158 32.6319 18.5792 30.9943C18.1763 29.861 16.3023 28.7563 13.0086 27.7102C12.1693 27.4428 11.3753 27.0118 10.6511 26.4313L7.89423 24.1923C7.29966 23.7176 6.49248 23.6555 5.84738 23.9714L3.65354 18.6172C3.34632 17.8867 2.60316 17.4402 1.82419 17.4999C0.660381 17.6037 -0.130494 18.7628 0.236538 19.8656L3.8506 31.1927C4.43626 33.0294 5.88216 34.4584 7.71544 35.0155ZM21.1601 40.3857C21.6533 40.3857 22.0542 40.7866 22.0542 41.2798V46.0345C22.0542 46.4936 21.6825 46.8577 21.231 46.8577H13.6141C13.1603 46.8577 12.7909 46.4884 12.7909 46.0345V41.2798C12.7909 40.7867 13.1918 40.3857 13.685 40.3857H21.1601ZM20.4909 38.8179C20.6841 38.8514 20.8243 39.0237 20.8243 39.2276V39.3917H14.0204V39.2276C14.0204 39.015 14.183 38.833 14.3912 38.8126C14.4958 38.8034 20.3884 38.7955 20.4909 38.8179ZM2.73498 18.9983L5.05247 24.6547C4.63669 25.2052 4.50816 25.9963 4.90988 26.7541C5.39419 27.6643 6.09882 28.5418 6.8116 29.2926C8.03372 30.5356 9.39526 31.5156 10.8586 32.2048C11.0848 32.3115 11.353 32.2331 11.4872 32.0257C11.6226 31.8171 11.5828 31.5404 11.394 31.3782C10.1683 30.3275 8.97938 29.3234 7.91241 28.2185C6.75216 27.0297 6.10351 26.1039 6.0481 26.0358C5.84991 25.7687 5.82122 25.4214 6.03029 25.0562C6.3466 24.7104 6.89729 24.6677 7.27032 24.9666L10.0268 27.2051C10.8489 27.8643 11.7508 28.353 12.707 28.6579C15.5207 29.5509 17.3661 30.5489 17.6423 31.3265C18.3086 33.2122 19.9741 34.4506 20.0697 37.8115H14.6791C14.3976 37.112 13.946 36.5072 13.3371 36.0598C12.2586 35.2612 11.6057 35.1764 8.00672 34.0655C6.48413 33.6029 5.28432 32.4162 4.79747 30.8912L1.18144 19.5577C0.866819 18.6138 2.31516 17.9987 2.73498 18.9983Z" fill="#F9E3FC"/>
<path d="M27.428 23.5057C28.2316 23.9172 28.9155 24.4941 29.4513 25.248C30.2141 26.3117 31.8973 25.8056 31.9815 24.4937C32.1975 21.1657 31.277 17.7071 29.0201 15.3187C29.062 14.5813 29.0839 13.8292 29.0839 13.0681C29.0839 8.85412 27.6046 4.53928 25.4955 0.989152C24.8274 -0.136599 23.1852 -0.145224 22.5114 0.989152C20.3799 4.55671 18.9217 8.90653 18.9217 13.0681C18.9217 13.8292 18.9435 14.5815 18.9855 15.3188C16.7145 17.717 15.7636 21.3405 16.0245 24.4932C16.1085 25.8034 17.7891 26.314 18.5562 25.2451C19.0914 24.4889 19.7749 23.9109 20.5773 23.5009C20.6069 23.5744 20.6354 23.6506 20.6656 23.7224C20.832 24.1162 21.1318 24.4237 21.4985 24.6051L21.3271 24.9742C20.9229 25.8537 21.5642 26.8569 22.5294 26.8569H25.4765C26.4373 26.8569 27.0842 25.858 26.6778 24.9727L26.5074 24.6055C26.8748 24.4242 27.175 24.1165 27.3418 23.7219C27.3714 23.6519 27.3991 23.5776 27.428 23.5057ZM30.9894 24.4291C30.9653 24.8071 30.4799 24.9759 30.2604 24.6703C29.6074 23.7509 28.7646 23.0547 27.77 22.5689C28.3153 20.9156 28.7057 18.9132 28.9127 16.7338C30.3249 18.6296 31.1919 21.3725 30.9894 24.4291ZM23.3784 1.48106C23.661 1.03828 24.37 1.04128 24.6403 1.49681C24.7767 1.7264 24.91 1.96078 25.041 2.19721C25.0493 2.21221 25.0574 2.22684 25.0658 2.24184H22.9417C23.0424 2.05837 23.2584 1.67325 23.3784 1.48106ZM17.7466 24.6684C17.5281 24.9725 17.0416 24.8163 17.0156 24.4199C16.8052 21.8846 17.4793 18.895 19.093 16.7324C19.3 18.91 19.6904 20.9111 20.2355 22.5639C19.2415 23.0487 18.3989 23.7466 17.7466 24.6684ZM25.4766 25.8629H22.5294C22.2885 25.8629 22.1288 25.6097 22.2294 25.3912L22.5102 24.7864H25.4956L25.7755 25.3897C25.8767 25.6104 25.717 25.8629 25.4766 25.8629ZM26.426 23.3356C26.3085 23.6132 26.0392 23.7923 25.7387 23.7923H22.2683C21.9678 23.7923 21.6984 23.6133 21.5819 23.3361C20.5228 20.8257 19.9156 17.083 19.9156 13.068C19.9156 9.15309 21.2312 5.62828 22.4218 3.23587H25.5849C26.7748 5.62818 28.0897 9.15328 28.0897 13.068C28.0899 16.2775 27.6714 20.3767 26.426 23.3356Z" fill="#F9E3FC"/>
<path d="M24.0015 6.77615C22.4119 6.77615 21.1189 8.07018 21.1189 9.66121C21.1189 11.2508 22.4119 12.5443 24.0015 12.5443C25.5925 12.5443 26.887 11.2508 26.887 9.66121C26.887 8.07018 25.5925 6.77615 24.0015 6.77615ZM24.0015 11.5503C22.9599 11.5503 22.1129 10.7028 22.1129 9.66121C22.1129 8.61862 22.9599 7.77018 24.0015 7.77018C25.0446 7.77018 25.893 8.61862 25.893 9.66121C25.893 10.7029 25.0446 11.5503 24.0015 11.5503Z" fill="#F9E3FC"/>
</g>
</g>
</g>
</g>
<defs>
<clipPath id="clip0_795_17768">
<rect width="48" height="48" fill="white"/>
</clipPath>
</defs>
</svg>
