<svg xmlns="http://www.w3.org/2000/svg" width="40" height="40" viewBox="0 0 40 40" fill="none">
  <g clip-path="url(#clip0_53_42)">
    <path d="M38.3355 12.8905C38.1055 12.8124 37.8874 12.739 37.6769 12.6691V11.2379C37.6769 10.2807 37.0689 9.43104 36.164 9.1237C33.5471 8.23463 30.7436 7.39588 27.9727 7.27893C25.0562 7.15565 22.4443 7.83917 19.9999 9.36682C16.7436 7.33167 13.1973 6.79753 8.87594 7.68456C8.55898 7.74964 8.35477 8.05932 8.41984 8.37628C8.48492 8.69331 8.79469 8.89729 9.11164 8.83245C13.1902 7.99526 16.3826 8.47268 19.414 10.3825V31.3921C13.9877 28.2397 8.46313 29.9128 3.49484 31.6317V11.238C3.49484 10.783 3.78336 10.3792 4.21281 10.2334C5.23883 9.88479 6.07414 9.61964 6.84156 9.39878C7.1525 9.30924 7.33211 8.98463 7.24266 8.6737C7.1532 8.36276 6.82875 8.18299 6.51758 8.27253C5.73195 8.49862 4.87984 8.76901 3.83594 9.12378C2.93102 9.4312 2.32305 10.2809 2.32305 11.238V12.6692C1.09844 13.0759 0 13.7544 0 15.2171V37.6238C0 39.1963 1.58406 40.3646 3.09687 39.8669C7.08227 38.5564 14.3313 35.48 17.9234 39.1816C18.9291 40.2181 21.0111 40.2811 22.048 39.2522C24.2879 37.0305 28.067 37.4187 30.872 38.0484C31.1877 38.1196 31.5012 37.9208 31.5721 37.605C31.643 37.2893 31.4445 36.9759 31.1287 36.905C27.9002 36.1801 23.7743 35.8891 21.2227 38.4203C20.6555 38.9831 19.3291 38.9475 18.7645 38.3656C14.7617 34.2405 7.2343 37.2715 2.73078 38.7539C1.97266 39.0028 1.17188 38.4213 1.17188 37.6238V15.2171C1.17188 14.4857 1.70297 14.1138 2.32305 13.9048V34.1822C2.32305 35.6157 3.76766 36.6749 5.14492 36.2221C7.23422 35.5349 9.70023 34.8182 12.1494 34.7134C14.6375 34.6069 16.8449 35.1446 18.8978 36.3571C19.5716 36.755 20.4284 36.7549 21.1022 36.3571C23.1552 35.1445 25.363 34.6075 27.8506 34.7134C30.2998 34.8183 32.7659 35.5349 34.8551 36.2221C36.2323 36.6754 37.677 35.6156 37.677 34.1823V13.9049C38.2971 14.1137 38.8281 14.4859 38.8281 15.2171V37.6239C38.8281 38.4212 38.0273 39.0028 37.2693 38.7539C36.0111 38.3399 34.7574 37.911 33.4883 37.5313C33.1782 37.4389 32.8518 37.6146 32.759 37.9247C32.6662 38.2347 32.8423 38.5612 33.1523 38.654C34.4113 39.0307 35.655 39.4564 36.9031 39.8671C38.416 40.3643 40 39.1967 40 37.6239V15.2171C40 14.1637 39.3311 13.2288 38.3355 12.8905ZM35.7871 10.2333C36.2166 10.3792 36.5051 10.7829 36.5051 11.2379V31.6317C33.5726 30.6171 30.447 29.6185 27.2616 29.6185C25.0501 29.6185 22.8095 30.1 20.5859 31.392V10.3826C25.648 7.20018 30.6658 8.49354 35.7871 10.2333ZM36.1017 34.9724C35.8445 35.1586 35.5235 35.2084 35.2212 35.1089C30.7741 33.6463 25.6027 32.3378 20.5062 35.3481C20.194 35.5325 19.806 35.5325 19.4938 35.3481C14.3972 32.3378 9.22594 33.6462 4.77875 35.109C4.15562 35.3136 3.49492 34.8396 3.49492 34.1823V32.8725C6.37664 31.8742 8.99047 31.047 11.5675 30.8397C14.6451 30.5921 17.2192 31.2594 19.6686 32.9391C19.8742 33.0784 20.1421 33.0736 20.3391 32.9338C22.7862 31.2579 25.3581 30.5928 28.4325 30.8397C31.0095 31.047 33.6234 31.8742 36.5051 32.8725V34.1823C36.5051 34.4989 36.358 34.7868 36.1017 34.9724Z" fill="white"/>
    <path d="M17.1235 11.3498C15.7437 10.7036 14.2956 10.3896 12.6963 10.3896C10.8315 10.3896 8.785 10.7953 5.85328 11.746C5.54547 11.8458 5.3768 12.1763 5.47664 12.4841C5.56969 12.771 5.93055 12.9532 6.21477 12.8607C9.02297 11.95 10.9613 11.5614 12.6963 11.5614C14.1202 11.5614 15.4057 11.8393 16.6266 12.411C16.9197 12.5482 17.2684 12.422 17.4057 12.1289C17.5429 11.8359 17.4166 11.487 17.1235 11.3498Z" fill="white"/>
    <path d="M17.1235 14.1835C15.7437 13.5374 14.2956 13.2234 12.6963 13.2234C10.8315 13.2234 8.785 13.629 5.85328 14.5798C5.54547 14.6796 5.3768 15.01 5.47664 15.3178C5.56969 15.6047 5.93055 15.7869 6.21477 15.6944C9.02297 14.7838 10.9613 14.3952 12.6963 14.3952C14.1202 14.3952 15.4057 14.6731 16.6266 15.2447C16.9197 15.382 17.2684 15.2557 17.4057 14.9626C17.5429 14.6696 17.4166 14.3207 17.1235 14.1835Z" fill="white"/>
    <path d="M17.4056 17.7964C17.5428 17.5033 17.4165 17.1544 17.1234 17.0172C15.7437 16.371 14.2955 16.0571 12.6962 16.0571C10.8314 16.0571 8.78492 16.4627 5.8532 17.4135C5.54539 17.5132 5.37672 17.8437 5.47656 18.1515C5.56961 18.4384 5.93047 18.6206 6.21469 18.5281C9.02289 17.6174 10.9612 17.2289 12.6962 17.2289C14.1201 17.2289 15.4056 17.5067 16.6265 18.0784C16.9197 18.2157 17.2684 18.0894 17.4056 17.7964Z" fill="white"/>
    <path d="M23.3735 22.5571C24.5943 21.9855 25.8799 21.7076 27.3038 21.7076C29.0388 21.7076 30.9771 22.0962 33.7853 23.0068C34.0695 23.0992 34.4304 22.9171 34.5234 22.6303C34.6233 22.3224 34.4547 21.992 34.1468 21.8922C31.2151 20.9414 29.1686 20.5358 27.3038 20.5358C25.7045 20.5358 24.2563 20.8499 22.8766 21.496C22.5835 21.6332 22.4572 21.9821 22.5944 22.2751C22.7316 22.568 23.0804 22.6943 23.3735 22.5571Z" fill="white"/>
    <path d="M23.3735 25.3908C24.5943 24.8192 25.8799 24.5413 27.3038 24.5413C29.0388 24.5413 30.9771 24.9299 33.7853 25.8405C34.0695 25.9329 34.4304 25.7508 34.5234 25.4639C34.6233 25.1561 34.4547 24.8256 34.1468 24.7259C31.2151 23.7751 29.1686 23.3695 27.3038 23.3695C25.7045 23.3695 24.2563 23.6835 22.8766 24.3296C22.5835 24.4668 22.4572 24.8157 22.5944 25.1088C22.7316 25.4017 23.0804 25.5281 23.3735 25.3908Z" fill="white"/>
    <path d="M23.3735 28.2246C24.5943 27.6529 25.8799 27.375 27.3038 27.375C29.0388 27.375 30.9771 27.7636 33.7853 28.6742C34.0695 28.7667 34.4304 28.5846 34.5234 28.2977C34.6233 27.9899 34.4547 27.6594 34.1468 27.5596C31.2151 26.6089 29.1686 26.2032 27.3038 26.2032C25.7045 26.2032 24.2563 26.5173 22.8766 27.1634C22.5835 27.3006 22.4572 27.6495 22.5944 27.9425C22.7316 28.2354 23.0804 28.3617 23.3735 28.2246Z" fill="white"/>
    <path d="M17.4273 3.83213L18.5738 4.45917L19.2007 5.60549C19.5372 6.22081 20.4618 6.22245 20.7993 5.60549L21.4263 4.45917L22.5726 3.83213C23.1934 3.49268 23.1934 2.57299 22.5726 2.23354L21.4263 1.60659L20.7993 0.460182C20.4288 -0.0935681 19.5563 -0.189974 19.2007 0.460182L18.5738 1.60659L17.4274 2.23354C16.8066 2.57299 16.8066 3.49268 17.4273 3.83213ZM19.203 2.59807C19.3562 2.51432 19.4815 2.38909 19.5652 2.23589L20 1.44088L20.4348 2.23589C20.5185 2.38909 20.6438 2.51424 20.797 2.59807L21.5919 3.03284L20.797 3.4676C20.6438 3.55135 20.5185 3.67659 20.4348 3.82971L20 4.62471L19.5652 3.82971C19.4815 3.67659 19.3563 3.55143 19.203 3.4676L18.408 3.03284L19.203 2.59807Z" fill="white"/>
    <path d="M25.9729 15.8257L27.1192 16.4527L27.7463 17.5991C28.0858 18.2198 29.0053 18.2197 29.3448 17.599L29.9717 16.4527L31.1181 15.8257C31.7388 15.4861 31.7388 14.5666 31.118 14.2271L29.9717 13.6001L29.3448 12.4538C29.0084 11.8385 28.0836 11.8367 27.7462 12.4538L27.1192 13.6001L25.9728 14.2271C25.352 14.5667 25.3521 15.4862 25.9729 15.8257ZM27.7485 14.5917C27.9016 14.5079 28.027 14.3827 28.1107 14.2295L28.5455 13.4346L28.9802 14.2295C29.064 14.3827 29.1893 14.5078 29.3424 14.5917L30.1374 15.0264L29.3424 15.4612C29.1893 15.5449 29.064 15.6702 28.9802 15.8234L28.5455 16.6183L28.1107 15.8234C28.027 15.6702 27.9016 15.545 27.7485 15.4612L26.9535 15.0264L27.7485 14.5917Z" fill="white"/>
    <path d="M12.8809 22.4943L12.2538 21.3479C11.9144 20.7271 10.9946 20.727 10.6552 21.3479L10.0283 22.4942L8.88188 23.1212C8.26109 23.4607 8.26109 24.3803 8.88188 24.7198L10.0283 25.3468L10.6552 26.4932C10.9917 27.1085 11.9163 27.1101 12.2538 26.4932L12.8809 25.3467L14.0271 24.7198C14.648 24.3803 14.648 23.4607 14.0271 23.1212L12.8809 22.4943ZM12.2514 24.3553C12.0983 24.439 11.973 24.5643 11.8893 24.7175L11.4545 25.5125L11.0198 24.7175C10.936 24.5643 10.8107 24.4392 10.6576 24.3553L9.86258 23.9206L10.6576 23.4858C10.8107 23.4021 10.936 23.2768 11.0198 23.1236L11.4545 22.3287L11.8893 23.1236C11.9731 23.2768 12.0984 23.4021 12.2515 23.4858L13.0465 23.9206L12.2514 24.3553Z" fill="white"/>
  </g>
  <defs>
    <clipPath id="clip0_53_42">
      <rect width="40" height="40" fill="white"/>
    </clipPath>
  </defs>
</svg>