<svg width="114" height="114" viewBox="0 0 114 114" fill="none" xmlns="http://www.w3.org/2000/svg">
<rect x="3" y="3" width="108" height="108" rx="54" fill="white"/>
<circle cx="56.9999" cy="57" r="50" stroke="#FDF2FF" stroke-width="13"/>
<path d="M92.3554 21.6448C101.475 30.7648 106.718 43.0561 106.989 55.9507C107.26 68.8454 102.537 81.3459 93.8081 90.8405C85.079 100.335 73.0185 106.089 60.1466 106.901C47.2746 107.713 34.5869 103.519 24.7343 95.196C14.8817 86.873 8.62635 75.0648 7.27519 62.2382C5.92404 49.4117 9.5816 36.5592 17.4837 26.3659C25.3858 16.1727 36.9212 9.42724 49.6797 7.53895C62.4383 5.65067 75.433 8.7656 85.9489 16.233" stroke="url(#paint0_linear_57_137)" stroke-width="13"/>
<rect x="21" y="21" width="72" height="72" rx="36" fill="#FDF2FF"/>
<rect x="21" y="21" width="72" height="72" rx="36" fill="url(#paint1_linear_57_137)"/>
<g clip-path="url(#clip0_57_137)">
<path d="M72.502 58.021C72.502 49.4537 65.532 42.4837 56.9646 42.4837C54.8483 42.4837 52.7963 42.9018 50.8659 43.7265C50.5688 43.8534 50.4309 44.1971 50.5578 44.4942C50.6848 44.7913 51.0285 44.9293 51.3255 44.8023C52.502 44.2998 53.7277 43.9617 54.9872 43.7889C51.1545 46.97 48.7828 52.0041 48.6222 57.4363H42.6105C42.7963 52.8282 45.1696 48.5984 49.0416 46.0338C49.3109 45.8554 49.3846 45.4925 49.2063 45.2231C49.0278 44.9538 48.6648 44.8802 48.3955 45.0584C44.0323 47.9484 41.4273 52.7942 41.4273 58.0211C41.4273 66.5884 48.3973 73.5584 56.9647 73.5584C65.532 73.5584 72.502 66.5884 72.502 58.021ZM71.3192 57.4363H65.3071C65.1466 52.005 62.7757 46.9718 58.9441 43.7906C65.7441 44.7319 71.0381 50.4494 71.3192 57.4363ZM64.1233 62.3811C64.5523 63.6577 65.4283 64.6903 66.6913 65.4111C65.4283 66.1319 64.5523 67.1645 64.1233 68.4411C63.6942 67.1645 62.8182 66.1319 61.5552 65.4111C62.8183 64.6903 63.6942 63.6577 64.1233 62.3811ZM63.7504 60.94C63.7505 60.94 63.7505 60.94 63.7504 60.94ZM62.5145 58.6063H64.136C64.1211 59.0955 64.0884 59.5838 64.0361 60.068C63.7108 60.104 63.4391 60.3377 63.3598 60.6619L63.1166 61.6552C62.7022 63.3481 61.4209 64.2319 60.4191 64.6751C59.9075 64.9006 59.7588 65.8303 60.4191 66.1472C61.4209 66.5904 62.7022 67.4741 63.1166 69.1671L63.3598 70.1605C63.4158 70.3891 63.5676 70.5725 63.7663 70.6736C62.2977 71.4662 60.6763 72.0098 58.9588 72.2495C59.8286 71.5261 60.631 70.7013 61.356 69.783C61.5562 69.5295 61.5129 69.1616 61.2594 68.9615C61.0058 68.7613 60.638 68.8046 60.4378 69.0581C59.5831 70.1407 58.6142 71.0823 57.5496 71.8678V58.6063H59.7071C60.0302 58.6063 60.292 58.3444 60.292 58.0213C60.292 57.6983 60.0302 57.4364 59.7071 57.4364H57.5496V44.186C61.4959 47.0993 63.9674 52.0517 64.1362 57.4363H62.5145C62.1914 57.4363 61.9295 57.6982 61.9295 58.0212C61.9295 58.3443 62.1914 58.6063 62.5145 58.6063ZM56.3797 71.8659C52.4311 68.9509 49.9588 63.9945 49.7927 58.6063H56.3797V71.8659ZM56.3797 44.186V57.4363H49.7931C49.9619 52.0517 52.4333 47.0993 56.3797 44.186ZM42.6101 58.6063H48.622C48.7798 64.0345 51.1457 69.066 54.9711 72.2495C48.1781 71.3023 42.8913 65.5882 42.6101 58.6063ZM64.9334 69.97L65.1299 69.167C65.5444 67.4741 66.8256 66.5903 67.8275 66.1471C68.339 65.9216 68.4877 64.9919 67.8275 64.675C66.8256 64.2318 65.5444 63.348 65.1299 61.6551L65.0455 61.3101C65.1928 60.4222 65.2803 59.5159 65.3064 58.6062H71.3191C71.1285 63.3407 68.6366 67.4923 64.9334 69.97Z" fill="white"/>
<path d="M76.6446 43.2079C76.6168 43.1894 76.5874 43.1732 76.5569 43.1597C75.555 42.7165 74.2738 41.8327 73.8593 40.1398L73.6162 39.1465C73.5298 38.7937 73.2159 38.5473 72.8527 38.5473C72.4895 38.5473 72.1755 38.7937 72.0891 39.1465L71.846 40.1398C71.4316 41.8327 70.1503 42.7165 69.1484 43.1597C68.6884 43.3479 68.4707 44.323 69.1484 44.6318C70.1503 45.075 71.4316 45.9587 71.846 47.6517L72.0891 48.6451C72.1755 48.9978 72.4895 49.2442 72.8527 49.2442C73.2159 49.2442 73.5298 48.9979 73.6162 48.6451L73.8594 47.6518C74.2738 45.9588 75.5551 45.0751 76.557 44.6319C77.0382 44.4136 77.212 43.5869 76.6446 43.2079ZM72.8527 46.9257C72.4236 45.6491 71.5476 44.6165 70.2846 43.8957C71.5477 43.1749 72.4237 42.1423 72.8527 40.8657C73.2816 42.1423 74.1577 43.1749 75.4206 43.8957C74.1577 44.6166 73.2817 45.6492 72.8527 46.9257Z" fill="white"/>
<path d="M73.0155 71.3751C72.9877 71.3565 72.9583 71.3404 72.9277 71.3269C72.1143 70.9669 71.6088 70.4043 71.4252 69.6545L71.278 69.0532C71.2004 68.736 70.9181 68.5144 70.5916 68.5144H70.5916C70.2651 68.5144 69.9828 68.7359 69.9052 69.0531L69.7579 69.6545C69.5744 70.4043 69.0688 70.9669 68.2554 71.3269C67.8127 71.5154 67.6416 72.3435 68.2554 72.6403C69.0688 73.0002 69.5744 73.5628 69.7579 74.3126L69.9052 74.9142C69.9828 75.2314 70.2652 75.4528 70.5917 75.4528C70.9182 75.4528 71.2005 75.2312 71.278 74.9141L71.4253 74.3127C71.6089 73.5629 72.1145 73.0003 72.9278 72.6404C73.3374 72.4569 73.5373 71.739 73.0155 71.3751ZM70.1416 69.3312L70.1417 69.3319C70.1417 69.3316 70.1416 69.3314 70.1416 69.3312C70.1416 69.3312 70.1416 69.3312 70.1416 69.3312ZM70.5915 73.2329C70.3319 72.7411 69.9543 72.3207 69.4694 71.9835C69.9542 71.6464 70.3319 71.2258 70.5915 70.7341C70.8512 71.2259 71.2288 71.6463 71.7136 71.9835C71.2288 72.3207 70.8512 72.7411 70.5915 73.2329Z" fill="white"/>
<path d="M42.159 50.245C42.5303 50.0077 42.6448 49.2597 42.0713 48.9798C41.2577 48.6198 40.7523 48.0572 40.5687 47.3074L40.4214 46.706C40.3438 46.3888 40.0614 46.1673 39.7348 46.1673C39.4084 46.1673 39.126 46.3889 39.0485 46.706L38.9013 47.3074C38.7177 48.0573 38.2121 48.6199 37.3987 48.9798C36.956 49.1684 36.7848 49.9964 37.3987 50.2932C38.2121 50.653 38.7176 51.2157 38.9012 51.9655L39.0484 52.5669C39.1259 52.8841 39.4082 53.1056 39.7347 53.1056C40.0612 53.1056 40.3435 52.8841 40.4212 52.567L40.5684 51.9655C40.752 51.2157 41.2575 50.6531 42.0709 50.2932C42.1017 50.2796 42.1311 50.2635 42.159 50.245ZM39.735 50.8858C39.4753 50.394 39.0977 49.9736 38.6129 49.6364C39.0977 49.2993 39.4754 48.8788 39.735 48.387C39.9946 48.8788 40.3723 49.2993 40.8571 49.6364C40.3722 49.9736 39.9946 50.3941 39.735 50.8858Z" fill="white"/>
</g>
<g filter="url(#filter0_dd_57_137)">
<rect x="79" y="3" width="32" height="32" rx="16" fill="#FAFAFA" shape-rendering="crispEdges"/>
<path d="M90.1 11.7C90.1466 11.6379 90.207 11.5875 90.2764 11.5528C90.3458 11.5181 90.4224 11.5 90.5 11.5H99.5C99.5776 11.5 99.6542 11.5181 99.7236 11.5528C99.793 11.5875 99.8534 11.6379 99.9 11.7L102.876 15.674C103.025 15.859 103.032 16.124 102.886 16.318L95.4 26.3C95.3534 26.3621 95.293 26.4125 95.2236 26.4472C95.1542 26.4819 95.0776 26.5 95 26.5C94.9224 26.5 94.8458 26.4819 94.7764 26.4472C94.707 26.4125 94.6466 26.3621 94.6 26.3L87.1 16.3C87.0351 16.2135 87 16.1082 87 16C87 15.8918 87.0351 15.7865 87.1 15.7L90.1 11.7ZM101.486 15.485L99.68 13.075L98.904 15.488L101.486 15.485ZM97.853 15.489L98.814 12.5H91.186L92.149 15.495L97.853 15.489ZM92.47 16.495L95 24.366L97.532 16.49L92.47 16.495ZM91.099 15.496L90.319 13.074L88.501 15.499L91.099 15.496ZM88.499 16.5L93.612 23.317L91.42 16.497L88.5 16.5H88.499ZM96.388 23.317L101.511 16.487L98.583 16.489L96.388 23.317Z" fill="#9C9A96"/>
</g>
<defs>
<filter id="filter0_dd_57_137" x="76" y="1" width="38" height="38" filterUnits="userSpaceOnUse" color-interpolation-filters="sRGB">
<feFlood flood-opacity="0" result="BackgroundImageFix"/>
<feColorMatrix in="SourceAlpha" type="matrix" values="0 0 0 0 0 0 0 0 0 0 0 0 0 0 0 0 0 0 127 0" result="hardAlpha"/>
<feOffset dy="1"/>
<feGaussianBlur stdDeviation="1.5"/>
<feComposite in2="hardAlpha" operator="out"/>
<feColorMatrix type="matrix" values="0 0 0 0 0 0 0 0 0 0 0 0 0 0 0 0 0 0 0.1 0"/>
<feBlend mode="normal" in2="BackgroundImageFix" result="effect1_dropShadow_57_137"/>
<feColorMatrix in="SourceAlpha" type="matrix" values="0 0 0 0 0 0 0 0 0 0 0 0 0 0 0 0 0 0 127 0" result="hardAlpha"/>
<feMorphology radius="1" operator="erode" in="SourceAlpha" result="effect2_dropShadow_57_137"/>
<feOffset dy="1"/>
<feGaussianBlur stdDeviation="1"/>
<feComposite in2="hardAlpha" operator="out"/>
<feColorMatrix type="matrix" values="0 0 0 0 0 0 0 0 0 0 0 0 0 0 0 0 0 0 0.1 0"/>
<feBlend mode="normal" in2="effect1_dropShadow_57_137" result="effect2_dropShadow_57_137"/>
<feBlend mode="normal" in="SourceGraphic" in2="effect2_dropShadow_57_137" result="shape"/>
</filter>
<linearGradient id="paint0_linear_57_137" x1="6.99992" y1="7" x2="117.613" y2="93.4153" gradientUnits="userSpaceOnUse">
<stop stop-color="#A193F2"/>
<stop offset="1" stop-color="#C44EB9"/>
</linearGradient>
<linearGradient id="paint1_linear_57_137" x1="21" y1="21" x2="100.641" y2="83.2189" gradientUnits="userSpaceOnUse">
<stop stop-color="#A193F2"/>
<stop offset="1" stop-color="#C44EB9"/>
</linearGradient>
<clipPath id="clip0_57_137">
<rect width="40" height="40" fill="white" transform="translate(37 37)"/>
</clipPath>
</defs>
</svg>
