<svg width="114" height="114" viewBox="0 0 114 114" fill="none" xmlns="http://www.w3.org/2000/svg">
<rect x="3" y="3" width="108" height="108" rx="54" fill="white"/>
<circle cx="56.9999" cy="57" r="50" stroke="#FDF2FF" stroke-width="13"/>
<path d="M92.3554 21.6448C101.475 30.7648 106.718 43.0561 106.989 55.9507C107.26 68.8454 102.537 81.3459 93.8081 90.8405C85.079 100.335 73.0185 106.089 60.1466 106.901C47.2746 107.713 34.5869 103.519 24.7343 95.196C14.8817 86.873 8.62635 75.0648 7.27519 62.2382C5.92404 49.4117 9.5816 36.5592 17.4837 26.3659C25.3858 16.1727 36.9212 9.42724 49.6797 7.53895C62.4383 5.65067 75.433 8.7656 85.9489 16.233" stroke="url(#paint0_linear_57_137)" stroke-width="13"/>
<rect x="21" y="21" width="72" height="72" rx="36" fill="#FDF2FF"/>
<rect x="21" y="21" width="72" height="72" rx="36" fill="url(#paint1_linear_57_137)"/>
<g clip-path="url(#clip0_57_137)">
<path d="M75.3355 49.8905C75.1055 49.8124 74.8874 49.739 74.6769 49.6691V48.2379C74.6769 47.2807 74.0689 46.431 73.164 46.1237C70.5471 45.2346 67.7436 44.3959 64.9727 44.2789C62.0562 44.1557 59.4443 44.8392 56.9999 46.3668C53.7436 44.3317 50.1973 43.7975 45.8759 44.6846C45.559 44.7496 45.3548 45.0593 45.4198 45.3763C45.4849 45.6933 45.7947 45.8973 46.1116 45.8324C50.1902 44.9953 53.3826 45.4727 56.414 47.3825V68.3921C50.9877 65.2397 45.4631 66.9128 40.4948 68.6317V48.238C40.4948 47.783 40.7834 47.3792 41.2128 47.2334C42.2388 46.8848 43.0741 46.6196 43.8416 46.3988C44.1525 46.3092 44.3321 45.9846 44.2427 45.6737C44.1532 45.3628 43.8288 45.183 43.5176 45.2725C42.732 45.4986 41.8798 45.769 40.8359 46.1238C39.931 46.4312 39.323 47.2809 39.323 48.238V49.6692C38.0984 50.0759 37 50.7544 37 52.2171V74.6238C37 76.1963 38.5841 77.3646 40.0969 76.8669C44.0823 75.5564 51.3313 72.48 54.9234 76.1816C55.9291 77.2181 58.0111 77.2811 59.048 76.2522C61.2879 74.0305 65.067 74.4187 67.872 75.0484C68.1877 75.1196 68.5012 74.9208 68.5721 74.605C68.643 74.2893 68.4445 73.9759 68.1287 73.905C64.9002 73.1801 60.7743 72.8891 58.2227 75.4203C57.6555 75.9831 56.3291 75.9475 55.7645 75.3656C51.7617 71.2405 44.2343 74.2715 39.7308 75.7539C38.9727 76.0028 38.1719 75.4213 38.1719 74.6238V52.2171C38.1719 51.4857 38.703 51.1138 39.323 50.9048V71.1822C39.323 72.6157 40.7677 73.6749 42.1449 73.2221C44.2342 72.5349 46.7002 71.8182 49.1494 71.7134C51.6375 71.6069 53.8449 72.1446 55.8978 73.3571C56.5716 73.755 57.4284 73.7549 58.1022 73.3571C60.1552 72.1445 62.363 71.6075 64.8506 71.7134C67.2998 71.8183 69.7659 72.5349 71.8551 73.2221C73.2323 73.6754 74.677 72.6156 74.677 71.1823V50.9049C75.2971 51.1137 75.8281 51.4859 75.8281 52.2171V74.6239C75.8281 75.4212 75.0273 76.0028 74.2693 75.7539C73.0111 75.3399 71.7574 74.911 70.4883 74.5313C70.1782 74.4389 69.8518 74.6146 69.759 74.9247C69.6662 75.2347 69.8423 75.5612 70.1523 75.654C71.4113 76.0307 72.655 76.4564 73.9031 76.8671C75.416 77.3643 77 76.1967 77 74.6239V52.2171C77 51.1637 76.3311 50.2288 75.3355 49.8905ZM72.7871 47.2333C73.2166 47.3792 73.5051 47.7829 73.5051 48.2379V68.6317C70.5726 67.6171 67.447 66.6185 64.2616 66.6185C62.0501 66.6185 59.8095 67.1 57.5859 68.392V47.3826C62.648 44.2002 67.6658 45.4935 72.7871 47.2333ZM73.1017 71.9724C72.8445 72.1586 72.5235 72.2084 72.2212 72.1089C67.7741 70.6463 62.6027 69.3378 57.5062 72.3481C57.194 72.5325 56.806 72.5325 56.4938 72.3481C51.3972 69.3378 46.2259 70.6462 41.7787 72.109C41.1556 72.3136 40.4949 71.8396 40.4949 71.1823V69.8725C43.3766 68.8742 45.9905 68.047 48.5675 67.8397C51.6451 67.5921 54.2192 68.2594 56.6686 69.9391C56.8742 70.0784 57.1421 70.0736 57.3391 69.9338C59.7862 68.2579 62.3581 67.5928 65.4325 67.8397C68.0095 68.047 70.6234 68.8742 73.5051 69.8725V71.1823C73.5051 71.4989 73.358 71.7868 73.1017 71.9724Z" fill="white"/>
<path d="M54.1235 48.3498C52.7437 47.7036 51.2956 47.3896 49.6963 47.3896C47.8315 47.3896 45.785 47.7953 42.8533 48.746C42.5455 48.8458 42.3768 49.1763 42.4766 49.4841C42.5697 49.771 42.9305 49.9532 43.2148 49.8607C46.023 48.95 47.9613 48.5614 49.6963 48.5614C51.1202 48.5614 52.4057 48.8393 53.6266 49.411C53.9197 49.5482 54.2684 49.422 54.4057 49.1289C54.5429 48.8359 54.4166 48.487 54.1235 48.3498Z" fill="white"/>
<path d="M54.1235 51.1835C52.7437 50.5374 51.2956 50.2234 49.6963 50.2234C47.8315 50.2234 45.785 50.629 42.8533 51.5798C42.5455 51.6796 42.3768 52.01 42.4766 52.3178C42.5697 52.6047 42.9305 52.7869 43.2148 52.6944C46.023 51.7838 47.9613 51.3952 49.6963 51.3952C51.1202 51.3952 52.4057 51.6731 53.6266 52.2447C53.9197 52.382 54.2684 52.2557 54.4057 51.9626C54.5429 51.6696 54.4166 51.3207 54.1235 51.1835Z" fill="white"/>
<path d="M54.4056 54.7964C54.5428 54.5033 54.4165 54.1544 54.1234 54.0172C52.7437 53.371 51.2955 53.0571 49.6962 53.0571C47.8314 53.0571 45.7849 53.4627 42.8532 54.4135C42.5454 54.5132 42.3767 54.8437 42.4766 55.1515C42.5696 55.4384 42.9305 55.6206 43.2147 55.5281C46.0229 54.6174 47.9612 54.2289 49.6962 54.2289C51.1201 54.2289 52.4056 54.5067 53.6265 55.0784C53.9197 55.2157 54.2684 55.0894 54.4056 54.7964Z" fill="white"/>
<path d="M60.3735 59.5571C61.5943 58.9855 62.8799 58.7076 64.3038 58.7076C66.0388 58.7076 67.9771 59.0962 70.7853 60.0068C71.0695 60.0992 71.4304 59.9171 71.5234 59.6303C71.6233 59.3224 71.4547 58.992 71.1468 58.8922C68.2151 57.9414 66.1686 57.5358 64.3038 57.5358C62.7045 57.5358 61.2563 57.8499 59.8766 58.496C59.5835 58.6332 59.4572 58.9821 59.5944 59.2751C59.7316 59.568 60.0804 59.6943 60.3735 59.5571Z" fill="white"/>
<path d="M60.3735 62.3908C61.5943 61.8192 62.8799 61.5413 64.3038 61.5413C66.0388 61.5413 67.9771 61.9299 70.7853 62.8405C71.0695 62.9329 71.4304 62.7508 71.5234 62.4639C71.6233 62.1561 71.4547 61.8256 71.1468 61.7259C68.2151 60.7751 66.1686 60.3695 64.3038 60.3695C62.7045 60.3695 61.2563 60.6835 59.8766 61.3296C59.5835 61.4668 59.4572 61.8157 59.5944 62.1088C59.7316 62.4017 60.0804 62.5281 60.3735 62.3908Z" fill="white"/>
<path d="M60.3735 65.2246C61.5943 64.6529 62.8799 64.375 64.3038 64.375C66.0388 64.375 67.9771 64.7636 70.7853 65.6742C71.0695 65.7667 71.4304 65.5846 71.5234 65.2977C71.6233 64.9899 71.4547 64.6594 71.1468 64.5596C68.2151 63.6089 66.1686 63.2032 64.3038 63.2032C62.7045 63.2032 61.2563 63.5173 59.8766 64.1634C59.5835 64.3006 59.4572 64.6495 59.5944 64.9425C59.7316 65.2354 60.0804 65.3617 60.3735 65.2246Z" fill="white"/>
<path d="M54.4273 40.8321L55.5738 41.4592L56.2007 42.6055C56.5372 43.2208 57.4618 43.2224 57.7993 42.6055L58.4263 41.4592L59.5726 40.8321C60.1934 40.4927 60.1934 39.573 59.5726 39.2335L58.4263 38.6066L57.7993 37.4602C57.4288 36.9064 56.5563 36.81 56.2007 37.4602L55.5738 38.6066L54.4274 39.2335C53.8066 39.573 53.8066 40.4927 54.4273 40.8321ZM56.203 39.5981C56.3562 39.5143 56.4815 39.3891 56.5652 39.2359L57 38.4409L57.4348 39.2359C57.5185 39.3891 57.6438 39.5142 57.797 39.5981L58.5919 40.0328L57.797 40.4676C57.6438 40.5514 57.5185 40.6766 57.4348 40.8297L57 41.6247L56.5652 40.8297C56.4815 40.6766 56.3563 40.5514 56.203 40.4676L55.408 40.0328L56.203 39.5981Z" fill="white"/>
<path d="M62.9729 52.8257L64.1192 53.4527L64.7463 54.5991C65.0858 55.2198 66.0053 55.2197 66.3448 54.599L66.9717 53.4527L68.1181 52.8257C68.7388 52.4861 68.7388 51.5666 68.118 51.2271L66.9717 50.6001L66.3448 49.4538C66.0084 48.8385 65.0836 48.8367 64.7462 49.4538L64.1192 50.6001L62.9728 51.2271C62.352 51.5667 62.3521 52.4862 62.9729 52.8257ZM64.7485 51.5917C64.9016 51.5079 65.027 51.3827 65.1107 51.2295L65.5455 50.4346L65.9802 51.2295C66.064 51.3827 66.1893 51.5078 66.3424 51.5917L67.1374 52.0264L66.3424 52.4612C66.1893 52.5449 66.064 52.6702 65.9802 52.8234L65.5455 53.6183L65.1107 52.8234C65.027 52.6702 64.9016 52.545 64.7485 52.4612L63.9535 52.0264L64.7485 51.5917Z" fill="white"/>
<path d="M49.8809 59.4943L49.2538 58.3479C48.9144 57.7271 47.9946 57.727 47.6552 58.3479L47.0283 59.4942L45.8819 60.1212C45.2611 60.4607 45.2611 61.3803 45.8819 61.7198L47.0283 62.3468L47.6552 63.4932C47.9917 64.1085 48.9163 64.1101 49.2538 63.4932L49.8809 62.3467L51.0271 61.7198C51.648 61.3803 51.648 60.4607 51.0271 60.1212L49.8809 59.4943ZM49.2514 61.3553C49.0983 61.439 48.973 61.5643 48.8893 61.7175L48.4545 62.5125L48.0198 61.7175C47.936 61.5643 47.8107 61.4392 47.6576 61.3553L46.8626 60.9206L47.6576 60.4858C47.8107 60.4021 47.936 60.2768 48.0198 60.1236L48.4545 59.3287L48.8893 60.1236C48.9731 60.2768 49.0984 60.4021 49.2515 60.4858L50.0465 60.9206L49.2514 61.3553Z" fill="white"/>
</g>
<g filter="url(#filter0_dd_57_137)">
<rect x="79" y="3" width="32" height="32" rx="16" fill="#FAFAFA" shape-rendering="crispEdges"/>
<path d="M90.1 11.7C90.1466 11.6379 90.207 11.5875 90.2764 11.5528C90.3458 11.5181 90.4224 11.5 90.5 11.5H99.5C99.5776 11.5 99.6542 11.5181 99.7236 11.5528C99.793 11.5875 99.8534 11.6379 99.9 11.7L102.876 15.674C103.025 15.859 103.032 16.124 102.886 16.318L95.4 26.3C95.3534 26.3621 95.293 26.4125 95.2236 26.4472C95.1542 26.4819 95.0776 26.5 95 26.5C94.9224 26.5 94.8458 26.4819 94.7764 26.4472C94.707 26.4125 94.6466 26.3621 94.6 26.3L87.1 16.3C87.0351 16.2135 87 16.1082 87 16C87 15.8918 87.0351 15.7865 87.1 15.7L90.1 11.7ZM101.486 15.485L99.68 13.075L98.904 15.488L101.486 15.485ZM97.853 15.489L98.814 12.5H91.186L92.149 15.495L97.853 15.489ZM92.47 16.495L95 24.366L97.532 16.49L92.47 16.495ZM91.099 15.496L90.319 13.074L88.501 15.499L91.099 15.496ZM88.499 16.5L93.612 23.317L91.42 16.497L88.5 16.5H88.499ZM96.388 23.317L101.511 16.487L98.583 16.489L96.388 23.317Z" fill="#9C9A96"/>
</g>
<defs>
<filter id="filter0_dd_57_137" x="76" y="1" width="38" height="38" filterUnits="userSpaceOnUse" color-interpolation-filters="sRGB">
<feFlood flood-opacity="0" result="BackgroundImageFix"/>
<feColorMatrix in="SourceAlpha" type="matrix" values="0 0 0 0 0 0 0 0 0 0 0 0 0 0 0 0 0 0 127 0" result="hardAlpha"/>
<feOffset dy="1"/>
<feGaussianBlur stdDeviation="1.5"/>
<feComposite in2="hardAlpha" operator="out"/>
<feColorMatrix type="matrix" values="0 0 0 0 0 0 0 0 0 0 0 0 0 0 0 0 0 0 0.1 0"/>
<feBlend mode="normal" in2="BackgroundImageFix" result="effect1_dropShadow_57_137"/>
<feColorMatrix in="SourceAlpha" type="matrix" values="0 0 0 0 0 0 0 0 0 0 0 0 0 0 0 0 0 0 127 0" result="hardAlpha"/>
<feMorphology radius="1" operator="erode" in="SourceAlpha" result="effect2_dropShadow_57_137"/>
<feOffset dy="1"/>
<feGaussianBlur stdDeviation="1"/>
<feComposite in2="hardAlpha" operator="out"/>
<feColorMatrix type="matrix" values="0 0 0 0 0 0 0 0 0 0 0 0 0 0 0 0 0 0 0.1 0"/>
<feBlend mode="normal" in2="effect1_dropShadow_57_137" result="effect2_dropShadow_57_137"/>
<feBlend mode="normal" in="SourceGraphic" in2="effect2_dropShadow_57_137" result="shape"/>
</filter>
<linearGradient id="paint0_linear_57_137" x1="6.99992" y1="7" x2="117.613" y2="93.4153" gradientUnits="userSpaceOnUse">
<stop stop-color="#A193F2"/>
<stop offset="1" stop-color="#C44EB9"/>
</linearGradient>
<linearGradient id="paint1_linear_57_137" x1="21" y1="21" x2="100.641" y2="83.2189" gradientUnits="userSpaceOnUse">
<stop stop-color="#A193F2"/>
<stop offset="1" stop-color="#C44EB9"/>
</linearGradient>
<clipPath id="clip0_57_137">
<rect width="40" height="40" fill="white" transform="translate(37 37)"/>
</clipPath>
</defs>
</svg>
